<?xml version="1.0" encoding="utf-8" standalone="no"?>
<!DOCTYPE svg PUBLIC "-//W3C//DTD SVG 1.1//EN"
  "http://www.w3.org/Graphics/SVG/1.1/DTD/svg11.dtd">
<svg xmlns:xlink="http://www.w3.org/1999/xlink" width="576pt" height="432pt" viewBox="0 0 576 432" xmlns="http://www.w3.org/2000/svg" version="1.1">
 <metadata>
  <rdf:RDF xmlns:dc="http://purl.org/dc/elements/1.1/" xmlns:cc="http://creativecommons.org/ns#" xmlns:rdf="http://www.w3.org/1999/02/22-rdf-syntax-ns#">
   <cc:Work>
    <dc:type rdf:resource="http://purl.org/dc/dcmitype/StillImage"/>
    <dc:date>2023-08-14T11:36:12.772501</dc:date>
    <dc:format>image/svg+xml</dc:format>
    <dc:creator>
     <cc:Agent>
      <dc:title>Matplotlib v3.5.1, https://matplotlib.org/</dc:title>
     </cc:Agent>
    </dc:creator>
   </cc:Work>
  </rdf:RDF>
 </metadata>
 <defs>
  <style type="text/css">*{stroke-linejoin: round; stroke-linecap: butt}</style>
 </defs>
 <g id="figure_1">
  <g id="patch_1">
   <path d="M 0 432 
L 576 432 
L 576 0 
L 0 0 
z
" style="fill: #ffffff"/>
  </g>
  <g id="axes_1">
   <g id="patch_2">
    <path d="M 72 378 
L 518.4 378 
L 518.4 51.84 
L 72 51.84 
z
" style="fill: #ffffff"/>
   </g>
   <g id="matplotlib.axis_1">
    <g id="xtick_1">
     <g id="line2d_1">
      <path d="M 92.290909 378 
L 92.290909 51.84 
" clip-path="url(#p3d54b9c448)" style="fill: none; stroke-dasharray: 3.33,1.44; stroke-dashoffset: 0; stroke: #d3d3d3; stroke-opacity: 0.53; stroke-width: 0.9"/>
     </g>
     <g id="text_1">
      <!-- $\mathdefault{125}$ -->
      <g style="fill: #262626" transform="translate(84.654832 398.96173)rotate(-30)scale(0.15 -0.15)">
       <defs>
        <path id="CMR17-31" d="M 1702 4083 
C 1702 4217 1696 4224 1606 4224 
C 1357 3927 979 3833 621 3820 
C 602 3820 570 3820 563 3808 
C 557 3795 557 3782 557 3648 
C 755 3648 1088 3686 1344 3839 
L 1344 467 
C 1344 243 1331 166 781 166 
L 589 166 
L 589 0 
C 896 6 1216 12 1523 12 
C 1830 12 2150 6 2458 0 
L 2458 166 
L 2266 166 
C 1715 166 1702 236 1702 467 
L 1702 4083 
z
" transform="scale(0.015625)"/>
        <path id="CMR17-32" d="M 2669 990 
L 2554 990 
C 2490 537 2438 460 2413 422 
C 2381 371 1920 371 1830 371 
L 602 371 
C 832 620 1280 1073 1824 1596 
C 2214 1966 2669 2400 2669 3033 
C 2669 3788 2067 4224 1395 4224 
C 691 4224 262 3603 262 3027 
C 262 2777 448 2745 525 2745 
C 589 2745 781 2783 781 3007 
C 781 3206 614 3264 525 3264 
C 486 3264 448 3257 422 3244 
C 544 3788 915 4057 1306 4057 
C 1862 4057 2227 3616 2227 3033 
C 2227 2477 1901 1998 1536 1583 
L 262 147 
L 262 0 
L 2515 0 
L 2669 990 
z
" transform="scale(0.015625)"/>
        <path id="CMR17-35" d="M 730 3750 
C 794 3724 1056 3641 1325 3641 
C 1920 3641 2246 3961 2432 4140 
C 2432 4191 2432 4224 2394 4224 
C 2387 4224 2374 4224 2323 4198 
C 2099 4102 1837 4032 1517 4032 
C 1325 4032 1037 4055 723 4191 
C 653 4224 640 4224 634 4224 
C 602 4224 595 4217 595 4090 
L 595 2231 
C 595 2113 595 2080 659 2080 
C 691 2080 704 2093 736 2139 
C 941 2435 1222 2560 1542 2560 
C 1766 2560 2246 2415 2246 1293 
C 2246 1087 2246 716 2054 422 
C 1894 159 1645 25 1370 25 
C 947 25 518 319 403 812 
C 429 806 480 793 506 793 
C 589 793 749 838 749 1036 
C 749 1209 627 1280 506 1280 
C 358 1280 262 1190 262 1011 
C 262 454 704 -128 1382 -128 
C 2042 -128 2669 441 2669 1267 
C 2669 2054 2170 2662 1549 2662 
C 1222 2662 947 2540 730 2304 
L 730 3750 
z
" transform="scale(0.015625)"/>
       </defs>
       <use xlink:href="#CMR17-31" transform="scale(0.996264)"/>
       <use xlink:href="#CMR17-32" transform="translate(45.690477 0)scale(0.996264)"/>
       <use xlink:href="#CMR17-35" transform="translate(91.380954 0)scale(0.996264)"/>
      </g>
     </g>
    </g>
    <g id="xtick_2">
     <g id="line2d_2">
      <path d="M 150.264935 378 
L 150.264935 51.84 
" clip-path="url(#p3d54b9c448)" style="fill: none; stroke-dasharray: 3.33,1.44; stroke-dashoffset: 0; stroke: #d3d3d3; stroke-opacity: 0.53; stroke-width: 0.9"/>
     </g>
     <g id="text_2">
      <!-- $\mathdefault{250}$ -->
      <g style="fill: #262626" transform="translate(142.628858 398.96173)rotate(-30)scale(0.15 -0.15)">
       <defs>
        <path id="CMR17-30" d="M 2688 2038 
C 2688 2430 2682 3099 2413 3613 
C 2176 4063 1798 4224 1466 4224 
C 1158 4224 768 4082 525 3620 
C 269 3137 243 2539 243 2038 
C 243 1671 250 1112 448 623 
C 723 -39 1216 -128 1466 -128 
C 1760 -128 2208 -7 2470 604 
C 2662 1048 2688 1568 2688 2038 
z
M 1466 -26 
C 1056 -26 813 328 723 816 
C 653 1196 653 1749 653 2109 
C 653 2604 653 3015 736 3407 
C 858 3954 1216 4121 1466 4121 
C 1728 4121 2067 3947 2189 3420 
C 2272 3054 2278 2623 2278 2109 
C 2278 1691 2278 1176 2202 797 
C 2067 96 1690 -26 1466 -26 
z
" transform="scale(0.015625)"/>
       </defs>
       <use xlink:href="#CMR17-32" transform="scale(0.996264)"/>
       <use xlink:href="#CMR17-35" transform="translate(45.690477 0)scale(0.996264)"/>
       <use xlink:href="#CMR17-30" transform="translate(91.380954 0)scale(0.996264)"/>
      </g>
     </g>
    </g>
    <g id="xtick_3">
     <g id="line2d_3">
      <path d="M 266.212987 378 
L 266.212987 51.84 
" clip-path="url(#p3d54b9c448)" style="fill: none; stroke-dasharray: 3.33,1.44; stroke-dashoffset: 0; stroke: #d3d3d3; stroke-opacity: 0.53; stroke-width: 0.9"/>
     </g>
     <g id="text_3">
      <!-- $\mathdefault{500}$ -->
      <g style="fill: #262626" transform="translate(258.57691 398.96173)rotate(-30)scale(0.15 -0.15)">
       <use xlink:href="#CMR17-35" transform="scale(0.996264)"/>
       <use xlink:href="#CMR17-30" transform="translate(45.690477 0)scale(0.996264)"/>
       <use xlink:href="#CMR17-30" transform="translate(91.380954 0)scale(0.996264)"/>
      </g>
     </g>
    </g>
    <g id="xtick_4">
     <g id="line2d_4">
      <path d="M 382.161039 378 
L 382.161039 51.84 
" clip-path="url(#p3d54b9c448)" style="fill: none; stroke-dasharray: 3.33,1.44; stroke-dashoffset: 0; stroke: #d3d3d3; stroke-opacity: 0.53; stroke-width: 0.9"/>
     </g>
     <g id="text_4">
      <!-- $\mathdefault{750}$ -->
      <g style="fill: #262626" transform="translate(374.524962 398.96173)rotate(-30)scale(0.15 -0.15)">
       <defs>
        <path id="CMR17-37" d="M 2886 3955 
L 2886 4096 
L 1382 4096 
C 634 4096 621 4166 595 4288 
L 480 4288 
L 294 3104 
L 410 3104 
C 429 3226 474 3552 550 3673 
C 589 3724 1062 3724 1171 3724 
L 2579 3724 
L 1869 2670 
C 1395 1961 1069 1003 1069 166 
C 1069 89 1069 -128 1299 -128 
C 1530 -128 1530 89 1530 172 
L 1530 466 
C 1530 1514 1709 2204 2003 2644 
L 2886 3955 
z
" transform="scale(0.015625)"/>
       </defs>
       <use xlink:href="#CMR17-37" transform="scale(0.996264)"/>
       <use xlink:href="#CMR17-35" transform="translate(45.690477 0)scale(0.996264)"/>
       <use xlink:href="#CMR17-30" transform="translate(91.380954 0)scale(0.996264)"/>
      </g>
     </g>
    </g>
    <g id="xtick_5">
     <g id="line2d_5">
      <path d="M 498.109091 378 
L 498.109091 51.84 
" clip-path="url(#p3d54b9c448)" style="fill: none; stroke-dasharray: 3.33,1.44; stroke-dashoffset: 0; stroke: #d3d3d3; stroke-opacity: 0.53; stroke-width: 0.9"/>
     </g>
     <g id="text_5">
      <!-- $\mathdefault{1000}$ -->
      <g style="fill: #262626" transform="translate(487.30499 402.619849)rotate(-30)scale(0.15 -0.15)">
       <use xlink:href="#CMR17-31" transform="scale(0.996264)"/>
       <use xlink:href="#CMR17-30" transform="translate(45.690477 0)scale(0.996264)"/>
       <use xlink:href="#CMR17-30" transform="translate(91.380954 0)scale(0.996264)"/>
       <use xlink:href="#CMR17-30" transform="translate(137.071431 0)scale(0.996264)"/>
      </g>
     </g>
    </g>
    <g id="text_6">
     <!-- \textbf{Window Size} -->
     <g style="fill: #262626" transform="translate(237.86812 421.589598)scale(0.18 -0.18)">
      <defs>
       <path id="CMBX12-57" d="M 6694 3985 
C 6739 4101 6752 4140 7290 4140 
L 7290 4416 
C 6970 4403 6957 4403 6592 4403 
C 6406 4403 5939 4403 5786 4416 
L 5786 4140 
C 5862 4140 6426 4140 6426 4050 
C 6426 4043 6426 4030 6400 3972 
L 5325 1095 
L 4179 4140 
L 4787 4140 
L 4787 4416 
C 4582 4403 3987 4403 3744 4403 
C 3546 4403 2925 4403 2771 4416 
L 2771 4140 
L 3309 4140 
L 3571 3443 
L 2694 1095 
L 1555 4140 
L 2157 4140 
L 2157 4416 
C 1971 4403 1344 4403 1114 4403 
C 909 4403 301 4403 141 4416 
L 141 4140 
L 678 4140 
L 2202 89 
C 2240 -20 2259 -64 2400 -64 
C 2541 -64 2560 -20 2598 83 
L 3712 3056 
L 4832 83 
C 4870 -20 4890 -64 5030 -64 
C 5152 -64 5184 -39 5229 83 
L 6694 3985 
z
" transform="scale(0.015625)"/>
       <path id="CMBX12-69" d="M 1427 4019 
C 1427 4281 1216 4480 966 4480 
C 704 4480 506 4262 506 4019 
C 506 3775 704 3558 966 3558 
C 1216 3558 1427 3756 1427 4019 
z
M 301 2828 
L 301 2553 
C 678 2553 723 2553 723 2303 
L 723 275 
L 282 275 
L 282 0 
C 429 12 870 12 1043 12 
C 1222 12 1632 12 1786 0 
L 1786 275 
L 1389 275 
L 1389 2880 
L 301 2828 
z
" transform="scale(0.015625)"/>
       <path id="CMBX12-6e" d="M 3398 1958 
C 3398 2566 3136 2880 2432 2880 
C 1971 2880 1574 2656 1357 2176 
L 1350 2176 
L 1350 2880 
L 269 2828 
L 269 2553 
C 666 2553 710 2553 710 2304 
L 710 275 
L 269 275 
L 269 0 
C 416 12 877 12 1056 12 
C 1235 12 1702 12 1850 0 
L 1850 275 
L 1408 275 
L 1408 1638 
C 1408 2329 1920 2668 2330 2668 
C 2566 2668 2701 2515 2701 2028 
L 2701 275 
L 2259 275 
L 2259 0 
C 2406 12 2867 12 3046 12 
C 3226 12 3693 12 3840 0 
L 3840 275 
L 3398 275 
L 3398 1958 
z
" transform="scale(0.015625)"/>
       <path id="CMBX12-64" d="M 2221 4428 
L 2221 4153 
C 2618 4153 2662 4153 2662 3896 
L 2662 2571 
C 2522 2694 2240 2880 1798 2880 
C 890 2880 243 2313 243 1408 
C 243 483 877 -64 1728 -64 
C 2080 -64 2381 57 2630 270 
L 2630 -64 
L 3770 -26 
L 3770 250 
C 3373 250 3328 250 3328 502 
L 3328 4480 
L 2221 4428 
z
M 2630 625 
C 2362 231 2035 147 1805 147 
C 1011 147 1011 968 1011 1395 
C 1011 1699 1011 2022 1152 2268 
C 1350 2630 1728 2668 1875 2668 
C 2138 2668 2419 2552 2630 2268 
L 2630 625 
z
" transform="scale(0.015625)"/>
       <path id="CMBX12-6f" d="M 3392 1379 
C 3392 2245 2803 2880 1798 2880 
C 755 2880 198 2213 198 1379 
C 198 538 787 -64 1792 -64 
C 2835 -64 3392 570 3392 1379 
z
M 1798 166 
C 966 166 966 917 966 1443 
C 966 1744 966 2065 1088 2296 
C 1229 2553 1517 2668 1792 2668 
C 2157 2668 2387 2495 2496 2315 
C 2624 2084 2624 1751 2624 1443 
C 2624 910 2624 166 1798 166 
z
" transform="scale(0.015625)"/>
       <path id="CMBX12-77" d="M 4608 2386 
C 4653 2496 4672 2540 5043 2540 
L 5043 2816 
C 4858 2803 4774 2803 4544 2803 
C 4282 2803 4198 2803 3968 2816 
L 3968 2540 
C 4026 2540 4339 2540 4339 2457 
C 4339 2451 4339 2444 4314 2380 
L 3642 712 
L 2906 2540 
L 3270 2540 
L 3270 2816 
C 3117 2803 2739 2803 2566 2803 
C 2240 2803 2227 2803 1907 2816 
L 1907 2540 
L 2285 2540 
C 2304 2489 2336 2406 2362 2348 
C 2381 2309 2445 2155 2445 2123 
C 2445 2111 2426 2066 2419 2046 
L 1933 834 
L 1242 2540 
L 1606 2540 
L 1606 2816 
C 1459 2803 1024 2803 851 2803 
C 646 2803 339 2803 147 2816 
L 147 2540 
L 525 2540 
L 1504 96 
C 1549 -20 1574 -64 1715 -64 
C 1786 -64 1862 -64 1914 64 
L 2592 1764 
L 3270 76 
C 3328 -64 3398 -64 3475 -64 
C 3616 -64 3635 -26 3680 89 
L 4608 2386 
z
" transform="scale(0.015625)"/>
       <path id="CMBX12-53" d="M 1626 2828 
C 992 2969 973 3430 973 3520 
C 973 3846 1184 4223 1805 4223 
C 2426 4223 2982 3923 3117 3084 
C 3136 2950 3136 2944 3258 2944 
C 3392 2944 3392 2963 3392 3110 
L 3392 4313 
C 3392 4435 3392 4480 3296 4480 
C 3251 4480 3232 4473 3174 4409 
L 2899 4096 
C 2739 4230 2419 4480 1798 4480 
C 883 4480 397 3904 397 3206 
C 397 2777 627 2476 717 2387 
C 1050 2054 1229 2016 1894 1868 
C 2534 1728 2611 1715 2752 1580 
C 2835 1497 3021 1318 3021 992 
C 3021 716 2886 211 2170 211 
C 1606 211 717 403 666 1337 
C 659 1452 659 1472 531 1472 
C 397 1472 397 1452 397 1305 
L 397 102 
C 397 -20 397 -64 493 -64 
C 538 -64 544 -58 608 0 
C 678 70 736 153 896 313 
C 1267 19 1792 -64 2176 -64 
C 3174 -64 3597 614 3597 1292 
C 3597 1894 3200 2470 2502 2630 
L 1626 2828 
z
" transform="scale(0.015625)"/>
       <path id="CMBX12-7a" d="M 2816 2573 
C 2874 2643 2874 2655 2874 2694 
C 2874 2816 2810 2816 2688 2816 
L 371 2816 
L 301 1724 
L 570 1724 
C 608 2326 749 2604 1459 2604 
L 2035 2604 
L 256 255 
C 198 185 198 172 198 128 
C 198 0 256 0 384 0 
L 2784 0 
L 2893 1256 
L 2624 1256 
C 2573 585 2432 230 1626 230 
L 1043 230 
L 2816 2573 
z
" transform="scale(0.015625)"/>
       <path id="CMBX12-65" d="M 2893 1408 
C 3040 1408 3078 1408 3078 1568 
C 3078 1758 3034 2232 2739 2529 
C 2470 2796 2112 2880 1741 2880 
C 742 2880 198 2232 198 1433 
C 198 523 858 -64 1824 -64 
C 2790 -64 3078 621 3078 731 
C 3078 829 2982 829 2944 829 
C 2842 829 2835 809 2797 725 
C 2630 302 2208 166 1901 166 
C 973 166 966 1043 966 1408 
L 2893 1408 
z
M 966 1593 
C 979 1852 986 2099 1120 2327 
C 1242 2529 1466 2668 1741 2668 
C 2426 2668 2483 1909 2490 1593 
L 966 1593 
z
" transform="scale(0.015625)"/>
      </defs>
      <use xlink:href="#CMBX12-57" transform="scale(0.996264)"/>
      <use xlink:href="#CMBX12-69" transform="translate(115.769645 0)scale(0.996264)"/>
      <use xlink:href="#CMBX12-6e" transform="translate(146.902895 0)scale(0.996264)"/>
      <use xlink:href="#CMBX12-64" transform="translate(209.169396 0)scale(0.996264)"/>
      <use xlink:href="#CMBX12-6f" transform="translate(271.435897 0)scale(0.996264)"/>
      <use xlink:href="#CMBX12-77" transform="translate(324.362422 0)scale(0.996264)"/>
      <use xlink:href="#CMBX12-53" transform="translate(442.668773 0)scale(0.996264)"/>
      <use xlink:href="#CMBX12-69" transform="translate(504.935274 0)scale(0.996264)"/>
      <use xlink:href="#CMBX12-7a" transform="translate(536.068524 0)scale(0.996264)"/>
      <use xlink:href="#CMBX12-65" transform="translate(585.881725 0)scale(0.996264)"/>
     </g>
    </g>
   </g>
   <g id="matplotlib.axis_2">
    <g id="ytick_1">
     <g id="line2d_6">
      <path d="M 72 360.792216 
L 518.4 360.792216 
" clip-path="url(#p3d54b9c448)" style="fill: none; stroke-dasharray: 3.33,1.44; stroke-dashoffset: 0; stroke: #d3d3d3; stroke-opacity: 0.53; stroke-width: 0.9"/>
     </g>
     <g id="text_7">
      <!-- $\mathdefault{0.04}$ -->
      <g style="fill: #262626" transform="translate(42.98671 365.981079)scale(0.15 -0.15)">
       <defs>
        <path id="CMMI12-3a" d="M 1178 307 
C 1178 492 1024 620 870 620 
C 685 620 557 467 557 313 
C 557 128 710 0 864 0 
C 1050 0 1178 153 1178 307 
z
" transform="scale(0.015625)"/>
        <path id="CMR17-34" d="M 2150 4147 
C 2150 4281 2144 4288 2029 4288 
L 128 1254 
L 128 1088 
L 1779 1088 
L 1779 460 
C 1779 230 1766 166 1318 166 
L 1197 166 
L 1197 0 
C 1402 12 1747 12 1965 12 
C 2182 12 2528 12 2733 0 
L 2733 166 
L 2611 166 
C 2163 166 2150 230 2150 460 
L 2150 1088 
L 2803 1088 
L 2803 1254 
L 2150 1254 
L 2150 4147 
z
M 1798 3723 
L 1798 1254 
L 256 1254 
L 1798 3723 
z
" transform="scale(0.015625)"/>
       </defs>
       <use xlink:href="#CMR17-30" transform="scale(0.996264)"/>
       <use xlink:href="#CMMI12-3a" transform="translate(45.690477 0)scale(0.996264)"/>
       <use xlink:href="#CMR17-30" transform="translate(72.787654 0)scale(0.996264)"/>
       <use xlink:href="#CMR17-34" transform="translate(118.478131 0)scale(0.996264)"/>
      </g>
     </g>
    </g>
    <g id="ytick_2">
     <g id="line2d_7">
      <path d="M 72 309.583701 
L 518.4 309.583701 
" clip-path="url(#p3d54b9c448)" style="fill: none; stroke-dasharray: 3.33,1.44; stroke-dashoffset: 0; stroke: #d3d3d3; stroke-opacity: 0.53; stroke-width: 0.9"/>
     </g>
     <g id="text_8">
      <!-- $\mathdefault{0.06}$ -->
      <g style="fill: #262626" transform="translate(42.98671 314.772564)scale(0.15 -0.15)">
       <defs>
        <path id="CMR17-36" d="M 678 2198 
C 678 3712 1395 4076 1811 4076 
C 1946 4076 2272 4049 2400 3782 
C 2298 3782 2106 3782 2106 3558 
C 2106 3385 2246 3328 2336 3328 
C 2394 3328 2566 3353 2566 3571 
C 2566 3987 2246 4224 1805 4224 
C 1043 4224 243 3411 243 2011 
C 243 257 966 -128 1478 -128 
C 2099 -128 2688 431 2688 1295 
C 2688 2101 2170 2688 1517 2688 
C 1126 2688 838 2430 678 1979 
L 678 2198 
z
M 1478 25 
C 691 25 691 1212 691 1450 
C 691 1914 909 2585 1504 2585 
C 1613 2585 1926 2585 2138 2140 
C 2253 1889 2253 1624 2253 1302 
C 2253 954 2253 696 2118 438 
C 1978 173 1773 25 1478 25 
z
" transform="scale(0.015625)"/>
       </defs>
       <use xlink:href="#CMR17-30" transform="scale(0.996264)"/>
       <use xlink:href="#CMMI12-3a" transform="translate(45.690477 0)scale(0.996264)"/>
       <use xlink:href="#CMR17-30" transform="translate(72.787654 0)scale(0.996264)"/>
       <use xlink:href="#CMR17-36" transform="translate(118.478131 0)scale(0.996264)"/>
      </g>
     </g>
    </g>
    <g id="ytick_3">
     <g id="line2d_8">
      <path d="M 72 258.375187 
L 518.4 258.375187 
" clip-path="url(#p3d54b9c448)" style="fill: none; stroke-dasharray: 3.33,1.44; stroke-dashoffset: 0; stroke: #d3d3d3; stroke-opacity: 0.53; stroke-width: 0.9"/>
     </g>
     <g id="text_9">
      <!-- $\mathdefault{0.08}$ -->
      <g style="fill: #262626" transform="translate(42.98671 263.564049)scale(0.15 -0.15)">
       <defs>
        <path id="CMR17-38" d="M 1741 2289 
C 2144 2494 2554 2803 2554 3298 
C 2554 3884 1990 4224 1472 4224 
C 890 4224 378 3800 378 3215 
C 378 3054 416 2777 666 2533 
C 730 2469 998 2276 1171 2154 
C 883 2006 211 1652 211 945 
C 211 282 838 -128 1459 -128 
C 2144 -128 2720 366 2720 1022 
C 2720 1607 2330 1877 2074 2051 
L 1741 2289 
z
M 902 2855 
C 851 2887 595 3086 595 3388 
C 595 3781 998 4076 1459 4076 
C 1965 4076 2336 3716 2336 3298 
C 2336 2700 1670 2359 1638 2359 
C 1632 2359 1626 2359 1574 2398 
L 902 2855 
z
M 2080 1536 
C 2176 1466 2483 1253 2483 861 
C 2483 385 2010 25 1472 25 
C 890 25 448 443 448 951 
C 448 1459 838 1884 1280 2083 
L 2080 1536 
z
" transform="scale(0.015625)"/>
       </defs>
       <use xlink:href="#CMR17-30" transform="scale(0.996264)"/>
       <use xlink:href="#CMMI12-3a" transform="translate(45.690477 0)scale(0.996264)"/>
       <use xlink:href="#CMR17-30" transform="translate(72.787654 0)scale(0.996264)"/>
       <use xlink:href="#CMR17-38" transform="translate(118.478131 0)scale(0.996264)"/>
      </g>
     </g>
    </g>
    <g id="ytick_4">
     <g id="line2d_9">
      <path d="M 72 207.166672 
L 518.4 207.166672 
" clip-path="url(#p3d54b9c448)" style="fill: none; stroke-dasharray: 3.33,1.44; stroke-dashoffset: 0; stroke: #d3d3d3; stroke-opacity: 0.53; stroke-width: 0.9"/>
     </g>
     <g id="text_10">
      <!-- $\mathdefault{0.10}$ -->
      <g style="fill: #262626" transform="translate(42.98671 212.355534)scale(0.15 -0.15)">
       <use xlink:href="#CMR17-30" transform="scale(0.996264)"/>
       <use xlink:href="#CMMI12-3a" transform="translate(45.690477 0)scale(0.996264)"/>
       <use xlink:href="#CMR17-31" transform="translate(72.787654 0)scale(0.996264)"/>
       <use xlink:href="#CMR17-30" transform="translate(118.478131 0)scale(0.996264)"/>
      </g>
     </g>
    </g>
    <g id="ytick_5">
     <g id="line2d_10">
      <path d="M 72 155.958157 
L 518.4 155.958157 
" clip-path="url(#p3d54b9c448)" style="fill: none; stroke-dasharray: 3.33,1.44; stroke-dashoffset: 0; stroke: #d3d3d3; stroke-opacity: 0.53; stroke-width: 0.9"/>
     </g>
     <g id="text_11">
      <!-- $\mathdefault{0.12}$ -->
      <g style="fill: #262626" transform="translate(42.98671 161.147019)scale(0.15 -0.15)">
       <use xlink:href="#CMR17-30" transform="scale(0.996264)"/>
       <use xlink:href="#CMMI12-3a" transform="translate(45.690477 0)scale(0.996264)"/>
       <use xlink:href="#CMR17-31" transform="translate(72.787654 0)scale(0.996264)"/>
       <use xlink:href="#CMR17-32" transform="translate(118.478131 0)scale(0.996264)"/>
      </g>
     </g>
    </g>
    <g id="ytick_6">
     <g id="line2d_11">
      <path d="M 72 104.749642 
L 518.4 104.749642 
" clip-path="url(#p3d54b9c448)" style="fill: none; stroke-dasharray: 3.33,1.44; stroke-dashoffset: 0; stroke: #d3d3d3; stroke-opacity: 0.53; stroke-width: 0.9"/>
     </g>
     <g id="text_12">
      <!-- $\mathdefault{0.14}$ -->
      <g style="fill: #262626" transform="translate(42.98671 109.938504)scale(0.15 -0.15)">
       <use xlink:href="#CMR17-30" transform="scale(0.996264)"/>
       <use xlink:href="#CMMI12-3a" transform="translate(45.690477 0)scale(0.996264)"/>
       <use xlink:href="#CMR17-31" transform="translate(72.787654 0)scale(0.996264)"/>
       <use xlink:href="#CMR17-34" transform="translate(118.478131 0)scale(0.996264)"/>
      </g>
     </g>
    </g>
    <g id="ytick_7">
     <g id="line2d_12">
      <path d="M 72 53.541127 
L 518.4 53.541127 
" clip-path="url(#p3d54b9c448)" style="fill: none; stroke-dasharray: 3.33,1.44; stroke-dashoffset: 0; stroke: #d3d3d3; stroke-opacity: 0.53; stroke-width: 0.9"/>
     </g>
     <g id="text_13">
      <!-- $\mathdefault{0.16}$ -->
      <g style="fill: #262626" transform="translate(42.98671 58.729989)scale(0.15 -0.15)">
       <use xlink:href="#CMR17-30" transform="scale(0.996264)"/>
       <use xlink:href="#CMMI12-3a" transform="translate(45.690477 0)scale(0.996264)"/>
       <use xlink:href="#CMR17-31" transform="translate(72.787654 0)scale(0.996264)"/>
       <use xlink:href="#CMR17-36" transform="translate(118.478131 0)scale(0.996264)"/>
      </g>
     </g>
    </g>
    <g id="text_14">
     <!-- \textbf{Avg. EER} -->
     <g style="fill: #262626" transform="translate(35.498646 260.955717)rotate(-90)scale(0.18 -0.18)">
      <defs>
       <path id="CMBX12-41" d="M 2931 4333 
C 2886 4448 2874 4480 2720 4480 
C 2560 4480 2547 4448 2502 4333 
L 915 429 
C 870 326 870 313 691 294 
C 531 275 506 275 365 275 
L 250 275 
L 250 0 
C 416 12 800 12 986 12 
C 1158 12 1626 12 1773 0 
L 1773 275 
C 1632 275 1389 275 1210 346 
C 1229 404 1229 416 1242 442 
L 1581 1280 
L 3296 1280 
L 3699 275 
L 3098 275 
L 3098 0 
C 3302 12 3923 12 4166 12 
C 4371 12 5024 12 5184 0 
L 5184 275 
L 4576 275 
L 2931 4333 
z
M 2438 3394 
L 3181 1555 
L 1690 1555 
L 2438 3394 
z
" transform="scale(0.015625)"/>
       <path id="CMBX12-76" d="M 3168 2393 
C 3213 2489 3238 2540 3642 2540 
L 3642 2816 
C 3411 2803 3398 2803 3136 2803 
C 2963 2803 2950 2803 2586 2816 
L 2586 2540 
C 2758 2540 2899 2508 2899 2463 
C 2899 2457 2899 2451 2867 2386 
L 2118 737 
L 1293 2540 
L 1645 2540 
L 1645 2816 
C 1498 2803 1050 2803 877 2803 
C 691 2803 320 2803 154 2816 
L 154 2540 
L 557 2540 
L 1683 89 
C 1741 -32 1754 -64 1901 -64 
C 2003 -64 2054 -52 2112 76 
L 3168 2393 
z
" transform="scale(0.015625)"/>
       <path id="CMBX12-67" d="M 832 1177 
C 1139 1011 1498 1011 1594 1011 
C 2477 1011 2829 1506 2829 1958 
C 2829 2287 2643 2519 2566 2584 
C 2752 2687 2906 2713 3014 2726 
C 2995 2694 2976 2668 2976 2584 
C 2976 2448 3066 2326 3232 2326 
C 3398 2326 3488 2448 3488 2584 
C 3488 2739 3373 2944 3104 2944 
C 2829 2944 2566 2809 2432 2694 
C 2170 2847 1920 2905 1594 2905 
C 710 2905 358 2410 358 1958 
C 358 1758 422 1493 691 1274 
C 582 1151 467 926 467 693 
C 467 416 614 179 749 76 
C 595 38 198 -109 198 -474 
C 198 -852 614 -1280 1792 -1280 
C 2854 -1280 3392 -935 3392 -455 
C 3392 108 3021 294 2861 371 
C 2554 524 2144 524 1581 524 
C 1421 524 1139 524 1107 531 
C 832 576 755 823 755 946 
C 755 998 762 1094 832 1177 
z
M 1594 1216 
C 1037 1216 1037 1661 1037 1958 
C 1037 2255 1037 2700 1594 2700 
C 2150 2700 2150 2255 2150 1958 
C 2150 1661 2150 1216 1594 1216 
z
M 1952 -64 
C 2419 -64 2867 -148 2867 -480 
C 2867 -704 2643 -1076 1798 -1076 
C 954 -1076 723 -717 723 -474 
C 723 -64 1126 -64 1222 -64 
L 1952 -64 
z
" transform="scale(0.015625)"/>
       <path id="CMBX12-2e" d="M 1459 460 
C 1459 723 1248 921 998 921 
C 749 921 538 723 538 460 
C 538 198 749 0 998 0 
C 1248 0 1459 198 1459 460 
z
" transform="scale(0.015625)"/>
       <path id="CMBX12-45" d="M 4518 1753 
L 4250 1753 
C 4115 783 3878 275 2765 275 
L 1766 275 
L 1766 2156 
L 2144 2156 
C 2758 2156 2822 1889 2822 1395 
L 3091 1395 
L 3091 3177 
L 2822 3177 
C 2822 2699 2758 2432 2144 2432 
L 1766 2432 
L 1766 4108 
L 2765 4108 
C 3744 4108 3955 3694 4051 2871 
L 4320 2871 
L 4134 4383 
L 243 4383 
L 243 4108 
L 922 4108 
L 922 275 
L 243 275 
L 243 0 
L 4243 0 
L 4518 1753 
z
" transform="scale(0.015625)"/>
       <path id="CMBX12-52" d="M 3386 2195 
C 4250 2425 4461 2888 4461 3235 
C 4461 3877 3789 4416 2605 4416 
L 243 4416 
L 243 4140 
L 922 4140 
L 922 275 
L 243 275 
L 243 0 
C 429 12 1094 12 1325 12 
C 1555 12 2227 12 2413 0 
L 2413 275 
L 1734 275 
L 1734 2112 
L 2496 2112 
C 2752 2112 2957 2034 3098 1868 
C 3290 1649 3290 1508 3290 1078 
C 3290 648 3290 384 3616 166 
C 3949 -58 4474 -64 4614 -64 
C 5267 -64 5344 513 5344 603 
C 5344 712 5293 731 5210 731 
C 5088 731 5082 686 5075 603 
C 5043 282 4845 147 4666 147 
C 4256 147 4211 577 4160 1168 
C 4122 1504 4077 1982 3386 2195 
z
M 2483 2323 
L 1734 2323 
L 1734 4140 
L 2496 4140 
C 3539 4140 3558 3614 3558 3235 
C 3558 2882 3552 2323 2483 2323 
z
" transform="scale(0.015625)"/>
      </defs>
      <use xlink:href="#CMBX12-41" transform="scale(0.996264)"/>
      <use xlink:href="#CMBX12-76" transform="translate(84.636395 0)scale(0.996264)"/>
      <use xlink:href="#CMBX12-67" transform="translate(143.78957 0)scale(0.996264)"/>
      <use xlink:href="#CMBX12-2e" transform="translate(199.829421 0)scale(0.996264)"/>
      <use xlink:href="#CMBX12-45" transform="translate(280.775872 0)scale(0.996264)"/>
      <use xlink:href="#CMBX12-45" transform="translate(354.342617 0)scale(0.996264)"/>
      <use xlink:href="#CMBX12-52" transform="translate(427.909363 0)scale(0.996264)"/>
     </g>
    </g>
   </g>
   <g id="line2d_13">
    <path d="M 92.290909 66.665455 
L 150.264935 216.110275 
L 266.212987 298.855278 
L 382.161039 338.205296 
L 498.109091 353.460193 
" clip-path="url(#p3d54b9c448)" style="fill: none; stroke: #1f77b4; stroke-opacity: 0.8; stroke-width: 2.25; stroke-linecap: round"/>
    <defs>
     <path id="mac01b4033c" d="M 0 6 
C 1.591219 6 3.117479 5.367802 4.242641 4.242641 
C 5.367802 3.117479 6 1.591219 6 0 
C 6 -1.591219 5.367802 -3.117479 4.242641 -4.242641 
C 3.117479 -5.367802 1.591219 -6 0 -6 
C -1.591219 -6 -3.117479 -5.367802 -4.242641 -4.242641 
C -5.367802 -3.117479 -6 -1.591219 -6 0 
C -6 1.591219 -5.367802 3.117479 -4.242641 4.242641 
C -3.117479 5.367802 -1.591219 6 0 6 
z
" style="stroke: #1f77b4; stroke-opacity: 0.8; stroke-width: 1.6875"/>
    </defs>
    <g clip-path="url(#p3d54b9c448)">
     <use xlink:href="#mac01b4033c" x="92.290909" y="66.665455" style="fill-opacity: 0; stroke: #1f77b4; stroke-opacity: 0.8; stroke-width: 1.6875"/>
     <use xlink:href="#mac01b4033c" x="150.264935" y="216.110275" style="fill-opacity: 0; stroke: #1f77b4; stroke-opacity: 0.8; stroke-width: 1.6875"/>
     <use xlink:href="#mac01b4033c" x="266.212987" y="298.855278" style="fill-opacity: 0; stroke: #1f77b4; stroke-opacity: 0.8; stroke-width: 1.6875"/>
     <use xlink:href="#mac01b4033c" x="382.161039" y="338.205296" style="fill-opacity: 0; stroke: #1f77b4; stroke-opacity: 0.8; stroke-width: 1.6875"/>
     <use xlink:href="#mac01b4033c" x="498.109091" y="353.460193" style="fill-opacity: 0; stroke: #1f77b4; stroke-opacity: 0.8; stroke-width: 1.6875"/>
    </g>
   </g>
   <g id="line2d_14">
    <path d="M 92.290909 98.674294 
L 150.264935 243.84964 
L 266.212987 298.226882 
L 382.161039 346.740048 
L 498.109091 363.174545 
" clip-path="url(#p3d54b9c448)" style="fill: none; stroke: #ff7f0e; stroke-opacity: 0.8; stroke-width: 2.25; stroke-linecap: round"/>
    <defs>
     <path id="m93f6ab52ec" d="M -6 6 
L 6 6 
L 6 -6 
L -6 -6 
z
" style="stroke: #ff7f0e; stroke-opacity: 0.8; stroke-width: 1.6875; stroke-linejoin: miter"/>
    </defs>
    <g clip-path="url(#p3d54b9c448)">
     <use xlink:href="#m93f6ab52ec" x="92.290909" y="98.674294" style="fill-opacity: 0; stroke: #ff7f0e; stroke-opacity: 0.8; stroke-width: 1.6875; stroke-linejoin: miter"/>
     <use xlink:href="#m93f6ab52ec" x="150.264935" y="243.84964" style="fill-opacity: 0; stroke: #ff7f0e; stroke-opacity: 0.8; stroke-width: 1.6875; stroke-linejoin: miter"/>
     <use xlink:href="#m93f6ab52ec" x="266.212987" y="298.226882" style="fill-opacity: 0; stroke: #ff7f0e; stroke-opacity: 0.8; stroke-width: 1.6875; stroke-linejoin: miter"/>
     <use xlink:href="#m93f6ab52ec" x="382.161039" y="346.740048" style="fill-opacity: 0; stroke: #ff7f0e; stroke-opacity: 0.8; stroke-width: 1.6875; stroke-linejoin: miter"/>
     <use xlink:href="#m93f6ab52ec" x="498.109091" y="363.174545" style="fill-opacity: 0; stroke: #ff7f0e; stroke-opacity: 0.8; stroke-width: 1.6875; stroke-linejoin: miter"/>
    </g>
   </g>
   <g id="line2d_15">
    <path d="M 92.290909 96.057307 
L 150.264935 244.900158 
L 266.212987 303.768187 
L 382.161039 331.653364 
L 498.109091 355.657487 
" clip-path="url(#p3d54b9c448)" style="fill: none; stroke: #2ca02c; stroke-opacity: 0.8; stroke-width: 2.25; stroke-linecap: round"/>
    <defs>
     <path id="me8743a0fa6" d="M 0 -6 
L -6 6 
L 6 6 
z
" style="stroke: #2ca02c; stroke-opacity: 0.8; stroke-width: 1.6875; stroke-linejoin: miter"/>
    </defs>
    <g clip-path="url(#p3d54b9c448)">
     <use xlink:href="#me8743a0fa6" x="92.290909" y="96.057307" style="fill-opacity: 0; stroke: #2ca02c; stroke-opacity: 0.8; stroke-width: 1.6875; stroke-linejoin: miter"/>
     <use xlink:href="#me8743a0fa6" x="150.264935" y="244.900158" style="fill-opacity: 0; stroke: #2ca02c; stroke-opacity: 0.8; stroke-width: 1.6875; stroke-linejoin: miter"/>
     <use xlink:href="#me8743a0fa6" x="266.212987" y="303.768187" style="fill-opacity: 0; stroke: #2ca02c; stroke-opacity: 0.8; stroke-width: 1.6875; stroke-linejoin: miter"/>
     <use xlink:href="#me8743a0fa6" x="382.161039" y="331.653364" style="fill-opacity: 0; stroke: #2ca02c; stroke-opacity: 0.8; stroke-width: 1.6875; stroke-linejoin: miter"/>
     <use xlink:href="#me8743a0fa6" x="498.109091" y="355.657487" style="fill-opacity: 0; stroke: #2ca02c; stroke-opacity: 0.8; stroke-width: 1.6875; stroke-linejoin: miter"/>
    </g>
   </g>
   <g id="line2d_16">
    <path d="M 92.290909 112.082832 
L 150.264935 244.985335 
L 266.212987 289.71498 
L 382.161039 324.066918 
L 498.109091 334.37843 
" clip-path="url(#p3d54b9c448)" style="fill: none; stroke: #d62728; stroke-opacity: 0.8; stroke-width: 2.25; stroke-linecap: round"/>
    <defs>
     <path id="mc8cfa52417" d="M -0 6 
L 6 -6 
L -6 -6 
z
" style="stroke: #d62728; stroke-opacity: 0.8; stroke-width: 1.6875; stroke-linejoin: miter"/>
    </defs>
    <g clip-path="url(#p3d54b9c448)">
     <use xlink:href="#mc8cfa52417" x="92.290909" y="112.082832" style="fill-opacity: 0; stroke: #d62728; stroke-opacity: 0.8; stroke-width: 1.6875; stroke-linejoin: miter"/>
     <use xlink:href="#mc8cfa52417" x="150.264935" y="244.985335" style="fill-opacity: 0; stroke: #d62728; stroke-opacity: 0.8; stroke-width: 1.6875; stroke-linejoin: miter"/>
     <use xlink:href="#mc8cfa52417" x="266.212987" y="289.71498" style="fill-opacity: 0; stroke: #d62728; stroke-opacity: 0.8; stroke-width: 1.6875; stroke-linejoin: miter"/>
     <use xlink:href="#mc8cfa52417" x="382.161039" y="324.066918" style="fill-opacity: 0; stroke: #d62728; stroke-opacity: 0.8; stroke-width: 1.6875; stroke-linejoin: miter"/>
     <use xlink:href="#mc8cfa52417" x="498.109091" y="334.37843" style="fill-opacity: 0; stroke: #d62728; stroke-opacity: 0.8; stroke-width: 1.6875; stroke-linejoin: miter"/>
    </g>
   </g>
   <g id="patch_3">
    <path d="M 72 378 
L 72 51.84 
" style="fill: none"/>
   </g>
   <g id="patch_4">
    <path d="M 72 378 
L 518.4 378 
" style="fill: none"/>
   </g>
   <g id="legend_1">
    <g id="patch_5">
     <path d="M 221.965182 168.241158 
L 507.9 168.241158 
Q 510.9 168.241158 510.9 165.241158 
L 510.9 62.34 
Q 510.9 59.34 507.9 59.34 
L 221.965182 59.34 
Q 218.965182 59.34 218.965182 62.34 
L 218.965182 165.241158 
Q 218.965182 168.241158 221.965182 168.241158 
z
" style="fill: #ffffff; opacity: 0.8; stroke: #cccccc; stroke-width: 0.24; stroke-linejoin: miter"/>
    </g>
    <g id="text_15">
     <!-- \textbf{Feature Extractor} - \textbf{Classifier Variants} -->
     <g style="fill: #262626" transform="translate(224.965182 75.71359)scale(0.14994 -0.14994)">
      <defs>
       <path id="CMBX12-46" d="M 4032 4383 
L 243 4383 
L 243 4108 
L 922 4108 
L 922 275 
L 243 275 
L 243 0 
C 429 12 1158 12 1395 12 
C 1734 12 2304 12 2618 0 
L 2618 275 
L 1766 275 
L 1766 2048 
L 2118 2048 
C 2733 2048 2784 1765 2784 1296 
L 3053 1296 
L 3053 3080 
L 2784 3080 
C 2784 2607 2733 2323 2118 2323 
L 1766 2323 
L 1766 4108 
L 2682 4108 
C 3699 4108 3859 3636 3949 2853 
L 4218 2853 
L 4032 4383 
z
" transform="scale(0.015625)"/>
       <path id="CMBX12-61" d="M 2944 1894 
C 2944 2483 2477 2880 1574 2880 
C 1216 2880 461 2847 461 2310 
C 461 2041 666 1926 838 1926 
C 1030 1926 1216 2060 1216 2303 
C 1216 2425 1171 2540 1062 2611 
C 1274 2668 1427 2668 1549 2668 
C 1984 2668 2246 2425 2246 1900 
L 2246 1644 
C 1235 1644 218 1362 218 648 
C 218 64 960 -64 1402 -64 
C 1894 -64 2208 205 2336 488 
C 2336 250 2336 -26 2982 -26 
L 3309 -26 
C 3443 -26 3494 -26 3494 115 
C 3494 250 3437 250 3347 250 
C 2944 256 2944 359 2944 507 
L 2944 1894 
z
M 2246 867 
C 2246 262 1709 147 1504 147 
C 1190 147 928 359 928 655 
C 928 1240 1619 1439 2246 1472 
L 2246 867 
z
" transform="scale(0.015625)"/>
       <path id="CMBX12-74" d="M 1350 2540 
L 2272 2540 
L 2272 2816 
L 1350 2816 
L 1350 4032 
L 1082 4032 
C 1075 3401 768 2771 134 2751 
L 134 2540 
L 653 2540 
L 653 761 
C 653 83 1178 -64 1638 -64 
C 2112 -64 2394 294 2394 768 
L 2394 1107 
L 2125 1107 
L 2125 774 
C 2125 352 1933 166 1734 166 
C 1350 166 1350 595 1350 742 
L 1350 2540 
z
" transform="scale(0.015625)"/>
       <path id="CMBX12-75" d="M 2259 2828 
L 2259 2553 
C 2656 2553 2701 2553 2701 2301 
L 2701 1033 
C 2701 541 2413 147 1914 147 
C 1434 147 1408 308 1408 664 
L 1408 2880 
L 269 2828 
L 269 2553 
C 666 2553 710 2553 710 2301 
L 710 768 
C 710 121 1139 -64 1824 -64 
C 1978 -64 2451 -64 2726 457 
L 2733 457 
L 2733 -64 
L 3840 -26 
L 3840 250 
C 3443 250 3398 250 3398 502 
L 3398 2880 
L 2259 2828 
z
" transform="scale(0.015625)"/>
       <path id="CMBX12-72" d="M 1331 1440 
C 1331 1651 1376 2668 2125 2668 
C 2035 2598 1990 2489 1990 2374 
C 1990 2112 2202 2003 2362 2003 
C 2522 2003 2733 2112 2733 2374 
C 2733 2700 2400 2880 2093 2880 
C 1587 2880 1370 2438 1280 2169 
L 1274 2169 
L 1274 2880 
L 224 2828 
L 224 2553 
C 621 2553 666 2553 666 2304 
L 666 275 
L 224 275 
L 224 0 
C 371 12 851 12 1030 12 
C 1216 12 1734 12 1888 0 
L 1888 275 
L 1331 275 
L 1331 1440 
z
" transform="scale(0.015625)"/>
       <path id="CMBX12-78" d="M 2157 1566 
L 2899 2407 
C 2970 2490 3027 2540 3558 2540 
L 3558 2816 
C 3200 2803 3187 2803 2970 2803 
C 2784 2803 2509 2803 2330 2816 
L 2330 2540 
C 2451 2540 2586 2509 2586 2464 
C 2586 2452 2554 2407 2541 2395 
L 1984 1774 
L 1350 2540 
L 1619 2540 
L 1619 2816 
C 1472 2803 1037 2803 864 2803 
C 672 2803 326 2803 147 2816 
L 147 2540 
L 602 2540 
L 1600 1338 
L 768 408 
C 691 319 646 275 115 275 
L 115 0 
C 499 12 512 12 710 12 
C 896 12 1165 12 1344 0 
L 1344 275 
C 1222 275 1088 306 1088 351 
C 1088 357 1088 363 1133 414 
L 1773 1129 
L 2483 275 
L 2214 275 
L 2214 0 
C 2368 12 2797 12 2976 12 
C 3168 12 3507 12 3686 0 
L 3686 275 
L 3238 275 
L 2157 1566 
z
" transform="scale(0.015625)"/>
       <path id="CMBX12-63" d="M 2995 724 
C 2995 801 2925 801 2861 801 
C 2758 801 2752 795 2720 718 
C 2675 596 2502 166 1914 166 
C 1011 166 1011 1141 1011 1430 
C 1011 1808 1018 2649 1856 2649 
C 1901 2649 2278 2636 2278 2604 
C 2278 2598 2272 2591 2259 2585 
C 2240 2566 2157 2469 2157 2309 
C 2157 2039 2374 1930 2534 1930 
C 2669 1930 2912 2014 2912 2315 
C 2912 2841 2176 2880 1830 2880 
C 691 2880 243 2136 243 1398 
C 243 525 851 -64 1792 -64 
C 2797 -64 2995 679 2995 724 
z
" transform="scale(0.015625)"/>
       <path id="CMR17-2d" d="M 1632 1254 
L 1632 1536 
L 26 1536 
L 26 1254 
L 1632 1254 
z
" transform="scale(0.015625)"/>
       <path id="CMBX12-43" d="M 4794 4313 
C 4794 4460 4794 4480 4653 4480 
L 4173 4018 
C 3814 4326 3386 4480 2912 4480 
C 1382 4480 397 3548 397 2210 
C 397 896 1350 -64 2918 -64 
C 4058 -64 4794 722 4794 1484 
C 4794 1593 4755 1600 4659 1600 
C 4595 1600 4531 1600 4525 1529 
C 4467 547 3642 211 3066 211 
C 2650 211 2086 327 1728 734 
C 1504 980 1299 1336 1299 2210 
C 1299 2828 1395 3297 1696 3658 
C 2106 4140 2746 4204 3053 4204 
C 3533 4204 4307 3934 4499 2803 
C 4512 2745 4570 2745 4646 2745 
C 4794 2745 4794 2758 4794 2912 
L 4794 4313 
z
" transform="scale(0.015625)"/>
       <path id="CMBX12-6c" d="M 1389 4480 
L 282 4428 
L 282 4153 
C 678 4153 723 4153 723 3901 
L 723 275 
L 282 275 
L 282 0 
C 429 12 883 12 1056 12 
C 1229 12 1683 12 1830 0 
L 1830 275 
L 1389 275 
L 1389 4480 
z
" transform="scale(0.015625)"/>
       <path id="CMBX12-73" d="M 2413 2713 
C 2413 2835 2413 2880 2317 2880 
C 2278 2880 2266 2880 2170 2822 
C 2144 2803 2074 2758 2042 2739 
C 1862 2841 1626 2880 1395 2880 
C 1203 2880 243 2880 243 2046 
C 243 1372 1037 1231 1235 1199 
C 1408 1167 1619 1128 1645 1128 
C 1901 1071 2157 910 2157 641 
C 2157 147 1574 147 1440 147 
C 1114 147 710 249 531 872 
C 493 1000 486 1006 378 1006 
C 243 1006 243 987 243 840 
L 243 102 
C 243 -20 243 -64 339 -64 
C 384 -64 397 -64 525 38 
L 691 160 
C 979 -64 1325 -64 1440 -64 
C 1792 -64 2592 12 2592 865 
C 2592 1173 2426 1385 2298 1500 
C 2035 1719 1818 1757 1472 1821 
C 1062 1892 678 1962 678 2270 
C 678 2687 1248 2687 1382 2687 
C 2093 2687 2131 2238 2144 2078 
C 2150 1995 2202 1995 2278 1995 
C 2413 1995 2413 2014 2413 2161 
L 2413 2713 
z
" transform="scale(0.015625)"/>
       <path id="CMBX12-c" d="M 2221 2847 
L 2221 2822 
L 1299 2822 
L 1299 3443 
C 1299 4186 2054 4268 2310 4268 
C 2381 4268 2611 4268 2803 4104 
C 2605 4038 2522 3884 2522 3718 
C 2522 3481 2694 3328 2912 3328 
C 3123 3328 3302 3475 3302 3718 
C 3302 4070 3014 4480 2368 4480 
C 1638 4480 666 4260 666 3449 
L 666 2822 
L 192 2822 
L 192 2547 
L 666 2547 
L 666 275 
L 224 275 
L 224 0 
C 371 12 826 12 998 12 
C 1171 12 1626 12 1773 0 
L 1773 275 
L 1331 275 
L 1331 2547 
L 2464 2547 
C 2624 2547 2662 2540 2662 2318 
L 2662 275 
L 2221 275 
L 2221 0 
C 2368 12 2822 12 2995 12 
C 3168 12 3622 12 3770 0 
L 3770 275 
L 3328 275 
L 3328 2880 
L 2221 2847 
z
" transform="scale(0.015625)"/>
       <path id="CMBX12-56" d="M 4634 3992 
C 4672 4075 4698 4140 5171 4140 
L 5280 4140 
L 5280 4416 
C 5082 4403 4621 4403 4570 4403 
C 4390 4403 3936 4403 3789 4416 
L 3789 4140 
C 3930 4140 4166 4140 4346 4069 
L 4314 3979 
L 3002 960 
L 1619 4140 
L 2214 4140 
L 2214 4416 
C 2010 4403 1395 4403 1152 4403 
C 947 4403 314 4403 154 4416 
L 154 4140 
L 730 4140 
L 2496 70 
C 2554 -58 2611 -64 2714 -64 
C 2816 -64 2880 -64 2938 70 
L 4634 3992 
z
" transform="scale(0.015625)"/>
      </defs>
      <use xlink:href="#CMBX12-46" transform="scale(0.996264)"/>
      <use xlink:href="#CMBX12-65" transform="translate(61.113445 0)scale(0.996264)"/>
      <use xlink:href="#CMBX12-61" transform="translate(112.252713 0)scale(0.996264)"/>
      <use xlink:href="#CMBX12-74" transform="translate(166.735901 0)scale(0.996264)"/>
      <use xlink:href="#CMBX12-75" transform="translate(210.322451 0)scale(0.996264)"/>
      <use xlink:href="#CMBX12-72" transform="translate(272.588952 0)scale(0.996264)"/>
      <use xlink:href="#CMBX12-65" transform="translate(318.366459 0)scale(0.996264)"/>
      <use xlink:href="#CMBX12-45" transform="translate(406.865627 0)scale(0.996264)"/>
      <use xlink:href="#CMBX12-78" transform="translate(480.432372 0)scale(0.996264)"/>
      <use xlink:href="#CMBX12-74" transform="translate(539.585548 0)scale(0.996264)"/>
      <use xlink:href="#CMBX12-72" transform="translate(583.172098 0)scale(0.996264)"/>
      <use xlink:href="#CMBX12-61" transform="translate(628.949605 0)scale(0.996264)"/>
      <use xlink:href="#CMBX12-63" transform="translate(683.432794 0)scale(0.996264)"/>
      <use xlink:href="#CMBX12-74" transform="translate(733.245994 0)scale(0.996264)"/>
      <use xlink:href="#CMBX12-6f" transform="translate(776.832544 0)scale(0.996264)"/>
      <use xlink:href="#CMBX12-72" transform="translate(832.872395 0)scale(0.996264)"/>
      <use xlink:href="#CMR17-2d" transform="translate(908.725869 0)scale(0.996264)"/>
      <use xlink:href="#CMBX12-43" transform="translate(968.877801 0)scale(0.996264)"/>
      <use xlink:href="#CMBX12-6c" transform="translate(1049.824252 0)scale(0.996264)"/>
      <use xlink:href="#CMBX12-61" transform="translate(1080.957503 0)scale(0.996264)"/>
      <use xlink:href="#CMBX12-73" transform="translate(1135.440691 0)scale(0.996264)"/>
      <use xlink:href="#CMBX12-73" transform="translate(1179.650028 0)scale(0.996264)"/>
      <use xlink:href="#CMBX12-69" transform="translate(1223.859365 0)scale(0.996264)"/>
      <use xlink:href="#CMBX12-c" transform="translate(1254.992615 0)scale(0.996264)"/>
      <use xlink:href="#CMBX12-65" transform="translate(1317.259116 0)scale(0.996264)"/>
      <use xlink:href="#CMBX12-72" transform="translate(1368.398383 0)scale(0.996264)"/>
      <use xlink:href="#CMBX12-56" transform="translate(1451.53579 0)scale(0.996264)"/>
      <use xlink:href="#CMBX12-61" transform="translate(1526.83221 0)scale(0.996264)"/>
      <use xlink:href="#CMBX12-72" transform="translate(1581.315398 0)scale(0.996264)"/>
      <use xlink:href="#CMBX12-69" transform="translate(1627.092905 0)scale(0.996264)"/>
      <use xlink:href="#CMBX12-61" transform="translate(1658.226156 0)scale(0.996264)"/>
      <use xlink:href="#CMBX12-6e" transform="translate(1712.709344 0)scale(0.996264)"/>
      <use xlink:href="#CMBX12-74" transform="translate(1771.862519 0)scale(0.996264)"/>
      <use xlink:href="#CMBX12-73" transform="translate(1815.44907 0)scale(0.996264)"/>
     </g>
    </g>
    <g id="line2d_17">
     <path d="M 296.178996 91.368179 
L 311.178996 91.368179 
L 326.178996 91.368179 
" style="fill: none; stroke: #1f77b4; stroke-opacity: 0.8; stroke-width: 2.25; stroke-linecap: round"/>
     <g>
      <use xlink:href="#mac01b4033c" x="311.178996" y="91.368179" style="fill-opacity: 0; stroke: #1f77b4; stroke-opacity: 0.8; stroke-width: 1.6875"/>
     </g>
    </g>
    <g id="text_16">
     <!-- WACA-LOF -->
     <g style="fill: #262626" transform="translate(338.178996 96.618179)scale(0.15 -0.15)">
      <defs>
       <path id="CMR17-57" d="M 5523 3775 
C 5581 3948 5677 4173 6048 4185 
L 6048 4352 
C 5939 4345 5715 4339 5600 4339 
C 5440 4339 5158 4339 5005 4352 
L 5005 4185 
C 5293 4179 5414 4019 5414 3865 
C 5414 3820 5408 3794 5382 3724 
L 4390 557 
L 3347 3890 
C 3328 3955 3322 3980 3322 4006 
C 3322 4185 3603 4185 3725 4185 
L 3725 4352 
C 3539 4339 3219 4339 3021 4339 
C 2861 4339 2573 4339 2426 4352 
L 2426 4185 
C 2720 4185 2797 4166 2861 4051 
C 2886 3993 2989 3660 2989 3640 
C 2989 3615 2976 3576 2970 3557 
L 2029 564 
L 986 3890 
C 954 3980 954 3993 954 4006 
C 954 4185 1235 4185 1363 4185 
L 1363 4352 
C 1178 4339 858 4339 659 4339 
C 493 4339 211 4339 58 4352 
L 58 4185 
C 442 4185 467 4147 531 3942 
L 1779 -20 
C 1811 -116 1811 -128 1869 -128 
C 1920 -128 1939 -116 1965 -26 
L 3053 3448 
L 4141 -26 
C 4166 -116 4186 -128 4237 -128 
C 4294 -128 4294 -116 4326 -20 
L 5523 3775 
z
" transform="scale(0.015625)"/>
       <path id="CMR17-41" d="M 2323 4441 
C 2291 4524 2278 4544 2214 4544 
C 2150 4544 2138 4524 2106 4441 
L 749 580 
C 627 236 371 166 147 166 
L 147 0 
C 262 12 518 12 640 12 
C 800 12 1056 12 1210 0 
L 1210 166 
C 909 179 864 382 864 459 
C 864 516 877 548 890 586 
L 1229 1536 
L 2906 1536 
L 3290 453 
C 3322 376 3322 363 3322 338 
C 3322 166 3046 166 2925 166 
L 2925 0 
C 3110 12 3443 12 3642 12 
C 3808 12 4128 12 4282 0 
L 4282 166 
C 3942 166 3827 166 3744 402 
L 2323 4441 
z
M 2067 3924 
L 2848 1702 
L 1286 1702 
L 2067 3924 
z
" transform="scale(0.015625)"/>
       <path id="CMR17-43" d="M 3974 4351 
C 3974 4467 3968 4473 3930 4473 
C 3904 4473 3898 4467 3853 4390 
L 3571 3849 
C 3258 4249 2874 4480 2381 4480 
C 1286 4480 294 3507 294 2179 
C 294 837 1286 -128 2387 -128 
C 3366 -128 3974 741 3974 1482 
C 3974 1547 3974 1573 3917 1573 
C 3866 1573 3866 1553 3859 1495 
C 3808 592 3168 38 2477 38 
C 1824 38 781 502 781 2179 
C 781 3862 1843 4313 2464 4313 
C 3187 4313 3712 3681 3834 2785 
C 3846 2707 3846 2695 3904 2695 
C 3974 2695 3974 2707 3974 2824 
L 3974 4351 
z
" transform="scale(0.015625)"/>
       <path id="CMR17-4c" d="M 3469 1612 
L 3354 1612 
C 3302 981 3219 166 2125 166 
L 1530 166 
C 1274 166 1261 198 1261 414 
L 1261 3892 
C 1261 4121 1274 4185 1760 4185 
L 1901 4185 
L 1901 4352 
C 1638 4339 1331 4339 1069 4339 
C 870 4339 512 4339 326 4352 
L 326 4185 
C 768 4185 838 4185 838 3898 
L 838 453 
C 838 166 768 166 326 166 
L 326 0 
L 3315 0 
L 3469 1612 
z
" transform="scale(0.015625)"/>
       <path id="CMR17-4f" d="M 4307 2166 
C 4307 3488 3366 4480 2304 4480 
C 1216 4480 294 3475 294 2166 
C 294 857 1229 -128 2298 -128 
C 3392 -128 4307 876 4307 2166 
z
M 2304 -13 
C 1574 -13 781 722 781 2250 
C 781 3771 1651 4364 2298 4364 
C 2976 4364 3821 3752 3821 2250 
C 3821 696 3008 -13 2304 -13 
z
" transform="scale(0.015625)"/>
       <path id="CMR17-46" d="M 3482 4339 
L 326 4339 
L 326 4172 
C 768 4172 838 4172 838 3883 
L 838 450 
C 838 166 768 166 326 166 
L 326 0 
C 512 12 870 12 1069 12 
C 1331 12 1638 12 1901 0 
L 1901 166 
L 1760 166 
C 1274 166 1261 229 1261 456 
L 1261 2073 
L 1837 2073 
C 2432 2073 2490 1865 2490 1334 
L 2605 1334 
L 2605 2991 
L 2490 2991 
C 2490 2451 2432 2240 1837 2240 
L 1261 2240 
L 1261 3922 
C 1261 4140 1274 4172 1530 4172 
L 2355 4172 
C 3322 4172 3430 3774 3520 2920 
L 3635 2920 
L 3482 4339 
z
" transform="scale(0.015625)"/>
      </defs>
      <use xlink:href="#CMR17-57" transform="scale(0.996264)"/>
      <use xlink:href="#CMR17-41" transform="translate(84.686941 0)scale(0.996264)"/>
      <use xlink:href="#CMR17-43" transform="translate(151.156916 0)scale(0.996264)"/>
      <use xlink:href="#CMR17-41" transform="translate(217.666797 0)scale(0.996264)"/>
      <use xlink:href="#CMR17-2d" transform="translate(286.739227 0)scale(0.996264)"/>
      <use xlink:href="#CMR17-4c" transform="translate(316.815193 0)scale(0.996264)"/>
      <use xlink:href="#CMR17-4f" transform="translate(374.196601 0)scale(0.996264)"/>
      <use xlink:href="#CMR17-46" transform="translate(445.911389 0)scale(0.996264)"/>
     </g>
    </g>
    <g id="line2d_18">
     <path d="M 296.178996 112.273924 
L 311.178996 112.273924 
L 326.178996 112.273924 
" style="fill: none; stroke: #ff7f0e; stroke-opacity: 0.8; stroke-width: 2.25; stroke-linecap: round"/>
     <g>
      <use xlink:href="#m93f6ab52ec" x="311.178996" y="112.273924" style="fill-opacity: 0; stroke: #ff7f0e; stroke-opacity: 0.8; stroke-width: 1.6875; stroke-linejoin: miter"/>
     </g>
    </g>
    <g id="text_17">
     <!-- 3S-1C-kNN -->
     <g style="fill: #262626" transform="translate(338.178996 117.523924)scale(0.15 -0.15)">
      <defs>
       <path id="CMR17-33" d="M 1414 2176 
C 1984 2176 2234 1673 2234 1094 
C 2234 322 1824 25 1453 25 
C 1114 25 563 193 390 691 
C 422 678 454 678 486 678 
C 640 678 755 780 755 947 
C 755 1132 614 1216 486 1216 
C 378 1216 211 1164 211 927 
C 211 335 787 -128 1466 -128 
C 2176 -128 2720 432 2720 1087 
C 2720 1718 2208 2176 1600 2246 
C 2086 2347 2554 2776 2554 3353 
C 2554 3856 2048 4224 1472 4224 
C 890 4224 378 3862 378 3347 
C 378 3123 544 3084 627 3084 
C 762 3084 877 3167 877 3334 
C 877 3500 762 3584 627 3584 
C 602 3584 570 3584 544 3571 
C 730 3999 1235 4076 1459 4076 
C 1683 4076 2106 3966 2106 3347 
C 2106 3167 2080 2851 1862 2574 
C 1670 2329 1453 2316 1242 2297 
C 1210 2297 1062 2284 1037 2284 
C 992 2278 966 2272 966 2227 
C 966 2182 973 2176 1101 2176 
L 1414 2176 
z
" transform="scale(0.015625)"/>
       <path id="CMR17-53" d="M 2803 4351 
C 2803 4467 2797 4473 2758 4473 
C 2720 4473 2707 4447 2682 4390 
L 2490 3965 
C 2246 4320 1875 4480 1472 4480 
C 819 4480 294 3958 294 3301 
C 294 3101 339 2817 557 2546 
C 794 2250 1018 2198 1530 2063 
C 1722 2011 2042 1927 2106 1901 
C 2470 1747 2662 1360 2662 999 
C 2662 534 2336 38 1779 38 
C 1094 38 454 425 410 1328 
C 403 1431 397 1437 352 1437 
C 301 1437 294 1431 294 1302 
L 294 0 
C 294 -116 301 -122 339 -122 
C 384 -122 397 -90 486 109 
C 493 128 493 141 614 386 
C 934 -39 1472 -128 1779 -128 
C 2477 -128 2970 457 2970 1141 
C 2970 1476 2848 1734 2778 1850 
C 2509 2263 2221 2340 1914 2417 
C 1869 2437 1856 2437 1498 2527 
C 1152 2617 1005 2662 845 2836 
C 666 3036 602 3243 602 3449 
C 602 3868 934 4326 1478 4326 
C 2157 4326 2579 3842 2675 3036 
C 2694 2920 2701 2914 2746 2914 
C 2803 2914 2803 2933 2803 3043 
L 2803 4351 
z
" transform="scale(0.015625)"/>
       <path id="CMR17-6b" d="M 1670 1679 
C 1664 1692 1632 1730 1632 1749 
C 1632 1762 2086 2175 2144 2226 
C 2509 2532 2739 2563 2906 2570 
L 2906 2735 
C 2867 2735 2854 2735 2848 2729 
L 2534 2722 
C 2355 2722 2080 2722 1907 2735 
L 1907 2570 
C 1997 2563 2061 2513 2061 2423 
C 2061 2296 1933 2175 1926 2175 
L 960 1298 
L 960 4416 
L 198 4345 
L 198 4179 
C 576 4179 634 4141 634 3835 
L 634 439 
C 634 198 608 166 198 166 
L 198 0 
C 352 12 634 12 794 12 
C 954 12 1235 12 1389 0 
L 1389 166 
C 979 166 954 191 954 439 
L 954 1139 
L 1395 1540 
L 2042 586 
C 2118 471 2182 382 2182 299 
C 2182 185 2067 166 1990 166 
L 1990 0 
C 2144 12 2419 12 2579 12 
C 2694 12 2931 6 3040 0 
L 3040 166 
C 2739 166 2669 223 2477 503 
L 1670 1679 
z
" transform="scale(0.015625)"/>
       <path id="CMR17-4e" d="M 1312 4275 
C 1267 4345 1261 4352 1139 4352 
L 326 4352 
L 326 4185 
L 448 4185 
C 704 4185 819 4153 838 4147 
L 838 624 
C 838 465 838 166 326 166 
L 326 0 
C 474 12 742 12 902 12 
C 1062 12 1331 12 1478 0 
L 1478 166 
C 966 166 966 465 966 624 
L 966 4057 
C 1011 4019 1011 4007 1056 3943 
L 3430 76 
C 3475 0 3494 0 3526 0 
C 3590 0 3590 19 3590 140 
L 3590 3726 
C 3590 3885 3590 4185 4102 4185 
L 4102 4352 
C 3955 4339 3686 4339 3526 4339 
C 3366 4339 3098 4339 2950 4352 
L 2950 4185 
C 3462 4185 3462 3885 3462 3726 
L 3462 777 
L 1312 4275 
z
" transform="scale(0.015625)"/>
      </defs>
      <use xlink:href="#CMR17-33" transform="scale(0.996264)"/>
      <use xlink:href="#CMR17-53" transform="translate(45.690477 0)scale(0.996264)"/>
      <use xlink:href="#CMR17-2d" transform="translate(96.585847 0)scale(0.996264)"/>
      <use xlink:href="#CMR17-31" transform="translate(126.661813 0)scale(0.996264)"/>
      <use xlink:href="#CMR17-43" transform="translate(172.35229 0)scale(0.996264)"/>
      <use xlink:href="#CMR17-2d" transform="translate(238.862171 0)scale(0.996264)"/>
      <use xlink:href="#CMR17-6b" transform="translate(268.938137 0)scale(0.996264)"/>
      <use xlink:href="#CMR17-4e" transform="translate(317.231053 0)scale(0.996264)"/>
      <use xlink:href="#CMR17-4e" transform="translate(386.303483 0)scale(0.996264)"/>
     </g>
    </g>
    <g id="line2d_19">
     <path d="M 296.178996 133.179669 
L 311.178996 133.179669 
L 326.178996 133.179669 
" style="fill: none; stroke: #2ca02c; stroke-opacity: 0.8; stroke-width: 2.25; stroke-linecap: round"/>
     <g>
      <use xlink:href="#me8743a0fa6" x="311.178996" y="133.179669" style="fill-opacity: 0; stroke: #2ca02c; stroke-opacity: 0.8; stroke-width: 1.6875; stroke-linejoin: miter"/>
     </g>
    </g>
    <g id="text_18">
     <!-- 3S-1:2:3C-kNN -->
     <g style="fill: #262626" transform="translate(338.178996 138.429669)scale(0.15 -0.15)">
      <defs>
       <path id="CMR17-3a" d="M 1062 2489 
C 1062 2649 934 2752 800 2752 
C 672 2752 538 2649 538 2489 
C 538 2329 666 2227 800 2227 
C 928 2227 1062 2329 1062 2489 
z
M 1062 262 
C 1062 422 934 524 800 524 
C 672 524 538 422 538 262 
C 538 102 666 0 800 0 
C 928 0 1062 102 1062 262 
z
" transform="scale(0.015625)"/>
      </defs>
      <use xlink:href="#CMR17-33" transform="scale(0.996264)"/>
      <use xlink:href="#CMR17-53" transform="translate(45.690477 0)scale(0.996264)"/>
      <use xlink:href="#CMR17-2d" transform="translate(96.585847 0)scale(0.996264)"/>
      <use xlink:href="#CMR17-31" transform="translate(126.661813 0)scale(0.996264)"/>
      <use xlink:href="#CMR17-3a" transform="translate(172.35229 0)scale(0.996264)"/>
      <use xlink:href="#CMR17-32" transform="translate(197.223349 0)scale(0.996264)"/>
      <use xlink:href="#CMR17-3a" transform="translate(242.913826 0)scale(0.996264)"/>
      <use xlink:href="#CMR17-33" transform="translate(267.784884 0)scale(0.996264)"/>
      <use xlink:href="#CMR17-43" transform="translate(313.475362 0)scale(0.996264)"/>
      <use xlink:href="#CMR17-2d" transform="translate(379.985242 0)scale(0.996264)"/>
      <use xlink:href="#CMR17-6b" transform="translate(410.061208 0)scale(0.996264)"/>
      <use xlink:href="#CMR17-4e" transform="translate(458.354124 0)scale(0.996264)"/>
      <use xlink:href="#CMR17-4e" transform="translate(527.426554 0)scale(0.996264)"/>
     </g>
    </g>
    <g id="line2d_20">
     <path d="M 296.178996 154.085413 
L 311.178996 154.085413 
L 326.178996 154.085413 
" style="fill: none; stroke: #d62728; stroke-opacity: 0.8; stroke-width: 2.25; stroke-linecap: round"/>
     <g>
      <use xlink:href="#mc8cfa52417" x="311.178996" y="154.085413" style="fill-opacity: 0; stroke: #d62728; stroke-opacity: 0.8; stroke-width: 1.6875; stroke-linejoin: miter"/>
     </g>
    </g>
    <g id="text_19">
     <!-- 3S-2C-kNN -->
     <g style="fill: #262626" transform="translate(338.178996 159.335413)scale(0.15 -0.15)">
      <use xlink:href="#CMR17-33" transform="scale(0.996264)"/>
      <use xlink:href="#CMR17-53" transform="translate(45.690477 0)scale(0.996264)"/>
      <use xlink:href="#CMR17-2d" transform="translate(96.585847 0)scale(0.996264)"/>
      <use xlink:href="#CMR17-32" transform="translate(126.661813 0)scale(0.996264)"/>
      <use xlink:href="#CMR17-43" transform="translate(172.35229 0)scale(0.996264)"/>
      <use xlink:href="#CMR17-2d" transform="translate(238.862171 0)scale(0.996264)"/>
      <use xlink:href="#CMR17-6b" transform="translate(268.938137 0)scale(0.996264)"/>
      <use xlink:href="#CMR17-4e" transform="translate(317.231053 0)scale(0.996264)"/>
      <use xlink:href="#CMR17-4e" transform="translate(386.303483 0)scale(0.996264)"/>
     </g>
    </g>
   </g>
  </g>
 </g>
 <defs>
  <clipPath id="p3d54b9c448">
   <rect x="72" y="51.84" width="446.4" height="326.16"/>
  </clipPath>
 </defs>
</svg>
