<?xml version="1.0" encoding="utf-8" standalone="no"?>
<!DOCTYPE svg PUBLIC "-//W3C//DTD SVG 1.1//EN"
  "http://www.w3.org/Graphics/SVG/1.1/DTD/svg11.dtd">
<svg xmlns:xlink="http://www.w3.org/1999/xlink" width="565.808393pt" height="420.48pt" viewBox="0 0 565.808393 420.48" xmlns="http://www.w3.org/2000/svg" version="1.1">
 <metadata>
  <rdf:RDF xmlns:dc="http://purl.org/dc/elements/1.1/" xmlns:cc="http://creativecommons.org/ns#" xmlns:rdf="http://www.w3.org/1999/02/22-rdf-syntax-ns#">
   <cc:Work>
    <dc:type rdf:resource="http://purl.org/dc/dcmitype/StillImage"/>
    <dc:date>2023-08-14T10:32:45.525814</dc:date>
    <dc:format>image/svg+xml</dc:format>
    <dc:creator>
     <cc:Agent>
      <dc:title>Matplotlib v3.5.1, https://matplotlib.org/</dc:title>
     </cc:Agent>
    </dc:creator>
   </cc:Work>
  </rdf:RDF>
 </metadata>
 <defs>
  <style type="text/css">*{stroke-linejoin: round; stroke-linecap: butt}</style>
 </defs>
 <g id="figure_1">
  <g id="patch_1">
   <path d="M 0 420.48 
L 565.808393 420.48 
L 565.808393 0 
L 0 0 
z
" style="fill: #ffffff"/>
  </g>
  <g id="axes_1">
   <g id="patch_2">
    <path d="M 38.885247 388.797548 
L 558.608393 388.797548 
L 558.608393 10.659249 
L 38.885247 10.659249 
z
" style="fill: #ffffff"/>
   </g>
   <g id="matplotlib.axis_1">
    <g id="xtick_1">
     <g id="line2d_1">
      <path d="M 64.871404 388.797548 
L 64.871404 10.659249 
" clip-path="url(#pd12d74d8cc)" style="fill: none; stroke-dasharray: 1.85,0.8; stroke-dashoffset: 0; stroke: #d3d3d3; stroke-opacity: 0.53; stroke-width: 0.5"/>
     </g>
     <g id="text_1">
      <!-- 2 -->
      <g style="fill: #262626" transform="translate(62.380737 396.716046)scale(0.1 -0.1)">
       <defs>
        <path id="CMR17-32" d="M 2669 990 
L 2554 990 
C 2490 537 2438 460 2413 422 
C 2381 371 1920 371 1830 371 
L 602 371 
C 832 620 1280 1073 1824 1596 
C 2214 1966 2669 2400 2669 3033 
C 2669 3788 2067 4224 1395 4224 
C 691 4224 262 3603 262 3027 
C 262 2777 448 2745 525 2745 
C 589 2745 781 2783 781 3007 
C 781 3206 614 3264 525 3264 
C 486 3264 448 3257 422 3244 
C 544 3788 915 4057 1306 4057 
C 1862 4057 2227 3616 2227 3033 
C 2227 2477 1901 1998 1536 1583 
L 262 147 
L 262 0 
L 2515 0 
L 2669 990 
z
" transform="scale(0.015625)"/>
       </defs>
       <use xlink:href="#CMR17-32" transform="scale(0.996264)"/>
      </g>
     </g>
    </g>
    <g id="xtick_2">
     <g id="line2d_2">
      <path d="M 116.843719 388.797548 
L 116.843719 10.659249 
" clip-path="url(#pd12d74d8cc)" style="fill: none; stroke-dasharray: 1.85,0.8; stroke-dashoffset: 0; stroke: #d3d3d3; stroke-opacity: 0.53; stroke-width: 0.5"/>
     </g>
     <g id="text_2">
      <!-- 4 -->
      <g style="fill: #262626" transform="translate(114.353051 396.716046)scale(0.1 -0.1)">
       <defs>
        <path id="CMR17-34" d="M 2150 4147 
C 2150 4281 2144 4288 2029 4288 
L 128 1254 
L 128 1088 
L 1779 1088 
L 1779 460 
C 1779 230 1766 166 1318 166 
L 1197 166 
L 1197 0 
C 1402 12 1747 12 1965 12 
C 2182 12 2528 12 2733 0 
L 2733 166 
L 2611 166 
C 2163 166 2150 230 2150 460 
L 2150 1088 
L 2803 1088 
L 2803 1254 
L 2150 1254 
L 2150 4147 
z
M 1798 3723 
L 1798 1254 
L 256 1254 
L 1798 3723 
z
" transform="scale(0.015625)"/>
       </defs>
       <use xlink:href="#CMR17-34" transform="scale(0.996264)"/>
      </g>
     </g>
    </g>
    <g id="xtick_3">
     <g id="line2d_3">
      <path d="M 168.816033 388.797548 
L 168.816033 10.659249 
" clip-path="url(#pd12d74d8cc)" style="fill: none; stroke-dasharray: 1.85,0.8; stroke-dashoffset: 0; stroke: #d3d3d3; stroke-opacity: 0.53; stroke-width: 0.5"/>
     </g>
     <g id="text_3">
      <!-- 6 -->
      <g style="fill: #262626" transform="translate(166.325366 396.716046)scale(0.1 -0.1)">
       <defs>
        <path id="CMR17-36" d="M 678 2198 
C 678 3712 1395 4076 1811 4076 
C 1946 4076 2272 4049 2400 3782 
C 2298 3782 2106 3782 2106 3558 
C 2106 3385 2246 3328 2336 3328 
C 2394 3328 2566 3353 2566 3571 
C 2566 3987 2246 4224 1805 4224 
C 1043 4224 243 3411 243 2011 
C 243 257 966 -128 1478 -128 
C 2099 -128 2688 431 2688 1295 
C 2688 2101 2170 2688 1517 2688 
C 1126 2688 838 2430 678 1979 
L 678 2198 
z
M 1478 25 
C 691 25 691 1212 691 1450 
C 691 1914 909 2585 1504 2585 
C 1613 2585 1926 2585 2138 2140 
C 2253 1889 2253 1624 2253 1302 
C 2253 954 2253 696 2118 438 
C 1978 173 1773 25 1478 25 
z
" transform="scale(0.015625)"/>
       </defs>
       <use xlink:href="#CMR17-36" transform="scale(0.996264)"/>
      </g>
     </g>
    </g>
    <g id="xtick_4">
     <g id="line2d_4">
      <path d="M 220.788348 388.797548 
L 220.788348 10.659249 
" clip-path="url(#pd12d74d8cc)" style="fill: none; stroke-dasharray: 1.85,0.8; stroke-dashoffset: 0; stroke: #d3d3d3; stroke-opacity: 0.53; stroke-width: 0.5"/>
     </g>
     <g id="text_4">
      <!-- 7 -->
      <g style="fill: #262626" transform="translate(218.29768 396.716046)scale(0.1 -0.1)">
       <defs>
        <path id="CMR17-37" d="M 2886 3955 
L 2886 4096 
L 1382 4096 
C 634 4096 621 4166 595 4288 
L 480 4288 
L 294 3104 
L 410 3104 
C 429 3226 474 3552 550 3673 
C 589 3724 1062 3724 1171 3724 
L 2579 3724 
L 1869 2670 
C 1395 1961 1069 1003 1069 166 
C 1069 89 1069 -128 1299 -128 
C 1530 -128 1530 89 1530 172 
L 1530 466 
C 1530 1514 1709 2204 2003 2644 
L 2886 3955 
z
" transform="scale(0.015625)"/>
       </defs>
       <use xlink:href="#CMR17-37" transform="scale(0.996264)"/>
      </g>
     </g>
    </g>
    <g id="xtick_5">
     <g id="line2d_5">
      <path d="M 272.760663 388.797548 
L 272.760663 10.659249 
" clip-path="url(#pd12d74d8cc)" style="fill: none; stroke-dasharray: 1.85,0.8; stroke-dashoffset: 0; stroke: #d3d3d3; stroke-opacity: 0.53; stroke-width: 0.5"/>
     </g>
     <g id="text_5">
      <!-- 17 -->
      <g style="fill: #262626" transform="translate(267.779327 396.716046)scale(0.1 -0.1)">
       <defs>
        <path id="CMR17-31" d="M 1702 4083 
C 1702 4217 1696 4224 1606 4224 
C 1357 3927 979 3833 621 3820 
C 602 3820 570 3820 563 3808 
C 557 3795 557 3782 557 3648 
C 755 3648 1088 3686 1344 3839 
L 1344 467 
C 1344 243 1331 166 781 166 
L 589 166 
L 589 0 
C 896 6 1216 12 1523 12 
C 1830 12 2150 6 2458 0 
L 2458 166 
L 2266 166 
C 1715 166 1702 236 1702 467 
L 1702 4083 
z
" transform="scale(0.015625)"/>
       </defs>
       <use xlink:href="#CMR17-31" transform="scale(0.996264)"/>
       <use xlink:href="#CMR17-37" transform="translate(45.690477 0)scale(0.996264)"/>
      </g>
     </g>
    </g>
    <g id="xtick_6">
     <g id="line2d_6">
      <path d="M 324.732977 388.797548 
L 324.732977 10.659249 
" clip-path="url(#pd12d74d8cc)" style="fill: none; stroke-dasharray: 1.85,0.8; stroke-dashoffset: 0; stroke: #d3d3d3; stroke-opacity: 0.53; stroke-width: 0.5"/>
     </g>
     <g id="text_6">
      <!-- 20 -->
      <g style="fill: #262626" transform="translate(319.751642 396.716046)scale(0.1 -0.1)">
       <defs>
        <path id="CMR17-30" d="M 2688 2038 
C 2688 2430 2682 3099 2413 3613 
C 2176 4063 1798 4224 1466 4224 
C 1158 4224 768 4082 525 3620 
C 269 3137 243 2539 243 2038 
C 243 1671 250 1112 448 623 
C 723 -39 1216 -128 1466 -128 
C 1760 -128 2208 -7 2470 604 
C 2662 1048 2688 1568 2688 2038 
z
M 1466 -26 
C 1056 -26 813 328 723 816 
C 653 1196 653 1749 653 2109 
C 653 2604 653 3015 736 3407 
C 858 3954 1216 4121 1466 4121 
C 1728 4121 2067 3947 2189 3420 
C 2272 3054 2278 2623 2278 2109 
C 2278 1691 2278 1176 2202 797 
C 2067 96 1690 -26 1466 -26 
z
" transform="scale(0.015625)"/>
       </defs>
       <use xlink:href="#CMR17-32" transform="scale(0.996264)"/>
       <use xlink:href="#CMR17-30" transform="translate(45.690477 0)scale(0.996264)"/>
      </g>
     </g>
    </g>
    <g id="xtick_7">
     <g id="line2d_7">
      <path d="M 376.705292 388.797548 
L 376.705292 10.659249 
" clip-path="url(#pd12d74d8cc)" style="fill: none; stroke-dasharray: 1.85,0.8; stroke-dashoffset: 0; stroke: #d3d3d3; stroke-opacity: 0.53; stroke-width: 0.5"/>
     </g>
     <g id="text_7">
      <!-- 23 -->
      <g style="fill: #262626" transform="translate(371.723956 396.716046)scale(0.1 -0.1)">
       <defs>
        <path id="CMR17-33" d="M 1414 2176 
C 1984 2176 2234 1673 2234 1094 
C 2234 322 1824 25 1453 25 
C 1114 25 563 193 390 691 
C 422 678 454 678 486 678 
C 640 678 755 780 755 947 
C 755 1132 614 1216 486 1216 
C 378 1216 211 1164 211 927 
C 211 335 787 -128 1466 -128 
C 2176 -128 2720 432 2720 1087 
C 2720 1718 2208 2176 1600 2246 
C 2086 2347 2554 2776 2554 3353 
C 2554 3856 2048 4224 1472 4224 
C 890 4224 378 3862 378 3347 
C 378 3123 544 3084 627 3084 
C 762 3084 877 3167 877 3334 
C 877 3500 762 3584 627 3584 
C 602 3584 570 3584 544 3571 
C 730 3999 1235 4076 1459 4076 
C 1683 4076 2106 3966 2106 3347 
C 2106 3167 2080 2851 1862 2574 
C 1670 2329 1453 2316 1242 2297 
C 1210 2297 1062 2284 1037 2284 
C 992 2278 966 2272 966 2227 
C 966 2182 973 2176 1101 2176 
L 1414 2176 
z
" transform="scale(0.015625)"/>
       </defs>
       <use xlink:href="#CMR17-32" transform="scale(0.996264)"/>
       <use xlink:href="#CMR17-33" transform="translate(45.690477 0)scale(0.996264)"/>
      </g>
     </g>
    </g>
    <g id="xtick_8">
     <g id="line2d_8">
      <path d="M 428.677606 388.797548 
L 428.677606 10.659249 
" clip-path="url(#pd12d74d8cc)" style="fill: none; stroke-dasharray: 1.85,0.8; stroke-dashoffset: 0; stroke: #d3d3d3; stroke-opacity: 0.53; stroke-width: 0.5"/>
     </g>
     <g id="text_8">
      <!-- 25 -->
      <g style="fill: #262626" transform="translate(423.696271 396.716046)scale(0.1 -0.1)">
       <defs>
        <path id="CMR17-35" d="M 730 3750 
C 794 3724 1056 3641 1325 3641 
C 1920 3641 2246 3961 2432 4140 
C 2432 4191 2432 4224 2394 4224 
C 2387 4224 2374 4224 2323 4198 
C 2099 4102 1837 4032 1517 4032 
C 1325 4032 1037 4055 723 4191 
C 653 4224 640 4224 634 4224 
C 602 4224 595 4217 595 4090 
L 595 2231 
C 595 2113 595 2080 659 2080 
C 691 2080 704 2093 736 2139 
C 941 2435 1222 2560 1542 2560 
C 1766 2560 2246 2415 2246 1293 
C 2246 1087 2246 716 2054 422 
C 1894 159 1645 25 1370 25 
C 947 25 518 319 403 812 
C 429 806 480 793 506 793 
C 589 793 749 838 749 1036 
C 749 1209 627 1280 506 1280 
C 358 1280 262 1190 262 1011 
C 262 454 704 -128 1382 -128 
C 2042 -128 2669 441 2669 1267 
C 2669 2054 2170 2662 1549 2662 
C 1222 2662 947 2540 730 2304 
L 730 3750 
z
" transform="scale(0.015625)"/>
       </defs>
       <use xlink:href="#CMR17-32" transform="scale(0.996264)"/>
       <use xlink:href="#CMR17-35" transform="translate(45.690477 0)scale(0.996264)"/>
      </g>
     </g>
    </g>
    <g id="xtick_9">
     <g id="line2d_9">
      <path d="M 480.649921 388.797548 
L 480.649921 10.659249 
" clip-path="url(#pd12d74d8cc)" style="fill: none; stroke-dasharray: 1.85,0.8; stroke-dashoffset: 0; stroke: #d3d3d3; stroke-opacity: 0.53; stroke-width: 0.5"/>
     </g>
     <g id="text_9">
      <!-- 26 -->
      <g style="fill: #262626" transform="translate(475.668585 396.716046)scale(0.1 -0.1)">
       <use xlink:href="#CMR17-32" transform="scale(0.996264)"/>
       <use xlink:href="#CMR17-36" transform="translate(45.690477 0)scale(0.996264)"/>
      </g>
     </g>
    </g>
    <g id="xtick_10">
     <g id="line2d_10">
      <path d="M 532.622235 388.797548 
L 532.622235 10.659249 
" clip-path="url(#pd12d74d8cc)" style="fill: none; stroke-dasharray: 1.85,0.8; stroke-dashoffset: 0; stroke: #d3d3d3; stroke-opacity: 0.53; stroke-width: 0.5"/>
     </g>
     <g id="text_10">
      <!-- 29 -->
      <g style="fill: #262626" transform="translate(527.6409 396.716046)scale(0.1 -0.1)">
       <defs>
        <path id="CMR17-39" d="M 2253 1871 
C 2253 448 1670 25 1190 25 
C 1043 25 685 43 538 281 
C 704 256 826 345 826 505 
C 826 678 685 736 595 736 
C 538 736 365 710 365 492 
C 365 68 742 -128 1203 -128 
C 1939 -128 2688 665 2688 2090 
C 2688 3857 1971 4224 1485 4224 
C 851 4224 243 3664 243 2800 
C 243 2000 762 1408 1414 1408 
C 1952 1408 2189 1910 2253 2122 
L 2253 1871 
z
M 1427 1510 
C 1254 1510 1011 1542 813 1929 
C 678 2181 678 2477 678 2793 
C 678 3174 678 3438 858 3722 
C 947 3857 1114 4076 1485 4076 
C 2240 4076 2240 2909 2240 2651 
C 2240 2193 2035 1510 1427 1510 
z
" transform="scale(0.015625)"/>
       </defs>
       <use xlink:href="#CMR17-32" transform="scale(0.996264)"/>
       <use xlink:href="#CMR17-39" transform="translate(45.690477 0)scale(0.996264)"/>
      </g>
     </g>
    </g>
    <g id="text_11">
     <!-- \textbf{Participants} -->
     <g style="fill: #262626" transform="translate(263.162191 410.955404)scale(0.12 -0.12)">
      <defs>
       <path id="CMBX12-50" d="M 1766 1984 
L 2854 1984 
C 3923 1984 4518 2527 4518 3184 
C 4518 3872 3910 4416 2854 4416 
L 243 4416 
L 243 4140 
L 922 4140 
L 922 275 
L 243 275 
L 243 0 
C 429 12 1114 12 1344 12 
C 1574 12 2259 12 2445 0 
L 2445 275 
L 1766 275 
L 1766 1984 
z
M 2624 4140 
C 3616 4140 3616 3617 3616 3184 
C 3616 2763 3616 2227 2624 2227 
L 1734 2227 
L 1734 4140 
L 2624 4140 
z
" transform="scale(0.015625)"/>
       <path id="CMBX12-61" d="M 2944 1894 
C 2944 2483 2477 2880 1574 2880 
C 1216 2880 461 2847 461 2310 
C 461 2041 666 1926 838 1926 
C 1030 1926 1216 2060 1216 2303 
C 1216 2425 1171 2540 1062 2611 
C 1274 2668 1427 2668 1549 2668 
C 1984 2668 2246 2425 2246 1900 
L 2246 1644 
C 1235 1644 218 1362 218 648 
C 218 64 960 -64 1402 -64 
C 1894 -64 2208 205 2336 488 
C 2336 250 2336 -26 2982 -26 
L 3309 -26 
C 3443 -26 3494 -26 3494 115 
C 3494 250 3437 250 3347 250 
C 2944 256 2944 359 2944 507 
L 2944 1894 
z
M 2246 867 
C 2246 262 1709 147 1504 147 
C 1190 147 928 359 928 655 
C 928 1240 1619 1439 2246 1472 
L 2246 867 
z
" transform="scale(0.015625)"/>
       <path id="CMBX12-72" d="M 1331 1440 
C 1331 1651 1376 2668 2125 2668 
C 2035 2598 1990 2489 1990 2374 
C 1990 2112 2202 2003 2362 2003 
C 2522 2003 2733 2112 2733 2374 
C 2733 2700 2400 2880 2093 2880 
C 1587 2880 1370 2438 1280 2169 
L 1274 2169 
L 1274 2880 
L 224 2828 
L 224 2553 
C 621 2553 666 2553 666 2304 
L 666 275 
L 224 275 
L 224 0 
C 371 12 851 12 1030 12 
C 1216 12 1734 12 1888 0 
L 1888 275 
L 1331 275 
L 1331 1440 
z
" transform="scale(0.015625)"/>
       <path id="CMBX12-74" d="M 1350 2540 
L 2272 2540 
L 2272 2816 
L 1350 2816 
L 1350 4032 
L 1082 4032 
C 1075 3401 768 2771 134 2751 
L 134 2540 
L 653 2540 
L 653 761 
C 653 83 1178 -64 1638 -64 
C 2112 -64 2394 294 2394 768 
L 2394 1107 
L 2125 1107 
L 2125 774 
C 2125 352 1933 166 1734 166 
C 1350 166 1350 595 1350 742 
L 1350 2540 
z
" transform="scale(0.015625)"/>
       <path id="CMBX12-69" d="M 1427 4019 
C 1427 4281 1216 4480 966 4480 
C 704 4480 506 4262 506 4019 
C 506 3775 704 3558 966 3558 
C 1216 3558 1427 3756 1427 4019 
z
M 301 2828 
L 301 2553 
C 678 2553 723 2553 723 2303 
L 723 275 
L 282 275 
L 282 0 
C 429 12 870 12 1043 12 
C 1222 12 1632 12 1786 0 
L 1786 275 
L 1389 275 
L 1389 2880 
L 301 2828 
z
" transform="scale(0.015625)"/>
       <path id="CMBX12-63" d="M 2995 724 
C 2995 801 2925 801 2861 801 
C 2758 801 2752 795 2720 718 
C 2675 596 2502 166 1914 166 
C 1011 166 1011 1141 1011 1430 
C 1011 1808 1018 2649 1856 2649 
C 1901 2649 2278 2636 2278 2604 
C 2278 2598 2272 2591 2259 2585 
C 2240 2566 2157 2469 2157 2309 
C 2157 2039 2374 1930 2534 1930 
C 2669 1930 2912 2014 2912 2315 
C 2912 2841 2176 2880 1830 2880 
C 691 2880 243 2136 243 1398 
C 243 525 851 -64 1792 -64 
C 2797 -64 2995 679 2995 724 
z
" transform="scale(0.015625)"/>
       <path id="CMBX12-70" d="M 1805 -941 
L 1363 -941 
L 1363 237 
C 1523 96 1805 -64 2189 -64 
C 3066 -64 3750 470 3750 1414 
C 3750 2306 3155 2880 2291 2880 
C 1914 2880 1587 2751 1331 2546 
L 1331 2880 
L 224 2828 
L 224 2552 
C 621 2552 666 2552 666 2300 
L 666 -941 
L 224 -941 
L 224 -1216 
C 371 -1204 832 -1204 1011 -1204 
C 1190 -1204 1658 -1204 1805 -1216 
L 1805 -941 
z
M 1363 2235 
C 1600 2546 1939 2649 2189 2649 
C 2605 2649 2982 2268 2982 1414 
C 2982 476 2522 147 2112 147 
C 1837 147 1562 289 1363 593 
L 1363 2235 
z
" transform="scale(0.015625)"/>
       <path id="CMBX12-6e" d="M 3398 1958 
C 3398 2566 3136 2880 2432 2880 
C 1971 2880 1574 2656 1357 2176 
L 1350 2176 
L 1350 2880 
L 269 2828 
L 269 2553 
C 666 2553 710 2553 710 2304 
L 710 275 
L 269 275 
L 269 0 
C 416 12 877 12 1056 12 
C 1235 12 1702 12 1850 0 
L 1850 275 
L 1408 275 
L 1408 1638 
C 1408 2329 1920 2668 2330 2668 
C 2566 2668 2701 2515 2701 2028 
L 2701 275 
L 2259 275 
L 2259 0 
C 2406 12 2867 12 3046 12 
C 3226 12 3693 12 3840 0 
L 3840 275 
L 3398 275 
L 3398 1958 
z
" transform="scale(0.015625)"/>
       <path id="CMBX12-73" d="M 2413 2713 
C 2413 2835 2413 2880 2317 2880 
C 2278 2880 2266 2880 2170 2822 
C 2144 2803 2074 2758 2042 2739 
C 1862 2841 1626 2880 1395 2880 
C 1203 2880 243 2880 243 2046 
C 243 1372 1037 1231 1235 1199 
C 1408 1167 1619 1128 1645 1128 
C 1901 1071 2157 910 2157 641 
C 2157 147 1574 147 1440 147 
C 1114 147 710 249 531 872 
C 493 1000 486 1006 378 1006 
C 243 1006 243 987 243 840 
L 243 102 
C 243 -20 243 -64 339 -64 
C 384 -64 397 -64 525 38 
L 691 160 
C 979 -64 1325 -64 1440 -64 
C 1792 -64 2592 12 2592 865 
C 2592 1173 2426 1385 2298 1500 
C 2035 1719 1818 1757 1472 1821 
C 1062 1892 678 1962 678 2270 
C 678 2687 1248 2687 1382 2687 
C 2093 2687 2131 2238 2144 2078 
C 2150 1995 2202 1995 2278 1995 
C 2413 1995 2413 2014 2413 2161 
L 2413 2713 
z
" transform="scale(0.015625)"/>
      </defs>
      <use xlink:href="#CMBX12-50" transform="scale(0.996264)"/>
      <use xlink:href="#CMBX12-61" transform="translate(73.451486 0)scale(0.996264)"/>
      <use xlink:href="#CMBX12-72" transform="translate(127.934674 0)scale(0.996264)"/>
      <use xlink:href="#CMBX12-74" transform="translate(173.712181 0)scale(0.996264)"/>
      <use xlink:href="#CMBX12-69" transform="translate(217.298731 0)scale(0.996264)"/>
      <use xlink:href="#CMBX12-63" transform="translate(248.431982 0)scale(0.996264)"/>
      <use xlink:href="#CMBX12-69" transform="translate(298.245182 0)scale(0.996264)"/>
      <use xlink:href="#CMBX12-70" transform="translate(329.378433 0)scale(0.996264)"/>
      <use xlink:href="#CMBX12-61" transform="translate(391.644933 0)scale(0.996264)"/>
      <use xlink:href="#CMBX12-6e" transform="translate(446.128121 0)scale(0.996264)"/>
      <use xlink:href="#CMBX12-74" transform="translate(505.281297 0)scale(0.996264)"/>
      <use xlink:href="#CMBX12-73" transform="translate(548.867847 0)scale(0.996264)"/>
     </g>
    </g>
   </g>
   <g id="matplotlib.axis_2">
    <g id="ytick_1">
     <g id="line2d_11">
      <path d="M 38.885247 381.383071 
L 558.608393 381.383071 
" clip-path="url(#pd12d74d8cc)" style="fill: none; stroke-dasharray: 1.85,0.8; stroke-dashoffset: 0; stroke: #d3d3d3; stroke-opacity: 0.53; stroke-width: 0.5"/>
     </g>
     <g id="text_12">
      <!-- $\mathdefault{0.0}$ -->
      <g style="fill: #262626" transform="translate(23.155168 384.84232)scale(0.1 -0.1)">
       <defs>
        <path id="CMMI12-3a" d="M 1178 307 
C 1178 492 1024 620 870 620 
C 685 620 557 467 557 313 
C 557 128 710 0 864 0 
C 1050 0 1178 153 1178 307 
z
" transform="scale(0.015625)"/>
       </defs>
       <use xlink:href="#CMR17-30" transform="scale(0.996264)"/>
       <use xlink:href="#CMMI12-3a" transform="translate(45.690477 0)scale(0.996264)"/>
       <use xlink:href="#CMR17-30" transform="translate(72.787654 0)scale(0.996264)"/>
      </g>
     </g>
    </g>
    <g id="ytick_2">
     <g id="line2d_12">
      <path d="M 38.885247 307.238307 
L 558.608393 307.238307 
" clip-path="url(#pd12d74d8cc)" style="fill: none; stroke-dasharray: 1.85,0.8; stroke-dashoffset: 0; stroke: #d3d3d3; stroke-opacity: 0.53; stroke-width: 0.5"/>
     </g>
     <g id="text_13">
      <!-- $\mathdefault{0.2}$ -->
      <g style="fill: #262626" transform="translate(23.155168 310.697556)scale(0.1 -0.1)">
       <use xlink:href="#CMR17-30" transform="scale(0.996264)"/>
       <use xlink:href="#CMMI12-3a" transform="translate(45.690477 0)scale(0.996264)"/>
       <use xlink:href="#CMR17-32" transform="translate(72.787654 0)scale(0.996264)"/>
      </g>
     </g>
    </g>
    <g id="ytick_3">
     <g id="line2d_13">
      <path d="M 38.885247 233.093542 
L 558.608393 233.093542 
" clip-path="url(#pd12d74d8cc)" style="fill: none; stroke-dasharray: 1.85,0.8; stroke-dashoffset: 0; stroke: #d3d3d3; stroke-opacity: 0.53; stroke-width: 0.5"/>
     </g>
     <g id="text_14">
      <!-- $\mathdefault{0.4}$ -->
      <g style="fill: #262626" transform="translate(23.155168 236.552792)scale(0.1 -0.1)">
       <use xlink:href="#CMR17-30" transform="scale(0.996264)"/>
       <use xlink:href="#CMMI12-3a" transform="translate(45.690477 0)scale(0.996264)"/>
       <use xlink:href="#CMR17-34" transform="translate(72.787654 0)scale(0.996264)"/>
      </g>
     </g>
    </g>
    <g id="ytick_4">
     <g id="line2d_14">
      <path d="M 38.885247 158.948778 
L 558.608393 158.948778 
" clip-path="url(#pd12d74d8cc)" style="fill: none; stroke-dasharray: 1.85,0.8; stroke-dashoffset: 0; stroke: #d3d3d3; stroke-opacity: 0.53; stroke-width: 0.5"/>
     </g>
     <g id="text_15">
      <!-- $\mathdefault{0.6}$ -->
      <g style="fill: #262626" transform="translate(23.155168 162.408027)scale(0.1 -0.1)">
       <use xlink:href="#CMR17-30" transform="scale(0.996264)"/>
       <use xlink:href="#CMMI12-3a" transform="translate(45.690477 0)scale(0.996264)"/>
       <use xlink:href="#CMR17-36" transform="translate(72.787654 0)scale(0.996264)"/>
      </g>
     </g>
    </g>
    <g id="ytick_5">
     <g id="line2d_15">
      <path d="M 38.885247 84.804014 
L 558.608393 84.804014 
" clip-path="url(#pd12d74d8cc)" style="fill: none; stroke-dasharray: 1.85,0.8; stroke-dashoffset: 0; stroke: #d3d3d3; stroke-opacity: 0.53; stroke-width: 0.5"/>
     </g>
     <g id="text_16">
      <!-- $\mathdefault{0.8}$ -->
      <g style="fill: #262626" transform="translate(23.155168 88.263263)scale(0.1 -0.1)">
       <defs>
        <path id="CMR17-38" d="M 1741 2289 
C 2144 2494 2554 2803 2554 3298 
C 2554 3884 1990 4224 1472 4224 
C 890 4224 378 3800 378 3215 
C 378 3054 416 2777 666 2533 
C 730 2469 998 2276 1171 2154 
C 883 2006 211 1652 211 945 
C 211 282 838 -128 1459 -128 
C 2144 -128 2720 366 2720 1022 
C 2720 1607 2330 1877 2074 2051 
L 1741 2289 
z
M 902 2855 
C 851 2887 595 3086 595 3388 
C 595 3781 998 4076 1459 4076 
C 1965 4076 2336 3716 2336 3298 
C 2336 2700 1670 2359 1638 2359 
C 1632 2359 1626 2359 1574 2398 
L 902 2855 
z
M 2080 1536 
C 2176 1466 2483 1253 2483 861 
C 2483 385 2010 25 1472 25 
C 890 25 448 443 448 951 
C 448 1459 838 1884 1280 2083 
L 2080 1536 
z
" transform="scale(0.015625)"/>
       </defs>
       <use xlink:href="#CMR17-30" transform="scale(0.996264)"/>
       <use xlink:href="#CMMI12-3a" transform="translate(45.690477 0)scale(0.996264)"/>
       <use xlink:href="#CMR17-38" transform="translate(72.787654 0)scale(0.996264)"/>
      </g>
     </g>
    </g>
    <g id="ytick_6">
     <g id="line2d_16">
      <path d="M 38.885247 10.659249 
L 558.608393 10.659249 
" clip-path="url(#pd12d74d8cc)" style="fill: none; stroke-dasharray: 1.85,0.8; stroke-dashoffset: 0; stroke: #d3d3d3; stroke-opacity: 0.53; stroke-width: 0.5"/>
     </g>
     <g id="text_17">
      <!-- $\mathdefault{1.0}$ -->
      <g style="fill: #262626" transform="translate(23.155168 14.118498)scale(0.1 -0.1)">
       <use xlink:href="#CMR17-31" transform="scale(0.996264)"/>
       <use xlink:href="#CMMI12-3a" transform="translate(45.690477 0)scale(0.996264)"/>
       <use xlink:href="#CMR17-30" transform="translate(72.787654 0)scale(0.996264)"/>
      </g>
     </g>
    </g>
    <g id="text_18">
     <!-- \textbf{Error Rates (FAR/FRR)} -->
     <g style="fill: #262626" transform="translate(16.166376 273.274872)rotate(-90)scale(0.12 -0.12)">
      <defs>
       <path id="CMBX12-45" d="M 4518 1753 
L 4250 1753 
C 4115 783 3878 275 2765 275 
L 1766 275 
L 1766 2156 
L 2144 2156 
C 2758 2156 2822 1889 2822 1395 
L 3091 1395 
L 3091 3177 
L 2822 3177 
C 2822 2699 2758 2432 2144 2432 
L 1766 2432 
L 1766 4108 
L 2765 4108 
C 3744 4108 3955 3694 4051 2871 
L 4320 2871 
L 4134 4383 
L 243 4383 
L 243 4108 
L 922 4108 
L 922 275 
L 243 275 
L 243 0 
L 4243 0 
L 4518 1753 
z
" transform="scale(0.015625)"/>
       <path id="CMBX12-6f" d="M 3392 1379 
C 3392 2245 2803 2880 1798 2880 
C 755 2880 198 2213 198 1379 
C 198 538 787 -64 1792 -64 
C 2835 -64 3392 570 3392 1379 
z
M 1798 166 
C 966 166 966 917 966 1443 
C 966 1744 966 2065 1088 2296 
C 1229 2553 1517 2668 1792 2668 
C 2157 2668 2387 2495 2496 2315 
C 2624 2084 2624 1751 2624 1443 
C 2624 910 2624 166 1798 166 
z
" transform="scale(0.015625)"/>
       <path id="CMBX12-52" d="M 3386 2195 
C 4250 2425 4461 2888 4461 3235 
C 4461 3877 3789 4416 2605 4416 
L 243 4416 
L 243 4140 
L 922 4140 
L 922 275 
L 243 275 
L 243 0 
C 429 12 1094 12 1325 12 
C 1555 12 2227 12 2413 0 
L 2413 275 
L 1734 275 
L 1734 2112 
L 2496 2112 
C 2752 2112 2957 2034 3098 1868 
C 3290 1649 3290 1508 3290 1078 
C 3290 648 3290 384 3616 166 
C 3949 -58 4474 -64 4614 -64 
C 5267 -64 5344 513 5344 603 
C 5344 712 5293 731 5210 731 
C 5088 731 5082 686 5075 603 
C 5043 282 4845 147 4666 147 
C 4256 147 4211 577 4160 1168 
C 4122 1504 4077 1982 3386 2195 
z
M 2483 2323 
L 1734 2323 
L 1734 4140 
L 2496 4140 
C 3539 4140 3558 3614 3558 3235 
C 3558 2882 3552 2323 2483 2323 
z
" transform="scale(0.015625)"/>
       <path id="CMBX12-65" d="M 2893 1408 
C 3040 1408 3078 1408 3078 1568 
C 3078 1758 3034 2232 2739 2529 
C 2470 2796 2112 2880 1741 2880 
C 742 2880 198 2232 198 1433 
C 198 523 858 -64 1824 -64 
C 2790 -64 3078 621 3078 731 
C 3078 829 2982 829 2944 829 
C 2842 829 2835 809 2797 725 
C 2630 302 2208 166 1901 166 
C 973 166 966 1043 966 1408 
L 2893 1408 
z
M 966 1593 
C 979 1852 986 2099 1120 2327 
C 1242 2529 1466 2668 1741 2668 
C 2426 2668 2483 1909 2490 1593 
L 966 1593 
z
" transform="scale(0.015625)"/>
       <path id="CMBX12-28" d="M 2394 -1530 
C 2394 -1505 2394 -1492 2272 -1376 
C 1555 -660 1280 467 1280 1593 
C 1280 2854 1594 3891 2310 4614 
C 2387 4691 2394 4697 2394 4723 
C 2394 4800 2317 4800 2285 4800 
C 2227 4800 2214 4800 2048 4665 
C 1126 3929 691 2752 691 1600 
C 691 422 1133 -724 2042 -1466 
C 2208 -1607 2221 -1607 2285 -1607 
C 2317 -1607 2394 -1607 2394 -1530 
z
" transform="scale(0.015625)"/>
       <path id="CMBX12-46" d="M 4032 4383 
L 243 4383 
L 243 4108 
L 922 4108 
L 922 275 
L 243 275 
L 243 0 
C 429 12 1158 12 1395 12 
C 1734 12 2304 12 2618 0 
L 2618 275 
L 1766 275 
L 1766 2048 
L 2118 2048 
C 2733 2048 2784 1765 2784 1296 
L 3053 1296 
L 3053 3080 
L 2784 3080 
C 2784 2607 2733 2323 2118 2323 
L 1766 2323 
L 1766 4108 
L 2682 4108 
C 3699 4108 3859 3636 3949 2853 
L 4218 2853 
L 4032 4383 
z
" transform="scale(0.015625)"/>
       <path id="CMBX12-41" d="M 2931 4333 
C 2886 4448 2874 4480 2720 4480 
C 2560 4480 2547 4448 2502 4333 
L 915 429 
C 870 326 870 313 691 294 
C 531 275 506 275 365 275 
L 250 275 
L 250 0 
C 416 12 800 12 986 12 
C 1158 12 1626 12 1773 0 
L 1773 275 
C 1632 275 1389 275 1210 346 
C 1229 404 1229 416 1242 442 
L 1581 1280 
L 3296 1280 
L 3699 275 
L 3098 275 
L 3098 0 
C 3302 12 3923 12 4166 12 
C 4371 12 5024 12 5184 0 
L 5184 275 
L 4576 275 
L 2931 4333 
z
M 2438 3394 
L 3181 1555 
L 1690 1555 
L 2438 3394 
z
" transform="scale(0.015625)"/>
       <path id="CMBX12-2f" d="M 3162 4505 
C 3194 4582 3194 4608 3194 4621 
C 3194 4736 3104 4800 3021 4800 
C 2899 4800 2874 4723 2835 4633 
L 429 -1306 
C 397 -1383 397 -1408 397 -1421 
C 397 -1536 486 -1600 570 -1600 
C 691 -1600 717 -1530 755 -1434 
L 3162 4505 
z
" transform="scale(0.015625)"/>
       <path id="CMBX12-29" d="M 2099 1593 
C 2099 2771 1658 3917 749 4659 
C 582 4800 570 4800 506 4800 
C 474 4800 397 4800 397 4723 
C 397 4697 397 4684 518 4569 
C 1235 3853 1510 2726 1510 1600 
C 1510 339 1197 -698 480 -1421 
C 403 -1498 397 -1505 397 -1530 
C 397 -1607 474 -1607 506 -1607 
C 563 -1607 576 -1607 742 -1472 
C 1664 -736 2099 441 2099 1593 
z
" transform="scale(0.015625)"/>
      </defs>
      <use xlink:href="#CMBX12-45" transform="scale(0.996264)"/>
      <use xlink:href="#CMBX12-72" transform="translate(73.566746 0)scale(0.996264)"/>
      <use xlink:href="#CMBX12-72" transform="translate(119.344253 0)scale(0.996264)"/>
      <use xlink:href="#CMBX12-6f" transform="translate(165.12176 0)scale(0.996264)"/>
      <use xlink:href="#CMBX12-72" transform="translate(221.161611 0)scale(0.996264)"/>
      <use xlink:href="#CMBX12-52" transform="translate(304.299018 0)scale(0.996264)"/>
      <use xlink:href="#CMBX12-61" transform="translate(387.897694 0)scale(0.996264)"/>
      <use xlink:href="#CMBX12-74" transform="translate(442.380882 0)scale(0.996264)"/>
      <use xlink:href="#CMBX12-65" transform="translate(485.967432 0)scale(0.996264)"/>
      <use xlink:href="#CMBX12-73" transform="translate(537.106699 0)scale(0.996264)"/>
      <use xlink:href="#CMBX12-28" transform="translate(618.675937 0)scale(0.996264)"/>
      <use xlink:href="#CMBX12-46" transform="translate(662.262487 0)scale(0.996264)"/>
      <use xlink:href="#CMBX12-41" transform="translate(720.262608 0)scale(0.996264)"/>
      <use xlink:href="#CMBX12-52" transform="translate(804.899002 0)scale(0.996264)"/>
      <use xlink:href="#CMBX12-2f" transform="translate(888.497678 0)scale(0.996264)"/>
      <use xlink:href="#CMBX12-46" transform="translate(944.537528 0)scale(0.996264)"/>
      <use xlink:href="#CMBX12-52" transform="translate(1014.990949 0)scale(0.996264)"/>
      <use xlink:href="#CMBX12-52" transform="translate(1098.589624 0)scale(0.996264)"/>
      <use xlink:href="#CMBX12-29" transform="translate(1182.1883 0)scale(0.996264)"/>
     </g>
    </g>
   </g>
   <g id="patch_3">
    <path d="M 44.290368 381.383071 
L 64.663515 381.383071 
L 64.663515 381.383071 
L 44.290368 381.383071 
L 44.290368 381.383071 
z
" clip-path="url(#pd12d74d8cc)" style="fill: #ebbba5; stroke: #777777; stroke-width: 1.5; stroke-linejoin: miter"/>
   </g>
   <g id="patch_4">
    <path d="M 65.079294 381.383071 
L 85.452441 381.383071 
L 85.452441 381.383071 
L 65.079294 381.383071 
L 65.079294 381.383071 
z
" clip-path="url(#pd12d74d8cc)" style="fill: #afcddc; stroke: #777777; stroke-width: 1.5; stroke-linejoin: miter"/>
   </g>
   <g id="patch_5">
    <path d="M 96.262682 381.383071 
L 116.63583 381.383071 
L 116.63583 290.962627 
L 96.262682 290.962627 
L 96.262682 381.383071 
z
" clip-path="url(#pd12d74d8cc)" style="fill: #ebbba5; stroke: #777777; stroke-width: 1.5; stroke-linejoin: miter"/>
   </g>
   <g id="patch_6">
    <path d="M 117.051608 354.256938 
L 137.424755 354.256938 
L 137.424755 354.256938 
L 117.051608 354.256938 
L 117.051608 354.256938 
z
" clip-path="url(#pd12d74d8cc)" style="fill: #afcddc; stroke: #777777; stroke-width: 1.5; stroke-linejoin: miter"/>
   </g>
   <g id="patch_7">
    <path d="M 148.234997 381.383071 
L 168.608144 381.383071 
L 168.608144 381.383071 
L 148.234997 381.383071 
L 148.234997 381.383071 
z
" clip-path="url(#pd12d74d8cc)" style="fill: #ebbba5; stroke: #777777; stroke-width: 1.5; stroke-linejoin: miter"/>
   </g>
   <g id="patch_8">
    <path d="M 169.023923 381.383071 
L 189.39707 381.383071 
L 189.39707 381.383071 
L 169.023923 381.383071 
L 169.023923 381.383071 
z
" clip-path="url(#pd12d74d8cc)" style="fill: #afcddc; stroke: #777777; stroke-width: 1.5; stroke-linejoin: miter"/>
   </g>
   <g id="patch_9">
    <path d="M 200.207311 381.383071 
L 220.580459 381.383071 
L 220.580459 272.878538 
L 200.207311 272.878538 
L 200.207311 381.383071 
z
" clip-path="url(#pd12d74d8cc)" style="fill: #ebbba5; stroke: #777777; stroke-width: 1.5; stroke-linejoin: miter"/>
   </g>
   <g id="patch_10">
    <path d="M 220.996237 354.256938 
L 241.369385 354.256938 
L 241.369385 354.256938 
L 220.996237 354.256938 
L 220.996237 354.256938 
z
" clip-path="url(#pd12d74d8cc)" style="fill: #afcddc; stroke: #777777; stroke-width: 1.5; stroke-linejoin: miter"/>
   </g>
   <g id="patch_11">
    <path d="M 252.179626 381.383071 
L 272.552773 381.383071 
L 272.552773 354.256938 
L 252.179626 354.256938 
L 252.179626 381.383071 
z
" clip-path="url(#pd12d74d8cc)" style="fill: #ebbba5; stroke: #777777; stroke-width: 1.5; stroke-linejoin: miter"/>
   </g>
   <g id="patch_12">
    <path d="M 272.968552 372.341027 
L 293.341699 372.341027 
L 293.341699 372.341027 
L 272.968552 372.341027 
L 272.968552 372.341027 
z
" clip-path="url(#pd12d74d8cc)" style="fill: #afcddc; stroke: #777777; stroke-width: 1.5; stroke-linejoin: miter"/>
   </g>
   <g id="patch_13">
    <path d="M 304.151941 381.383071 
L 324.525088 381.383071 
L 324.525088 381.383071 
L 304.151941 381.383071 
L 304.151941 381.383071 
z
" clip-path="url(#pd12d74d8cc)" style="fill: #ebbba5; stroke: #777777; stroke-width: 1.5; stroke-linejoin: miter"/>
   </g>
   <g id="patch_14">
    <path d="M 324.940866 381.383071 
L 345.314014 381.383071 
L 345.314014 381.383071 
L 324.940866 381.383071 
L 324.940866 381.383071 
z
" clip-path="url(#pd12d74d8cc)" style="fill: #afcddc; stroke: #777777; stroke-width: 1.5; stroke-linejoin: miter"/>
   </g>
   <g id="patch_15">
    <path d="M 356.124255 381.383071 
L 376.497402 381.383071 
L 376.497402 381.383071 
L 356.124255 381.383071 
L 356.124255 381.383071 
z
" clip-path="url(#pd12d74d8cc)" style="fill: #ebbba5; stroke: #777777; stroke-width: 1.5; stroke-linejoin: miter"/>
   </g>
   <g id="patch_16">
    <path d="M 376.913181 381.383071 
L 397.286328 381.383071 
L 397.286328 381.383071 
L 376.913181 381.383071 
L 376.913181 381.383071 
z
" clip-path="url(#pd12d74d8cc)" style="fill: #afcddc; stroke: #777777; stroke-width: 1.5; stroke-linejoin: miter"/>
   </g>
   <g id="patch_17">
    <path d="M 408.09657 381.383071 
L 428.469717 381.383071 
L 428.469717 381.383071 
L 408.09657 381.383071 
L 408.09657 381.383071 
z
" clip-path="url(#pd12d74d8cc)" style="fill: #ebbba5; stroke: #777777; stroke-width: 1.5; stroke-linejoin: miter"/>
   </g>
   <g id="patch_18">
    <path d="M 428.885495 381.383071 
L 449.258643 381.383071 
L 449.258643 381.383071 
L 428.885495 381.383071 
L 428.885495 381.383071 
z
" clip-path="url(#pd12d74d8cc)" style="fill: #afcddc; stroke: #777777; stroke-width: 1.5; stroke-linejoin: miter"/>
   </g>
   <g id="patch_19">
    <path d="M 460.068884 381.383071 
L 480.442031 381.383071 
L 480.442031 381.383071 
L 460.068884 381.383071 
L 460.068884 381.383071 
z
" clip-path="url(#pd12d74d8cc)" style="fill: #ebbba5; stroke: #777777; stroke-width: 1.5; stroke-linejoin: miter"/>
   </g>
   <g id="patch_20">
    <path d="M 480.85781 381.383071 
L 501.230957 381.383071 
L 501.230957 381.383071 
L 480.85781 381.383071 
L 480.85781 381.383071 
z
" clip-path="url(#pd12d74d8cc)" style="fill: #afcddc; stroke: #777777; stroke-width: 1.5; stroke-linejoin: miter"/>
   </g>
   <g id="patch_21">
    <path d="M 512.041199 381.383071 
L 532.414346 381.383071 
L 532.414346 381.383071 
L 512.041199 381.383071 
L 512.041199 381.383071 
z
" clip-path="url(#pd12d74d8cc)" style="fill: #ebbba5; stroke: #777777; stroke-width: 1.5; stroke-linejoin: miter"/>
   </g>
   <g id="patch_22">
    <path d="M 532.830125 381.383071 
L 553.203272 381.383071 
L 553.203272 381.383071 
L 532.830125 381.383071 
L 532.830125 381.383071 
z
" clip-path="url(#pd12d74d8cc)" style="fill: #afcddc; stroke: #777777; stroke-width: 1.5; stroke-linejoin: miter"/>
   </g>
   <g id="patch_23">
    <path d="M 64.871404 381.383071 
L 64.871404 381.383071 
L 64.871404 381.383071 
L 64.871404 381.383071 
z
" clip-path="url(#pd12d74d8cc)" style="fill: #ebbba5; stroke: #777777; stroke-width: 0.75; stroke-linejoin: miter"/>
   </g>
   <g id="patch_24">
    <path d="M 64.871404 381.383071 
L 64.871404 381.383071 
L 64.871404 381.383071 
L 64.871404 381.383071 
z
" clip-path="url(#pd12d74d8cc)" style="fill: #afcddc; stroke: #777777; stroke-width: 0.75; stroke-linejoin: miter"/>
   </g>
   <g id="line2d_17">
    <path d="M 54.476941 381.383071 
L 54.476941 381.383071 
" clip-path="url(#pd12d74d8cc)" style="fill: none; stroke: #2c3e50; stroke-width: 1.5; stroke-linecap: round"/>
   </g>
   <g id="line2d_18">
    <path d="M 54.476941 381.383071 
L 54.476941 381.383071 
" clip-path="url(#pd12d74d8cc)" style="fill: none; stroke: #2c3e50; stroke-width: 1.5; stroke-linecap: round"/>
   </g>
   <g id="line2d_19">
    <path d="M 49.383655 381.383071 
L 59.570228 381.383071 
" clip-path="url(#pd12d74d8cc)" style="fill: none; stroke: #2c3e50; stroke-width: 1.5; stroke-linecap: round"/>
   </g>
   <g id="line2d_20">
    <path d="M 49.383655 381.383071 
L 59.570228 381.383071 
" clip-path="url(#pd12d74d8cc)" style="fill: none; stroke: #2c3e50; stroke-width: 1.5; stroke-linecap: round"/>
   </g>
   <g id="line2d_21">
    <defs>
     <path id="ma4497f1a3c" d="M 0 3 
C 0.795609 3 1.55874 2.683901 2.12132 2.12132 
C 2.683901 1.55874 3 0.795609 3 0 
C 3 -0.795609 2.683901 -1.55874 2.12132 -2.12132 
C 1.55874 -2.683901 0.795609 -3 0 -3 
C -0.795609 -3 -1.55874 -2.683901 -2.12132 -2.12132 
C -2.683901 -1.55874 -3 -0.795609 -3 0 
C -3 0.795609 -2.683901 1.55874 -2.12132 2.12132 
C -1.55874 2.683901 -0.795609 3 0 3 
z
" style="stroke: #2c3e50; stroke-width: 1.5"/>
    </defs>
    <g clip-path="url(#pd12d74d8cc)">
     <use xlink:href="#ma4497f1a3c" x="54.476941" y="110.121738" style="fill-opacity: 0; stroke: #2c3e50; stroke-width: 1.5"/>
    </g>
   </g>
   <g id="line2d_22">
    <path d="M 75.265867 381.383071 
L 75.265867 381.383071 
" clip-path="url(#pd12d74d8cc)" style="fill: none; stroke: #2c3e50; stroke-width: 1.5; stroke-linecap: round"/>
   </g>
   <g id="line2d_23">
    <path d="M 75.265867 381.383071 
L 75.265867 381.383071 
" clip-path="url(#pd12d74d8cc)" style="fill: none; stroke: #2c3e50; stroke-width: 1.5; stroke-linecap: round"/>
   </g>
   <g id="line2d_24">
    <path d="M 70.17258 381.383071 
L 80.359154 381.383071 
" clip-path="url(#pd12d74d8cc)" style="fill: none; stroke: #2c3e50; stroke-width: 1.5; stroke-linecap: round"/>
   </g>
   <g id="line2d_25">
    <path d="M 70.17258 381.383071 
L 80.359154 381.383071 
" clip-path="url(#pd12d74d8cc)" style="fill: none; stroke: #2c3e50; stroke-width: 1.5; stroke-linecap: round"/>
   </g>
   <g id="line2d_26"/>
   <g id="line2d_27">
    <path d="M 106.449256 381.383071 
L 106.449256 381.383071 
" clip-path="url(#pd12d74d8cc)" style="fill: none; stroke: #2c3e50; stroke-width: 1.5; stroke-linecap: round"/>
   </g>
   <g id="line2d_28">
    <path d="M 106.449256 290.962627 
L 106.449256 290.962627 
" clip-path="url(#pd12d74d8cc)" style="fill: none; stroke: #2c3e50; stroke-width: 1.5; stroke-linecap: round"/>
   </g>
   <g id="line2d_29">
    <path d="M 101.355969 381.383071 
L 111.542543 381.383071 
" clip-path="url(#pd12d74d8cc)" style="fill: none; stroke: #2c3e50; stroke-width: 1.5; stroke-linecap: round"/>
   </g>
   <g id="line2d_30">
    <path d="M 101.355969 290.962627 
L 111.542543 290.962627 
" clip-path="url(#pd12d74d8cc)" style="fill: none; stroke: #2c3e50; stroke-width: 1.5; stroke-linecap: round"/>
   </g>
   <g id="line2d_31">
    <g clip-path="url(#pd12d74d8cc)">
     <use xlink:href="#ma4497f1a3c" x="106.449256" y="110.121738" style="fill-opacity: 0; stroke: #2c3e50; stroke-width: 1.5"/>
     <use xlink:href="#ma4497f1a3c" x="106.449256" y="73.95356" style="fill-opacity: 0; stroke: #2c3e50; stroke-width: 1.5"/>
    </g>
   </g>
   <g id="line2d_32">
    <path d="M 127.238182 354.256938 
L 127.238182 354.256938 
" clip-path="url(#pd12d74d8cc)" style="fill: none; stroke: #2c3e50; stroke-width: 1.5; stroke-linecap: round"/>
   </g>
   <g id="line2d_33">
    <path d="M 127.238182 354.256938 
L 127.238182 354.256938 
" clip-path="url(#pd12d74d8cc)" style="fill: none; stroke: #2c3e50; stroke-width: 1.5; stroke-linecap: round"/>
   </g>
   <g id="line2d_34">
    <path d="M 122.144895 354.256938 
L 132.331469 354.256938 
" clip-path="url(#pd12d74d8cc)" style="fill: none; stroke: #2c3e50; stroke-width: 1.5; stroke-linecap: round"/>
   </g>
   <g id="line2d_35">
    <path d="M 122.144895 354.256938 
L 132.331469 354.256938 
" clip-path="url(#pd12d74d8cc)" style="fill: none; stroke: #2c3e50; stroke-width: 1.5; stroke-linecap: round"/>
   </g>
   <g id="line2d_36"/>
   <g id="line2d_37">
    <path d="M 158.421571 381.383071 
L 158.421571 381.383071 
" clip-path="url(#pd12d74d8cc)" style="fill: none; stroke: #2c3e50; stroke-width: 1.5; stroke-linecap: round"/>
   </g>
   <g id="line2d_38">
    <path d="M 158.421571 381.383071 
L 158.421571 381.383071 
" clip-path="url(#pd12d74d8cc)" style="fill: none; stroke: #2c3e50; stroke-width: 1.5; stroke-linecap: round"/>
   </g>
   <g id="line2d_39">
    <path d="M 153.328284 381.383071 
L 163.514857 381.383071 
" clip-path="url(#pd12d74d8cc)" style="fill: none; stroke: #2c3e50; stroke-width: 1.5; stroke-linecap: round"/>
   </g>
   <g id="line2d_40">
    <path d="M 153.328284 381.383071 
L 163.514857 381.383071 
" clip-path="url(#pd12d74d8cc)" style="fill: none; stroke: #2c3e50; stroke-width: 1.5; stroke-linecap: round"/>
   </g>
   <g id="line2d_41">
    <g clip-path="url(#pd12d74d8cc)">
     <use xlink:href="#ma4497f1a3c" x="158.421571" y="209.584227" style="fill-opacity: 0; stroke: #2c3e50; stroke-width: 1.5"/>
    </g>
   </g>
   <g id="line2d_42">
    <path d="M 179.210496 381.383071 
L 179.210496 381.383071 
" clip-path="url(#pd12d74d8cc)" style="fill: none; stroke: #2c3e50; stroke-width: 1.5; stroke-linecap: round"/>
   </g>
   <g id="line2d_43">
    <path d="M 179.210496 381.383071 
L 179.210496 381.383071 
" clip-path="url(#pd12d74d8cc)" style="fill: none; stroke: #2c3e50; stroke-width: 1.5; stroke-linecap: round"/>
   </g>
   <g id="line2d_44">
    <path d="M 174.11721 381.383071 
L 184.303783 381.383071 
" clip-path="url(#pd12d74d8cc)" style="fill: none; stroke: #2c3e50; stroke-width: 1.5; stroke-linecap: round"/>
   </g>
   <g id="line2d_45">
    <path d="M 174.11721 381.383071 
L 184.303783 381.383071 
" clip-path="url(#pd12d74d8cc)" style="fill: none; stroke: #2c3e50; stroke-width: 1.5; stroke-linecap: round"/>
   </g>
   <g id="line2d_46"/>
   <g id="line2d_47">
    <path d="M 210.393885 381.383071 
L 210.393885 381.383071 
" clip-path="url(#pd12d74d8cc)" style="fill: none; stroke: #2c3e50; stroke-width: 1.5; stroke-linecap: round"/>
   </g>
   <g id="line2d_48">
    <path d="M 210.393885 272.878538 
L 210.393885 272.878538 
" clip-path="url(#pd12d74d8cc)" style="fill: none; stroke: #2c3e50; stroke-width: 1.5; stroke-linecap: round"/>
   </g>
   <g id="line2d_49">
    <path d="M 205.300598 381.383071 
L 215.487172 381.383071 
" clip-path="url(#pd12d74d8cc)" style="fill: none; stroke: #2c3e50; stroke-width: 1.5; stroke-linecap: round"/>
   </g>
   <g id="line2d_50">
    <path d="M 205.300598 272.878538 
L 215.487172 272.878538 
" clip-path="url(#pd12d74d8cc)" style="fill: none; stroke: #2c3e50; stroke-width: 1.5; stroke-linecap: round"/>
   </g>
   <g id="line2d_51">
    <g clip-path="url(#pd12d74d8cc)">
     <use xlink:href="#ma4497f1a3c" x="210.393885" y="101.079694" style="fill-opacity: 0; stroke: #2c3e50; stroke-width: 1.5"/>
     <use xlink:href="#ma4497f1a3c" x="210.393885" y="64.911516" style="fill-opacity: 0; stroke: #2c3e50; stroke-width: 1.5"/>
    </g>
   </g>
   <g id="line2d_52">
    <path d="M 231.182811 354.256938 
L 231.182811 354.256938 
" clip-path="url(#pd12d74d8cc)" style="fill: none; stroke: #2c3e50; stroke-width: 1.5; stroke-linecap: round"/>
   </g>
   <g id="line2d_53">
    <path d="M 231.182811 354.256938 
L 231.182811 354.256938 
" clip-path="url(#pd12d74d8cc)" style="fill: none; stroke: #2c3e50; stroke-width: 1.5; stroke-linecap: round"/>
   </g>
   <g id="line2d_54">
    <path d="M 226.089524 354.256938 
L 236.276098 354.256938 
" clip-path="url(#pd12d74d8cc)" style="fill: none; stroke: #2c3e50; stroke-width: 1.5; stroke-linecap: round"/>
   </g>
   <g id="line2d_55">
    <path d="M 226.089524 354.256938 
L 236.276098 354.256938 
" clip-path="url(#pd12d74d8cc)" style="fill: none; stroke: #2c3e50; stroke-width: 1.5; stroke-linecap: round"/>
   </g>
   <g id="line2d_56"/>
   <g id="line2d_57">
    <path d="M 262.3662 381.383071 
L 262.3662 381.383071 
" clip-path="url(#pd12d74d8cc)" style="fill: none; stroke: #2c3e50; stroke-width: 1.5; stroke-linecap: round"/>
   </g>
   <g id="line2d_58">
    <path d="M 262.3662 354.256938 
L 262.3662 354.256938 
" clip-path="url(#pd12d74d8cc)" style="fill: none; stroke: #2c3e50; stroke-width: 1.5; stroke-linecap: round"/>
   </g>
   <g id="line2d_59">
    <path d="M 257.272913 381.383071 
L 267.459486 381.383071 
" clip-path="url(#pd12d74d8cc)" style="fill: none; stroke: #2c3e50; stroke-width: 1.5; stroke-linecap: round"/>
   </g>
   <g id="line2d_60">
    <path d="M 257.272913 354.256938 
L 267.459486 354.256938 
" clip-path="url(#pd12d74d8cc)" style="fill: none; stroke: #2c3e50; stroke-width: 1.5; stroke-linecap: round"/>
   </g>
   <g id="line2d_61">
    <g clip-path="url(#pd12d74d8cc)">
     <use xlink:href="#ma4497f1a3c" x="262.3662" y="272.878538" style="fill-opacity: 0; stroke: #2c3e50; stroke-width: 1.5"/>
     <use xlink:href="#ma4497f1a3c" x="262.3662" y="254.794449" style="fill-opacity: 0; stroke: #2c3e50; stroke-width: 1.5"/>
    </g>
   </g>
   <g id="line2d_62">
    <path d="M 283.155125 372.341027 
L 283.155125 372.341027 
" clip-path="url(#pd12d74d8cc)" style="fill: none; stroke: #2c3e50; stroke-width: 1.5; stroke-linecap: round"/>
   </g>
   <g id="line2d_63">
    <path d="M 283.155125 372.341027 
L 283.155125 372.341027 
" clip-path="url(#pd12d74d8cc)" style="fill: none; stroke: #2c3e50; stroke-width: 1.5; stroke-linecap: round"/>
   </g>
   <g id="line2d_64">
    <path d="M 278.061839 372.341027 
L 288.248412 372.341027 
" clip-path="url(#pd12d74d8cc)" style="fill: none; stroke: #2c3e50; stroke-width: 1.5; stroke-linecap: round"/>
   </g>
   <g id="line2d_65">
    <path d="M 278.061839 372.341027 
L 288.248412 372.341027 
" clip-path="url(#pd12d74d8cc)" style="fill: none; stroke: #2c3e50; stroke-width: 1.5; stroke-linecap: round"/>
   </g>
   <g id="line2d_66"/>
   <g id="line2d_67">
    <path d="M 314.338514 381.383071 
L 314.338514 381.383071 
" clip-path="url(#pd12d74d8cc)" style="fill: none; stroke: #2c3e50; stroke-width: 1.5; stroke-linecap: round"/>
   </g>
   <g id="line2d_68">
    <path d="M 314.338514 381.383071 
L 314.338514 381.383071 
" clip-path="url(#pd12d74d8cc)" style="fill: none; stroke: #2c3e50; stroke-width: 1.5; stroke-linecap: round"/>
   </g>
   <g id="line2d_69">
    <path d="M 309.245227 381.383071 
L 319.431801 381.383071 
" clip-path="url(#pd12d74d8cc)" style="fill: none; stroke: #2c3e50; stroke-width: 1.5; stroke-linecap: round"/>
   </g>
   <g id="line2d_70">
    <path d="M 309.245227 381.383071 
L 319.431801 381.383071 
" clip-path="url(#pd12d74d8cc)" style="fill: none; stroke: #2c3e50; stroke-width: 1.5; stroke-linecap: round"/>
   </g>
   <g id="line2d_71"/>
   <g id="line2d_72">
    <path d="M 335.12744 381.383071 
L 335.12744 381.383071 
" clip-path="url(#pd12d74d8cc)" style="fill: none; stroke: #2c3e50; stroke-width: 1.5; stroke-linecap: round"/>
   </g>
   <g id="line2d_73">
    <path d="M 335.12744 381.383071 
L 335.12744 381.383071 
" clip-path="url(#pd12d74d8cc)" style="fill: none; stroke: #2c3e50; stroke-width: 1.5; stroke-linecap: round"/>
   </g>
   <g id="line2d_74">
    <path d="M 330.034153 381.383071 
L 340.220727 381.383071 
" clip-path="url(#pd12d74d8cc)" style="fill: none; stroke: #2c3e50; stroke-width: 1.5; stroke-linecap: round"/>
   </g>
   <g id="line2d_75">
    <path d="M 330.034153 381.383071 
L 340.220727 381.383071 
" clip-path="url(#pd12d74d8cc)" style="fill: none; stroke: #2c3e50; stroke-width: 1.5; stroke-linecap: round"/>
   </g>
   <g id="line2d_76"/>
   <g id="line2d_77">
    <path d="M 366.310829 381.383071 
L 366.310829 381.383071 
" clip-path="url(#pd12d74d8cc)" style="fill: none; stroke: #2c3e50; stroke-width: 1.5; stroke-linecap: round"/>
   </g>
   <g id="line2d_78">
    <path d="M 366.310829 381.383071 
L 366.310829 381.383071 
" clip-path="url(#pd12d74d8cc)" style="fill: none; stroke: #2c3e50; stroke-width: 1.5; stroke-linecap: round"/>
   </g>
   <g id="line2d_79">
    <path d="M 361.217542 381.383071 
L 371.404116 381.383071 
" clip-path="url(#pd12d74d8cc)" style="fill: none; stroke: #2c3e50; stroke-width: 1.5; stroke-linecap: round"/>
   </g>
   <g id="line2d_80">
    <path d="M 361.217542 381.383071 
L 371.404116 381.383071 
" clip-path="url(#pd12d74d8cc)" style="fill: none; stroke: #2c3e50; stroke-width: 1.5; stroke-linecap: round"/>
   </g>
   <g id="line2d_81">
    <g clip-path="url(#pd12d74d8cc)">
     <use xlink:href="#ma4497f1a3c" x="366.310829" y="155.33196" style="fill-opacity: 0; stroke: #2c3e50; stroke-width: 1.5"/>
    </g>
   </g>
   <g id="line2d_82">
    <path d="M 387.099755 381.383071 
L 387.099755 381.383071 
" clip-path="url(#pd12d74d8cc)" style="fill: none; stroke: #2c3e50; stroke-width: 1.5; stroke-linecap: round"/>
   </g>
   <g id="line2d_83">
    <path d="M 387.099755 381.383071 
L 387.099755 381.383071 
" clip-path="url(#pd12d74d8cc)" style="fill: none; stroke: #2c3e50; stroke-width: 1.5; stroke-linecap: round"/>
   </g>
   <g id="line2d_84">
    <path d="M 382.006468 381.383071 
L 392.193041 381.383071 
" clip-path="url(#pd12d74d8cc)" style="fill: none; stroke: #2c3e50; stroke-width: 1.5; stroke-linecap: round"/>
   </g>
   <g id="line2d_85">
    <path d="M 382.006468 381.383071 
L 392.193041 381.383071 
" clip-path="url(#pd12d74d8cc)" style="fill: none; stroke: #2c3e50; stroke-width: 1.5; stroke-linecap: round"/>
   </g>
   <g id="line2d_86"/>
   <g id="line2d_87">
    <path d="M 418.283143 381.383071 
L 418.283143 381.383071 
" clip-path="url(#pd12d74d8cc)" style="fill: none; stroke: #2c3e50; stroke-width: 1.5; stroke-linecap: round"/>
   </g>
   <g id="line2d_88">
    <path d="M 418.283143 381.383071 
L 418.283143 381.383071 
" clip-path="url(#pd12d74d8cc)" style="fill: none; stroke: #2c3e50; stroke-width: 1.5; stroke-linecap: round"/>
   </g>
   <g id="line2d_89">
    <path d="M 413.189856 381.383071 
L 423.37643 381.383071 
" clip-path="url(#pd12d74d8cc)" style="fill: none; stroke: #2c3e50; stroke-width: 1.5; stroke-linecap: round"/>
   </g>
   <g id="line2d_90">
    <path d="M 413.189856 381.383071 
L 423.37643 381.383071 
" clip-path="url(#pd12d74d8cc)" style="fill: none; stroke: #2c3e50; stroke-width: 1.5; stroke-linecap: round"/>
   </g>
   <g id="line2d_91"/>
   <g id="line2d_92">
    <path d="M 439.072069 381.383071 
L 439.072069 381.383071 
" clip-path="url(#pd12d74d8cc)" style="fill: none; stroke: #2c3e50; stroke-width: 1.5; stroke-linecap: round"/>
   </g>
   <g id="line2d_93">
    <path d="M 439.072069 381.383071 
L 439.072069 381.383071 
" clip-path="url(#pd12d74d8cc)" style="fill: none; stroke: #2c3e50; stroke-width: 1.5; stroke-linecap: round"/>
   </g>
   <g id="line2d_94">
    <path d="M 433.978782 381.383071 
L 444.165356 381.383071 
" clip-path="url(#pd12d74d8cc)" style="fill: none; stroke: #2c3e50; stroke-width: 1.5; stroke-linecap: round"/>
   </g>
   <g id="line2d_95">
    <path d="M 433.978782 381.383071 
L 444.165356 381.383071 
" clip-path="url(#pd12d74d8cc)" style="fill: none; stroke: #2c3e50; stroke-width: 1.5; stroke-linecap: round"/>
   </g>
   <g id="line2d_96"/>
   <g id="line2d_97">
    <path d="M 470.255458 381.383071 
L 470.255458 381.383071 
" clip-path="url(#pd12d74d8cc)" style="fill: none; stroke: #2c3e50; stroke-width: 1.5; stroke-linecap: round"/>
   </g>
   <g id="line2d_98">
    <path d="M 470.255458 381.383071 
L 470.255458 381.383071 
" clip-path="url(#pd12d74d8cc)" style="fill: none; stroke: #2c3e50; stroke-width: 1.5; stroke-linecap: round"/>
   </g>
   <g id="line2d_99">
    <path d="M 465.162171 381.383071 
L 475.348745 381.383071 
" clip-path="url(#pd12d74d8cc)" style="fill: none; stroke: #2c3e50; stroke-width: 1.5; stroke-linecap: round"/>
   </g>
   <g id="line2d_100">
    <path d="M 465.162171 381.383071 
L 475.348745 381.383071 
" clip-path="url(#pd12d74d8cc)" style="fill: none; stroke: #2c3e50; stroke-width: 1.5; stroke-linecap: round"/>
   </g>
   <g id="line2d_101">
    <g clip-path="url(#pd12d74d8cc)">
     <use xlink:href="#ma4497f1a3c" x="470.255458" y="10.659249" style="fill-opacity: 0; stroke: #2c3e50; stroke-width: 1.5"/>
     <use xlink:href="#ma4497f1a3c" x="470.255458" y="236.71036" style="fill-opacity: 0; stroke: #2c3e50; stroke-width: 1.5"/>
    </g>
   </g>
   <g id="line2d_102">
    <path d="M 491.044384 381.383071 
L 491.044384 381.383071 
" clip-path="url(#pd12d74d8cc)" style="fill: none; stroke: #2c3e50; stroke-width: 1.5; stroke-linecap: round"/>
   </g>
   <g id="line2d_103">
    <path d="M 491.044384 381.383071 
L 491.044384 381.383071 
" clip-path="url(#pd12d74d8cc)" style="fill: none; stroke: #2c3e50; stroke-width: 1.5; stroke-linecap: round"/>
   </g>
   <g id="line2d_104">
    <path d="M 485.951097 381.383071 
L 496.13767 381.383071 
" clip-path="url(#pd12d74d8cc)" style="fill: none; stroke: #2c3e50; stroke-width: 1.5; stroke-linecap: round"/>
   </g>
   <g id="line2d_105">
    <path d="M 485.951097 381.383071 
L 496.13767 381.383071 
" clip-path="url(#pd12d74d8cc)" style="fill: none; stroke: #2c3e50; stroke-width: 1.5; stroke-linecap: round"/>
   </g>
   <g id="line2d_106"/>
   <g id="line2d_107">
    <path d="M 522.227772 381.383071 
L 522.227772 381.383071 
" clip-path="url(#pd12d74d8cc)" style="fill: none; stroke: #2c3e50; stroke-width: 1.5; stroke-linecap: round"/>
   </g>
   <g id="line2d_108">
    <path d="M 522.227772 381.383071 
L 522.227772 381.383071 
" clip-path="url(#pd12d74d8cc)" style="fill: none; stroke: #2c3e50; stroke-width: 1.5; stroke-linecap: round"/>
   </g>
   <g id="line2d_109">
    <path d="M 517.134486 381.383071 
L 527.321059 381.383071 
" clip-path="url(#pd12d74d8cc)" style="fill: none; stroke: #2c3e50; stroke-width: 1.5; stroke-linecap: round"/>
   </g>
   <g id="line2d_110">
    <path d="M 517.134486 381.383071 
L 527.321059 381.383071 
" clip-path="url(#pd12d74d8cc)" style="fill: none; stroke: #2c3e50; stroke-width: 1.5; stroke-linecap: round"/>
   </g>
   <g id="line2d_111"/>
   <g id="line2d_112">
    <path d="M 543.016698 381.383071 
L 543.016698 381.383071 
" clip-path="url(#pd12d74d8cc)" style="fill: none; stroke: #2c3e50; stroke-width: 1.5; stroke-linecap: round"/>
   </g>
   <g id="line2d_113">
    <path d="M 543.016698 381.383071 
L 543.016698 381.383071 
" clip-path="url(#pd12d74d8cc)" style="fill: none; stroke: #2c3e50; stroke-width: 1.5; stroke-linecap: round"/>
   </g>
   <g id="line2d_114">
    <path d="M 537.923411 381.383071 
L 548.109985 381.383071 
" clip-path="url(#pd12d74d8cc)" style="fill: none; stroke: #2c3e50; stroke-width: 1.5; stroke-linecap: round"/>
   </g>
   <g id="line2d_115">
    <path d="M 537.923411 381.383071 
L 548.109985 381.383071 
" clip-path="url(#pd12d74d8cc)" style="fill: none; stroke: #2c3e50; stroke-width: 1.5; stroke-linecap: round"/>
   </g>
   <g id="line2d_116"/>
   <g id="line2d_117">
    <path d="M 38.885247 348.128441 
L 558.608393 348.128441 
" clip-path="url(#pd12d74d8cc)" style="fill: none; stroke-dasharray: 9.6,2.4,1.5,2.4; stroke-dashoffset: 0; stroke: #f7b799; stroke-opacity: 0.8; stroke-width: 1.5"/>
   </g>
   <g id="line2d_118">
    <path d="M 38.885247 375.05364 
L 558.608393 375.05364 
" clip-path="url(#pd12d74d8cc)" style="fill: none; stroke-dasharray: 9.6,2.4,1.5,2.4; stroke-dashoffset: 0; stroke: #a7d0e4; stroke-opacity: 0.8; stroke-width: 1.5"/>
   </g>
   <g id="line2d_119">
    <path d="M 44.290368 381.383071 
L 64.663515 381.383071 
" clip-path="url(#pd12d74d8cc)" style="fill: none; stroke-dasharray: 5.55,2.4; stroke-dashoffset: 0; stroke: #2c3e50; stroke-width: 1.5"/>
   </g>
   <g id="line2d_120">
    <path d="M 65.079294 381.383071 
L 85.452441 381.383071 
" clip-path="url(#pd12d74d8cc)" style="fill: none; stroke-dasharray: 5.55,2.4; stroke-dashoffset: 0; stroke: #2c3e50; stroke-width: 1.5"/>
   </g>
   <g id="line2d_121">
    <path d="M 96.262682 345.214894 
L 116.63583 345.214894 
" clip-path="url(#pd12d74d8cc)" style="fill: none; stroke-dasharray: 5.55,2.4; stroke-dashoffset: 0; stroke: #2c3e50; stroke-width: 1.5"/>
   </g>
   <g id="line2d_122">
    <path d="M 117.051608 354.256938 
L 137.424755 354.256938 
" clip-path="url(#pd12d74d8cc)" style="fill: none; stroke-dasharray: 5.55,2.4; stroke-dashoffset: 0; stroke: #2c3e50; stroke-width: 1.5"/>
   </g>
   <g id="line2d_123">
    <path d="M 148.234997 381.383071 
L 168.608144 381.383071 
" clip-path="url(#pd12d74d8cc)" style="fill: none; stroke-dasharray: 5.55,2.4; stroke-dashoffset: 0; stroke: #2c3e50; stroke-width: 1.5"/>
   </g>
   <g id="line2d_124">
    <path d="M 169.023923 381.383071 
L 189.39707 381.383071 
" clip-path="url(#pd12d74d8cc)" style="fill: none; stroke-dasharray: 5.55,2.4; stroke-dashoffset: 0; stroke: #2c3e50; stroke-width: 1.5"/>
   </g>
   <g id="line2d_125">
    <path d="M 200.207311 354.256938 
L 220.580459 354.256938 
" clip-path="url(#pd12d74d8cc)" style="fill: none; stroke-dasharray: 5.55,2.4; stroke-dashoffset: 0; stroke: #2c3e50; stroke-width: 1.5"/>
   </g>
   <g id="line2d_126">
    <path d="M 220.996237 354.256938 
L 241.369385 354.256938 
" clip-path="url(#pd12d74d8cc)" style="fill: none; stroke-dasharray: 5.55,2.4; stroke-dashoffset: 0; stroke: #2c3e50; stroke-width: 1.5"/>
   </g>
   <g id="line2d_127">
    <path d="M 252.179626 381.383071 
L 272.552773 381.383071 
" clip-path="url(#pd12d74d8cc)" style="fill: none; stroke-dasharray: 5.55,2.4; stroke-dashoffset: 0; stroke: #2c3e50; stroke-width: 1.5"/>
   </g>
   <g id="line2d_128">
    <path d="M 272.968552 372.341027 
L 293.341699 372.341027 
" clip-path="url(#pd12d74d8cc)" style="fill: none; stroke-dasharray: 5.55,2.4; stroke-dashoffset: 0; stroke: #2c3e50; stroke-width: 1.5"/>
   </g>
   <g id="line2d_129">
    <path d="M 304.151941 381.383071 
L 324.525088 381.383071 
" clip-path="url(#pd12d74d8cc)" style="fill: none; stroke-dasharray: 5.55,2.4; stroke-dashoffset: 0; stroke: #2c3e50; stroke-width: 1.5"/>
   </g>
   <g id="line2d_130">
    <path d="M 324.940866 381.383071 
L 345.314014 381.383071 
" clip-path="url(#pd12d74d8cc)" style="fill: none; stroke-dasharray: 5.55,2.4; stroke-dashoffset: 0; stroke: #2c3e50; stroke-width: 1.5"/>
   </g>
   <g id="line2d_131">
    <path d="M 356.124255 381.383071 
L 376.497402 381.383071 
" clip-path="url(#pd12d74d8cc)" style="fill: none; stroke-dasharray: 5.55,2.4; stroke-dashoffset: 0; stroke: #2c3e50; stroke-width: 1.5"/>
   </g>
   <g id="line2d_132">
    <path d="M 376.913181 381.383071 
L 397.286328 381.383071 
" clip-path="url(#pd12d74d8cc)" style="fill: none; stroke-dasharray: 5.55,2.4; stroke-dashoffset: 0; stroke: #2c3e50; stroke-width: 1.5"/>
   </g>
   <g id="line2d_133">
    <path d="M 408.09657 381.383071 
L 428.469717 381.383071 
" clip-path="url(#pd12d74d8cc)" style="fill: none; stroke-dasharray: 5.55,2.4; stroke-dashoffset: 0; stroke: #2c3e50; stroke-width: 1.5"/>
   </g>
   <g id="line2d_134">
    <path d="M 428.885495 381.383071 
L 449.258643 381.383071 
" clip-path="url(#pd12d74d8cc)" style="fill: none; stroke-dasharray: 5.55,2.4; stroke-dashoffset: 0; stroke: #2c3e50; stroke-width: 1.5"/>
   </g>
   <g id="line2d_135">
    <path d="M 460.068884 381.383071 
L 480.442031 381.383071 
" clip-path="url(#pd12d74d8cc)" style="fill: none; stroke-dasharray: 5.55,2.4; stroke-dashoffset: 0; stroke: #2c3e50; stroke-width: 1.5"/>
   </g>
   <g id="line2d_136">
    <path d="M 480.85781 381.383071 
L 501.230957 381.383071 
" clip-path="url(#pd12d74d8cc)" style="fill: none; stroke-dasharray: 5.55,2.4; stroke-dashoffset: 0; stroke: #2c3e50; stroke-width: 1.5"/>
   </g>
   <g id="line2d_137">
    <path d="M 512.041199 381.383071 
L 532.414346 381.383071 
" clip-path="url(#pd12d74d8cc)" style="fill: none; stroke-dasharray: 5.55,2.4; stroke-dashoffset: 0; stroke: #2c3e50; stroke-width: 1.5"/>
   </g>
   <g id="line2d_138">
    <path d="M 532.830125 381.383071 
L 553.203272 381.383071 
" clip-path="url(#pd12d74d8cc)" style="fill: none; stroke-dasharray: 5.55,2.4; stroke-dashoffset: 0; stroke: #2c3e50; stroke-width: 1.5"/>
   </g>
   <g id="patch_25">
    <path d="M 38.885247 388.797548 
L 38.885247 10.659249 
" style="fill: none"/>
   </g>
   <g id="patch_26">
    <path d="M 38.885247 388.797548 
L 558.608393 388.797548 
" style="fill: none"/>
   </g>
   <g id="legend_1">
    <g id="patch_27">
     <path d="M 417.388096 74.407963 
L 551.608393 74.407963 
Q 553.608393 74.407963 553.608393 72.407963 
L 553.608393 17.659249 
Q 553.608393 15.659249 551.608393 15.659249 
L 417.388096 15.659249 
Q 415.388096 15.659249 415.388096 17.659249 
L 415.388096 72.407963 
Q 415.388096 74.407963 417.388096 74.407963 
z
" style="fill: #ffffff; opacity: 0.8; stroke: #cccccc; stroke-width: 0.24; stroke-linejoin: miter"/>
    </g>
    <g id="patch_28">
     <path d="M 419.388096 26.659249 
L 439.388096 26.659249 
L 439.388096 19.659249 
L 419.388096 19.659249 
z
" style="fill: #ebbba5; stroke: #777777; stroke-width: 0.75; stroke-linejoin: miter"/>
    </g>
    <g id="text_19">
     <!-- \textbf{FAR} -->
     <g style="fill: #262626" transform="translate(447.388096 26.659249)scale(0.1 -0.1)">
      <use xlink:href="#CMBX12-46" transform="scale(0.996264)"/>
      <use xlink:href="#CMBX12-41" transform="translate(58.00012 0)scale(0.996264)"/>
      <use xlink:href="#CMBX12-52" transform="translate(142.636515 0)scale(0.996264)"/>
     </g>
    </g>
    <g id="patch_29">
     <path d="M 419.388096 40.596428 
L 439.388096 40.596428 
L 439.388096 33.596428 
L 419.388096 33.596428 
z
" style="fill: #afcddc; stroke: #777777; stroke-width: 0.75; stroke-linejoin: miter"/>
    </g>
    <g id="text_20">
     <!-- \textbf{FRR} -->
     <g style="fill: #262626" transform="translate(447.388096 40.596428)scale(0.1 -0.1)">
      <use xlink:href="#CMBX12-46" transform="scale(0.996264)"/>
      <use xlink:href="#CMBX12-52" transform="translate(70.453421 0)scale(0.996264)"/>
      <use xlink:href="#CMBX12-52" transform="translate(154.052096 0)scale(0.996264)"/>
     </g>
    </g>
    <g id="line2d_139">
     <path d="M 419.388096 51.033606 
L 429.388096 51.033606 
L 439.388096 51.033606 
" style="fill: none; stroke-dasharray: 9.6,2.4,1.5,2.4; stroke-dashoffset: 0; stroke: #f7b799; stroke-opacity: 0.8; stroke-width: 1.5"/>
    </g>
    <g id="text_21">
     <!-- \textbf{\textbf{Average FAR: 0.090}} -->
     <g style="fill: #262626" transform="translate(447.388096 54.533606)scale(0.1 -0.1)">
      <defs>
       <path id="CMBX12-76" d="M 3168 2393 
C 3213 2489 3238 2540 3642 2540 
L 3642 2816 
C 3411 2803 3398 2803 3136 2803 
C 2963 2803 2950 2803 2586 2816 
L 2586 2540 
C 2758 2540 2899 2508 2899 2463 
C 2899 2457 2899 2451 2867 2386 
L 2118 737 
L 1293 2540 
L 1645 2540 
L 1645 2816 
C 1498 2803 1050 2803 877 2803 
C 691 2803 320 2803 154 2816 
L 154 2540 
L 557 2540 
L 1683 89 
C 1741 -32 1754 -64 1901 -64 
C 2003 -64 2054 -52 2112 76 
L 3168 2393 
z
" transform="scale(0.015625)"/>
       <path id="CMBX12-67" d="M 832 1177 
C 1139 1011 1498 1011 1594 1011 
C 2477 1011 2829 1506 2829 1958 
C 2829 2287 2643 2519 2566 2584 
C 2752 2687 2906 2713 3014 2726 
C 2995 2694 2976 2668 2976 2584 
C 2976 2448 3066 2326 3232 2326 
C 3398 2326 3488 2448 3488 2584 
C 3488 2739 3373 2944 3104 2944 
C 2829 2944 2566 2809 2432 2694 
C 2170 2847 1920 2905 1594 2905 
C 710 2905 358 2410 358 1958 
C 358 1758 422 1493 691 1274 
C 582 1151 467 926 467 693 
C 467 416 614 179 749 76 
C 595 38 198 -109 198 -474 
C 198 -852 614 -1280 1792 -1280 
C 2854 -1280 3392 -935 3392 -455 
C 3392 108 3021 294 2861 371 
C 2554 524 2144 524 1581 524 
C 1421 524 1139 524 1107 531 
C 832 576 755 823 755 946 
C 755 998 762 1094 832 1177 
z
M 1594 1216 
C 1037 1216 1037 1661 1037 1958 
C 1037 2255 1037 2700 1594 2700 
C 2150 2700 2150 2255 2150 1958 
C 2150 1661 2150 1216 1594 1216 
z
M 1952 -64 
C 2419 -64 2867 -148 2867 -480 
C 2867 -704 2643 -1076 1798 -1076 
C 954 -1076 723 -717 723 -474 
C 723 -64 1126 -64 1222 -64 
L 1952 -64 
z
" transform="scale(0.015625)"/>
       <path id="CMBX12-3a" d="M 1459 2355 
C 1459 2617 1248 2816 998 2816 
C 749 2816 538 2617 538 2355 
C 538 2092 749 1894 998 1894 
C 1248 1894 1459 2092 1459 2355 
z
M 1459 460 
C 1459 723 1248 921 998 921 
C 749 921 538 723 538 460 
C 538 198 749 0 998 0 
C 1248 0 1459 198 1459 460 
z
" transform="scale(0.015625)"/>
       <path id="CMBX12-30" d="M 3309 2060 
C 3309 2677 3309 4224 1798 4224 
C 282 4224 282 2683 282 2060 
C 282 1444 282 -64 1792 -64 
C 3302 -64 3309 1424 3309 2060 
z
M 1798 147 
C 1594 147 1440 230 1312 365 
C 1152 526 1050 628 1050 2137 
C 1050 2587 1050 2998 1101 3331 
C 1190 3967 1651 4012 1792 4012 
C 1997 4012 2394 3916 2483 3376 
C 2541 3049 2541 2529 2541 2137 
C 2541 622 2445 532 2253 339 
C 2125 211 1952 147 1798 147 
z
" transform="scale(0.015625)"/>
       <path id="CMBX12-2e" d="M 1459 460 
C 1459 723 1248 921 998 921 
C 749 921 538 723 538 460 
C 538 198 749 0 998 0 
C 1248 0 1459 198 1459 460 
z
" transform="scale(0.015625)"/>
       <path id="CMBX12-39" d="M 2477 1818 
C 2477 1366 2477 192 1478 192 
C 1280 192 1050 238 915 332 
C 1101 371 1235 505 1235 710 
C 1235 940 1062 1088 858 1088 
C 691 1088 480 979 480 697 
C 480 256 832 -64 1491 -64 
C 2304 -64 3290 454 3290 2120 
C 3290 2552 3290 4224 1811 4224 
C 928 4224 301 3710 301 2828 
C 301 1934 915 1452 1683 1452 
C 1952 1452 2272 1548 2477 2005 
L 2477 1818 
z
M 1747 1664 
C 1114 1664 1114 2185 1114 2815 
C 1114 3433 1114 3993 1811 3993 
C 2221 3993 2368 3626 2394 3556 
C 2458 3362 2470 2963 2470 2751 
C 2470 2301 2285 1664 1747 1664 
z
" transform="scale(0.015625)"/>
      </defs>
      <use xlink:href="#CMBX12-41" transform="scale(0.996264)"/>
      <use xlink:href="#CMBX12-76" transform="translate(84.636395 0)scale(0.996264)"/>
      <use xlink:href="#CMBX12-65" transform="translate(140.676245 0)scale(0.996264)"/>
      <use xlink:href="#CMBX12-72" transform="translate(191.815512 0)scale(0.996264)"/>
      <use xlink:href="#CMBX12-61" transform="translate(237.59302 0)scale(0.996264)"/>
      <use xlink:href="#CMBX12-67" transform="translate(292.076208 0)scale(0.996264)"/>
      <use xlink:href="#CMBX12-65" transform="translate(348.116058 0)scale(0.996264)"/>
      <use xlink:href="#CMBX12-46" transform="translate(436.615226 0)scale(0.996264)"/>
      <use xlink:href="#CMBX12-41" transform="translate(494.615346 0)scale(0.996264)"/>
      <use xlink:href="#CMBX12-52" transform="translate(579.251741 0)scale(0.996264)"/>
      <use xlink:href="#CMBX12-3a" transform="translate(662.850416 0)scale(0.996264)"/>
      <use xlink:href="#CMBX12-30" transform="translate(731.343567 0)scale(0.996264)"/>
      <use xlink:href="#CMBX12-2e" transform="translate(787.383418 0)scale(0.996264)"/>
      <use xlink:href="#CMBX12-30" transform="translate(818.516668 0)scale(0.996264)"/>
      <use xlink:href="#CMBX12-39" transform="translate(874.556518 0)scale(0.996264)"/>
      <use xlink:href="#CMBX12-30" transform="translate(930.596369 0)scale(0.996264)"/>
     </g>
    </g>
    <g id="line2d_140">
     <path d="M 419.388096 64.970784 
L 429.388096 64.970784 
L 439.388096 64.970784 
" style="fill: none; stroke-dasharray: 9.6,2.4,1.5,2.4; stroke-dashoffset: 0; stroke: #a7d0e4; stroke-opacity: 0.8; stroke-width: 1.5"/>
    </g>
    <g id="text_22">
     <!-- \textbf{\textbf{Average FRR: 0.017}} -->
     <g style="fill: #262626" transform="translate(447.388096 68.470784)scale(0.1 -0.1)">
      <defs>
       <path id="CMBX12-31" d="M 2214 4034 
C 2214 4224 2202 4224 1997 4224 
C 1523 3795 813 3795 672 3795 
L 550 3795 
L 550 3520 
L 672 3520 
C 896 3520 1235 3558 1491 3641 
L 1491 275 
L 602 275 
L 602 0 
C 870 12 1542 12 1843 12 
C 2144 12 2822 12 3091 0 
L 3091 275 
L 2214 275 
L 2214 4034 
z
" transform="scale(0.015625)"/>
       <path id="CMBX12-37" d="M 3430 3859 
C 3488 3923 3488 3936 3488 4147 
L 2138 4147 
C 2093 4147 1139 4179 1062 4192 
C 902 4217 890 4287 877 4352 
L 608 4352 
L 397 2768 
L 666 2768 
C 672 2833 723 3282 832 3353 
C 890 3392 1421 3392 1523 3392 
L 2682 3392 
C 1939 2486 1856 2383 1658 2004 
C 1280 1258 1222 680 1222 365 
C 1222 -64 1549 -64 1600 -64 
C 1760 -64 1850 19 1894 64 
C 1978 166 1978 243 1978 526 
C 1978 1509 2067 2229 2470 2711 
L 3430 3859 
z
" transform="scale(0.015625)"/>
      </defs>
      <use xlink:href="#CMBX12-41" transform="scale(0.996264)"/>
      <use xlink:href="#CMBX12-76" transform="translate(84.636395 0)scale(0.996264)"/>
      <use xlink:href="#CMBX12-65" transform="translate(140.676245 0)scale(0.996264)"/>
      <use xlink:href="#CMBX12-72" transform="translate(191.815512 0)scale(0.996264)"/>
      <use xlink:href="#CMBX12-61" transform="translate(237.59302 0)scale(0.996264)"/>
      <use xlink:href="#CMBX12-67" transform="translate(292.076208 0)scale(0.996264)"/>
      <use xlink:href="#CMBX12-65" transform="translate(348.116058 0)scale(0.996264)"/>
      <use xlink:href="#CMBX12-46" transform="translate(436.615226 0)scale(0.996264)"/>
      <use xlink:href="#CMBX12-52" transform="translate(507.068646 0)scale(0.996264)"/>
      <use xlink:href="#CMBX12-52" transform="translate(590.667322 0)scale(0.996264)"/>
      <use xlink:href="#CMBX12-3a" transform="translate(674.265997 0)scale(0.996264)"/>
      <use xlink:href="#CMBX12-30" transform="translate(742.759148 0)scale(0.996264)"/>
      <use xlink:href="#CMBX12-2e" transform="translate(798.798998 0)scale(0.996264)"/>
      <use xlink:href="#CMBX12-30" transform="translate(829.932249 0)scale(0.996264)"/>
      <use xlink:href="#CMBX12-31" transform="translate(885.972099 0)scale(0.996264)"/>
      <use xlink:href="#CMBX12-37" transform="translate(942.01195 0)scale(0.996264)"/>
     </g>
    </g>
   </g>
  </g>
 </g>
 <defs>
  <clipPath id="pd12d74d8cc">
   <rect x="38.885247" y="10.659249" width="519.723145" height="378.138299"/>
  </clipPath>
 </defs>
</svg>
