<?xml version="1.0" encoding="utf-8" standalone="no"?>
<!DOCTYPE svg PUBLIC "-//W3C//DTD SVG 1.1//EN"
  "http://www.w3.org/Graphics/SVG/1.1/DTD/svg11.dtd">
<svg xmlns:xlink="http://www.w3.org/1999/xlink" width="500.233991pt" height="366.370845pt" viewBox="0 0 500.233991 366.370845" xmlns="http://www.w3.org/2000/svg" version="1.1">
 <metadata>
  <rdf:RDF xmlns:dc="http://purl.org/dc/elements/1.1/" xmlns:cc="http://creativecommons.org/ns#" xmlns:rdf="http://www.w3.org/1999/02/22-rdf-syntax-ns#">
   <cc:Work>
    <dc:type rdf:resource="http://purl.org/dc/dcmitype/StillImage"/>
    <dc:date>2023-08-14T08:29:53.385826</dc:date>
    <dc:format>image/svg+xml</dc:format>
    <dc:creator>
     <cc:Agent>
      <dc:title>Matplotlib v3.5.1, https://matplotlib.org/</dc:title>
     </cc:Agent>
    </dc:creator>
   </cc:Work>
  </rdf:RDF>
 </metadata>
 <defs>
  <style type="text/css">*{stroke-linejoin: round; stroke-linecap: butt}</style>
 </defs>
 <g id="figure_1">
  <g id="patch_1">
   <path d="M 0 366.370845 
L 500.233991 366.370845 
L 500.233991 0 
L 0 0 
z
" style="fill: #ffffff"/>
  </g>
  <g id="axes_1">
   <g id="patch_2">
    <path d="M 46.633991 333.36 
L 493.033991 333.36 
L 493.033991 7.2 
L 46.633991 7.2 
z
" style="fill: #ffffff"/>
   </g>
   <g id="matplotlib.axis_1">
    <g id="xtick_1">
     <g id="line2d_1">
      <path d="M 66.9249 333.36 
L 66.9249 7.2 
" clip-path="url(#p4350ff8c3f)" style="fill: none; stroke-dasharray: 2.96,1.28; stroke-dashoffset: 0; stroke: #d3d3d3; stroke-opacity: 0.53; stroke-width: 0.8"/>
     </g>
     <g id="text_1">
      <!-- $\mathdefault{15}$ -->
      <g style="fill: #262626" transform="translate(61.943565 341.278498)scale(0.1 -0.1)">
       <defs>
        <path id="CMR17-31" d="M 1702 4083 
C 1702 4217 1696 4224 1606 4224 
C 1357 3927 979 3833 621 3820 
C 602 3820 570 3820 563 3808 
C 557 3795 557 3782 557 3648 
C 755 3648 1088 3686 1344 3839 
L 1344 467 
C 1344 243 1331 166 781 166 
L 589 166 
L 589 0 
C 896 6 1216 12 1523 12 
C 1830 12 2150 6 2458 0 
L 2458 166 
L 2266 166 
C 1715 166 1702 236 1702 467 
L 1702 4083 
z
" transform="scale(0.015625)"/>
        <path id="CMR17-35" d="M 730 3750 
C 794 3724 1056 3641 1325 3641 
C 1920 3641 2246 3961 2432 4140 
C 2432 4191 2432 4224 2394 4224 
C 2387 4224 2374 4224 2323 4198 
C 2099 4102 1837 4032 1517 4032 
C 1325 4032 1037 4055 723 4191 
C 653 4224 640 4224 634 4224 
C 602 4224 595 4217 595 4090 
L 595 2231 
C 595 2113 595 2080 659 2080 
C 691 2080 704 2093 736 2139 
C 941 2435 1222 2560 1542 2560 
C 1766 2560 2246 2415 2246 1293 
C 2246 1087 2246 716 2054 422 
C 1894 159 1645 25 1370 25 
C 947 25 518 319 403 812 
C 429 806 480 793 506 793 
C 589 793 749 838 749 1036 
C 749 1209 627 1280 506 1280 
C 358 1280 262 1190 262 1011 
C 262 454 704 -128 1382 -128 
C 2042 -128 2669 441 2669 1267 
C 2669 2054 2170 2662 1549 2662 
C 1222 2662 947 2540 730 2304 
L 730 3750 
z
" transform="scale(0.015625)"/>
       </defs>
       <use xlink:href="#CMR17-31" transform="scale(0.996264)"/>
       <use xlink:href="#CMR17-35" transform="translate(45.690477 0)scale(0.996264)"/>
      </g>
     </g>
    </g>
    <g id="xtick_2">
     <g id="line2d_2">
      <path d="M 148.088536 333.36 
L 148.088536 7.2 
" clip-path="url(#p4350ff8c3f)" style="fill: none; stroke-dasharray: 2.96,1.28; stroke-dashoffset: 0; stroke: #d3d3d3; stroke-opacity: 0.53; stroke-width: 0.8"/>
     </g>
     <g id="text_2">
      <!-- $\mathdefault{16}$ -->
      <g style="fill: #262626" transform="translate(143.107201 341.278498)scale(0.1 -0.1)">
       <defs>
        <path id="CMR17-36" d="M 678 2198 
C 678 3712 1395 4076 1811 4076 
C 1946 4076 2272 4049 2400 3782 
C 2298 3782 2106 3782 2106 3558 
C 2106 3385 2246 3328 2336 3328 
C 2394 3328 2566 3353 2566 3571 
C 2566 3987 2246 4224 1805 4224 
C 1043 4224 243 3411 243 2011 
C 243 257 966 -128 1478 -128 
C 2099 -128 2688 431 2688 1295 
C 2688 2101 2170 2688 1517 2688 
C 1126 2688 838 2430 678 1979 
L 678 2198 
z
M 1478 25 
C 691 25 691 1212 691 1450 
C 691 1914 909 2585 1504 2585 
C 1613 2585 1926 2585 2138 2140 
C 2253 1889 2253 1624 2253 1302 
C 2253 954 2253 696 2118 438 
C 1978 173 1773 25 1478 25 
z
" transform="scale(0.015625)"/>
       </defs>
       <use xlink:href="#CMR17-31" transform="scale(0.996264)"/>
       <use xlink:href="#CMR17-36" transform="translate(45.690477 0)scale(0.996264)"/>
      </g>
     </g>
    </g>
    <g id="xtick_3">
     <g id="line2d_3">
      <path d="M 229.252173 333.36 
L 229.252173 7.2 
" clip-path="url(#p4350ff8c3f)" style="fill: none; stroke-dasharray: 2.96,1.28; stroke-dashoffset: 0; stroke: #d3d3d3; stroke-opacity: 0.53; stroke-width: 0.8"/>
     </g>
     <g id="text_3">
      <!-- $\mathdefault{17}$ -->
      <g style="fill: #262626" transform="translate(224.270837 341.278498)scale(0.1 -0.1)">
       <defs>
        <path id="CMR17-37" d="M 2886 3955 
L 2886 4096 
L 1382 4096 
C 634 4096 621 4166 595 4288 
L 480 4288 
L 294 3104 
L 410 3104 
C 429 3226 474 3552 550 3673 
C 589 3724 1062 3724 1171 3724 
L 2579 3724 
L 1869 2670 
C 1395 1961 1069 1003 1069 166 
C 1069 89 1069 -128 1299 -128 
C 1530 -128 1530 89 1530 172 
L 1530 466 
C 1530 1514 1709 2204 2003 2644 
L 2886 3955 
z
" transform="scale(0.015625)"/>
       </defs>
       <use xlink:href="#CMR17-31" transform="scale(0.996264)"/>
       <use xlink:href="#CMR17-37" transform="translate(45.690477 0)scale(0.996264)"/>
      </g>
     </g>
    </g>
    <g id="xtick_4">
     <g id="line2d_4">
      <path d="M 310.415809 333.36 
L 310.415809 7.2 
" clip-path="url(#p4350ff8c3f)" style="fill: none; stroke-dasharray: 2.96,1.28; stroke-dashoffset: 0; stroke: #d3d3d3; stroke-opacity: 0.53; stroke-width: 0.8"/>
     </g>
     <g id="text_4">
      <!-- $\mathdefault{18}$ -->
      <g style="fill: #262626" transform="translate(305.434474 341.278498)scale(0.1 -0.1)">
       <defs>
        <path id="CMR17-38" d="M 1741 2289 
C 2144 2494 2554 2803 2554 3298 
C 2554 3884 1990 4224 1472 4224 
C 890 4224 378 3800 378 3215 
C 378 3054 416 2777 666 2533 
C 730 2469 998 2276 1171 2154 
C 883 2006 211 1652 211 945 
C 211 282 838 -128 1459 -128 
C 2144 -128 2720 366 2720 1022 
C 2720 1607 2330 1877 2074 2051 
L 1741 2289 
z
M 902 2855 
C 851 2887 595 3086 595 3388 
C 595 3781 998 4076 1459 4076 
C 1965 4076 2336 3716 2336 3298 
C 2336 2700 1670 2359 1638 2359 
C 1632 2359 1626 2359 1574 2398 
L 902 2855 
z
M 2080 1536 
C 2176 1466 2483 1253 2483 861 
C 2483 385 2010 25 1472 25 
C 890 25 448 443 448 951 
C 448 1459 838 1884 1280 2083 
L 2080 1536 
z
" transform="scale(0.015625)"/>
       </defs>
       <use xlink:href="#CMR17-31" transform="scale(0.996264)"/>
       <use xlink:href="#CMR17-38" transform="translate(45.690477 0)scale(0.996264)"/>
      </g>
     </g>
    </g>
    <g id="xtick_5">
     <g id="line2d_5">
      <path d="M 391.579445 333.36 
L 391.579445 7.2 
" clip-path="url(#p4350ff8c3f)" style="fill: none; stroke-dasharray: 2.96,1.28; stroke-dashoffset: 0; stroke: #d3d3d3; stroke-opacity: 0.53; stroke-width: 0.8"/>
     </g>
     <g id="text_5">
      <!-- $\mathdefault{19}$ -->
      <g style="fill: #262626" transform="translate(386.59811 341.278498)scale(0.1 -0.1)">
       <defs>
        <path id="CMR17-39" d="M 2253 1871 
C 2253 448 1670 25 1190 25 
C 1043 25 685 43 538 281 
C 704 256 826 345 826 505 
C 826 678 685 736 595 736 
C 538 736 365 710 365 492 
C 365 68 742 -128 1203 -128 
C 1939 -128 2688 665 2688 2090 
C 2688 3857 1971 4224 1485 4224 
C 851 4224 243 3664 243 2800 
C 243 2000 762 1408 1414 1408 
C 1952 1408 2189 1910 2253 2122 
L 2253 1871 
z
M 1427 1510 
C 1254 1510 1011 1542 813 1929 
C 678 2181 678 2477 678 2793 
C 678 3174 678 3438 858 3722 
C 947 3857 1114 4076 1485 4076 
C 2240 4076 2240 2909 2240 2651 
C 2240 2193 2035 1510 1427 1510 
z
" transform="scale(0.015625)"/>
       </defs>
       <use xlink:href="#CMR17-31" transform="scale(0.996264)"/>
       <use xlink:href="#CMR17-39" transform="translate(45.690477 0)scale(0.996264)"/>
      </g>
     </g>
    </g>
    <g id="xtick_6">
     <g id="line2d_6">
      <path d="M 472.743082 333.36 
L 472.743082 7.2 
" clip-path="url(#p4350ff8c3f)" style="fill: none; stroke-dasharray: 2.96,1.28; stroke-dashoffset: 0; stroke: #d3d3d3; stroke-opacity: 0.53; stroke-width: 0.8"/>
     </g>
     <g id="text_6">
      <!-- $\mathdefault{20}$ -->
      <g style="fill: #262626" transform="translate(467.761746 341.278498)scale(0.1 -0.1)">
       <defs>
        <path id="CMR17-32" d="M 2669 990 
L 2554 990 
C 2490 537 2438 460 2413 422 
C 2381 371 1920 371 1830 371 
L 602 371 
C 832 620 1280 1073 1824 1596 
C 2214 1966 2669 2400 2669 3033 
C 2669 3788 2067 4224 1395 4224 
C 691 4224 262 3603 262 3027 
C 262 2777 448 2745 525 2745 
C 589 2745 781 2783 781 3007 
C 781 3206 614 3264 525 3264 
C 486 3264 448 3257 422 3244 
C 544 3788 915 4057 1306 4057 
C 1862 4057 2227 3616 2227 3033 
C 2227 2477 1901 1998 1536 1583 
L 262 147 
L 262 0 
L 2515 0 
L 2669 990 
z
" transform="scale(0.015625)"/>
        <path id="CMR17-30" d="M 2688 2038 
C 2688 2430 2682 3099 2413 3613 
C 2176 4063 1798 4224 1466 4224 
C 1158 4224 768 4082 525 3620 
C 269 3137 243 2539 243 2038 
C 243 1671 250 1112 448 623 
C 723 -39 1216 -128 1466 -128 
C 1760 -128 2208 -7 2470 604 
C 2662 1048 2688 1568 2688 2038 
z
M 1466 -26 
C 1056 -26 813 328 723 816 
C 653 1196 653 1749 653 2109 
C 653 2604 653 3015 736 3407 
C 858 3954 1216 4121 1466 4121 
C 1728 4121 2067 3947 2189 3420 
C 2272 3054 2278 2623 2278 2109 
C 2278 1691 2278 1176 2202 797 
C 2067 96 1690 -26 1466 -26 
z
" transform="scale(0.015625)"/>
       </defs>
       <use xlink:href="#CMR17-32" transform="scale(0.996264)"/>
       <use xlink:href="#CMR17-30" transform="translate(45.690477 0)scale(0.996264)"/>
      </g>
     </g>
    </g>
    <g id="text_7">
     <!-- \textbf{Time (s)} -->
     <g style="fill: #262626" transform="translate(244.492224 356.182053)scale(0.12 -0.12)">
      <defs>
       <path id="CMBX12-54" d="M 4608 4358 
L 390 4358 
L 262 2833 
L 531 2833 
C 589 3535 640 4083 1562 4083 
L 2080 4083 
L 2080 275 
L 1114 275 
L 1114 0 
C 1626 12 2285 12 2502 12 
C 2893 12 3379 12 3891 0 
L 3891 275 
L 2925 275 
L 2925 4083 
L 3437 4083 
C 4358 4083 4410 3542 4467 2833 
L 4736 2833 
L 4608 4358 
z
" transform="scale(0.015625)"/>
       <path id="CMBX12-69" d="M 1427 4019 
C 1427 4281 1216 4480 966 4480 
C 704 4480 506 4262 506 4019 
C 506 3775 704 3558 966 3558 
C 1216 3558 1427 3756 1427 4019 
z
M 301 2828 
L 301 2553 
C 678 2553 723 2553 723 2303 
L 723 275 
L 282 275 
L 282 0 
C 429 12 870 12 1043 12 
C 1222 12 1632 12 1786 0 
L 1786 275 
L 1389 275 
L 1389 2880 
L 301 2828 
z
" transform="scale(0.015625)"/>
       <path id="CMBX12-6d" d="M 5402 1958 
C 5402 2547 5152 2880 4435 2880 
C 3789 2880 3488 2444 3386 2240 
C 3283 2783 2848 2880 2438 2880 
C 1824 2880 1491 2483 1357 2176 
L 1350 2176 
L 1350 2880 
L 269 2828 
L 269 2553 
C 666 2553 710 2553 710 2304 
L 710 275 
L 269 275 
L 269 0 
C 416 12 877 12 1056 12 
C 1235 12 1702 12 1850 0 
L 1850 275 
L 1408 275 
L 1408 1638 
C 1408 2336 1926 2668 2330 2668 
C 2566 2668 2707 2528 2707 2028 
L 2707 275 
L 2266 275 
L 2266 0 
C 2413 12 2874 12 3053 12 
C 3232 12 3699 12 3846 0 
L 3846 275 
L 3405 275 
L 3405 1638 
C 3405 2336 3923 2668 4326 2668 
C 4563 2668 4704 2528 4704 2028 
L 4704 275 
L 4262 275 
L 4262 0 
C 4410 12 4870 12 5050 12 
C 5229 12 5696 12 5843 0 
L 5843 275 
L 5402 275 
L 5402 1958 
z
" transform="scale(0.015625)"/>
       <path id="CMBX12-65" d="M 2893 1408 
C 3040 1408 3078 1408 3078 1568 
C 3078 1758 3034 2232 2739 2529 
C 2470 2796 2112 2880 1741 2880 
C 742 2880 198 2232 198 1433 
C 198 523 858 -64 1824 -64 
C 2790 -64 3078 621 3078 731 
C 3078 829 2982 829 2944 829 
C 2842 829 2835 809 2797 725 
C 2630 302 2208 166 1901 166 
C 973 166 966 1043 966 1408 
L 2893 1408 
z
M 966 1593 
C 979 1852 986 2099 1120 2327 
C 1242 2529 1466 2668 1741 2668 
C 2426 2668 2483 1909 2490 1593 
L 966 1593 
z
" transform="scale(0.015625)"/>
       <path id="CMBX12-28" d="M 2394 -1530 
C 2394 -1505 2394 -1492 2272 -1376 
C 1555 -660 1280 467 1280 1593 
C 1280 2854 1594 3891 2310 4614 
C 2387 4691 2394 4697 2394 4723 
C 2394 4800 2317 4800 2285 4800 
C 2227 4800 2214 4800 2048 4665 
C 1126 3929 691 2752 691 1600 
C 691 422 1133 -724 2042 -1466 
C 2208 -1607 2221 -1607 2285 -1607 
C 2317 -1607 2394 -1607 2394 -1530 
z
" transform="scale(0.015625)"/>
       <path id="CMBX12-73" d="M 2413 2713 
C 2413 2835 2413 2880 2317 2880 
C 2278 2880 2266 2880 2170 2822 
C 2144 2803 2074 2758 2042 2739 
C 1862 2841 1626 2880 1395 2880 
C 1203 2880 243 2880 243 2046 
C 243 1372 1037 1231 1235 1199 
C 1408 1167 1619 1128 1645 1128 
C 1901 1071 2157 910 2157 641 
C 2157 147 1574 147 1440 147 
C 1114 147 710 249 531 872 
C 493 1000 486 1006 378 1006 
C 243 1006 243 987 243 840 
L 243 102 
C 243 -20 243 -64 339 -64 
C 384 -64 397 -64 525 38 
L 691 160 
C 979 -64 1325 -64 1440 -64 
C 1792 -64 2592 12 2592 865 
C 2592 1173 2426 1385 2298 1500 
C 2035 1719 1818 1757 1472 1821 
C 1062 1892 678 1962 678 2270 
C 678 2687 1248 2687 1382 2687 
C 2093 2687 2131 2238 2144 2078 
C 2150 1995 2202 1995 2278 1995 
C 2413 1995 2413 2014 2413 2161 
L 2413 2713 
z
" transform="scale(0.015625)"/>
       <path id="CMBX12-29" d="M 2099 1593 
C 2099 2771 1658 3917 749 4659 
C 582 4800 570 4800 506 4800 
C 474 4800 397 4800 397 4723 
C 397 4697 397 4684 518 4569 
C 1235 3853 1510 2726 1510 1600 
C 1510 339 1197 -698 480 -1421 
C 403 -1498 397 -1505 397 -1530 
C 397 -1607 474 -1607 506 -1607 
C 563 -1607 576 -1607 742 -1472 
C 1664 -736 2099 441 2099 1593 
z
" transform="scale(0.015625)"/>
      </defs>
      <use xlink:href="#CMBX12-54" transform="scale(0.996264)"/>
      <use xlink:href="#CMBX12-69" transform="translate(77.94837 0)scale(0.996264)"/>
      <use xlink:href="#CMBX12-6d" transform="translate(109.081621 0)scale(0.996264)"/>
      <use xlink:href="#CMBX12-65" transform="translate(202.481372 0)scale(0.996264)"/>
      <use xlink:href="#CMBX12-28" transform="translate(290.980539 0)scale(0.996264)"/>
      <use xlink:href="#CMBX12-73" transform="translate(334.56709 0)scale(0.996264)"/>
      <use xlink:href="#CMBX12-29" transform="translate(378.776427 0)scale(0.996264)"/>
     </g>
    </g>
   </g>
   <g id="matplotlib.axis_2">
    <g id="ytick_1">
     <g id="line2d_7">
      <path d="M 46.633991 313.508507 
L 493.033991 313.508507 
" clip-path="url(#p4350ff8c3f)" style="fill: none; stroke-dasharray: 2.96,1.28; stroke-dashoffset: 0; stroke: #d3d3d3; stroke-opacity: 0.53; stroke-width: 0.8"/>
     </g>
     <g id="text_8">
      <!-- $\mathdefault{−1.0}$ -->
      <g style="fill: #262626" transform="translate(23.155168 316.967756)scale(0.1 -0.1)">
       <defs>
        <path id="CMSY10-0" d="M 4218 1472 
C 4326 1472 4442 1472 4442 1600 
C 4442 1728 4326 1728 4218 1728 
L 755 1728 
C 646 1728 531 1728 531 1600 
C 531 1472 646 1472 755 1472 
L 4218 1472 
z
" transform="scale(0.015625)"/>
        <path id="CMMI12-3a" d="M 1178 307 
C 1178 492 1024 620 870 620 
C 685 620 557 467 557 313 
C 557 128 710 0 864 0 
C 1050 0 1178 153 1178 307 
z
" transform="scale(0.015625)"/>
       </defs>
       <use xlink:href="#CMSY10-0" transform="scale(0.996264)"/>
       <use xlink:href="#CMR17-31" transform="translate(77.487468 0)scale(0.996264)"/>
       <use xlink:href="#CMMI12-3a" transform="translate(123.177945 0)scale(0.996264)"/>
       <use xlink:href="#CMR17-30" transform="translate(150.275122 0)scale(0.996264)"/>
      </g>
     </g>
    </g>
    <g id="ytick_2">
     <g id="line2d_8">
      <path d="M 46.633991 247.550411 
L 493.033991 247.550411 
" clip-path="url(#p4350ff8c3f)" style="fill: none; stroke-dasharray: 2.96,1.28; stroke-dashoffset: 0; stroke: #d3d3d3; stroke-opacity: 0.53; stroke-width: 0.8"/>
     </g>
     <g id="text_9">
      <!-- $\mathdefault{−0.5}$ -->
      <g style="fill: #262626" transform="translate(23.155168 251.00966)scale(0.1 -0.1)">
       <use xlink:href="#CMSY10-0" transform="scale(0.996264)"/>
       <use xlink:href="#CMR17-30" transform="translate(77.487468 0)scale(0.996264)"/>
       <use xlink:href="#CMMI12-3a" transform="translate(123.177945 0)scale(0.996264)"/>
       <use xlink:href="#CMR17-35" transform="translate(150.275122 0)scale(0.996264)"/>
      </g>
     </g>
    </g>
    <g id="ytick_3">
     <g id="line2d_9">
      <path d="M 46.633991 181.592315 
L 493.033991 181.592315 
" clip-path="url(#p4350ff8c3f)" style="fill: none; stroke-dasharray: 2.96,1.28; stroke-dashoffset: 0; stroke: #d3d3d3; stroke-opacity: 0.53; stroke-width: 0.8"/>
     </g>
     <g id="text_10">
      <!-- $\mathdefault{0.0}$ -->
      <g style="fill: #262626" transform="translate(30.903912 185.051564)scale(0.1 -0.1)">
       <use xlink:href="#CMR17-30" transform="scale(0.996264)"/>
       <use xlink:href="#CMMI12-3a" transform="translate(45.690477 0)scale(0.996264)"/>
       <use xlink:href="#CMR17-30" transform="translate(72.787654 0)scale(0.996264)"/>
      </g>
     </g>
    </g>
    <g id="ytick_4">
     <g id="line2d_10">
      <path d="M 46.633991 115.634219 
L 493.033991 115.634219 
" clip-path="url(#p4350ff8c3f)" style="fill: none; stroke-dasharray: 2.96,1.28; stroke-dashoffset: 0; stroke: #d3d3d3; stroke-opacity: 0.53; stroke-width: 0.8"/>
     </g>
     <g id="text_11">
      <!-- $\mathdefault{0.5}$ -->
      <g style="fill: #262626" transform="translate(30.903912 119.093468)scale(0.1 -0.1)">
       <use xlink:href="#CMR17-30" transform="scale(0.996264)"/>
       <use xlink:href="#CMMI12-3a" transform="translate(45.690477 0)scale(0.996264)"/>
       <use xlink:href="#CMR17-35" transform="translate(72.787654 0)scale(0.996264)"/>
      </g>
     </g>
    </g>
    <g id="ytick_5">
     <g id="line2d_11">
      <path d="M 46.633991 49.676123 
L 493.033991 49.676123 
" clip-path="url(#p4350ff8c3f)" style="fill: none; stroke-dasharray: 2.96,1.28; stroke-dashoffset: 0; stroke: #d3d3d3; stroke-opacity: 0.53; stroke-width: 0.8"/>
     </g>
     <g id="text_12">
      <!-- $\mathdefault{1.0}$ -->
      <g style="fill: #262626" transform="translate(30.903912 53.135372)scale(0.1 -0.1)">
       <use xlink:href="#CMR17-31" transform="scale(0.996264)"/>
       <use xlink:href="#CMMI12-3a" transform="translate(45.690477 0)scale(0.996264)"/>
       <use xlink:href="#CMR17-30" transform="translate(72.787654 0)scale(0.996264)"/>
      </g>
     </g>
    </g>
    <g id="text_13">
     <!-- \textbf{Angular Velocity (rad/s)} -->
     <g style="fill: #262626" transform="translate(16.166376 243.394029)rotate(-90)scale(0.12 -0.12)">
      <defs>
       <path id="CMBX12-41" d="M 2931 4333 
C 2886 4448 2874 4480 2720 4480 
C 2560 4480 2547 4448 2502 4333 
L 915 429 
C 870 326 870 313 691 294 
C 531 275 506 275 365 275 
L 250 275 
L 250 0 
C 416 12 800 12 986 12 
C 1158 12 1626 12 1773 0 
L 1773 275 
C 1632 275 1389 275 1210 346 
C 1229 404 1229 416 1242 442 
L 1581 1280 
L 3296 1280 
L 3699 275 
L 3098 275 
L 3098 0 
C 3302 12 3923 12 4166 12 
C 4371 12 5024 12 5184 0 
L 5184 275 
L 4576 275 
L 2931 4333 
z
M 2438 3394 
L 3181 1555 
L 1690 1555 
L 2438 3394 
z
" transform="scale(0.015625)"/>
       <path id="CMBX12-6e" d="M 3398 1958 
C 3398 2566 3136 2880 2432 2880 
C 1971 2880 1574 2656 1357 2176 
L 1350 2176 
L 1350 2880 
L 269 2828 
L 269 2553 
C 666 2553 710 2553 710 2304 
L 710 275 
L 269 275 
L 269 0 
C 416 12 877 12 1056 12 
C 1235 12 1702 12 1850 0 
L 1850 275 
L 1408 275 
L 1408 1638 
C 1408 2329 1920 2668 2330 2668 
C 2566 2668 2701 2515 2701 2028 
L 2701 275 
L 2259 275 
L 2259 0 
C 2406 12 2867 12 3046 12 
C 3226 12 3693 12 3840 0 
L 3840 275 
L 3398 275 
L 3398 1958 
z
" transform="scale(0.015625)"/>
       <path id="CMBX12-67" d="M 832 1177 
C 1139 1011 1498 1011 1594 1011 
C 2477 1011 2829 1506 2829 1958 
C 2829 2287 2643 2519 2566 2584 
C 2752 2687 2906 2713 3014 2726 
C 2995 2694 2976 2668 2976 2584 
C 2976 2448 3066 2326 3232 2326 
C 3398 2326 3488 2448 3488 2584 
C 3488 2739 3373 2944 3104 2944 
C 2829 2944 2566 2809 2432 2694 
C 2170 2847 1920 2905 1594 2905 
C 710 2905 358 2410 358 1958 
C 358 1758 422 1493 691 1274 
C 582 1151 467 926 467 693 
C 467 416 614 179 749 76 
C 595 38 198 -109 198 -474 
C 198 -852 614 -1280 1792 -1280 
C 2854 -1280 3392 -935 3392 -455 
C 3392 108 3021 294 2861 371 
C 2554 524 2144 524 1581 524 
C 1421 524 1139 524 1107 531 
C 832 576 755 823 755 946 
C 755 998 762 1094 832 1177 
z
M 1594 1216 
C 1037 1216 1037 1661 1037 1958 
C 1037 2255 1037 2700 1594 2700 
C 2150 2700 2150 2255 2150 1958 
C 2150 1661 2150 1216 1594 1216 
z
M 1952 -64 
C 2419 -64 2867 -148 2867 -480 
C 2867 -704 2643 -1076 1798 -1076 
C 954 -1076 723 -717 723 -474 
C 723 -64 1126 -64 1222 -64 
L 1952 -64 
z
" transform="scale(0.015625)"/>
       <path id="CMBX12-75" d="M 2259 2828 
L 2259 2553 
C 2656 2553 2701 2553 2701 2301 
L 2701 1033 
C 2701 541 2413 147 1914 147 
C 1434 147 1408 308 1408 664 
L 1408 2880 
L 269 2828 
L 269 2553 
C 666 2553 710 2553 710 2301 
L 710 768 
C 710 121 1139 -64 1824 -64 
C 1978 -64 2451 -64 2726 457 
L 2733 457 
L 2733 -64 
L 3840 -26 
L 3840 250 
C 3443 250 3398 250 3398 502 
L 3398 2880 
L 2259 2828 
z
" transform="scale(0.015625)"/>
       <path id="CMBX12-6c" d="M 1389 4480 
L 282 4428 
L 282 4153 
C 678 4153 723 4153 723 3901 
L 723 275 
L 282 275 
L 282 0 
C 429 12 883 12 1056 12 
C 1229 12 1683 12 1830 0 
L 1830 275 
L 1389 275 
L 1389 4480 
z
" transform="scale(0.015625)"/>
       <path id="CMBX12-61" d="M 2944 1894 
C 2944 2483 2477 2880 1574 2880 
C 1216 2880 461 2847 461 2310 
C 461 2041 666 1926 838 1926 
C 1030 1926 1216 2060 1216 2303 
C 1216 2425 1171 2540 1062 2611 
C 1274 2668 1427 2668 1549 2668 
C 1984 2668 2246 2425 2246 1900 
L 2246 1644 
C 1235 1644 218 1362 218 648 
C 218 64 960 -64 1402 -64 
C 1894 -64 2208 205 2336 488 
C 2336 250 2336 -26 2982 -26 
L 3309 -26 
C 3443 -26 3494 -26 3494 115 
C 3494 250 3437 250 3347 250 
C 2944 256 2944 359 2944 507 
L 2944 1894 
z
M 2246 867 
C 2246 262 1709 147 1504 147 
C 1190 147 928 359 928 655 
C 928 1240 1619 1439 2246 1472 
L 2246 867 
z
" transform="scale(0.015625)"/>
       <path id="CMBX12-72" d="M 1331 1440 
C 1331 1651 1376 2668 2125 2668 
C 2035 2598 1990 2489 1990 2374 
C 1990 2112 2202 2003 2362 2003 
C 2522 2003 2733 2112 2733 2374 
C 2733 2700 2400 2880 2093 2880 
C 1587 2880 1370 2438 1280 2169 
L 1274 2169 
L 1274 2880 
L 224 2828 
L 224 2553 
C 621 2553 666 2553 666 2304 
L 666 275 
L 224 275 
L 224 0 
C 371 12 851 12 1030 12 
C 1216 12 1734 12 1888 0 
L 1888 275 
L 1331 275 
L 1331 1440 
z
" transform="scale(0.015625)"/>
       <path id="CMBX12-56" d="M 4634 3992 
C 4672 4075 4698 4140 5171 4140 
L 5280 4140 
L 5280 4416 
C 5082 4403 4621 4403 4570 4403 
C 4390 4403 3936 4403 3789 4416 
L 3789 4140 
C 3930 4140 4166 4140 4346 4069 
L 4314 3979 
L 3002 960 
L 1619 4140 
L 2214 4140 
L 2214 4416 
C 2010 4403 1395 4403 1152 4403 
C 947 4403 314 4403 154 4416 
L 154 4140 
L 730 4140 
L 2496 70 
C 2554 -58 2611 -64 2714 -64 
C 2816 -64 2880 -64 2938 70 
L 4634 3992 
z
" transform="scale(0.015625)"/>
       <path id="CMBX12-6f" d="M 3392 1379 
C 3392 2245 2803 2880 1798 2880 
C 755 2880 198 2213 198 1379 
C 198 538 787 -64 1792 -64 
C 2835 -64 3392 570 3392 1379 
z
M 1798 166 
C 966 166 966 917 966 1443 
C 966 1744 966 2065 1088 2296 
C 1229 2553 1517 2668 1792 2668 
C 2157 2668 2387 2495 2496 2315 
C 2624 2084 2624 1751 2624 1443 
C 2624 910 2624 166 1798 166 
z
" transform="scale(0.015625)"/>
       <path id="CMBX12-63" d="M 2995 724 
C 2995 801 2925 801 2861 801 
C 2758 801 2752 795 2720 718 
C 2675 596 2502 166 1914 166 
C 1011 166 1011 1141 1011 1430 
C 1011 1808 1018 2649 1856 2649 
C 1901 2649 2278 2636 2278 2604 
C 2278 2598 2272 2591 2259 2585 
C 2240 2566 2157 2469 2157 2309 
C 2157 2039 2374 1930 2534 1930 
C 2669 1930 2912 2014 2912 2315 
C 2912 2841 2176 2880 1830 2880 
C 691 2880 243 2136 243 1398 
C 243 525 851 -64 1792 -64 
C 2797 -64 2995 679 2995 724 
z
" transform="scale(0.015625)"/>
       <path id="CMBX12-74" d="M 1350 2540 
L 2272 2540 
L 2272 2816 
L 1350 2816 
L 1350 4032 
L 1082 4032 
C 1075 3401 768 2771 134 2751 
L 134 2540 
L 653 2540 
L 653 761 
C 653 83 1178 -64 1638 -64 
C 2112 -64 2394 294 2394 768 
L 2394 1107 
L 2125 1107 
L 2125 774 
C 2125 352 1933 166 1734 166 
C 1350 166 1350 595 1350 742 
L 1350 2540 
z
" transform="scale(0.015625)"/>
       <path id="CMBX12-79" d="M 3168 2400 
C 3206 2489 3232 2540 3642 2540 
L 3642 2816 
C 3424 2803 3398 2803 3136 2803 
C 2963 2803 2950 2803 2586 2816 
L 2586 2540 
C 2592 2540 2893 2540 2893 2457 
C 2893 2438 2874 2400 2867 2381 
L 2118 780 
L 1299 2540 
L 1651 2540 
L 1651 2816 
C 1498 2803 1062 2803 883 2803 
C 698 2803 320 2803 154 2816 
L 154 2540 
L 563 2540 
L 1747 -8 
C 1715 -84 1626 -269 1594 -345 
C 1459 -631 1254 -1069 806 -1069 
C 781 -1069 704 -1069 634 -1031 
C 646 -1025 838 -949 838 -707 
C 838 -497 685 -364 493 -364 
C 294 -364 141 -497 141 -713 
C 141 -1012 422 -1280 806 -1280 
C 1331 -1280 1677 -809 1805 -529 
L 3168 2400 
z
" transform="scale(0.015625)"/>
       <path id="CMBX12-64" d="M 2221 4428 
L 2221 4153 
C 2618 4153 2662 4153 2662 3896 
L 2662 2571 
C 2522 2694 2240 2880 1798 2880 
C 890 2880 243 2313 243 1408 
C 243 483 877 -64 1728 -64 
C 2080 -64 2381 57 2630 270 
L 2630 -64 
L 3770 -26 
L 3770 250 
C 3373 250 3328 250 3328 502 
L 3328 4480 
L 2221 4428 
z
M 2630 625 
C 2362 231 2035 147 1805 147 
C 1011 147 1011 968 1011 1395 
C 1011 1699 1011 2022 1152 2268 
C 1350 2630 1728 2668 1875 2668 
C 2138 2668 2419 2552 2630 2268 
L 2630 625 
z
" transform="scale(0.015625)"/>
       <path id="CMBX12-2f" d="M 3162 4505 
C 3194 4582 3194 4608 3194 4621 
C 3194 4736 3104 4800 3021 4800 
C 2899 4800 2874 4723 2835 4633 
L 429 -1306 
C 397 -1383 397 -1408 397 -1421 
C 397 -1536 486 -1600 570 -1600 
C 691 -1600 717 -1530 755 -1434 
L 3162 4505 
z
" transform="scale(0.015625)"/>
      </defs>
      <use xlink:href="#CMBX12-41" transform="scale(0.996264)"/>
      <use xlink:href="#CMBX12-6e" transform="translate(84.636395 0)scale(0.996264)"/>
      <use xlink:href="#CMBX12-67" transform="translate(146.902895 0)scale(0.996264)"/>
      <use xlink:href="#CMBX12-75" transform="translate(202.942746 0)scale(0.996264)"/>
      <use xlink:href="#CMBX12-6c" transform="translate(265.209246 0)scale(0.996264)"/>
      <use xlink:href="#CMBX12-61" transform="translate(296.342497 0)scale(0.996264)"/>
      <use xlink:href="#CMBX12-72" transform="translate(350.825685 0)scale(0.996264)"/>
      <use xlink:href="#CMBX12-56" transform="translate(433.963093 0)scale(0.996264)"/>
      <use xlink:href="#CMBX12-65" transform="translate(509.259512 0)scale(0.996264)"/>
      <use xlink:href="#CMBX12-6c" transform="translate(560.398779 0)scale(0.996264)"/>
      <use xlink:href="#CMBX12-6f" transform="translate(591.53203 0)scale(0.996264)"/>
      <use xlink:href="#CMBX12-63" transform="translate(650.685205 0)scale(0.996264)"/>
      <use xlink:href="#CMBX12-69" transform="translate(700.498406 0)scale(0.996264)"/>
      <use xlink:href="#CMBX12-74" transform="translate(731.631656 0)scale(0.996264)"/>
      <use xlink:href="#CMBX12-79" transform="translate(772.104881 0)scale(0.996264)"/>
      <use xlink:href="#CMBX12-28" transform="translate(868.617957 0)scale(0.996264)"/>
      <use xlink:href="#CMBX12-72" transform="translate(912.204508 0)scale(0.996264)"/>
      <use xlink:href="#CMBX12-61" transform="translate(957.982015 0)scale(0.996264)"/>
      <use xlink:href="#CMBX12-64" transform="translate(1012.465203 0)scale(0.996264)"/>
      <use xlink:href="#CMBX12-2f" transform="translate(1074.731704 0)scale(0.996264)"/>
      <use xlink:href="#CMBX12-73" transform="translate(1130.771554 0)scale(0.996264)"/>
      <use xlink:href="#CMBX12-29" transform="translate(1174.980891 0)scale(0.996264)"/>
     </g>
    </g>
   </g>
   <g id="line2d_12">
    <path d="M 66.9249 178.99259 
L 67.738163 177.517071 
L 68.551426 178.395356 
L 69.364689 180.819424 
L 70.177951 177.622466 
L 70.991214 175.268661 
L 71.804477 174.179588 
L 72.61774 176.673918 
L 74.244266 185.21085 
L 75.057529 187.951099 
L 75.870792 187.178208 
L 78.31058 181.065343 
L 79.123843 181.205869 
L 80.750369 177.376546 
L 81.563632 176.709049 
L 82.376895 178.816933 
L 83.190158 184.332564 
L 84.003421 185.527032 
L 84.816683 188.161888 
L 85.629946 189.356356 
L 86.443209 189.813064 
L 87.256472 185.913478 
L 88.882998 179.97627 
L 89.696261 172.563543 
L 90.509524 170.315133 
L 91.322787 175.163267 
L 92.949312 188.513202 
L 93.762575 192.272262 
L 94.575838 190.550824 
L 95.389101 189.286093 
L 96.202364 187.424128 
L 97.015627 187.248471 
L 97.82889 185.421638 
L 98.642153 180.784292 
L 99.455415 176.849574 
L 100.268678 175.971289 
L 101.081941 177.025232 
L 101.895204 180.749161 
L 103.52173 181.97876 
L 104.334993 178.571014 
L 105.961519 178.535882 
L 106.774781 180.116795 
L 107.588044 181.381526 
L 108.401307 180.924818 
L 109.21457 180.327584 
L 110.027833 180.257321 
L 110.841096 180.573504 
L 111.654359 180.187058 
L 112.467622 180.749161 
L 113.280885 183.594805 
L 114.094147 187.072814 
L 114.90741 187.775442 
L 115.720673 188.302413 
L 116.533936 188.056493 
L 117.347199 187.21334 
L 118.160462 186.054003 
L 119.786988 180.678898 
L 120.600251 178.430488 
L 121.413514 177.517071 
L 122.226776 177.48194 
L 123.040039 177.200889 
L 123.853302 178.114305 
L 124.666565 178.114305 
L 125.479828 179.589824 
L 126.293091 181.73284 
L 127.106354 183.559673 
L 127.919617 186.545843 
L 128.73288 188.126756 
L 129.546142 190.164378 
L 130.359405 193.888307 
L 131.172668 194.204489 
L 131.985931 193.993701 
L 132.799194 190.410298 
L 133.612457 184.929798 
L 134.42572 185.035193 
L 135.238983 185.562164 
L 136.052246 186.897157 
L 136.865508 187.388997 
L 137.678771 187.70518 
L 138.492034 186.862026 
L 139.305297 187.915968 
L 140.11856 190.094115 
L 140.931823 198.279734 
L 142.558349 207.413899 
L 143.371612 214.826625 
L 144.184874 216.793985 
L 144.998137 217.110168 
L 145.8114 205.973511 
L 146.624663 182.997571 
L 147.437926 170.24487 
L 148.251189 148.463397 
L 149.064452 139.785941 
L 149.877715 133.146101 
L 150.690978 135.07833 
L 151.50424 140.102124 
L 152.317503 153.206137 
L 153.130766 169.296322 
L 153.944029 180.116795 
L 155.570555 186.897157 
L 156.383818 194.380147 
L 157.197081 197.717631 
L 158.010344 193.782913 
L 158.823606 186.335055 
L 159.636869 168.804482 
L 160.450132 161.075573 
L 161.263395 156.157176 
L 162.076658 160.864785 
L 162.889921 169.577373 
L 164.516447 189.005042 
L 165.32971 204.919569 
L 166.142972 200.598406 
L 167.769498 157.632695 
L 168.582761 143.896315 
L 169.396024 122.290499 
L 170.209287 132.548869 
L 171.02255 122.290499 
L 171.835813 132.548869 
L 172.649076 102.230465 
L 175.088864 61.934743 
L 177.528653 119.374592 
L 178.341916 115.931712 
L 179.155179 105.040974 
L 180.781704 92.920645 
L 181.594967 89.44263 
L 182.40823 109.57293 
L 183.221493 152.468379 
L 184.034756 201.582086 
L 184.848019 262.078366 
L 185.661282 269.455961 
L 186.474545 272.933977 
L 187.287808 264.010598 
L 188.10107 241.104921 
L 188.914333 142.28027 
L 189.727596 72.93087 
L 190.540859 25.57374 
L 191.354122 28.981485 
L 192.167385 72.19311 
L 192.980648 108.413589 
L 193.793911 187.529522 
L 194.607174 246.83134 
L 195.420436 277.3254 
L 196.233699 269.877542 
L 197.046962 241.350838 
L 198.673488 219.288314 
L 199.486751 219.288314 
L 200.300014 218.550554 
L 201.113277 220.131468 
L 201.92654 219.604498 
L 202.739802 213.034925 
L 203.553065 210.997303 
L 204.366328 214.967153 
L 205.179591 223.258164 
L 206.806117 250.098561 
L 207.61938 268.191235 
L 208.432643 268.191235 
L 209.245906 259.689437 
L 210.059168 242.720966 
L 210.872431 218.199243 
L 211.685694 164.483318 
L 212.498957 144.317892 
L 213.31222 132.513738 
L 214.125483 132.619132 
L 214.938746 143.088293 
L 215.752009 157.351642 
L 216.565272 185.632426 
L 217.378534 195.574615 
L 218.191797 202.214451 
L 219.00506 205.903249 
L 219.818323 205.060095 
L 220.631586 208.643498 
L 221.444849 211.559406 
L 222.258112 214.053736 
L 223.071375 217.742531 
L 223.884638 217.7074 
L 224.6979 216.196752 
L 225.511163 206.149168 
L 227.137689 189.742801 
L 227.950952 170.24487 
L 228.764215 157.211118 
L 229.577478 162.551092 
L 230.390741 157.211118 
L 231.204004 162.551092 
L 232.017266 150.957727 
L 232.830529 142.877502 
L 233.643792 137.432135 
L 234.457055 137.397004 
L 235.270318 139.364364 
L 237.710107 176.041552 
L 238.52337 194.134227 
L 239.336632 194.309884 
L 240.149895 186.405317 
L 240.963158 156.54362 
L 242.589684 126.927843 
L 243.402947 118.0396 
L 244.21621 135.499907 
L 245.029473 157.597564 
L 245.842736 167.680277 
L 247.469261 185.632426 
L 248.282524 185.843215 
L 249.095787 185.035193 
L 249.90905 185.035193 
L 250.722313 182.681388 
L 251.535576 179.449299 
L 252.348839 175.479449 
L 253.162102 168.663957 
L 256.415153 158.440717 
L 257.228416 158.440717 
L 258.041679 157.667826 
L 258.854942 156.649015 
L 259.668205 151.203646 
L 260.481468 147.901296 
L 261.29473 148.076952 
L 262.107993 151.906276 
L 262.921256 158.721768 
L 263.734519 180.011401 
L 264.547782 205.832987 
L 266.174308 222.063696 
L 266.987571 233.16522 
L 267.800834 237.451254 
L 268.614096 239.032168 
L 269.427359 240.015846 
L 271.053885 235.062318 
L 271.867148 231.197861 
L 272.680411 225.120127 
L 273.493674 216.44267 
L 274.306937 203.900758 
L 275.1202 199.860646 
L 275.933462 200.703801 
L 276.746725 202.741421 
L 279.186514 191.675029 
L 279.999777 198.525653 
L 280.81304 203.479181 
L 282.439566 210.716251 
L 283.252828 213.842947 
L 284.066091 217.988453 
L 284.879354 219.007266 
L 285.692617 218.550554 
L 286.50588 213.386239 
L 287.319143 210.540595 
L 288.132406 209.556915 
L 289.758932 208.748893 
L 290.572195 208.18679 
L 291.385457 208.959681 
L 292.19872 210.856777 
L 293.011983 209.592046 
L 293.825246 208.116528 
L 294.638509 204.849307 
L 295.451772 191.920948 
L 297.078298 177.200889 
L 297.891561 166.73173 
L 298.704823 163.675296 
L 299.518086 161.567412 
L 301.144612 162.656485 
L 301.957875 163.710429 
L 302.771138 162.76188 
L 303.584401 159.178476 
L 304.397664 159.178476 
L 305.210927 159.002818 
L 306.024189 155.27889 
L 307.650715 129.457304 
L 308.463978 118.812487 
L 309.277241 98.43627 
L 310.090504 84.489102 
L 310.903767 87.264488 
L 311.71703 104.022166 
L 312.530293 87.264488 
L 313.343555 104.022166 
L 314.156818 145.406963 
L 316.596607 216.65346 
L 317.40987 230.670891 
L 318.223133 233.69219 
L 319.036396 233.69219 
L 319.849659 222.836588 
L 321.476184 192.096606 
L 322.289447 168.945008 
L 323.10271 158.79203 
L 323.915973 150.395624 
L 324.729236 145.863675 
L 325.542499 150.149704 
L 327.169025 153.662845 
L 327.982287 154.505998 
L 328.79555 152.679167 
L 329.608813 145.652884 
L 330.422076 137.080821 
L 331.235339 134.55136 
L 332.048602 133.11097 
L 332.861865 130.686903 
L 333.675128 126.330611 
L 334.488391 119.409723 
L 336.114916 100.579289 
L 336.928179 96.152735 
L 337.741442 106.305709 
L 338.554705 163.569903 
L 340.181231 228.738662 
L 340.994494 277.74698 
L 341.807757 292.642695 
L 343.434282 260.567722 
L 344.247545 244.372142 
L 345.874071 216.231884 
L 346.687334 185.702689 
L 347.500597 168.628825 
L 348.31386 148.568791 
L 349.127123 168.628825 
L 349.940385 148.568791 
L 350.753648 114.385933 
L 351.566911 108.237933 
L 353.193437 107.781229 
L 354.0067 103.249274 
L 354.819963 94.150241 
L 356.446489 31.686593 
L 357.259751 22.025455 
L 358.073014 22.025455 
L 358.886277 36.28881 
L 359.69954 63.972361 
L 360.512803 100.122577 
L 361.326066 180.397847 
L 362.952592 264.045729 
L 363.765855 293.872291 
L 364.579117 313.229699 
L 365.39238 318.534545 
L 366.205643 303.779347 
L 367.018906 285.967729 
L 367.832169 261.727055 
L 368.645432 229.300767 
L 370.271958 187.986231 
L 371.085221 167.223568 
L 371.898483 149.657865 
L 372.711746 137.959105 
L 373.525009 131.775978 
L 374.338272 130.897693 
L 375.964798 155.7356 
L 376.778061 171.263681 
L 377.591324 202.144189 
L 378.404587 209.802835 
L 379.217849 210.927041 
L 380.031112 190.094115 
L 381.657638 124.257858 
L 382.470901 111.961866 
L 383.284164 103.424929 
L 384.097427 97.944435 
L 384.91069 95.836548 
L 385.723953 97.944435 
L 386.537215 102.37099 
L 387.350478 116.212765 
L 388.163741 125.452326 
L 388.977004 135.991746 
L 389.790267 161.848463 
L 390.60353 173.933668 
L 391.416793 182.997571 
L 392.230056 190.375167 
L 393.043319 188.548333 
L 393.856581 184.437958 
L 394.669844 181.522052 
L 395.483107 177.622466 
L 396.29637 169.647636 
L 397.109633 166.696597 
L 397.922896 162.76188 
L 398.736159 157.597564 
L 399.549422 157.492169 
L 400.362685 158.194798 
L 401.175947 157.492169 
L 401.98921 158.194798 
L 402.802473 160.267551 
L 403.615736 161.602543 
L 404.428999 163.640165 
L 406.055525 173.898536 
L 406.868788 176.673918 
L 407.682051 174.144456 
L 408.495313 168.628825 
L 409.308576 165.607524 
L 410.121839 166.942518 
L 410.935102 159.459528 
L 411.748365 149.411946 
L 412.561628 152.644034 
L 413.374891 143.861184 
L 414.188154 112.769888 
L 415.001417 106.797551 
L 415.814679 105.989529 
L 416.627942 106.165184 
L 417.441205 125.206405 
L 418.254468 133.743338 
L 419.067731 140.207517 
L 419.880994 144.423285 
L 420.694257 150.2551 
L 421.50752 157.562431 
L 422.320783 162.480828 
L 423.134045 172.00144 
L 423.947308 172.00144 
L 424.760571 173.722879 
L 425.573834 171.896046 
L 426.387097 167.574883 
L 427.20036 161.778201 
L 428.013623 157.105723 
L 428.826886 154.084422 
L 429.640149 148.533659 
L 430.453411 148.533659 
L 432.079937 144.879993 
L 432.8932 143.580131 
L 433.706463 146.847352 
L 434.519726 153.346663 
L 435.332989 161.988989 
L 436.146252 179.379036 
L 436.959515 187.670048 
L 437.772777 184.613616 
L 438.58604 178.184568 
L 439.399303 153.873633 
L 440.212566 161.075573 
L 441.025829 153.873633 
L 441.839092 161.075573 
L 442.652355 149.060631 
L 443.465618 149.55247 
L 444.278881 157.421907 
L 445.092143 161.251229 
L 445.905406 163.569903 
L 446.718669 164.869764 
L 448.345195 164.658976 
L 449.158458 167.01278 
L 449.971721 170.561052 
L 450.784984 174.98761 
L 451.598247 178.465619 
L 453.224772 184.367696 
L 454.851298 188.548333 
L 455.664561 187.388997 
L 456.477824 187.775442 
L 458.10435 186.370186 
L 458.917613 185.702689 
L 459.730875 185.562164 
L 460.544138 185.878346 
L 462.170664 184.086645 
L 462.983927 183.48941 
L 463.79719 183.278622 
L 464.610453 183.313754 
L 465.423716 184.859535 
L 466.236979 187.178208 
L 467.050242 184.156907 
L 467.863504 184.156907 
L 468.676767 181.697709 
L 469.49003 178.816933 
L 470.303293 177.48194 
L 471.116556 174.952478 
L 471.929819 174.636296 
L 472.743082 175.795633 
L 472.743082 175.795633 
" clip-path="url(#p4350ff8c3f)" style="fill: none; stroke: #1f77b4; stroke-width: 2; stroke-linecap: round"/>
   </g>
   <g id="line2d_13">
    <path d="M 66.9249 184.365939 
L 67.738163 183.598318 
L 68.551426 183.215386 
L 70.991214 183.601831 
L 71.804477 183.331319 
L 72.61774 182.795565 
L 73.431003 182.482896 
L 74.244266 182.502218 
L 75.870792 182.851775 
L 76.684055 182.913255 
L 77.497317 182.783269 
L 79.123843 182.064832 
L 81.563632 180.355689 
L 82.376895 180.148414 
L 83.190158 180.415412 
L 85.629946 181.731084 
L 87.256472 182.872854 
L 88.069735 183.31551 
L 88.882998 183.480628 
L 89.696261 183.067834 
L 91.322787 181.683656 
L 92.136049 181.434223 
L 92.949312 181.604611 
L 95.389101 182.958926 
L 97.82889 184.29392 
L 98.642153 184.392288 
L 100.268678 183.540351 
L 101.895204 182.553159 
L 102.708467 182.133338 
L 105.148256 181.639742 
L 105.961519 181.938359 
L 106.774781 182.428442 
L 107.588044 182.739355 
L 108.401307 182.676118 
L 109.21457 182.266838 
L 110.841096 181.167225 
L 112.467622 180.378524 
L 113.280885 180.195841 
L 114.094147 180.2784 
L 114.90741 180.627957 
L 117.347199 182.314265 
L 118.160462 182.579507 
L 118.973725 182.676118 
L 123.853302 182.193062 
L 125.479828 182.015648 
L 127.106354 182.238732 
L 131.985931 184.200821 
L 132.799194 184.318512 
L 134.42572 184.153394 
L 135.238983 184.264058 
L 136.052246 184.574971 
L 138.492034 186.001306 
L 140.11856 187.136051 
L 141.745086 189.314198 
L 142.558349 190.598251 
L 144.998137 195.123176 
L 145.8114 195.913633 
L 146.624663 195.369096 
L 147.437926 194.171115 
L 149.064452 189.363382 
L 150.690978 184.276354 
L 151.50424 182.003352 
L 152.317503 180.318801 
L 153.130766 179.414167 
L 153.944029 179.034748 
L 154.757292 178.864361 
L 155.570555 178.81342 
L 156.383818 179.027722 
L 157.197081 178.999617 
L 158.010344 178.539395 
L 158.823606 177.485453 
L 159.636869 175.184346 
L 162.076658 167.095339 
L 162.889921 166.424329 
L 163.703184 166.89509 
L 164.516447 168.922173 
L 166.142972 175.551469 
L 166.956235 177.798123 
L 167.769498 178.674651 
L 168.582761 178.20916 
L 170.209287 173.480473 
L 171.835813 167.704869 
L 172.649076 163.097385 
L 174.275601 151.700757 
L 175.088864 145.480741 
L 175.902127 141.077019 
L 176.71539 138.015317 
L 177.528653 136.176188 
L 178.341916 133.929534 
L 179.155179 130.702714 
L 179.968442 126.662602 
L 180.781704 121.858383 
L 181.594967 116.084536 
L 182.40823 111.533262 
L 183.221493 110.156111 
L 184.034756 112.35358 
L 184.848019 118.262683 
L 187.287808 139.726216 
L 188.10107 145.154019 
L 188.914333 147.156509 
L 189.727596 146.383618 
L 190.540859 143.903341 
L 191.354122 142.255678 
L 192.167385 141.828831 
L 192.980648 142.257434 
L 193.793911 145.665181 
L 194.607174 152.210162 
L 196.233699 169.375368 
L 197.860225 183.821403 
L 198.673488 189.307172 
L 199.486751 192.648169 
L 200.300014 193.496592 
L 201.113277 191.399247 
L 201.92654 188.906674 
L 203.553065 183.261057 
L 204.366328 181.954168 
L 205.179591 186.003063 
L 205.992854 194.157063 
L 208.432643 227.143697 
L 209.245906 234.70749 
L 210.059168 237.467062 
L 210.872431 236.035457 
L 214.125483 213.807816 
L 214.938746 209.997815 
L 215.752009 206.900981 
L 216.565272 205.255075 
L 217.378534 204.027232 
L 218.191797 203.15773 
L 220.631586 202.188103 
L 221.444849 201.603165 
L 222.258112 200.505308 
L 223.071375 198.887507 
L 226.324426 188.873299 
L 227.137689 187.450477 
L 227.950952 187.738554 
L 228.764215 188.383216 
L 229.577478 189.885083 
L 230.390741 191.114683 
L 231.204004 192.087823 
L 232.017266 191.768127 
L 232.830529 189.630381 
L 234.457055 183.482384 
L 235.270318 180.15544 
L 236.083581 177.466131 
L 236.896844 175.191372 
L 237.710107 173.415479 
L 239.336632 171.247872 
L 240.149895 169.682768 
L 241.776421 163.425864 
L 243.402947 156.264326 
L 244.21621 154.527078 
L 245.029473 154.5464 
L 245.842736 154.80286 
L 246.655998 155.754921 
L 247.469261 156.908988 
L 248.282524 158.653262 
L 249.90905 163.141299 
L 251.535576 167.409765 
L 252.348839 168.620042 
L 253.162102 168.895824 
L 253.975364 168.395201 
L 256.415153 163.759612 
L 257.228416 163.854467 
L 258.041679 164.704647 
L 259.668205 167.848908 
L 260.481468 168.468977 
L 261.29473 167.992947 
L 262.921256 166.327718 
L 263.734519 166.046667 
L 264.547782 167.046155 
L 265.361045 168.507622 
L 266.174308 170.359047 
L 266.987571 172.883239 
L 268.614096 178.960972 
L 272.680411 196.57059 
L 273.493674 199.470688 
L 275.933462 206.417924 
L 277.559988 211.713983 
L 278.373251 213.876322 
L 279.186514 215.523985 
L 279.999777 216.449697 
L 280.81304 216.332007 
L 281.626303 215.984206 
L 282.439566 215.416834 
L 285.692617 211.40307 
L 288.132406 207.882903 
L 288.945669 207.087177 
L 289.758932 206.702488 
L 290.572195 206.91679 
L 294.638509 209.154661 
L 295.451772 209.166957 
L 296.265035 208.448519 
L 297.078298 207.134605 
L 297.891561 205.105766 
L 299.518086 200.139941 
L 302.771138 189.252718 
L 306.024189 178.982051 
L 306.837452 175.662133 
L 307.650715 171.687014 
L 308.463978 167.0848 
L 310.090504 155.345639 
L 310.903767 149.466398 
L 313.343555 136.567902 
L 314.156818 135.501664 
L 314.970081 135.752854 
L 315.783344 137.39876 
L 316.596607 140.12847 
L 319.849659 153.7577 
L 320.662921 156.169471 
L 321.476184 157.82416 
L 322.289447 158.507466 
L 323.10271 159.357646 
L 323.915973 160.404562 
L 324.729236 161.757122 
L 325.542499 164.342793 
L 327.169025 171.030057 
L 327.982287 173.554248 
L 328.79555 176.824982 
L 329.608813 178.906518 
L 330.422076 178.490211 
L 331.235339 176.782825 
L 332.048602 173.714096 
L 332.861865 169.415768 
L 334.488391 158.484631 
L 336.928179 140.616797 
L 337.741442 136.327252 
L 338.554705 136.058497 
L 339.367968 137.945054 
L 340.181231 141.862206 
L 342.621019 161.769418 
L 343.434282 167.114662 
L 345.060808 175.495259 
L 345.874071 179.024209 
L 346.687334 181.455303 
L 347.500597 183.159176 
L 348.31386 183.932067 
L 349.127123 185.829163 
L 349.940385 186.941072 
L 350.753648 186.689882 
L 351.566911 186.60908 
L 352.380174 186.98323 
L 353.193437 187.564654 
L 354.0067 187.411832 
L 354.819963 183.940849 
L 355.633226 177.299257 
L 356.446489 167.446653 
L 358.886277 129.163958 
L 359.69954 119.334189 
L 360.512803 112.121711 
L 361.326066 109.620355 
L 362.139329 109.973426 
L 362.952592 113.890578 
L 363.765855 120.152751 
L 365.39238 135.881082 
L 368.645432 165.957081 
L 369.458695 171.049378 
L 372.711746 188.551846 
L 375.151535 204.808905 
L 375.964798 209.397067 
L 376.778061 212.954122 
L 377.591324 214.041439 
L 378.404587 213.366916 
L 379.217849 210.710982 
L 380.031112 205.522073 
L 380.844375 197.684256 
L 383.284164 169.252408 
L 384.097427 161.063277 
L 384.91069 154.390066 
L 385.723953 148.805929 
L 386.537215 144.525166 
L 387.350478 141.974626 
L 388.163741 140.764349 
L 388.977004 140.665981 
L 389.790267 142.169606 
L 391.416793 146.330921 
L 392.230056 148.062899 
L 393.043319 148.927132 
L 393.856581 148.04182 
L 394.669844 146.627781 
L 395.483107 144.962552 
L 396.29637 143.940228 
L 397.109633 144.45139 
L 397.922896 146.376592 
L 398.736159 148.658376 
L 400.362685 154.374257 
L 402.802473 163.364384 
L 403.615736 165.633873 
L 405.242262 169.192684 
L 406.055525 169.795188 
L 406.868788 169.9322 
L 407.682051 169.489545 
L 410.935102 165.277289 
L 411.748365 163.866763 
L 412.561628 163.016583 
L 413.374891 161.874812 
L 416.627942 151.658599 
L 417.441205 150.044311 
L 418.254468 148.821738 
L 419.880994 146.959774 
L 421.50752 145.719635 
L 422.320783 145.148749 
L 423.134045 144.915126 
L 423.947308 144.807975 
L 425.573834 145.377104 
L 427.20036 145.524655 
L 428.013623 145.909344 
L 428.826886 145.981364 
L 429.640149 146.214987 
L 431.266674 150.002153 
L 432.8932 153.817423 
L 435.332989 156.968711 
L 436.959515 160.587246 
L 437.772777 161.939805 
L 438.58604 162.724992 
L 439.399303 161.818602 
L 440.212566 161.272308 
L 441.025829 160.279846 
L 441.839092 159.738822 
L 442.652355 158.81311 
L 443.465618 158.201823 
L 444.278881 158.217632 
L 445.092143 158.575973 
L 446.718669 160.14459 
L 448.345195 162.032903 
L 450.784984 165.472268 
L 451.598247 166.2961 
L 452.411509 166.397981 
L 453.224772 166.232863 
L 454.038035 166.324205 
L 454.851298 166.842393 
L 455.664561 168.518161 
L 456.477824 169.853155 
L 457.291087 171.516627 
L 458.10435 172.781358 
L 459.730875 176.413945 
L 460.544138 177.836767 
L 462.170664 180.050046 
L 466.236979 184.562675 
L 467.050242 185.02114 
L 467.863504 185.305704 
L 468.676767 185.319757 
L 469.49003 185.042219 
L 470.303293 184.594293 
L 472.743082 182.677875 
L 472.743082 182.677875 
" clip-path="url(#p4350ff8c3f)" style="fill: none; stroke: #ff7f0e; stroke-width: 2; stroke-linecap: round"/>
   </g>
   <g id="patch_3">
    <path d="M 46.633991 333.36 
L 46.633991 7.2 
" style="fill: none"/>
   </g>
   <g id="patch_4">
    <path d="M 46.633991 333.36 
L 493.033991 333.36 
" style="fill: none"/>
   </g>
   <g id="legend_1">
    <g id="patch_5">
     <path d="M 414.731637 44.90079 
L 486.033991 44.90079 
Q 488.033991 44.90079 488.033991 42.90079 
L 488.033991 14.2 
Q 488.033991 12.2 486.033991 12.2 
L 414.731637 12.2 
Q 412.731637 12.2 412.731637 14.2 
L 412.731637 42.90079 
Q 412.731637 44.90079 414.731637 44.90079 
z
" style="fill: #ffffff; opacity: 0.8; stroke: #cccccc; stroke-width: 0.24; stroke-linejoin: miter"/>
    </g>
    <g id="line2d_14">
     <path d="M 416.731637 19.7 
L 426.731637 19.7 
L 436.731637 19.7 
" style="fill: none; stroke: #1f77b4; stroke-width: 2; stroke-linecap: round"/>
    </g>
    <g id="text_14">
     <!-- \textbf{Raw $x_g$} -->
     <g style="fill: #262626" transform="translate(444.731637 23.2)scale(0.1 -0.1)">
      <defs>
       <path id="CMBX12-52" d="M 3386 2195 
C 4250 2425 4461 2888 4461 3235 
C 4461 3877 3789 4416 2605 4416 
L 243 4416 
L 243 4140 
L 922 4140 
L 922 275 
L 243 275 
L 243 0 
C 429 12 1094 12 1325 12 
C 1555 12 2227 12 2413 0 
L 2413 275 
L 1734 275 
L 1734 2112 
L 2496 2112 
C 2752 2112 2957 2034 3098 1868 
C 3290 1649 3290 1508 3290 1078 
C 3290 648 3290 384 3616 166 
C 3949 -58 4474 -64 4614 -64 
C 5267 -64 5344 513 5344 603 
C 5344 712 5293 731 5210 731 
C 5088 731 5082 686 5075 603 
C 5043 282 4845 147 4666 147 
C 4256 147 4211 577 4160 1168 
C 4122 1504 4077 1982 3386 2195 
z
M 2483 2323 
L 1734 2323 
L 1734 4140 
L 2496 4140 
C 3539 4140 3558 3614 3558 3235 
C 3558 2882 3552 2323 2483 2323 
z
" transform="scale(0.015625)"/>
       <path id="CMBX12-77" d="M 4608 2386 
C 4653 2496 4672 2540 5043 2540 
L 5043 2816 
C 4858 2803 4774 2803 4544 2803 
C 4282 2803 4198 2803 3968 2816 
L 3968 2540 
C 4026 2540 4339 2540 4339 2457 
C 4339 2451 4339 2444 4314 2380 
L 3642 712 
L 2906 2540 
L 3270 2540 
L 3270 2816 
C 3117 2803 2739 2803 2566 2803 
C 2240 2803 2227 2803 1907 2816 
L 1907 2540 
L 2285 2540 
C 2304 2489 2336 2406 2362 2348 
C 2381 2309 2445 2155 2445 2123 
C 2445 2111 2426 2066 2419 2046 
L 1933 834 
L 1242 2540 
L 1606 2540 
L 1606 2816 
C 1459 2803 1024 2803 851 2803 
C 646 2803 339 2803 147 2816 
L 147 2540 
L 525 2540 
L 1504 96 
C 1549 -20 1574 -64 1715 -64 
C 1786 -64 1862 -64 1914 64 
L 2592 1764 
L 3270 76 
C 3328 -64 3398 -64 3475 -64 
C 3616 -64 3635 -26 3680 89 
L 4608 2386 
z
" transform="scale(0.015625)"/>
       <path id="CMMI12-78" d="M 3034 2624 
C 2829 2585 2752 2431 2752 2310 
C 2752 2156 2874 2105 2963 2105 
C 3155 2105 3290 2271 3290 2444 
C 3290 2694 2982 2816 2714 2816 
C 2323 2816 2106 2451 2048 2329 
C 1901 2790 1504 2816 1389 2816 
C 736 2816 390 1993 390 1849 
C 390 1823 416 1790 461 1790 
C 512 1790 525 1829 538 1855 
C 755 2572 1184 2687 1370 2687 
C 1658 2687 1715 2438 1715 2284 
C 1715 2143 1677 1993 1600 1678 
L 1382 778 
C 1286 390 1101 64 762 64 
C 730 64 570 64 435 126 
C 666 166 717 358 717 435 
C 717 563 621 640 499 640 
C 346 640 179 505 179 300 
C 179 57 480 -64 755 -64 
C 1062 -64 1280 153 1414 415 
C 1517 64 1837 -64 2074 -64 
C 2726 -64 3072 751 3072 896 
C 3072 929 3046 955 3008 955 
C 2950 955 2944 922 2925 870 
C 2752 300 2381 64 2093 64 
C 1869 64 1747 204 1747 467 
C 1747 607 1773 712 1875 1146 
L 2099 2039 
C 2195 2425 2413 2687 2707 2687 
C 2720 2687 2899 2687 3034 2624 
z
" transform="scale(0.015625)"/>
       <path id="CMMI12-67" d="M 2163 811 
C 2138 708 2125 683 2042 587 
C 1779 249 1510 128 1312 128 
C 1101 128 902 293 902 734 
C 902 1072 1094 1787 1235 2075 
C 1421 2432 1709 2687 1978 2687 
C 2400 2687 2483 2164 2483 2126 
L 2464 2036 
L 2163 811 
z
M 2560 2394 
C 2477 2579 2298 2816 1978 2816 
C 1280 2816 486 1941 486 989 
C 486 325 890 0 1299 0 
C 1638 0 1939 268 2054 396 
L 1914 -176 
C 1824 -520 1786 -677 1555 -896 
C 1293 -1152 1050 -1152 909 -1152 
C 717 -1152 557 -1140 397 -1090 
C 602 -1034 653 -858 653 -789 
C 653 -689 576 -589 435 -589 
C 282 -589 115 -714 115 -921 
C 115 -1178 378 -1280 922 -1280 
C 1747 -1280 2176 -758 2259 -420 
L 2970 2426 
C 2989 2502 2989 2515 2989 2528 
C 2989 2617 2918 2688 2822 2688 
C 2669 2688 2579 2560 2560 2388 
L 2560 2394 
z
" transform="scale(0.015625)"/>
      </defs>
      <use xlink:href="#CMBX12-52" transform="scale(0.996264)"/>
      <use xlink:href="#CMBX12-61" transform="translate(83.598675 0)scale(0.996264)"/>
      <use xlink:href="#CMBX12-77" transform="translate(134.968538 0)scale(0.996264)"/>
      <use xlink:href="#CMMI12-78" transform="translate(253.27489 0)scale(0.996264)"/>
      <use xlink:href="#CMMI12-67" transform="translate(308.708949 -14.943915)scale(0.697382)"/>
     </g>
    </g>
    <g id="line2d_15">
     <path d="M 416.731637 34.550395 
L 426.731637 34.550395 
L 436.731637 34.550395 
" style="fill: none; stroke: #ff7f0e; stroke-width: 2; stroke-linecap: round"/>
    </g>
    <g id="text_15">
     <!-- \textbf{SMA $x_g$} -->
     <g style="fill: #262626" transform="translate(444.731637 38.050395)scale(0.1 -0.1)">
      <defs>
       <path id="CMBX12-53" d="M 1626 2828 
C 992 2969 973 3430 973 3520 
C 973 3846 1184 4223 1805 4223 
C 2426 4223 2982 3923 3117 3084 
C 3136 2950 3136 2944 3258 2944 
C 3392 2944 3392 2963 3392 3110 
L 3392 4313 
C 3392 4435 3392 4480 3296 4480 
C 3251 4480 3232 4473 3174 4409 
L 2899 4096 
C 2739 4230 2419 4480 1798 4480 
C 883 4480 397 3904 397 3206 
C 397 2777 627 2476 717 2387 
C 1050 2054 1229 2016 1894 1868 
C 2534 1728 2611 1715 2752 1580 
C 2835 1497 3021 1318 3021 992 
C 3021 716 2886 211 2170 211 
C 1606 211 717 403 666 1337 
C 659 1452 659 1472 531 1472 
C 397 1472 397 1452 397 1305 
L 397 102 
C 397 -20 397 -64 493 -64 
C 538 -64 544 -58 608 0 
C 678 70 736 153 896 313 
C 1267 19 1792 -64 2176 -64 
C 3174 -64 3597 614 3597 1292 
C 3597 1894 3200 2470 2502 2630 
L 1626 2828 
z
" transform="scale(0.015625)"/>
       <path id="CMBX12-4d" d="M 3411 816 
L 1875 4281 
C 1818 4416 1760 4416 1626 4416 
L 262 4416 
L 262 4140 
L 941 4140 
L 941 468 
C 941 326 934 320 768 294 
C 653 281 525 275 410 275 
L 262 275 
L 262 0 
C 410 12 909 12 1088 12 
C 1267 12 1773 12 1920 0 
L 1920 275 
L 1773 275 
C 1600 275 1587 275 1434 294 
C 1248 320 1242 326 1242 468 
L 1242 4063 
L 1248 4063 
L 2989 134 
C 3021 64 3059 0 3168 0 
C 3277 0 3315 64 3347 134 
L 5120 4140 
L 5126 4140 
L 5126 275 
L 4448 275 
L 4448 0 
C 4621 12 5286 12 5504 12 
C 5722 12 6387 12 6560 0 
L 6560 275 
L 5882 275 
L 5882 4140 
L 6560 4140 
L 6560 4416 
L 5197 4416 
C 5062 4416 5005 4416 4947 4281 
L 3411 816 
z
" transform="scale(0.015625)"/>
      </defs>
      <use xlink:href="#CMBX12-53" transform="scale(0.996264)"/>
      <use xlink:href="#CMBX12-4d" transform="translate(62.266501 0)scale(0.996264)"/>
      <use xlink:href="#CMBX12-41" transform="translate(168.580926 0)scale(0.996264)"/>
      <use xlink:href="#CMMI12-78" transform="translate(290.577221 0)scale(0.996264)"/>
      <use xlink:href="#CMMI12-67" transform="translate(346.01128 -14.943915)scale(0.697382)"/>
     </g>
    </g>
   </g>
  </g>
 </g>
 <defs>
  <clipPath id="p4350ff8c3f">
   <rect x="46.633991" y="7.2" width="446.4" height="326.16"/>
  </clipPath>
 </defs>
</svg>
