<?xml version="1.0" encoding="utf-8" standalone="no"?>
<!DOCTYPE svg PUBLIC "-//W3C//DTD SVG 1.1//EN"
  "http://www.w3.org/Graphics/SVG/1.1/DTD/svg11.dtd">
<svg xmlns:xlink="http://www.w3.org/1999/xlink" width="500.233991pt" height="366.370845pt" viewBox="0 0 500.233991 366.370845" xmlns="http://www.w3.org/2000/svg" version="1.1">
 <metadata>
  <rdf:RDF xmlns:dc="http://purl.org/dc/elements/1.1/" xmlns:cc="http://creativecommons.org/ns#" xmlns:rdf="http://www.w3.org/1999/02/22-rdf-syntax-ns#">
   <cc:Work>
    <dc:type rdf:resource="http://purl.org/dc/dcmitype/StillImage"/>
    <dc:date>2023-08-14T08:29:51.902323</dc:date>
    <dc:format>image/svg+xml</dc:format>
    <dc:creator>
     <cc:Agent>
      <dc:title>Matplotlib v3.5.1, https://matplotlib.org/</dc:title>
     </cc:Agent>
    </dc:creator>
   </cc:Work>
  </rdf:RDF>
 </metadata>
 <defs>
  <style type="text/css">*{stroke-linejoin: round; stroke-linecap: butt}</style>
 </defs>
 <g id="figure_1">
  <g id="patch_1">
   <path d="M 0 366.370845 
L 500.233991 366.370845 
L 500.233991 0 
L 0 0 
z
" style="fill: #ffffff"/>
  </g>
  <g id="axes_1">
   <g id="patch_2">
    <path d="M 46.633991 333.36 
L 493.033991 333.36 
L 493.033991 7.2 
L 46.633991 7.2 
z
" style="fill: #ffffff"/>
   </g>
   <g id="matplotlib.axis_1">
    <g id="xtick_1">
     <g id="line2d_1">
      <path d="M 66.9249 333.36 
L 66.9249 7.2 
" clip-path="url(#p7779ef121a)" style="fill: none; stroke-dasharray: 2.96,1.28; stroke-dashoffset: 0; stroke: #d3d3d3; stroke-opacity: 0.53; stroke-width: 0.8"/>
     </g>
     <g id="text_1">
      <!-- $\mathdefault{15}$ -->
      <g style="fill: #262626" transform="translate(61.943565 341.278498)scale(0.1 -0.1)">
       <defs>
        <path id="CMR17-31" d="M 1702 4083 
C 1702 4217 1696 4224 1606 4224 
C 1357 3927 979 3833 621 3820 
C 602 3820 570 3820 563 3808 
C 557 3795 557 3782 557 3648 
C 755 3648 1088 3686 1344 3839 
L 1344 467 
C 1344 243 1331 166 781 166 
L 589 166 
L 589 0 
C 896 6 1216 12 1523 12 
C 1830 12 2150 6 2458 0 
L 2458 166 
L 2266 166 
C 1715 166 1702 236 1702 467 
L 1702 4083 
z
" transform="scale(0.015625)"/>
        <path id="CMR17-35" d="M 730 3750 
C 794 3724 1056 3641 1325 3641 
C 1920 3641 2246 3961 2432 4140 
C 2432 4191 2432 4224 2394 4224 
C 2387 4224 2374 4224 2323 4198 
C 2099 4102 1837 4032 1517 4032 
C 1325 4032 1037 4055 723 4191 
C 653 4224 640 4224 634 4224 
C 602 4224 595 4217 595 4090 
L 595 2231 
C 595 2113 595 2080 659 2080 
C 691 2080 704 2093 736 2139 
C 941 2435 1222 2560 1542 2560 
C 1766 2560 2246 2415 2246 1293 
C 2246 1087 2246 716 2054 422 
C 1894 159 1645 25 1370 25 
C 947 25 518 319 403 812 
C 429 806 480 793 506 793 
C 589 793 749 838 749 1036 
C 749 1209 627 1280 506 1280 
C 358 1280 262 1190 262 1011 
C 262 454 704 -128 1382 -128 
C 2042 -128 2669 441 2669 1267 
C 2669 2054 2170 2662 1549 2662 
C 1222 2662 947 2540 730 2304 
L 730 3750 
z
" transform="scale(0.015625)"/>
       </defs>
       <use xlink:href="#CMR17-31" transform="scale(0.996264)"/>
       <use xlink:href="#CMR17-35" transform="translate(45.690477 0)scale(0.996264)"/>
      </g>
     </g>
    </g>
    <g id="xtick_2">
     <g id="line2d_2">
      <path d="M 148.088536 333.36 
L 148.088536 7.2 
" clip-path="url(#p7779ef121a)" style="fill: none; stroke-dasharray: 2.96,1.28; stroke-dashoffset: 0; stroke: #d3d3d3; stroke-opacity: 0.53; stroke-width: 0.8"/>
     </g>
     <g id="text_2">
      <!-- $\mathdefault{16}$ -->
      <g style="fill: #262626" transform="translate(143.107201 341.278498)scale(0.1 -0.1)">
       <defs>
        <path id="CMR17-36" d="M 678 2198 
C 678 3712 1395 4076 1811 4076 
C 1946 4076 2272 4049 2400 3782 
C 2298 3782 2106 3782 2106 3558 
C 2106 3385 2246 3328 2336 3328 
C 2394 3328 2566 3353 2566 3571 
C 2566 3987 2246 4224 1805 4224 
C 1043 4224 243 3411 243 2011 
C 243 257 966 -128 1478 -128 
C 2099 -128 2688 431 2688 1295 
C 2688 2101 2170 2688 1517 2688 
C 1126 2688 838 2430 678 1979 
L 678 2198 
z
M 1478 25 
C 691 25 691 1212 691 1450 
C 691 1914 909 2585 1504 2585 
C 1613 2585 1926 2585 2138 2140 
C 2253 1889 2253 1624 2253 1302 
C 2253 954 2253 696 2118 438 
C 1978 173 1773 25 1478 25 
z
" transform="scale(0.015625)"/>
       </defs>
       <use xlink:href="#CMR17-31" transform="scale(0.996264)"/>
       <use xlink:href="#CMR17-36" transform="translate(45.690477 0)scale(0.996264)"/>
      </g>
     </g>
    </g>
    <g id="xtick_3">
     <g id="line2d_3">
      <path d="M 229.252173 333.36 
L 229.252173 7.2 
" clip-path="url(#p7779ef121a)" style="fill: none; stroke-dasharray: 2.96,1.28; stroke-dashoffset: 0; stroke: #d3d3d3; stroke-opacity: 0.53; stroke-width: 0.8"/>
     </g>
     <g id="text_3">
      <!-- $\mathdefault{17}$ -->
      <g style="fill: #262626" transform="translate(224.270837 341.278498)scale(0.1 -0.1)">
       <defs>
        <path id="CMR17-37" d="M 2886 3955 
L 2886 4096 
L 1382 4096 
C 634 4096 621 4166 595 4288 
L 480 4288 
L 294 3104 
L 410 3104 
C 429 3226 474 3552 550 3673 
C 589 3724 1062 3724 1171 3724 
L 2579 3724 
L 1869 2670 
C 1395 1961 1069 1003 1069 166 
C 1069 89 1069 -128 1299 -128 
C 1530 -128 1530 89 1530 172 
L 1530 466 
C 1530 1514 1709 2204 2003 2644 
L 2886 3955 
z
" transform="scale(0.015625)"/>
       </defs>
       <use xlink:href="#CMR17-31" transform="scale(0.996264)"/>
       <use xlink:href="#CMR17-37" transform="translate(45.690477 0)scale(0.996264)"/>
      </g>
     </g>
    </g>
    <g id="xtick_4">
     <g id="line2d_4">
      <path d="M 310.415809 333.36 
L 310.415809 7.2 
" clip-path="url(#p7779ef121a)" style="fill: none; stroke-dasharray: 2.96,1.28; stroke-dashoffset: 0; stroke: #d3d3d3; stroke-opacity: 0.53; stroke-width: 0.8"/>
     </g>
     <g id="text_4">
      <!-- $\mathdefault{18}$ -->
      <g style="fill: #262626" transform="translate(305.434474 341.278498)scale(0.1 -0.1)">
       <defs>
        <path id="CMR17-38" d="M 1741 2289 
C 2144 2494 2554 2803 2554 3298 
C 2554 3884 1990 4224 1472 4224 
C 890 4224 378 3800 378 3215 
C 378 3054 416 2777 666 2533 
C 730 2469 998 2276 1171 2154 
C 883 2006 211 1652 211 945 
C 211 282 838 -128 1459 -128 
C 2144 -128 2720 366 2720 1022 
C 2720 1607 2330 1877 2074 2051 
L 1741 2289 
z
M 902 2855 
C 851 2887 595 3086 595 3388 
C 595 3781 998 4076 1459 4076 
C 1965 4076 2336 3716 2336 3298 
C 2336 2700 1670 2359 1638 2359 
C 1632 2359 1626 2359 1574 2398 
L 902 2855 
z
M 2080 1536 
C 2176 1466 2483 1253 2483 861 
C 2483 385 2010 25 1472 25 
C 890 25 448 443 448 951 
C 448 1459 838 1884 1280 2083 
L 2080 1536 
z
" transform="scale(0.015625)"/>
       </defs>
       <use xlink:href="#CMR17-31" transform="scale(0.996264)"/>
       <use xlink:href="#CMR17-38" transform="translate(45.690477 0)scale(0.996264)"/>
      </g>
     </g>
    </g>
    <g id="xtick_5">
     <g id="line2d_5">
      <path d="M 391.579445 333.36 
L 391.579445 7.2 
" clip-path="url(#p7779ef121a)" style="fill: none; stroke-dasharray: 2.96,1.28; stroke-dashoffset: 0; stroke: #d3d3d3; stroke-opacity: 0.53; stroke-width: 0.8"/>
     </g>
     <g id="text_5">
      <!-- $\mathdefault{19}$ -->
      <g style="fill: #262626" transform="translate(386.59811 341.278498)scale(0.1 -0.1)">
       <defs>
        <path id="CMR17-39" d="M 2253 1871 
C 2253 448 1670 25 1190 25 
C 1043 25 685 43 538 281 
C 704 256 826 345 826 505 
C 826 678 685 736 595 736 
C 538 736 365 710 365 492 
C 365 68 742 -128 1203 -128 
C 1939 -128 2688 665 2688 2090 
C 2688 3857 1971 4224 1485 4224 
C 851 4224 243 3664 243 2800 
C 243 2000 762 1408 1414 1408 
C 1952 1408 2189 1910 2253 2122 
L 2253 1871 
z
M 1427 1510 
C 1254 1510 1011 1542 813 1929 
C 678 2181 678 2477 678 2793 
C 678 3174 678 3438 858 3722 
C 947 3857 1114 4076 1485 4076 
C 2240 4076 2240 2909 2240 2651 
C 2240 2193 2035 1510 1427 1510 
z
" transform="scale(0.015625)"/>
       </defs>
       <use xlink:href="#CMR17-31" transform="scale(0.996264)"/>
       <use xlink:href="#CMR17-39" transform="translate(45.690477 0)scale(0.996264)"/>
      </g>
     </g>
    </g>
    <g id="xtick_6">
     <g id="line2d_6">
      <path d="M 472.743082 333.36 
L 472.743082 7.2 
" clip-path="url(#p7779ef121a)" style="fill: none; stroke-dasharray: 2.96,1.28; stroke-dashoffset: 0; stroke: #d3d3d3; stroke-opacity: 0.53; stroke-width: 0.8"/>
     </g>
     <g id="text_6">
      <!-- $\mathdefault{20}$ -->
      <g style="fill: #262626" transform="translate(467.761746 341.278498)scale(0.1 -0.1)">
       <defs>
        <path id="CMR17-32" d="M 2669 990 
L 2554 990 
C 2490 537 2438 460 2413 422 
C 2381 371 1920 371 1830 371 
L 602 371 
C 832 620 1280 1073 1824 1596 
C 2214 1966 2669 2400 2669 3033 
C 2669 3788 2067 4224 1395 4224 
C 691 4224 262 3603 262 3027 
C 262 2777 448 2745 525 2745 
C 589 2745 781 2783 781 3007 
C 781 3206 614 3264 525 3264 
C 486 3264 448 3257 422 3244 
C 544 3788 915 4057 1306 4057 
C 1862 4057 2227 3616 2227 3033 
C 2227 2477 1901 1998 1536 1583 
L 262 147 
L 262 0 
L 2515 0 
L 2669 990 
z
" transform="scale(0.015625)"/>
        <path id="CMR17-30" d="M 2688 2038 
C 2688 2430 2682 3099 2413 3613 
C 2176 4063 1798 4224 1466 4224 
C 1158 4224 768 4082 525 3620 
C 269 3137 243 2539 243 2038 
C 243 1671 250 1112 448 623 
C 723 -39 1216 -128 1466 -128 
C 1760 -128 2208 -7 2470 604 
C 2662 1048 2688 1568 2688 2038 
z
M 1466 -26 
C 1056 -26 813 328 723 816 
C 653 1196 653 1749 653 2109 
C 653 2604 653 3015 736 3407 
C 858 3954 1216 4121 1466 4121 
C 1728 4121 2067 3947 2189 3420 
C 2272 3054 2278 2623 2278 2109 
C 2278 1691 2278 1176 2202 797 
C 2067 96 1690 -26 1466 -26 
z
" transform="scale(0.015625)"/>
       </defs>
       <use xlink:href="#CMR17-32" transform="scale(0.996264)"/>
       <use xlink:href="#CMR17-30" transform="translate(45.690477 0)scale(0.996264)"/>
      </g>
     </g>
    </g>
    <g id="text_7">
     <!-- \textbf{Time (s)} -->
     <g style="fill: #262626" transform="translate(244.492224 356.182053)scale(0.12 -0.12)">
      <defs>
       <path id="CMBX12-54" d="M 4608 4358 
L 390 4358 
L 262 2833 
L 531 2833 
C 589 3535 640 4083 1562 4083 
L 2080 4083 
L 2080 275 
L 1114 275 
L 1114 0 
C 1626 12 2285 12 2502 12 
C 2893 12 3379 12 3891 0 
L 3891 275 
L 2925 275 
L 2925 4083 
L 3437 4083 
C 4358 4083 4410 3542 4467 2833 
L 4736 2833 
L 4608 4358 
z
" transform="scale(0.015625)"/>
       <path id="CMBX12-69" d="M 1427 4019 
C 1427 4281 1216 4480 966 4480 
C 704 4480 506 4262 506 4019 
C 506 3775 704 3558 966 3558 
C 1216 3558 1427 3756 1427 4019 
z
M 301 2828 
L 301 2553 
C 678 2553 723 2553 723 2303 
L 723 275 
L 282 275 
L 282 0 
C 429 12 870 12 1043 12 
C 1222 12 1632 12 1786 0 
L 1786 275 
L 1389 275 
L 1389 2880 
L 301 2828 
z
" transform="scale(0.015625)"/>
       <path id="CMBX12-6d" d="M 5402 1958 
C 5402 2547 5152 2880 4435 2880 
C 3789 2880 3488 2444 3386 2240 
C 3283 2783 2848 2880 2438 2880 
C 1824 2880 1491 2483 1357 2176 
L 1350 2176 
L 1350 2880 
L 269 2828 
L 269 2553 
C 666 2553 710 2553 710 2304 
L 710 275 
L 269 275 
L 269 0 
C 416 12 877 12 1056 12 
C 1235 12 1702 12 1850 0 
L 1850 275 
L 1408 275 
L 1408 1638 
C 1408 2336 1926 2668 2330 2668 
C 2566 2668 2707 2528 2707 2028 
L 2707 275 
L 2266 275 
L 2266 0 
C 2413 12 2874 12 3053 12 
C 3232 12 3699 12 3846 0 
L 3846 275 
L 3405 275 
L 3405 1638 
C 3405 2336 3923 2668 4326 2668 
C 4563 2668 4704 2528 4704 2028 
L 4704 275 
L 4262 275 
L 4262 0 
C 4410 12 4870 12 5050 12 
C 5229 12 5696 12 5843 0 
L 5843 275 
L 5402 275 
L 5402 1958 
z
" transform="scale(0.015625)"/>
       <path id="CMBX12-65" d="M 2893 1408 
C 3040 1408 3078 1408 3078 1568 
C 3078 1758 3034 2232 2739 2529 
C 2470 2796 2112 2880 1741 2880 
C 742 2880 198 2232 198 1433 
C 198 523 858 -64 1824 -64 
C 2790 -64 3078 621 3078 731 
C 3078 829 2982 829 2944 829 
C 2842 829 2835 809 2797 725 
C 2630 302 2208 166 1901 166 
C 973 166 966 1043 966 1408 
L 2893 1408 
z
M 966 1593 
C 979 1852 986 2099 1120 2327 
C 1242 2529 1466 2668 1741 2668 
C 2426 2668 2483 1909 2490 1593 
L 966 1593 
z
" transform="scale(0.015625)"/>
       <path id="CMBX12-28" d="M 2394 -1530 
C 2394 -1505 2394 -1492 2272 -1376 
C 1555 -660 1280 467 1280 1593 
C 1280 2854 1594 3891 2310 4614 
C 2387 4691 2394 4697 2394 4723 
C 2394 4800 2317 4800 2285 4800 
C 2227 4800 2214 4800 2048 4665 
C 1126 3929 691 2752 691 1600 
C 691 422 1133 -724 2042 -1466 
C 2208 -1607 2221 -1607 2285 -1607 
C 2317 -1607 2394 -1607 2394 -1530 
z
" transform="scale(0.015625)"/>
       <path id="CMBX12-73" d="M 2413 2713 
C 2413 2835 2413 2880 2317 2880 
C 2278 2880 2266 2880 2170 2822 
C 2144 2803 2074 2758 2042 2739 
C 1862 2841 1626 2880 1395 2880 
C 1203 2880 243 2880 243 2046 
C 243 1372 1037 1231 1235 1199 
C 1408 1167 1619 1128 1645 1128 
C 1901 1071 2157 910 2157 641 
C 2157 147 1574 147 1440 147 
C 1114 147 710 249 531 872 
C 493 1000 486 1006 378 1006 
C 243 1006 243 987 243 840 
L 243 102 
C 243 -20 243 -64 339 -64 
C 384 -64 397 -64 525 38 
L 691 160 
C 979 -64 1325 -64 1440 -64 
C 1792 -64 2592 12 2592 865 
C 2592 1173 2426 1385 2298 1500 
C 2035 1719 1818 1757 1472 1821 
C 1062 1892 678 1962 678 2270 
C 678 2687 1248 2687 1382 2687 
C 2093 2687 2131 2238 2144 2078 
C 2150 1995 2202 1995 2278 1995 
C 2413 1995 2413 2014 2413 2161 
L 2413 2713 
z
" transform="scale(0.015625)"/>
       <path id="CMBX12-29" d="M 2099 1593 
C 2099 2771 1658 3917 749 4659 
C 582 4800 570 4800 506 4800 
C 474 4800 397 4800 397 4723 
C 397 4697 397 4684 518 4569 
C 1235 3853 1510 2726 1510 1600 
C 1510 339 1197 -698 480 -1421 
C 403 -1498 397 -1505 397 -1530 
C 397 -1607 474 -1607 506 -1607 
C 563 -1607 576 -1607 742 -1472 
C 1664 -736 2099 441 2099 1593 
z
" transform="scale(0.015625)"/>
      </defs>
      <use xlink:href="#CMBX12-54" transform="scale(0.996264)"/>
      <use xlink:href="#CMBX12-69" transform="translate(77.94837 0)scale(0.996264)"/>
      <use xlink:href="#CMBX12-6d" transform="translate(109.081621 0)scale(0.996264)"/>
      <use xlink:href="#CMBX12-65" transform="translate(202.481372 0)scale(0.996264)"/>
      <use xlink:href="#CMBX12-28" transform="translate(290.980539 0)scale(0.996264)"/>
      <use xlink:href="#CMBX12-73" transform="translate(334.56709 0)scale(0.996264)"/>
      <use xlink:href="#CMBX12-29" transform="translate(378.776427 0)scale(0.996264)"/>
     </g>
    </g>
   </g>
   <g id="matplotlib.axis_2">
    <g id="ytick_1">
     <g id="line2d_7">
      <path d="M 46.633991 312.024992 
L 493.033991 312.024992 
" clip-path="url(#p7779ef121a)" style="fill: none; stroke-dasharray: 2.96,1.28; stroke-dashoffset: 0; stroke: #d3d3d3; stroke-opacity: 0.53; stroke-width: 0.8"/>
     </g>
     <g id="text_8">
      <!-- $\mathdefault{−1.0}$ -->
      <g style="fill: #262626" transform="translate(23.155168 315.484241)scale(0.1 -0.1)">
       <defs>
        <path id="CMSY10-0" d="M 4218 1472 
C 4326 1472 4442 1472 4442 1600 
C 4442 1728 4326 1728 4218 1728 
L 755 1728 
C 646 1728 531 1728 531 1600 
C 531 1472 646 1472 755 1472 
L 4218 1472 
z
" transform="scale(0.015625)"/>
        <path id="CMMI12-3a" d="M 1178 307 
C 1178 492 1024 620 870 620 
C 685 620 557 467 557 313 
C 557 128 710 0 864 0 
C 1050 0 1178 153 1178 307 
z
" transform="scale(0.015625)"/>
       </defs>
       <use xlink:href="#CMSY10-0" transform="scale(0.996264)"/>
       <use xlink:href="#CMR17-31" transform="translate(77.487468 0)scale(0.996264)"/>
       <use xlink:href="#CMMI12-3a" transform="translate(123.177945 0)scale(0.996264)"/>
       <use xlink:href="#CMR17-30" transform="translate(150.275122 0)scale(0.996264)"/>
      </g>
     </g>
    </g>
    <g id="ytick_2">
     <g id="line2d_8">
      <path d="M 46.633991 248.188533 
L 493.033991 248.188533 
" clip-path="url(#p7779ef121a)" style="fill: none; stroke-dasharray: 2.96,1.28; stroke-dashoffset: 0; stroke: #d3d3d3; stroke-opacity: 0.53; stroke-width: 0.8"/>
     </g>
     <g id="text_9">
      <!-- $\mathdefault{−0.5}$ -->
      <g style="fill: #262626" transform="translate(23.155168 251.647782)scale(0.1 -0.1)">
       <use xlink:href="#CMSY10-0" transform="scale(0.996264)"/>
       <use xlink:href="#CMR17-30" transform="translate(77.487468 0)scale(0.996264)"/>
       <use xlink:href="#CMMI12-3a" transform="translate(123.177945 0)scale(0.996264)"/>
       <use xlink:href="#CMR17-35" transform="translate(150.275122 0)scale(0.996264)"/>
      </g>
     </g>
    </g>
    <g id="ytick_3">
     <g id="line2d_9">
      <path d="M 46.633991 184.352073 
L 493.033991 184.352073 
" clip-path="url(#p7779ef121a)" style="fill: none; stroke-dasharray: 2.96,1.28; stroke-dashoffset: 0; stroke: #d3d3d3; stroke-opacity: 0.53; stroke-width: 0.8"/>
     </g>
     <g id="text_10">
      <!-- $\mathdefault{0.0}$ -->
      <g style="fill: #262626" transform="translate(30.903912 187.811322)scale(0.1 -0.1)">
       <use xlink:href="#CMR17-30" transform="scale(0.996264)"/>
       <use xlink:href="#CMMI12-3a" transform="translate(45.690477 0)scale(0.996264)"/>
       <use xlink:href="#CMR17-30" transform="translate(72.787654 0)scale(0.996264)"/>
      </g>
     </g>
    </g>
    <g id="ytick_4">
     <g id="line2d_10">
      <path d="M 46.633991 120.515613 
L 493.033991 120.515613 
" clip-path="url(#p7779ef121a)" style="fill: none; stroke-dasharray: 2.96,1.28; stroke-dashoffset: 0; stroke: #d3d3d3; stroke-opacity: 0.53; stroke-width: 0.8"/>
     </g>
     <g id="text_11">
      <!-- $\mathdefault{0.5}$ -->
      <g style="fill: #262626" transform="translate(30.903912 123.974863)scale(0.1 -0.1)">
       <use xlink:href="#CMR17-30" transform="scale(0.996264)"/>
       <use xlink:href="#CMMI12-3a" transform="translate(45.690477 0)scale(0.996264)"/>
       <use xlink:href="#CMR17-35" transform="translate(72.787654 0)scale(0.996264)"/>
      </g>
     </g>
    </g>
    <g id="ytick_5">
     <g id="line2d_11">
      <path d="M 46.633991 56.679154 
L 493.033991 56.679154 
" clip-path="url(#p7779ef121a)" style="fill: none; stroke-dasharray: 2.96,1.28; stroke-dashoffset: 0; stroke: #d3d3d3; stroke-opacity: 0.53; stroke-width: 0.8"/>
     </g>
     <g id="text_12">
      <!-- $\mathdefault{1.0}$ -->
      <g style="fill: #262626" transform="translate(30.903912 60.138403)scale(0.1 -0.1)">
       <use xlink:href="#CMR17-31" transform="scale(0.996264)"/>
       <use xlink:href="#CMMI12-3a" transform="translate(45.690477 0)scale(0.996264)"/>
       <use xlink:href="#CMR17-30" transform="translate(72.787654 0)scale(0.996264)"/>
      </g>
     </g>
    </g>
    <g id="text_13">
     <!-- \textbf{Angular Velocity (rad/s)} -->
     <g style="fill: #262626" transform="translate(16.166376 243.394029)rotate(-90)scale(0.12 -0.12)">
      <defs>
       <path id="CMBX12-41" d="M 2931 4333 
C 2886 4448 2874 4480 2720 4480 
C 2560 4480 2547 4448 2502 4333 
L 915 429 
C 870 326 870 313 691 294 
C 531 275 506 275 365 275 
L 250 275 
L 250 0 
C 416 12 800 12 986 12 
C 1158 12 1626 12 1773 0 
L 1773 275 
C 1632 275 1389 275 1210 346 
C 1229 404 1229 416 1242 442 
L 1581 1280 
L 3296 1280 
L 3699 275 
L 3098 275 
L 3098 0 
C 3302 12 3923 12 4166 12 
C 4371 12 5024 12 5184 0 
L 5184 275 
L 4576 275 
L 2931 4333 
z
M 2438 3394 
L 3181 1555 
L 1690 1555 
L 2438 3394 
z
" transform="scale(0.015625)"/>
       <path id="CMBX12-6e" d="M 3398 1958 
C 3398 2566 3136 2880 2432 2880 
C 1971 2880 1574 2656 1357 2176 
L 1350 2176 
L 1350 2880 
L 269 2828 
L 269 2553 
C 666 2553 710 2553 710 2304 
L 710 275 
L 269 275 
L 269 0 
C 416 12 877 12 1056 12 
C 1235 12 1702 12 1850 0 
L 1850 275 
L 1408 275 
L 1408 1638 
C 1408 2329 1920 2668 2330 2668 
C 2566 2668 2701 2515 2701 2028 
L 2701 275 
L 2259 275 
L 2259 0 
C 2406 12 2867 12 3046 12 
C 3226 12 3693 12 3840 0 
L 3840 275 
L 3398 275 
L 3398 1958 
z
" transform="scale(0.015625)"/>
       <path id="CMBX12-67" d="M 832 1177 
C 1139 1011 1498 1011 1594 1011 
C 2477 1011 2829 1506 2829 1958 
C 2829 2287 2643 2519 2566 2584 
C 2752 2687 2906 2713 3014 2726 
C 2995 2694 2976 2668 2976 2584 
C 2976 2448 3066 2326 3232 2326 
C 3398 2326 3488 2448 3488 2584 
C 3488 2739 3373 2944 3104 2944 
C 2829 2944 2566 2809 2432 2694 
C 2170 2847 1920 2905 1594 2905 
C 710 2905 358 2410 358 1958 
C 358 1758 422 1493 691 1274 
C 582 1151 467 926 467 693 
C 467 416 614 179 749 76 
C 595 38 198 -109 198 -474 
C 198 -852 614 -1280 1792 -1280 
C 2854 -1280 3392 -935 3392 -455 
C 3392 108 3021 294 2861 371 
C 2554 524 2144 524 1581 524 
C 1421 524 1139 524 1107 531 
C 832 576 755 823 755 946 
C 755 998 762 1094 832 1177 
z
M 1594 1216 
C 1037 1216 1037 1661 1037 1958 
C 1037 2255 1037 2700 1594 2700 
C 2150 2700 2150 2255 2150 1958 
C 2150 1661 2150 1216 1594 1216 
z
M 1952 -64 
C 2419 -64 2867 -148 2867 -480 
C 2867 -704 2643 -1076 1798 -1076 
C 954 -1076 723 -717 723 -474 
C 723 -64 1126 -64 1222 -64 
L 1952 -64 
z
" transform="scale(0.015625)"/>
       <path id="CMBX12-75" d="M 2259 2828 
L 2259 2553 
C 2656 2553 2701 2553 2701 2301 
L 2701 1033 
C 2701 541 2413 147 1914 147 
C 1434 147 1408 308 1408 664 
L 1408 2880 
L 269 2828 
L 269 2553 
C 666 2553 710 2553 710 2301 
L 710 768 
C 710 121 1139 -64 1824 -64 
C 1978 -64 2451 -64 2726 457 
L 2733 457 
L 2733 -64 
L 3840 -26 
L 3840 250 
C 3443 250 3398 250 3398 502 
L 3398 2880 
L 2259 2828 
z
" transform="scale(0.015625)"/>
       <path id="CMBX12-6c" d="M 1389 4480 
L 282 4428 
L 282 4153 
C 678 4153 723 4153 723 3901 
L 723 275 
L 282 275 
L 282 0 
C 429 12 883 12 1056 12 
C 1229 12 1683 12 1830 0 
L 1830 275 
L 1389 275 
L 1389 4480 
z
" transform="scale(0.015625)"/>
       <path id="CMBX12-61" d="M 2944 1894 
C 2944 2483 2477 2880 1574 2880 
C 1216 2880 461 2847 461 2310 
C 461 2041 666 1926 838 1926 
C 1030 1926 1216 2060 1216 2303 
C 1216 2425 1171 2540 1062 2611 
C 1274 2668 1427 2668 1549 2668 
C 1984 2668 2246 2425 2246 1900 
L 2246 1644 
C 1235 1644 218 1362 218 648 
C 218 64 960 -64 1402 -64 
C 1894 -64 2208 205 2336 488 
C 2336 250 2336 -26 2982 -26 
L 3309 -26 
C 3443 -26 3494 -26 3494 115 
C 3494 250 3437 250 3347 250 
C 2944 256 2944 359 2944 507 
L 2944 1894 
z
M 2246 867 
C 2246 262 1709 147 1504 147 
C 1190 147 928 359 928 655 
C 928 1240 1619 1439 2246 1472 
L 2246 867 
z
" transform="scale(0.015625)"/>
       <path id="CMBX12-72" d="M 1331 1440 
C 1331 1651 1376 2668 2125 2668 
C 2035 2598 1990 2489 1990 2374 
C 1990 2112 2202 2003 2362 2003 
C 2522 2003 2733 2112 2733 2374 
C 2733 2700 2400 2880 2093 2880 
C 1587 2880 1370 2438 1280 2169 
L 1274 2169 
L 1274 2880 
L 224 2828 
L 224 2553 
C 621 2553 666 2553 666 2304 
L 666 275 
L 224 275 
L 224 0 
C 371 12 851 12 1030 12 
C 1216 12 1734 12 1888 0 
L 1888 275 
L 1331 275 
L 1331 1440 
z
" transform="scale(0.015625)"/>
       <path id="CMBX12-56" d="M 4634 3992 
C 4672 4075 4698 4140 5171 4140 
L 5280 4140 
L 5280 4416 
C 5082 4403 4621 4403 4570 4403 
C 4390 4403 3936 4403 3789 4416 
L 3789 4140 
C 3930 4140 4166 4140 4346 4069 
L 4314 3979 
L 3002 960 
L 1619 4140 
L 2214 4140 
L 2214 4416 
C 2010 4403 1395 4403 1152 4403 
C 947 4403 314 4403 154 4416 
L 154 4140 
L 730 4140 
L 2496 70 
C 2554 -58 2611 -64 2714 -64 
C 2816 -64 2880 -64 2938 70 
L 4634 3992 
z
" transform="scale(0.015625)"/>
       <path id="CMBX12-6f" d="M 3392 1379 
C 3392 2245 2803 2880 1798 2880 
C 755 2880 198 2213 198 1379 
C 198 538 787 -64 1792 -64 
C 2835 -64 3392 570 3392 1379 
z
M 1798 166 
C 966 166 966 917 966 1443 
C 966 1744 966 2065 1088 2296 
C 1229 2553 1517 2668 1792 2668 
C 2157 2668 2387 2495 2496 2315 
C 2624 2084 2624 1751 2624 1443 
C 2624 910 2624 166 1798 166 
z
" transform="scale(0.015625)"/>
       <path id="CMBX12-63" d="M 2995 724 
C 2995 801 2925 801 2861 801 
C 2758 801 2752 795 2720 718 
C 2675 596 2502 166 1914 166 
C 1011 166 1011 1141 1011 1430 
C 1011 1808 1018 2649 1856 2649 
C 1901 2649 2278 2636 2278 2604 
C 2278 2598 2272 2591 2259 2585 
C 2240 2566 2157 2469 2157 2309 
C 2157 2039 2374 1930 2534 1930 
C 2669 1930 2912 2014 2912 2315 
C 2912 2841 2176 2880 1830 2880 
C 691 2880 243 2136 243 1398 
C 243 525 851 -64 1792 -64 
C 2797 -64 2995 679 2995 724 
z
" transform="scale(0.015625)"/>
       <path id="CMBX12-74" d="M 1350 2540 
L 2272 2540 
L 2272 2816 
L 1350 2816 
L 1350 4032 
L 1082 4032 
C 1075 3401 768 2771 134 2751 
L 134 2540 
L 653 2540 
L 653 761 
C 653 83 1178 -64 1638 -64 
C 2112 -64 2394 294 2394 768 
L 2394 1107 
L 2125 1107 
L 2125 774 
C 2125 352 1933 166 1734 166 
C 1350 166 1350 595 1350 742 
L 1350 2540 
z
" transform="scale(0.015625)"/>
       <path id="CMBX12-79" d="M 3168 2400 
C 3206 2489 3232 2540 3642 2540 
L 3642 2816 
C 3424 2803 3398 2803 3136 2803 
C 2963 2803 2950 2803 2586 2816 
L 2586 2540 
C 2592 2540 2893 2540 2893 2457 
C 2893 2438 2874 2400 2867 2381 
L 2118 780 
L 1299 2540 
L 1651 2540 
L 1651 2816 
C 1498 2803 1062 2803 883 2803 
C 698 2803 320 2803 154 2816 
L 154 2540 
L 563 2540 
L 1747 -8 
C 1715 -84 1626 -269 1594 -345 
C 1459 -631 1254 -1069 806 -1069 
C 781 -1069 704 -1069 634 -1031 
C 646 -1025 838 -949 838 -707 
C 838 -497 685 -364 493 -364 
C 294 -364 141 -497 141 -713 
C 141 -1012 422 -1280 806 -1280 
C 1331 -1280 1677 -809 1805 -529 
L 3168 2400 
z
" transform="scale(0.015625)"/>
       <path id="CMBX12-64" d="M 2221 4428 
L 2221 4153 
C 2618 4153 2662 4153 2662 3896 
L 2662 2571 
C 2522 2694 2240 2880 1798 2880 
C 890 2880 243 2313 243 1408 
C 243 483 877 -64 1728 -64 
C 2080 -64 2381 57 2630 270 
L 2630 -64 
L 3770 -26 
L 3770 250 
C 3373 250 3328 250 3328 502 
L 3328 4480 
L 2221 4428 
z
M 2630 625 
C 2362 231 2035 147 1805 147 
C 1011 147 1011 968 1011 1395 
C 1011 1699 1011 2022 1152 2268 
C 1350 2630 1728 2668 1875 2668 
C 2138 2668 2419 2552 2630 2268 
L 2630 625 
z
" transform="scale(0.015625)"/>
       <path id="CMBX12-2f" d="M 3162 4505 
C 3194 4582 3194 4608 3194 4621 
C 3194 4736 3104 4800 3021 4800 
C 2899 4800 2874 4723 2835 4633 
L 429 -1306 
C 397 -1383 397 -1408 397 -1421 
C 397 -1536 486 -1600 570 -1600 
C 691 -1600 717 -1530 755 -1434 
L 3162 4505 
z
" transform="scale(0.015625)"/>
      </defs>
      <use xlink:href="#CMBX12-41" transform="scale(0.996264)"/>
      <use xlink:href="#CMBX12-6e" transform="translate(84.636395 0)scale(0.996264)"/>
      <use xlink:href="#CMBX12-67" transform="translate(146.902895 0)scale(0.996264)"/>
      <use xlink:href="#CMBX12-75" transform="translate(202.942746 0)scale(0.996264)"/>
      <use xlink:href="#CMBX12-6c" transform="translate(265.209246 0)scale(0.996264)"/>
      <use xlink:href="#CMBX12-61" transform="translate(296.342497 0)scale(0.996264)"/>
      <use xlink:href="#CMBX12-72" transform="translate(350.825685 0)scale(0.996264)"/>
      <use xlink:href="#CMBX12-56" transform="translate(433.963093 0)scale(0.996264)"/>
      <use xlink:href="#CMBX12-65" transform="translate(509.259512 0)scale(0.996264)"/>
      <use xlink:href="#CMBX12-6c" transform="translate(560.398779 0)scale(0.996264)"/>
      <use xlink:href="#CMBX12-6f" transform="translate(591.53203 0)scale(0.996264)"/>
      <use xlink:href="#CMBX12-63" transform="translate(650.685205 0)scale(0.996264)"/>
      <use xlink:href="#CMBX12-69" transform="translate(700.498406 0)scale(0.996264)"/>
      <use xlink:href="#CMBX12-74" transform="translate(731.631656 0)scale(0.996264)"/>
      <use xlink:href="#CMBX12-79" transform="translate(772.104881 0)scale(0.996264)"/>
      <use xlink:href="#CMBX12-28" transform="translate(868.617957 0)scale(0.996264)"/>
      <use xlink:href="#CMBX12-72" transform="translate(912.204508 0)scale(0.996264)"/>
      <use xlink:href="#CMBX12-61" transform="translate(957.982015 0)scale(0.996264)"/>
      <use xlink:href="#CMBX12-64" transform="translate(1012.465203 0)scale(0.996264)"/>
      <use xlink:href="#CMBX12-2f" transform="translate(1074.731704 0)scale(0.996264)"/>
      <use xlink:href="#CMBX12-73" transform="translate(1130.771554 0)scale(0.996264)"/>
      <use xlink:href="#CMBX12-29" transform="translate(1174.980891 0)scale(0.996264)"/>
     </g>
    </g>
   </g>
   <g id="line2d_12">
    <path d="M 66.9249 181.835973 
L 67.738163 180.407916 
L 68.551426 181.25795 
L 69.364689 183.604043 
L 70.177951 180.50992 
L 70.991214 178.231829 
L 71.804477 177.177787 
L 72.61774 179.591883 
L 74.244266 187.854213 
L 75.057529 190.506318 
L 75.870792 189.758288 
L 78.31058 183.842053 
L 79.123843 183.978058 
L 80.750369 180.271911 
L 81.563632 179.625884 
L 82.376895 181.665966 
L 83.190158 187.004179 
L 84.003421 188.160225 
L 84.816683 190.710327 
L 85.629946 191.866373 
L 86.443209 192.30839 
L 87.256472 188.53424 
L 88.882998 182.788011 
L 89.696261 175.613725 
L 90.509524 173.437638 
L 91.322787 178.129825 
L 92.949312 191.05034 
L 93.762575 194.688485 
L 94.575838 193.022419 
L 95.389101 191.79837 
L 96.202364 189.996298 
L 97.015627 189.826291 
L 97.82889 188.058221 
L 98.642153 183.570042 
L 99.455415 179.76189 
L 100.268678 178.911856 
L 101.081941 179.931897 
L 101.895204 183.53604 
L 103.52173 184.726088 
L 104.334993 181.427956 
L 105.961519 181.393955 
L 106.774781 182.924016 
L 107.588044 184.148065 
L 108.401307 183.706047 
L 109.21457 183.128024 
L 110.027833 183.060022 
L 110.841096 183.366034 
L 111.654359 182.992019 
L 112.467622 183.53604 
L 113.280885 186.29015 
L 114.094147 189.656284 
L 114.90741 190.336312 
L 115.720673 190.846332 
L 116.533936 190.608322 
L 117.347199 189.79229 
L 118.160462 188.670245 
L 119.786988 183.468038 
L 120.600251 181.291951 
L 121.413514 180.407916 
L 122.226776 180.373914 
L 123.040039 180.101904 
L 123.853302 180.985939 
L 124.666565 180.985939 
L 125.479828 182.413996 
L 126.293091 184.488078 
L 127.106354 186.256149 
L 127.919617 189.146264 
L 128.73288 190.676325 
L 129.546142 192.648404 
L 130.359405 196.252547 
L 131.172668 196.558559 
L 131.985931 196.354551 
L 132.799194 192.886413 
L 133.612457 187.582202 
L 134.42572 187.684206 
L 135.238983 188.194226 
L 136.052246 189.486278 
L 136.865508 189.962297 
L 137.678771 190.268309 
L 138.492034 189.452276 
L 139.305297 190.472317 
L 140.11856 192.580401 
L 140.931823 200.502718 
L 142.558349 209.343069 
L 143.371612 216.517354 
L 144.184874 218.421431 
L 144.998137 218.727444 
L 145.8114 207.949013 
L 146.624663 185.712127 
L 147.437926 173.369635 
L 148.251189 152.288795 
L 149.064452 143.890461 
L 149.877715 137.464202 
L 150.690978 139.334277 
L 151.50424 144.196474 
L 152.317503 156.878977 
L 153.130766 172.451599 
L 153.944029 182.924016 
L 155.570555 189.486278 
L 156.383818 196.728566 
L 157.197081 199.958695 
L 158.010344 196.150543 
L 158.823606 188.942256 
L 159.636869 171.97558 
L 160.450132 164.495282 
L 161.263395 159.735092 
L 162.076658 164.291274 
L 162.889921 172.723609 
L 164.516447 191.526359 
L 165.32971 206.928973 
L 166.142972 202.746806 
L 167.769498 161.163149 
L 168.582761 147.868619 
L 169.396024 126.957785 
L 170.209287 136.88618 
L 171.02255 126.957785 
L 171.835813 136.88618 
L 172.649076 107.543011 
L 175.088864 68.543458 
L 177.528653 124.135673 
L 178.341916 120.803538 
L 179.155179 110.263116 
L 180.781704 98.532655 
L 181.594967 95.166515 
L 182.40823 114.649294 
L 183.221493 156.16495 
L 184.034756 203.698845 
L 184.848019 262.249176 
L 185.661282 269.38946 
L 186.474545 272.7556 
L 187.287808 264.119255 
L 188.10107 241.950371 
L 188.914333 146.304557 
L 189.727596 79.185879 
L 190.540859 33.352059 
L 191.354122 36.650189 
L 192.167385 78.47185 
L 192.980648 113.527245 
L 193.793911 190.098302 
L 194.607174 247.492592 
L 195.420436 277.005767 
L 196.233699 269.79748 
L 197.046962 242.188378 
L 198.673488 220.835527 
L 199.486751 220.835527 
L 200.300014 220.121498 
L 201.113277 221.651559 
L 201.92654 221.14154 
L 202.739802 214.783287 
L 203.553065 212.811208 
L 204.366328 216.653362 
L 205.179591 224.677681 
L 206.806117 250.654718 
L 207.61938 268.165415 
L 208.432643 268.165415 
L 209.245906 259.93709 
L 210.059168 243.514434 
L 210.872431 219.781487 
L 211.685694 167.793412 
L 212.498957 148.276635 
L 213.31222 136.852179 
L 214.125483 136.954182 
L 214.938746 147.086588 
L 215.752009 160.891137 
L 216.565272 188.262229 
L 217.378534 197.884613 
L 218.191797 204.310869 
L 219.00506 207.881011 
L 219.818323 207.064979 
L 220.631586 210.533116 
L 221.444849 213.35523 
L 222.258112 215.769326 
L 223.071375 219.339466 
L 223.884638 219.305465 
L 224.6979 217.84341 
L 225.511163 208.11902 
L 227.137689 192.240388 
L 227.950952 173.369635 
L 228.764215 160.755133 
L 229.577478 165.923339 
L 230.390741 160.755133 
L 231.204004 165.923339 
L 232.017266 154.702891 
L 232.830529 146.882578 
L 233.643792 141.612369 
L 234.457055 141.578368 
L 235.270318 143.482445 
L 237.710107 178.979859 
L 238.52337 196.490557 
L 239.336632 196.660563 
L 240.149895 189.010259 
L 240.963158 160.109106 
L 242.589684 131.445962 
L 243.402947 122.843622 
L 244.21621 139.742293 
L 245.029473 161.129148 
L 245.842736 170.887536 
L 247.469261 188.262229 
L 248.282524 188.466237 
L 249.095787 187.684206 
L 249.90905 187.684206 
L 250.722313 185.406115 
L 251.535576 182.27799 
L 252.348839 178.435837 
L 253.162102 171.839575 
L 256.415153 161.94518 
L 257.228416 161.94518 
L 258.041679 161.19715 
L 258.854942 160.211111 
L 259.668205 154.9409 
L 260.481468 151.744774 
L 261.29473 151.91478 
L 262.107993 155.620928 
L 262.921256 162.21719 
L 263.734519 182.822012 
L 264.547782 207.813009 
L 266.174308 223.521635 
L 266.987571 234.266063 
L 267.800834 238.41423 
L 268.614096 239.944291 
L 269.427359 240.896328 
L 271.053885 236.102137 
L 271.867148 232.361986 
L 272.680411 226.479751 
L 273.493674 218.081417 
L 274.306937 205.942934 
L 275.1202 202.032777 
L 275.933462 202.848811 
L 276.746725 204.820888 
L 279.186514 194.110462 
L 279.999777 200.740727 
L 280.81304 205.534917 
L 282.439566 212.539196 
L 283.252828 215.565318 
L 284.066091 219.577477 
L 284.879354 220.563519 
L 285.692617 220.121498 
L 286.50588 215.123301 
L 287.319143 212.369191 
L 288.132406 211.417153 
L 289.758932 210.635121 
L 290.572195 210.091099 
L 291.385457 210.839129 
L 292.19872 212.675202 
L 293.011983 211.451154 
L 293.825246 210.023097 
L 294.638509 206.860971 
L 295.451772 194.348472 
L 297.078298 180.101904 
L 297.891561 169.9695 
L 298.704823 167.011381 
L 299.518086 164.9713 
L 301.144612 166.025342 
L 301.957875 167.045384 
L 302.771138 166.127347 
L 303.584401 162.659207 
L 304.397664 162.659207 
L 305.210927 162.4892 
L 306.024189 158.885057 
L 307.650715 133.894059 
L 308.463978 123.591649 
L 309.277241 103.870862 
L 310.090504 90.372324 
L 310.903767 93.058436 
L 311.71703 109.277079 
L 312.530293 93.058436 
L 313.343555 109.277079 
L 314.156818 149.330675 
L 316.596607 218.285427 
L 317.40987 231.851967 
L 318.223133 234.776082 
L 319.036396 234.776082 
L 319.849659 224.269665 
L 321.476184 194.518479 
L 322.289447 172.111585 
L 323.10271 162.285192 
L 323.915973 154.158868 
L 324.729236 149.772696 
L 325.542499 153.920859 
L 327.169025 157.320995 
L 327.982287 158.137027 
L 328.79555 156.368958 
L 329.608813 149.568686 
L 330.422076 141.272355 
L 331.235339 138.824258 
L 332.048602 137.430201 
L 332.861865 135.084107 
L 333.675128 130.867941 
L 334.488391 124.169674 
L 336.114916 105.944947 
L 336.928179 101.66078 
L 337.741442 111.487168 
L 338.554705 166.909378 
L 340.181231 229.981891 
L 340.994494 277.413787 
L 341.807757 291.83036 
L 343.434282 260.787124 
L 344.247545 245.112497 
L 345.874071 217.877411 
L 346.687334 188.330232 
L 347.500597 171.805573 
L 348.31386 152.390798 
L 349.127123 171.805573 
L 349.940385 152.390798 
L 350.753648 119.307481 
L 351.566911 113.35724 
L 353.193437 112.915227 
L 354.0067 108.529048 
L 354.819963 99.722698 
L 356.446489 39.268283 
L 357.259751 29.917909 
L 358.073014 29.917909 
L 358.886277 43.722464 
L 359.69954 70.515533 
L 360.512803 105.502926 
L 361.326066 183.196027 
L 362.952592 264.153256 
L 363.765855 293.020403 
L 364.579117 311.755153 
L 365.39238 316.889361 
L 366.205643 302.608785 
L 367.018906 285.370103 
L 367.832169 261.909165 
L 368.645432 230.525915 
L 370.271958 190.54032 
L 371.085221 170.445518 
L 371.898483 153.444841 
L 372.711746 142.122388 
L 373.525009 136.13815 
L 374.338272 135.288117 
L 375.964798 159.327076 
L 376.778061 174.355675 
L 377.591324 204.242867 
L 378.404587 211.655162 
L 379.217849 212.743206 
L 380.031112 192.580401 
L 381.657638 128.861861 
L 382.470901 116.961387 
L 383.284164 108.699054 
L 384.097427 103.394847 
L 384.91069 101.354763 
L 385.723953 103.394847 
L 386.537215 107.679015 
L 387.350478 121.07555 
L 388.163741 130.017908 
L 388.977004 140.218312 
L 389.790267 165.24331 
L 390.60353 176.939777 
L 391.416793 185.712127 
L 392.230056 192.852412 
L 393.043319 191.084341 
L 393.856581 187.106183 
L 394.669844 184.28407 
L 395.483107 180.50992 
L 396.29637 172.791612 
L 397.109633 169.935498 
L 397.922896 166.127347 
L 398.736159 161.129148 
L 399.549422 161.027143 
L 400.362685 161.707171 
L 401.175947 161.027143 
L 401.98921 161.707171 
L 402.802473 163.713251 
L 403.615736 165.005301 
L 404.428999 166.97738 
L 406.055525 176.905776 
L 406.868788 179.591883 
L 407.682051 177.143785 
L 408.495313 171.805573 
L 409.308576 168.881457 
L 410.121839 170.173508 
L 410.935102 162.931219 
L 411.748365 153.206832 
L 412.561628 156.334955 
L 413.374891 147.834618 
L 414.188154 117.743419 
L 415.001417 111.96319 
L 415.814679 111.181159 
L 416.627942 111.351164 
L 417.441205 129.779897 
L 418.254468 138.042227 
L 419.067731 144.298477 
L 419.880994 148.378638 
L 420.694257 154.022864 
L 421.50752 161.095145 
L 422.320783 165.855335 
L 423.134045 175.069703 
L 423.947308 175.069703 
L 424.760571 176.735769 
L 425.573834 174.967699 
L 426.387097 170.785532 
L 427.20036 165.175308 
L 428.013623 160.653128 
L 428.826886 157.729011 
L 429.640149 152.356797 
L 430.453411 152.356797 
L 432.079937 148.820656 
L 432.8932 147.562606 
L 433.706463 150.724732 
L 434.519726 157.014983 
L 435.332989 165.379316 
L 436.146252 182.209988 
L 436.959515 190.234308 
L 437.772777 187.27619 
L 438.58604 181.053942 
L 439.399303 157.525003 
L 440.212566 164.495282 
L 441.025829 157.525003 
L 441.839092 164.495282 
L 442.652355 152.866818 
L 443.465618 153.342836 
L 444.278881 160.959141 
L 445.092143 164.665287 
L 445.905406 166.909378 
L 446.718669 168.167427 
L 448.345195 167.963419 
L 449.158458 170.24151 
L 449.971721 173.675647 
L 450.784984 177.959818 
L 451.598247 181.325952 
L 453.224772 187.03818 
L 454.851298 191.084341 
L 455.664561 189.962297 
L 456.477824 190.336312 
L 458.10435 188.976258 
L 458.917613 188.330232 
L 459.730875 188.194226 
L 460.544138 188.500238 
L 462.170664 186.766169 
L 462.983927 186.188146 
L 463.79719 185.984138 
L 464.610453 186.018139 
L 465.423716 187.514199 
L 466.236979 189.758288 
L 467.050242 186.834172 
L 467.863504 186.834172 
L 468.676767 184.454077 
L 469.49003 181.665966 
L 470.303293 180.373914 
L 471.116556 177.925817 
L 471.929819 177.619805 
L 472.743082 178.74185 
L 472.743082 178.74185 
" clip-path="url(#p7779ef121a)" style="fill: none; stroke: #1f77b4; stroke-width: 2; stroke-linecap: round"/>
   </g>
   <g id="line2d_13">
    <path d="M 66.9249 190.134495 
L 68.551426 181.432874 
L 69.364689 180.180405 
L 70.991214 182.272078 
L 71.804477 181.626095 
L 72.61774 178.710976 
L 73.431003 176.817851 
L 74.244266 179.440112 
L 75.057529 184.168128 
L 75.870792 187.801564 
L 76.684055 190.23999 
L 77.497317 190.380858 
L 79.123843 185.080016 
L 79.937106 183.985882 
L 80.750369 183.230114 
L 81.563632 182.214382 
L 82.376895 180.784922 
L 83.190158 179.796796 
L 84.003421 181.691413 
L 84.816683 186.164874 
L 85.629946 189.584729 
L 86.443209 190.726818 
L 87.256472 191.439912 
L 88.069735 191.724755 
L 88.882998 189.464709 
L 90.509524 181.0843 
L 92.136049 174.203502 
L 92.949312 176.531042 
L 93.762575 185.188967 
L 94.575838 192.319266 
L 95.389101 194.052004 
L 96.202364 193.682713 
L 97.015627 192.068541 
L 97.82889 189.602239 
L 98.642153 188.90186 
L 99.455415 188.016165 
L 101.081941 179.684135 
L 101.895204 178.564824 
L 102.708467 180.115336 
L 103.52173 182.906569 
L 104.334993 184.81026 
L 105.148256 184.260544 
L 105.961519 182.304954 
L 106.774781 180.914675 
L 107.588044 181.266208 
L 108.401307 182.943771 
L 109.21457 184.085255 
L 110.027833 183.909087 
L 110.841096 183.288045 
L 111.654359 182.923853 
L 112.467622 183.075354 
L 114.094147 184.029256 
L 114.90741 185.92123 
L 115.720673 189.276229 
L 116.533936 191.269516 
L 117.347199 190.82423 
L 118.160462 190.16905 
L 118.973725 189.875231 
L 119.786988 188.408592 
L 121.413514 183.394562 
L 122.226776 181.249828 
L 123.040039 180.103057 
L 123.853302 180.207589 
L 124.666565 180.497081 
L 125.479828 180.66476 
L 126.293091 181.384473 
L 127.106354 182.625819 
L 127.919617 184.355887 
L 129.546142 189.134502 
L 131.172668 193.185826 
L 131.985931 195.490084 
L 132.799194 196.931576 
L 133.612457 196.088763 
L 134.42572 192.633679 
L 135.238983 188.579192 
L 136.052246 186.699343 
L 136.865508 187.793664 
L 137.678771 189.837192 
L 138.492034 190.316959 
L 139.305297 189.793284 
L 140.11856 190.038935 
L 140.931823 190.893519 
L 141.745086 193.416214 
L 142.558349 199.423136 
L 143.371612 206.328225 
L 144.184874 210.998886 
L 145.8114 218.727943 
L 146.624663 217.235177 
L 147.437926 206.274577 
L 149.877715 152.958517 
L 150.690978 142.84233 
L 151.50424 137.311269 
L 152.317503 138.639273 
L 153.130766 146.509244 
L 153.944029 157.517819 
L 155.570555 184.327426 
L 156.383818 189.005137 
L 157.197081 189.684474 
L 158.823606 200.01813 
L 159.636869 196.815236 
L 160.450132 186.501662 
L 161.263395 173.882307 
L 162.076658 163.122717 
L 162.889921 159.452636 
L 163.703184 164.432784 
L 165.32971 183.237356 
L 166.142972 193.797659 
L 166.956235 202.602188 
L 167.769498 202.095036 
L 168.582761 185.780019 
L 169.396024 159.935495 
L 170.209287 141.214421 
L 171.02255 133.682778 
L 171.835813 129.591381 
L 173.462338 129.467731 
L 174.275601 114.790565 
L 175.088864 90.889097 
L 175.902127 77.163845 
L 176.71539 75.742354 
L 177.528653 83.484475 
L 179.155179 124.025166 
L 179.968442 124.765719 
L 180.781704 110.588401 
L 181.594967 101.192071 
L 182.40823 99.280282 
L 183.221493 100.869259 
L 184.034756 116.581592 
L 184.848019 156.371662 
L 185.661282 210.226158 
L 186.474545 256.447853 
L 187.287808 278.536292 
L 188.10107 274.499218 
L 188.914333 256.127369 
L 189.727596 225.438157 
L 190.540859 161.780721 
L 191.354122 74.179091 
L 192.167385 24.513907 
L 192.980648 39.141152 
L 193.793911 78.735936 
L 194.607174 125.053118 
L 196.233699 248.773871 
L 197.046962 279.617651 
L 197.860225 273.894733 
L 198.673488 245.248049 
L 199.486751 223.957328 
L 200.300014 221.558056 
L 201.113277 221.226242 
L 201.92654 219.029325 
L 202.739802 221.199607 
L 203.553065 221.014949 
L 204.366328 215.946186 
L 205.179591 213.296409 
L 205.992854 216.40359 
L 206.806117 225.508519 
L 209.245906 264.792442 
L 210.059168 270.039406 
L 210.872431 260.179922 
L 211.685694 239.266432 
L 212.498957 212.614203 
L 214.125483 142.034555 
L 214.938746 131.299563 
L 216.565272 149.309679 
L 217.378534 161.268106 
L 218.191797 185.297166 
L 219.00506 203.194683 
L 219.818323 205.506253 
L 220.631586 206.107855 
L 221.444849 209.245107 
L 222.258112 210.396115 
L 223.071375 212.682513 
L 223.884638 216.863205 
L 224.6979 218.959854 
L 225.511163 218.917478 
L 226.324426 216.567218 
L 227.137689 209.333182 
L 228.764215 188.434383 
L 230.390741 162.6698 
L 231.204004 158.559915 
L 232.017266 164.038625 
L 232.830529 164.253721 
L 234.457055 146.721526 
L 235.270318 141.889061 
L 236.083581 140.283665 
L 236.896844 145.625073 
L 237.710107 155.387072 
L 238.52337 166.910493 
L 239.336632 181.562702 
L 240.149895 193.88503 
L 240.963158 196.82156 
L 241.776421 186.987818 
L 243.402947 140.10484 
L 244.21621 129.309179 
L 245.029473 128.9112 
L 245.842736 136.979717 
L 247.469261 177.196045 
L 248.282524 181.897188 
L 249.095787 183.523035 
L 249.90905 190.623112 
L 250.722313 190.544223 
L 251.535576 184.498142 
L 252.348839 184.814615 
L 253.162102 184.128028 
L 253.975364 176.504224 
L 254.788627 171.73398 
L 255.60189 169.631509 
L 256.415153 165.400365 
L 257.228416 163.565826 
L 258.041679 163.059823 
L 258.854942 160.767765 
L 259.668205 160.611317 
L 260.481468 160.275441 
L 261.29473 155.480221 
L 262.107993 151.526979 
L 262.921256 152.147787 
L 263.734519 156.201936 
L 264.547782 165.728831 
L 265.361045 182.979941 
L 266.174308 204.871095 
L 266.987571 221.605698 
L 267.800834 226.78724 
L 268.614096 230.2432 
L 269.427359 239.420202 
L 270.240622 243.151175 
L 271.053885 238.739637 
L 271.867148 237.758671 
L 272.680411 237.459157 
L 275.1202 218.266794 
L 275.933462 207.230833 
L 276.746725 200.140373 
L 277.559988 201.938812 
L 278.373251 204.278439 
L 279.186514 202.158179 
L 279.999777 197.725119 
L 280.81304 195.247282 
L 281.626303 198.81146 
L 282.439566 206.091998 
L 283.252828 210.785552 
L 284.066091 212.647108 
L 284.879354 215.589605 
L 285.692617 219.421509 
L 286.50588 220.943268 
L 287.319143 219.381861 
L 288.945669 212.207193 
L 289.758932 210.465164 
L 290.572195 211.05689 
L 291.385457 211.073457 
L 292.19872 210.12554 
L 293.011983 210.670968 
L 293.825246 212.105027 
L 294.638509 211.883139 
L 295.451772 209.466785 
L 296.265035 204.593611 
L 297.078298 196.165554 
L 297.891561 185.613837 
L 298.704823 177.201153 
L 300.331349 166.475857 
L 301.144612 163.608207 
L 301.957875 165.511957 
L 302.771138 166.997189 
L 303.584401 165.919884 
L 304.397664 165.719848 
L 305.210927 164.445384 
L 306.024189 161.370007 
L 306.837452 160.688852 
L 307.650715 158.10373 
L 308.463978 146.88257 
L 309.277241 132.040581 
L 311.71703 92.576653 
L 312.530293 90.393936 
L 313.343555 101.073554 
L 314.156818 108.324753 
L 314.970081 111.877221 
L 315.783344 137.55826 
L 316.596607 180.980892 
L 317.40987 204.993641 
L 318.223133 213.163232 
L 319.036396 231.27683 
L 319.849659 241.523444 
L 320.662921 230.570734 
L 322.289447 212.289152 
L 323.10271 190.27761 
L 323.915973 171.622802 
L 325.542499 152.374752 
L 326.355762 149.798269 
L 327.169025 153.966703 
L 327.982287 155.262795 
L 329.608813 158.816174 
L 330.422076 154.788903 
L 332.048602 143.157159 
L 332.861865 136.582473 
L 333.675128 135.902536 
L 334.488391 136.194836 
L 335.301653 129.984546 
L 336.928179 115.388551 
L 337.741442 106.319803 
L 338.554705 103.799329 
L 339.367968 119.658069 
L 340.181231 157.554126 
L 340.994494 205.959898 
L 341.807757 243.06123 
L 343.434282 289.263586 
L 344.247545 288.144338 
L 345.060808 257.002911 
L 345.874071 236.383053 
L 346.687334 234.042632 
L 347.500597 215.356976 
L 348.31386 186.808707 
L 349.127123 170.118872 
L 349.940385 158.402395 
L 350.753648 154.969412 
L 351.566911 155.31181 
L 352.380174 132.028519 
L 353.193437 103.075825 
L 354.0067 106.781237 
L 354.819963 119.104259 
L 355.633226 107.694859 
L 357.259751 74.00232 
L 358.073014 43.605469 
L 358.886277 22.025455 
L 359.69954 30.946204 
L 360.512803 49.848082 
L 361.326066 71.747325 
L 362.139329 115.515895 
L 363.765855 233.51183 
L 364.579117 271.896283 
L 365.39238 293.101023 
L 366.205643 309.570952 
L 367.018906 318.534545 
L 367.832169 304.895955 
L 368.645432 279.839449 
L 369.458695 258.838685 
L 371.085221 205.130073 
L 373.525009 151.816901 
L 374.338272 139.669444 
L 375.151535 136.857814 
L 375.964798 137.371658 
L 376.778061 145.070075 
L 378.404587 179.734512 
L 379.217849 198.395626 
L 380.031112 214.106791 
L 380.844375 212.660311 
L 381.657638 189.880196 
L 383.284164 130.44999 
L 384.097427 110.976194 
L 384.91069 106.442452 
L 385.723953 106.296745 
L 386.537215 101.09092 
L 387.350478 101.615684 
L 389.790267 130.895702 
L 393.043319 190.17145 
L 393.856581 190.966094 
L 394.669844 189.941959 
L 395.483107 189.715424 
L 397.109633 177.401913 
L 397.922896 175.5501 
L 399.549422 163.39634 
L 400.362685 163.424166 
L 401.175947 160.981672 
L 401.98921 159.281103 
L 402.802473 162.647033 
L 403.615736 162.856292 
L 404.428999 161.83903 
L 405.242262 165.887167 
L 406.055525 168.913505 
L 406.868788 170.757971 
L 407.682051 176.73349 
L 408.495313 180.275826 
L 409.308576 176.848322 
L 410.121839 172.241637 
L 410.935102 169.063404 
L 411.748365 166.75188 
L 412.561628 163.77726 
L 414.188154 149.387426 
L 415.001417 143.665954 
L 415.814679 128.129371 
L 416.627942 107.060216 
L 417.441205 105.154667 
L 418.254468 119.356877 
L 419.880994 135.740369 
L 420.694257 148.404706 
L 421.50752 150.887055 
L 422.320783 151.068441 
L 423.134045 162.069756 
L 423.947308 169.686706 
L 424.760571 171.157225 
L 425.573834 176.905431 
L 426.387097 178.247043 
L 427.20036 172.679547 
L 428.013623 170.42755 
L 428.826886 166.723215 
L 429.640149 159.017365 
L 430.453411 156.085189 
L 431.266674 154.722478 
L 432.079937 150.574638 
L 432.8932 149.695212 
L 433.706463 150.294271 
L 434.519726 148.208496 
L 435.332989 150.022495 
L 436.146252 158.186234 
L 436.959515 167.992284 
L 438.58604 190.155871 
L 439.399303 189.713279 
L 441.025829 163.767991 
L 441.839092 157.506092 
L 442.652355 159.211227 
L 443.465618 161.844577 
L 444.278881 157.604362 
L 445.092143 152.604406 
L 445.905406 157.657297 
L 446.718669 166.61457 
L 447.531932 168.513717 
L 448.345195 166.978765 
L 449.971721 169.342577 
L 450.784984 169.907288 
L 451.598247 173.463932 
L 452.411509 178.686452 
L 453.224772 181.831042 
L 454.038035 184.249524 
L 454.851298 187.339769 
L 455.664561 189.409542 
L 456.477824 190.457772 
L 457.291087 190.889701 
L 458.917613 189.290733 
L 459.730875 189.244108 
L 461.357401 187.823281 
L 462.170664 188.227966 
L 462.983927 188.015327 
L 463.79719 186.692263 
L 464.610453 185.990529 
L 465.423716 186.068019 
L 466.236979 186.343767 
L 467.050242 187.367738 
L 467.863504 188.690024 
L 468.676767 188.345108 
L 470.303293 183.80635 
L 471.116556 182.206208 
L 472.743082 177.872844 
L 472.743082 177.872844 
" clip-path="url(#p7779ef121a)" style="fill: none; stroke: #ff7f0e; stroke-width: 2; stroke-linecap: round"/>
   </g>
   <g id="patch_3">
    <path d="M 46.633991 333.36 
L 46.633991 7.2 
" style="fill: none"/>
   </g>
   <g id="patch_4">
    <path d="M 46.633991 333.36 
L 493.033991 333.36 
" style="fill: none"/>
   </g>
   <g id="legend_1">
    <g id="patch_5">
     <path d="M 378.015319 44.90079 
L 486.033991 44.90079 
Q 488.033991 44.90079 488.033991 42.90079 
L 488.033991 14.2 
Q 488.033991 12.2 486.033991 12.2 
L 378.015319 12.2 
Q 376.015319 12.2 376.015319 14.2 
L 376.015319 42.90079 
Q 376.015319 44.90079 378.015319 44.90079 
z
" style="fill: #ffffff; opacity: 0.8; stroke: #cccccc; stroke-width: 0.24; stroke-linejoin: miter"/>
    </g>
    <g id="line2d_14">
     <path d="M 380.015319 19.7 
L 390.015319 19.7 
L 400.015319 19.7 
" style="fill: none; stroke: #1f77b4; stroke-width: 2; stroke-linecap: round"/>
    </g>
    <g id="text_14">
     <!-- \textbf{Raw $x_g$} -->
     <g style="fill: #262626" transform="translate(408.015319 23.2)scale(0.1 -0.1)">
      <defs>
       <path id="CMBX12-52" d="M 3386 2195 
C 4250 2425 4461 2888 4461 3235 
C 4461 3877 3789 4416 2605 4416 
L 243 4416 
L 243 4140 
L 922 4140 
L 922 275 
L 243 275 
L 243 0 
C 429 12 1094 12 1325 12 
C 1555 12 2227 12 2413 0 
L 2413 275 
L 1734 275 
L 1734 2112 
L 2496 2112 
C 2752 2112 2957 2034 3098 1868 
C 3290 1649 3290 1508 3290 1078 
C 3290 648 3290 384 3616 166 
C 3949 -58 4474 -64 4614 -64 
C 5267 -64 5344 513 5344 603 
C 5344 712 5293 731 5210 731 
C 5088 731 5082 686 5075 603 
C 5043 282 4845 147 4666 147 
C 4256 147 4211 577 4160 1168 
C 4122 1504 4077 1982 3386 2195 
z
M 2483 2323 
L 1734 2323 
L 1734 4140 
L 2496 4140 
C 3539 4140 3558 3614 3558 3235 
C 3558 2882 3552 2323 2483 2323 
z
" transform="scale(0.015625)"/>
       <path id="CMBX12-77" d="M 4608 2386 
C 4653 2496 4672 2540 5043 2540 
L 5043 2816 
C 4858 2803 4774 2803 4544 2803 
C 4282 2803 4198 2803 3968 2816 
L 3968 2540 
C 4026 2540 4339 2540 4339 2457 
C 4339 2451 4339 2444 4314 2380 
L 3642 712 
L 2906 2540 
L 3270 2540 
L 3270 2816 
C 3117 2803 2739 2803 2566 2803 
C 2240 2803 2227 2803 1907 2816 
L 1907 2540 
L 2285 2540 
C 2304 2489 2336 2406 2362 2348 
C 2381 2309 2445 2155 2445 2123 
C 2445 2111 2426 2066 2419 2046 
L 1933 834 
L 1242 2540 
L 1606 2540 
L 1606 2816 
C 1459 2803 1024 2803 851 2803 
C 646 2803 339 2803 147 2816 
L 147 2540 
L 525 2540 
L 1504 96 
C 1549 -20 1574 -64 1715 -64 
C 1786 -64 1862 -64 1914 64 
L 2592 1764 
L 3270 76 
C 3328 -64 3398 -64 3475 -64 
C 3616 -64 3635 -26 3680 89 
L 4608 2386 
z
" transform="scale(0.015625)"/>
       <path id="CMMI12-78" d="M 3034 2624 
C 2829 2585 2752 2431 2752 2310 
C 2752 2156 2874 2105 2963 2105 
C 3155 2105 3290 2271 3290 2444 
C 3290 2694 2982 2816 2714 2816 
C 2323 2816 2106 2451 2048 2329 
C 1901 2790 1504 2816 1389 2816 
C 736 2816 390 1993 390 1849 
C 390 1823 416 1790 461 1790 
C 512 1790 525 1829 538 1855 
C 755 2572 1184 2687 1370 2687 
C 1658 2687 1715 2438 1715 2284 
C 1715 2143 1677 1993 1600 1678 
L 1382 778 
C 1286 390 1101 64 762 64 
C 730 64 570 64 435 126 
C 666 166 717 358 717 435 
C 717 563 621 640 499 640 
C 346 640 179 505 179 300 
C 179 57 480 -64 755 -64 
C 1062 -64 1280 153 1414 415 
C 1517 64 1837 -64 2074 -64 
C 2726 -64 3072 751 3072 896 
C 3072 929 3046 955 3008 955 
C 2950 955 2944 922 2925 870 
C 2752 300 2381 64 2093 64 
C 1869 64 1747 204 1747 467 
C 1747 607 1773 712 1875 1146 
L 2099 2039 
C 2195 2425 2413 2687 2707 2687 
C 2720 2687 2899 2687 3034 2624 
z
" transform="scale(0.015625)"/>
       <path id="CMMI12-67" d="M 2163 811 
C 2138 708 2125 683 2042 587 
C 1779 249 1510 128 1312 128 
C 1101 128 902 293 902 734 
C 902 1072 1094 1787 1235 2075 
C 1421 2432 1709 2687 1978 2687 
C 2400 2687 2483 2164 2483 2126 
L 2464 2036 
L 2163 811 
z
M 2560 2394 
C 2477 2579 2298 2816 1978 2816 
C 1280 2816 486 1941 486 989 
C 486 325 890 0 1299 0 
C 1638 0 1939 268 2054 396 
L 1914 -176 
C 1824 -520 1786 -677 1555 -896 
C 1293 -1152 1050 -1152 909 -1152 
C 717 -1152 557 -1140 397 -1090 
C 602 -1034 653 -858 653 -789 
C 653 -689 576 -589 435 -589 
C 282 -589 115 -714 115 -921 
C 115 -1178 378 -1280 922 -1280 
C 1747 -1280 2176 -758 2259 -420 
L 2970 2426 
C 2989 2502 2989 2515 2989 2528 
C 2989 2617 2918 2688 2822 2688 
C 2669 2688 2579 2560 2560 2388 
L 2560 2394 
z
" transform="scale(0.015625)"/>
      </defs>
      <use xlink:href="#CMBX12-52" transform="scale(0.996264)"/>
      <use xlink:href="#CMBX12-61" transform="translate(83.598675 0)scale(0.996264)"/>
      <use xlink:href="#CMBX12-77" transform="translate(134.968538 0)scale(0.996264)"/>
      <use xlink:href="#CMMI12-78" transform="translate(253.27489 0)scale(0.996264)"/>
      <use xlink:href="#CMMI12-67" transform="translate(308.708949 -14.943915)scale(0.697382)"/>
     </g>
    </g>
    <g id="line2d_15">
     <path d="M 380.015319 34.550395 
L 390.015319 34.550395 
L 400.015319 34.550395 
" style="fill: none; stroke: #ff7f0e; stroke-width: 2; stroke-linecap: round"/>
    </g>
    <g id="text_15">
     <!-- \textbf{Butterworth $x_g$} -->
     <g style="fill: #262626" transform="translate(408.015319 38.050395)scale(0.1 -0.1)">
      <defs>
       <path id="CMBX12-42" d="M 250 4416 
L 250 4140 
L 928 4140 
L 928 275 
L 250 275 
L 250 0 
L 3142 0 
C 4198 0 4717 569 4717 1184 
C 4717 1792 4186 2233 3411 2291 
C 4333 2465 4512 2997 4512 3303 
C 4512 3900 3974 4416 2950 4416 
L 250 4416 
z
M 1715 2387 
L 1715 4140 
L 2874 4140 
C 3533 4140 3667 3634 3667 3309 
C 3667 2854 3418 2387 2669 2387 
L 1715 2387 
z
M 1715 275 
L 1715 2176 
L 2989 2176 
C 3738 2176 3846 1484 3846 1196 
C 3846 793 3629 275 2893 275 
L 1715 275 
z
" transform="scale(0.015625)"/>
       <path id="CMBX12-68" d="M 3398 1958 
C 3398 2566 3136 2880 2432 2880 
C 1786 2880 1472 2425 1382 2233 
L 1376 2233 
L 1376 4480 
L 269 4428 
L 269 4153 
C 666 4153 710 4153 710 3896 
L 710 275 
L 269 275 
L 269 0 
C 416 12 877 12 1056 12 
C 1235 12 1702 12 1850 0 
L 1850 275 
L 1408 275 
L 1408 1638 
C 1408 2329 1920 2668 2330 2668 
C 2566 2668 2701 2515 2701 2028 
L 2701 275 
L 2259 275 
L 2259 0 
C 2406 12 2867 12 3046 12 
C 3226 12 3693 12 3840 0 
L 3840 275 
L 3398 275 
L 3398 1958 
z
" transform="scale(0.015625)"/>
      </defs>
      <use xlink:href="#CMBX12-42" transform="scale(0.996264)"/>
      <use xlink:href="#CMBX12-75" transform="translate(79.678136 0)scale(0.996264)"/>
      <use xlink:href="#CMBX12-74" transform="translate(141.944636 0)scale(0.996264)"/>
      <use xlink:href="#CMBX12-74" transform="translate(185.531187 0)scale(0.996264)"/>
      <use xlink:href="#CMBX12-65" transform="translate(229.117737 0)scale(0.996264)"/>
      <use xlink:href="#CMBX12-72" transform="translate(280.257004 0)scale(0.996264)"/>
      <use xlink:href="#CMBX12-77" transform="translate(326.034512 0)scale(0.996264)"/>
      <use xlink:href="#CMBX12-6f" transform="translate(403.867637 0)scale(0.996264)"/>
      <use xlink:href="#CMBX12-72" transform="translate(459.907488 0)scale(0.996264)"/>
      <use xlink:href="#CMBX12-74" transform="translate(505.684995 0)scale(0.996264)"/>
      <use xlink:href="#CMBX12-68" transform="translate(549.271546 0)scale(0.996264)"/>
      <use xlink:href="#CMMI12-78" transform="translate(648.897947 0)scale(0.996264)"/>
      <use xlink:href="#CMMI12-67" transform="translate(704.332006 -14.943915)scale(0.697382)"/>
     </g>
    </g>
   </g>
  </g>
 </g>
 <defs>
  <clipPath id="p7779ef121a">
   <rect x="46.633991" y="7.2" width="446.4" height="326.16"/>
  </clipPath>
 </defs>
</svg>
