<?xml version="1.0" encoding="utf-8" standalone="no"?>
<!DOCTYPE svg PUBLIC "-//W3C//DTD SVG 1.1//EN"
  "http://www.w3.org/Graphics/SVG/1.1/DTD/svg11.dtd">
<svg xmlns:xlink="http://www.w3.org/1999/xlink" width="500.233991pt" height="366.370845pt" viewBox="0 0 500.233991 366.370845" xmlns="http://www.w3.org/2000/svg" version="1.1">
 <metadata>
  <rdf:RDF xmlns:dc="http://purl.org/dc/elements/1.1/" xmlns:cc="http://creativecommons.org/ns#" xmlns:rdf="http://www.w3.org/1999/02/22-rdf-syntax-ns#">
   <cc:Work>
    <dc:type rdf:resource="http://purl.org/dc/dcmitype/StillImage"/>
    <dc:date>2023-08-10T12:44:42.726870</dc:date>
    <dc:format>image/svg+xml</dc:format>
    <dc:creator>
     <cc:Agent>
      <dc:title>Matplotlib v3.5.1, https://matplotlib.org/</dc:title>
     </cc:Agent>
    </dc:creator>
   </cc:Work>
  </rdf:RDF>
 </metadata>
 <defs>
  <style type="text/css">*{stroke-linejoin: round; stroke-linecap: butt}</style>
 </defs>
 <g id="figure_1">
  <g id="patch_1">
   <path d="M 0 366.370845 
L 500.233991 366.370845 
L 500.233991 0 
L 0 0 
z
" style="fill: #ffffff"/>
  </g>
  <g id="axes_1">
   <g id="patch_2">
    <path d="M 46.633991 333.36 
L 493.033991 333.36 
L 493.033991 7.2 
L 46.633991 7.2 
z
" style="fill: #ffffff"/>
   </g>
   <g id="matplotlib.axis_1">
    <g id="xtick_1">
     <g id="line2d_1">
      <path d="M 66.9249 333.36 
L 66.9249 7.2 
" clip-path="url(#p1221aa83fc)" style="fill: none; stroke-dasharray: 2.96,1.28; stroke-dashoffset: 0; stroke: #d3d3d3; stroke-opacity: 0.53; stroke-width: 0.8"/>
     </g>
     <g id="text_1">
      <!-- $\mathdefault{15}$ -->
      <g style="fill: #262626" transform="translate(61.943565 341.278498)scale(0.1 -0.1)">
       <defs>
        <path id="CMR17-31" d="M 1702 4083 
C 1702 4217 1696 4224 1606 4224 
C 1357 3927 979 3833 621 3820 
C 602 3820 570 3820 563 3808 
C 557 3795 557 3782 557 3648 
C 755 3648 1088 3686 1344 3839 
L 1344 467 
C 1344 243 1331 166 781 166 
L 589 166 
L 589 0 
C 896 6 1216 12 1523 12 
C 1830 12 2150 6 2458 0 
L 2458 166 
L 2266 166 
C 1715 166 1702 236 1702 467 
L 1702 4083 
z
" transform="scale(0.015625)"/>
        <path id="CMR17-35" d="M 730 3750 
C 794 3724 1056 3641 1325 3641 
C 1920 3641 2246 3961 2432 4140 
C 2432 4191 2432 4224 2394 4224 
C 2387 4224 2374 4224 2323 4198 
C 2099 4102 1837 4032 1517 4032 
C 1325 4032 1037 4055 723 4191 
C 653 4224 640 4224 634 4224 
C 602 4224 595 4217 595 4090 
L 595 2231 
C 595 2113 595 2080 659 2080 
C 691 2080 704 2093 736 2139 
C 941 2435 1222 2560 1542 2560 
C 1766 2560 2246 2415 2246 1293 
C 2246 1087 2246 716 2054 422 
C 1894 159 1645 25 1370 25 
C 947 25 518 319 403 812 
C 429 806 480 793 506 793 
C 589 793 749 838 749 1036 
C 749 1209 627 1280 506 1280 
C 358 1280 262 1190 262 1011 
C 262 454 704 -128 1382 -128 
C 2042 -128 2669 441 2669 1267 
C 2669 2054 2170 2662 1549 2662 
C 1222 2662 947 2540 730 2304 
L 730 3750 
z
" transform="scale(0.015625)"/>
       </defs>
       <use xlink:href="#CMR17-31" transform="scale(0.996264)"/>
       <use xlink:href="#CMR17-35" transform="translate(45.690477 0)scale(0.996264)"/>
      </g>
     </g>
    </g>
    <g id="xtick_2">
     <g id="line2d_2">
      <path d="M 148.088536 333.36 
L 148.088536 7.2 
" clip-path="url(#p1221aa83fc)" style="fill: none; stroke-dasharray: 2.96,1.28; stroke-dashoffset: 0; stroke: #d3d3d3; stroke-opacity: 0.53; stroke-width: 0.8"/>
     </g>
     <g id="text_2">
      <!-- $\mathdefault{16}$ -->
      <g style="fill: #262626" transform="translate(143.107201 341.278498)scale(0.1 -0.1)">
       <defs>
        <path id="CMR17-36" d="M 678 2198 
C 678 3712 1395 4076 1811 4076 
C 1946 4076 2272 4049 2400 3782 
C 2298 3782 2106 3782 2106 3558 
C 2106 3385 2246 3328 2336 3328 
C 2394 3328 2566 3353 2566 3571 
C 2566 3987 2246 4224 1805 4224 
C 1043 4224 243 3411 243 2011 
C 243 257 966 -128 1478 -128 
C 2099 -128 2688 431 2688 1295 
C 2688 2101 2170 2688 1517 2688 
C 1126 2688 838 2430 678 1979 
L 678 2198 
z
M 1478 25 
C 691 25 691 1212 691 1450 
C 691 1914 909 2585 1504 2585 
C 1613 2585 1926 2585 2138 2140 
C 2253 1889 2253 1624 2253 1302 
C 2253 954 2253 696 2118 438 
C 1978 173 1773 25 1478 25 
z
" transform="scale(0.015625)"/>
       </defs>
       <use xlink:href="#CMR17-31" transform="scale(0.996264)"/>
       <use xlink:href="#CMR17-36" transform="translate(45.690477 0)scale(0.996264)"/>
      </g>
     </g>
    </g>
    <g id="xtick_3">
     <g id="line2d_3">
      <path d="M 229.252173 333.36 
L 229.252173 7.2 
" clip-path="url(#p1221aa83fc)" style="fill: none; stroke-dasharray: 2.96,1.28; stroke-dashoffset: 0; stroke: #d3d3d3; stroke-opacity: 0.53; stroke-width: 0.8"/>
     </g>
     <g id="text_3">
      <!-- $\mathdefault{17}$ -->
      <g style="fill: #262626" transform="translate(224.270837 341.278498)scale(0.1 -0.1)">
       <defs>
        <path id="CMR17-37" d="M 2886 3955 
L 2886 4096 
L 1382 4096 
C 634 4096 621 4166 595 4288 
L 480 4288 
L 294 3104 
L 410 3104 
C 429 3226 474 3552 550 3673 
C 589 3724 1062 3724 1171 3724 
L 2579 3724 
L 1869 2670 
C 1395 1961 1069 1003 1069 166 
C 1069 89 1069 -128 1299 -128 
C 1530 -128 1530 89 1530 172 
L 1530 466 
C 1530 1514 1709 2204 2003 2644 
L 2886 3955 
z
" transform="scale(0.015625)"/>
       </defs>
       <use xlink:href="#CMR17-31" transform="scale(0.996264)"/>
       <use xlink:href="#CMR17-37" transform="translate(45.690477 0)scale(0.996264)"/>
      </g>
     </g>
    </g>
    <g id="xtick_4">
     <g id="line2d_4">
      <path d="M 310.415809 333.36 
L 310.415809 7.2 
" clip-path="url(#p1221aa83fc)" style="fill: none; stroke-dasharray: 2.96,1.28; stroke-dashoffset: 0; stroke: #d3d3d3; stroke-opacity: 0.53; stroke-width: 0.8"/>
     </g>
     <g id="text_4">
      <!-- $\mathdefault{18}$ -->
      <g style="fill: #262626" transform="translate(305.434474 341.278498)scale(0.1 -0.1)">
       <defs>
        <path id="CMR17-38" d="M 1741 2289 
C 2144 2494 2554 2803 2554 3298 
C 2554 3884 1990 4224 1472 4224 
C 890 4224 378 3800 378 3215 
C 378 3054 416 2777 666 2533 
C 730 2469 998 2276 1171 2154 
C 883 2006 211 1652 211 945 
C 211 282 838 -128 1459 -128 
C 2144 -128 2720 366 2720 1022 
C 2720 1607 2330 1877 2074 2051 
L 1741 2289 
z
M 902 2855 
C 851 2887 595 3086 595 3388 
C 595 3781 998 4076 1459 4076 
C 1965 4076 2336 3716 2336 3298 
C 2336 2700 1670 2359 1638 2359 
C 1632 2359 1626 2359 1574 2398 
L 902 2855 
z
M 2080 1536 
C 2176 1466 2483 1253 2483 861 
C 2483 385 2010 25 1472 25 
C 890 25 448 443 448 951 
C 448 1459 838 1884 1280 2083 
L 2080 1536 
z
" transform="scale(0.015625)"/>
       </defs>
       <use xlink:href="#CMR17-31" transform="scale(0.996264)"/>
       <use xlink:href="#CMR17-38" transform="translate(45.690477 0)scale(0.996264)"/>
      </g>
     </g>
    </g>
    <g id="xtick_5">
     <g id="line2d_5">
      <path d="M 391.579445 333.36 
L 391.579445 7.2 
" clip-path="url(#p1221aa83fc)" style="fill: none; stroke-dasharray: 2.96,1.28; stroke-dashoffset: 0; stroke: #d3d3d3; stroke-opacity: 0.53; stroke-width: 0.8"/>
     </g>
     <g id="text_5">
      <!-- $\mathdefault{19}$ -->
      <g style="fill: #262626" transform="translate(386.59811 341.278498)scale(0.1 -0.1)">
       <defs>
        <path id="CMR17-39" d="M 2253 1871 
C 2253 448 1670 25 1190 25 
C 1043 25 685 43 538 281 
C 704 256 826 345 826 505 
C 826 678 685 736 595 736 
C 538 736 365 710 365 492 
C 365 68 742 -128 1203 -128 
C 1939 -128 2688 665 2688 2090 
C 2688 3857 1971 4224 1485 4224 
C 851 4224 243 3664 243 2800 
C 243 2000 762 1408 1414 1408 
C 1952 1408 2189 1910 2253 2122 
L 2253 1871 
z
M 1427 1510 
C 1254 1510 1011 1542 813 1929 
C 678 2181 678 2477 678 2793 
C 678 3174 678 3438 858 3722 
C 947 3857 1114 4076 1485 4076 
C 2240 4076 2240 2909 2240 2651 
C 2240 2193 2035 1510 1427 1510 
z
" transform="scale(0.015625)"/>
       </defs>
       <use xlink:href="#CMR17-31" transform="scale(0.996264)"/>
       <use xlink:href="#CMR17-39" transform="translate(45.690477 0)scale(0.996264)"/>
      </g>
     </g>
    </g>
    <g id="xtick_6">
     <g id="line2d_6">
      <path d="M 472.743082 333.36 
L 472.743082 7.2 
" clip-path="url(#p1221aa83fc)" style="fill: none; stroke-dasharray: 2.96,1.28; stroke-dashoffset: 0; stroke: #d3d3d3; stroke-opacity: 0.53; stroke-width: 0.8"/>
     </g>
     <g id="text_6">
      <!-- $\mathdefault{20}$ -->
      <g style="fill: #262626" transform="translate(467.761746 341.278498)scale(0.1 -0.1)">
       <defs>
        <path id="CMR17-32" d="M 2669 990 
L 2554 990 
C 2490 537 2438 460 2413 422 
C 2381 371 1920 371 1830 371 
L 602 371 
C 832 620 1280 1073 1824 1596 
C 2214 1966 2669 2400 2669 3033 
C 2669 3788 2067 4224 1395 4224 
C 691 4224 262 3603 262 3027 
C 262 2777 448 2745 525 2745 
C 589 2745 781 2783 781 3007 
C 781 3206 614 3264 525 3264 
C 486 3264 448 3257 422 3244 
C 544 3788 915 4057 1306 4057 
C 1862 4057 2227 3616 2227 3033 
C 2227 2477 1901 1998 1536 1583 
L 262 147 
L 262 0 
L 2515 0 
L 2669 990 
z
" transform="scale(0.015625)"/>
        <path id="CMR17-30" d="M 2688 2038 
C 2688 2430 2682 3099 2413 3613 
C 2176 4063 1798 4224 1466 4224 
C 1158 4224 768 4082 525 3620 
C 269 3137 243 2539 243 2038 
C 243 1671 250 1112 448 623 
C 723 -39 1216 -128 1466 -128 
C 1760 -128 2208 -7 2470 604 
C 2662 1048 2688 1568 2688 2038 
z
M 1466 -26 
C 1056 -26 813 328 723 816 
C 653 1196 653 1749 653 2109 
C 653 2604 653 3015 736 3407 
C 858 3954 1216 4121 1466 4121 
C 1728 4121 2067 3947 2189 3420 
C 2272 3054 2278 2623 2278 2109 
C 2278 1691 2278 1176 2202 797 
C 2067 96 1690 -26 1466 -26 
z
" transform="scale(0.015625)"/>
       </defs>
       <use xlink:href="#CMR17-32" transform="scale(0.996264)"/>
       <use xlink:href="#CMR17-30" transform="translate(45.690477 0)scale(0.996264)"/>
      </g>
     </g>
    </g>
    <g id="text_7">
     <!-- Time (s) -->
     <g style="fill: #262626" transform="translate(247.690178 356.182053)scale(0.12 -0.12)">
      <defs>
       <path id="CMR17-54" d="M 3981 4332 
L 288 4332 
L 179 2924 
L 294 2924 
C 378 3981 467 4166 1453 4166 
C 1568 4166 1754 4166 1805 4159 
C 1926 4140 1926 4064 1926 3917 
L 1926 465 
C 1926 236 1907 166 1376 166 
L 1197 166 
L 1197 0 
C 1504 6 1824 12 2138 12 
C 2451 12 2771 6 3078 0 
L 3078 166 
L 2899 166 
C 2368 166 2349 236 2349 465 
L 2349 3917 
C 2349 4057 2349 4134 2464 4159 
C 2515 4166 2701 4166 2816 4166 
C 3795 4166 3891 3981 3974 2924 
L 4090 2924 
L 3981 4332 
z
" transform="scale(0.015625)"/>
       <path id="CMR17-69" d="M 992 3961 
C 992 4102 877 4224 730 4224 
C 589 4224 467 4108 467 3961 
C 467 3820 582 3699 730 3699 
C 870 3699 992 3814 992 3961 
z
M 243 2745 
L 243 2579 
C 602 2579 653 2540 653 2231 
L 653 443 
C 653 198 627 166 218 166 
L 218 0 
C 371 12 646 12 806 12 
C 960 12 1222 12 1370 0 
L 1370 166 
C 992 166 979 205 979 436 
L 979 2816 
L 243 2745 
z
" transform="scale(0.015625)"/>
       <path id="CMR17-6d" d="M 4326 1954 
C 4326 2276 4269 2816 3507 2816 
C 3072 2816 2771 2520 2656 2173 
L 2650 2173 
C 2573 2700 2195 2816 1837 2816 
C 1331 2816 1069 2424 973 2166 
L 966 2166 
L 966 2816 
L 211 2745 
L 211 2578 
C 589 2578 646 2540 646 2231 
L 646 443 
C 646 198 621 166 211 166 
L 211 0 
C 365 12 646 12 813 12 
C 979 12 1267 12 1421 0 
L 1421 166 
C 1011 166 986 192 986 443 
L 986 1678 
C 986 2269 1344 2713 1792 2713 
C 2266 2713 2317 2289 2317 1980 
L 2317 443 
C 2317 198 2291 166 1882 166 
L 1882 0 
C 2035 12 2317 12 2483 12 
C 2650 12 2938 12 3091 0 
L 3091 166 
C 2682 166 2656 192 2656 443 
L 2656 1678 
C 2656 2269 3014 2713 3462 2713 
C 3936 2713 3987 2289 3987 1980 
L 3987 443 
C 3987 198 3962 166 3552 166 
L 3552 0 
C 3706 12 3987 12 4154 12 
C 4320 12 4608 12 4762 0 
L 4762 166 
C 4352 166 4326 192 4326 443 
L 4326 1954 
z
" transform="scale(0.015625)"/>
       <path id="CMR17-65" d="M 2438 1503 
C 2464 1529 2464 1542 2464 1606 
C 2464 2251 2118 2816 1389 2816 
C 710 2816 173 2175 173 1394 
C 173 554 781 -64 1459 -64 
C 2176 -64 2458 619 2458 755 
C 2458 800 2419 800 2406 800 
C 2362 800 2355 787 2330 709 
C 2189 270 1837 51 1504 51 
C 1229 51 954 206 781 490 
C 582 819 582 1200 582 1503 
L 2438 1503 
z
M 589 1600 
C 634 2511 1126 2713 1382 2713 
C 1818 2713 2112 2308 2118 1600 
L 589 1600 
z
" transform="scale(0.015625)"/>
       <path id="CMR17-28" d="M 1958 -1562 
C 1958 -1556 1958 -1543 1939 -1524 
C 1645 -1223 858 -403 858 1596 
C 858 3595 1632 4408 1946 4729 
C 1946 4735 1958 4748 1958 4767 
C 1958 4787 1939 4800 1914 4800 
C 1843 4800 1299 4325 986 3620 
C 666 2909 576 2218 576 1603 
C 576 1141 621 360 1005 -467 
C 1312 -1133 1837 -1600 1914 -1600 
C 1946 -1600 1958 -1588 1958 -1562 
z
" transform="scale(0.015625)"/>
       <path id="CMR17-73" d="M 1978 2688 
C 1978 2803 1971 2809 1933 2809 
C 1907 2809 1901 2803 1824 2707 
C 1805 2681 1747 2617 1728 2592 
C 1523 2809 1235 2816 1126 2816 
C 416 2816 160 2444 160 2073 
C 160 1497 813 1363 998 1324 
C 1402 1241 1542 1216 1677 1100 
C 1760 1024 1901 883 1901 652 
C 1901 384 1747 38 1158 38 
C 602 38 403 460 288 1024 
C 269 1113 269 1120 218 1120 
C 166 1120 160 1113 160 985 
L 160 64 
C 160 -52 166 -58 205 -58 
C 237 -58 243 -52 275 0 
C 314 57 410 211 448 275 
C 576 102 800 -64 1158 -64 
C 1792 -64 2131 281 2131 780 
C 2131 1107 1958 1280 1875 1356 
C 1683 1555 1459 1600 1190 1651 
C 838 1728 390 1817 390 2208 
C 390 2374 480 2726 1126 2726 
C 1811 2726 1850 2086 1862 1881 
C 1869 1849 1901 1843 1920 1843 
C 1978 1843 1978 1862 1978 1971 
L 1978 2688 
z
" transform="scale(0.015625)"/>
       <path id="CMR17-29" d="M 1683 1596 
C 1683 2057 1638 2839 1254 3665 
C 947 4332 422 4800 346 4800 
C 326 4800 301 4793 301 4761 
C 301 4748 307 4742 314 4729 
C 621 4408 1402 3595 1402 1603 
C 1402 -396 627 -1210 314 -1530 
C 307 -1543 301 -1549 301 -1562 
C 301 -1594 326 -1600 346 -1600 
C 416 -1600 960 -1127 1274 -422 
C 1594 289 1683 981 1683 1596 
z
" transform="scale(0.015625)"/>
      </defs>
      <use xlink:href="#CMR17-54" transform="scale(0.996264)"/>
      <use xlink:href="#CMR17-69" transform="translate(66.509881 0)scale(0.996264)"/>
      <use xlink:href="#CMR17-6d" transform="translate(91.380939 0)scale(0.996264)"/>
      <use xlink:href="#CMR17-65" transform="translate(168.300529 0)scale(0.996264)"/>
      <use xlink:href="#CMR17-28" transform="translate(238.862156 0)scale(0.996264)"/>
      <use xlink:href="#CMR17-73" transform="translate(274.142924 0)scale(0.996264)"/>
      <use xlink:href="#CMR17-29" transform="translate(309.944261 0)scale(0.996264)"/>
     </g>
    </g>
   </g>
   <g id="matplotlib.axis_2">
    <g id="ytick_1">
     <g id="line2d_7">
      <path d="M 46.633991 313.508507 
L 493.033991 313.508507 
" clip-path="url(#p1221aa83fc)" style="fill: none; stroke-dasharray: 2.96,1.28; stroke-dashoffset: 0; stroke: #d3d3d3; stroke-opacity: 0.53; stroke-width: 0.8"/>
     </g>
     <g id="text_8">
      <!-- $\mathdefault{−1.0}$ -->
      <g style="fill: #262626" transform="translate(23.155168 316.967756)scale(0.1 -0.1)">
       <defs>
        <path id="CMSY10-0" d="M 4218 1472 
C 4326 1472 4442 1472 4442 1600 
C 4442 1728 4326 1728 4218 1728 
L 755 1728 
C 646 1728 531 1728 531 1600 
C 531 1472 646 1472 755 1472 
L 4218 1472 
z
" transform="scale(0.015625)"/>
        <path id="CMMI12-3a" d="M 1178 307 
C 1178 492 1024 620 870 620 
C 685 620 557 467 557 313 
C 557 128 710 0 864 0 
C 1050 0 1178 153 1178 307 
z
" transform="scale(0.015625)"/>
       </defs>
       <use xlink:href="#CMSY10-0" transform="scale(0.996264)"/>
       <use xlink:href="#CMR17-31" transform="translate(77.487468 0)scale(0.996264)"/>
       <use xlink:href="#CMMI12-3a" transform="translate(123.177945 0)scale(0.996264)"/>
       <use xlink:href="#CMR17-30" transform="translate(150.275122 0)scale(0.996264)"/>
      </g>
     </g>
    </g>
    <g id="ytick_2">
     <g id="line2d_8">
      <path d="M 46.633991 247.550411 
L 493.033991 247.550411 
" clip-path="url(#p1221aa83fc)" style="fill: none; stroke-dasharray: 2.96,1.28; stroke-dashoffset: 0; stroke: #d3d3d3; stroke-opacity: 0.53; stroke-width: 0.8"/>
     </g>
     <g id="text_9">
      <!-- $\mathdefault{−0.5}$ -->
      <g style="fill: #262626" transform="translate(23.155168 251.00966)scale(0.1 -0.1)">
       <use xlink:href="#CMSY10-0" transform="scale(0.996264)"/>
       <use xlink:href="#CMR17-30" transform="translate(77.487468 0)scale(0.996264)"/>
       <use xlink:href="#CMMI12-3a" transform="translate(123.177945 0)scale(0.996264)"/>
       <use xlink:href="#CMR17-35" transform="translate(150.275122 0)scale(0.996264)"/>
      </g>
     </g>
    </g>
    <g id="ytick_3">
     <g id="line2d_9">
      <path d="M 46.633991 181.592315 
L 493.033991 181.592315 
" clip-path="url(#p1221aa83fc)" style="fill: none; stroke-dasharray: 2.96,1.28; stroke-dashoffset: 0; stroke: #d3d3d3; stroke-opacity: 0.53; stroke-width: 0.8"/>
     </g>
     <g id="text_10">
      <!-- $\mathdefault{0.0}$ -->
      <g style="fill: #262626" transform="translate(30.903912 185.051564)scale(0.1 -0.1)">
       <use xlink:href="#CMR17-30" transform="scale(0.996264)"/>
       <use xlink:href="#CMMI12-3a" transform="translate(45.690477 0)scale(0.996264)"/>
       <use xlink:href="#CMR17-30" transform="translate(72.787654 0)scale(0.996264)"/>
      </g>
     </g>
    </g>
    <g id="ytick_4">
     <g id="line2d_10">
      <path d="M 46.633991 115.634219 
L 493.033991 115.634219 
" clip-path="url(#p1221aa83fc)" style="fill: none; stroke-dasharray: 2.96,1.28; stroke-dashoffset: 0; stroke: #d3d3d3; stroke-opacity: 0.53; stroke-width: 0.8"/>
     </g>
     <g id="text_11">
      <!-- $\mathdefault{0.5}$ -->
      <g style="fill: #262626" transform="translate(30.903912 119.093468)scale(0.1 -0.1)">
       <use xlink:href="#CMR17-30" transform="scale(0.996264)"/>
       <use xlink:href="#CMMI12-3a" transform="translate(45.690477 0)scale(0.996264)"/>
       <use xlink:href="#CMR17-35" transform="translate(72.787654 0)scale(0.996264)"/>
      </g>
     </g>
    </g>
    <g id="ytick_5">
     <g id="line2d_11">
      <path d="M 46.633991 49.676123 
L 493.033991 49.676123 
" clip-path="url(#p1221aa83fc)" style="fill: none; stroke-dasharray: 2.96,1.28; stroke-dashoffset: 0; stroke: #d3d3d3; stroke-opacity: 0.53; stroke-width: 0.8"/>
     </g>
     <g id="text_12">
      <!-- $\mathdefault{1.0}$ -->
      <g style="fill: #262626" transform="translate(30.903912 53.135372)scale(0.1 -0.1)">
       <use xlink:href="#CMR17-31" transform="scale(0.996264)"/>
       <use xlink:href="#CMMI12-3a" transform="translate(45.690477 0)scale(0.996264)"/>
       <use xlink:href="#CMR17-30" transform="translate(72.787654 0)scale(0.996264)"/>
      </g>
     </g>
    </g>
    <g id="text_13">
     <!-- Angular Velocity (rad/s) -->
     <g style="fill: #262626" transform="translate(16.166376 233.715761)rotate(-90)scale(0.12 -0.12)">
      <defs>
       <path id="CMR17-41" d="M 2323 4441 
C 2291 4524 2278 4544 2214 4544 
C 2150 4544 2138 4524 2106 4441 
L 749 580 
C 627 236 371 166 147 166 
L 147 0 
C 262 12 518 12 640 12 
C 800 12 1056 12 1210 0 
L 1210 166 
C 909 179 864 382 864 459 
C 864 516 877 548 890 586 
L 1229 1536 
L 2906 1536 
L 3290 453 
C 3322 376 3322 363 3322 338 
C 3322 166 3046 166 2925 166 
L 2925 0 
C 3110 12 3443 12 3642 12 
C 3808 12 4128 12 4282 0 
L 4282 166 
C 3942 166 3827 166 3744 402 
L 2323 4441 
z
M 2067 3924 
L 2848 1702 
L 1286 1702 
L 2067 3924 
z
" transform="scale(0.015625)"/>
       <path id="CMR17-6e" d="M 2656 1954 
C 2656 2282 2592 2816 1837 2816 
C 1331 2816 1069 2424 973 2166 
L 966 2166 
L 966 2816 
L 211 2745 
L 211 2578 
C 589 2578 646 2540 646 2231 
L 646 443 
C 646 198 621 166 211 166 
L 211 0 
C 365 12 646 12 813 12 
C 979 12 1267 12 1421 0 
L 1421 166 
C 1011 166 986 192 986 443 
L 986 1678 
C 986 2269 1344 2713 1792 2713 
C 2266 2713 2317 2289 2317 1980 
L 2317 443 
C 2317 198 2291 166 1882 166 
L 1882 0 
C 2035 12 2317 12 2483 12 
C 2650 12 2938 12 3091 0 
L 3091 166 
C 2682 166 2656 192 2656 443 
L 2656 1954 
z
" transform="scale(0.015625)"/>
       <path id="CMR17-67" d="M 710 1165 
C 832 1068 1043 960 1299 960 
C 1805 960 2240 1359 2240 1895 
C 2240 2063 2189 2321 1997 2521 
C 2176 2713 2438 2777 2586 2777 
C 2611 2777 2650 2777 2682 2758 
C 2656 2751 2598 2726 2598 2623 
C 2598 2540 2656 2483 2739 2483 
C 2835 2483 2886 2547 2886 2630 
C 2886 2751 2790 2880 2586 2880 
C 2330 2880 2106 2758 1926 2591 
C 1734 2764 1504 2828 1299 2828 
C 794 2828 358 2431 358 1895 
C 358 1527 570 1294 634 1230 
C 442 1004 442 742 442 710 
C 442 544 506 300 723 166 
C 390 82 128 -184 128 -517 
C 128 -996 736 -1344 1466 -1344 
C 2170 -1344 2803 -1009 2803 -510 
C 2803 384 1856 384 1363 384 
C 1216 384 954 384 922 390 
C 723 422 589 601 589 825 
C 589 883 589 1024 710 1165 
z
M 1299 1068 
C 736 1068 736 1766 736 1895 
C 736 2024 736 2719 1299 2719 
C 1862 2719 1862 2024 1862 1895 
C 1862 1766 1862 1068 1299 1068 
z
M 1466 -1236 
C 826 -1236 384 -883 384 -517 
C 384 -311 493 -118 634 -11 
C 794 102 858 102 1293 102 
C 1818 102 2547 102 2547 -517 
C 2547 -883 2106 -1236 1466 -1236 
z
" transform="scale(0.015625)"/>
       <path id="CMR17-75" d="M 1882 2745 
L 1882 2579 
C 2259 2579 2317 2540 2317 2229 
L 2317 1053 
C 2317 510 2029 38 1555 38 
C 1030 38 986 355 986 691 
L 986 2816 
L 211 2745 
L 211 2579 
C 467 2579 640 2579 646 2320 
L 646 1079 
C 646 646 646 368 813 187 
C 896 103 1056 -64 1517 -64 
C 2061 -64 2272 400 2323 536 
L 2330 536 
L 2330 -64 
L 3091 -13 
L 3091 154 
C 2714 154 2656 193 2656 503 
L 2656 2816 
L 1882 2745 
z
" transform="scale(0.015625)"/>
       <path id="CMR17-6c" d="M 979 4416 
L 218 4345 
L 218 4179 
C 595 4179 653 4141 653 3835 
L 653 439 
C 653 198 627 166 218 166 
L 218 0 
C 371 12 653 12 813 12 
C 979 12 1261 12 1414 0 
L 1414 166 
C 1005 166 979 191 979 439 
L 979 4416 
z
" transform="scale(0.015625)"/>
       <path id="CMR17-61" d="M 2304 1656 
C 2304 2048 2304 2275 2035 2534 
C 1798 2751 1523 2816 1306 2816 
C 800 2816 435 2408 435 1977 
C 435 1740 627 1728 666 1728 
C 749 1728 896 1779 896 1958 
C 896 2118 774 2188 666 2188 
C 640 2188 608 2182 589 2176 
C 723 2594 1069 2713 1293 2713 
C 1613 2713 1965 2421 1965 1875 
L 1965 1632 
C 1587 1619 1133 1568 774 1373 
C 371 1147 256 822 256 576 
C 256 77 832 -64 1171 -64 
C 1523 -64 1850 135 1990 505 
C 2003 219 2182 -39 2464 -39 
C 2598 -39 2938 51 2938 563 
L 2938 926 
L 2822 926 
L 2822 557 
C 2822 161 2650 109 2566 109 
C 2304 109 2304 446 2304 732 
L 2304 1656 
z
M 1965 887 
C 1965 323 1568 38 1216 38 
C 896 38 646 278 646 576 
C 646 771 730 1114 1101 1322 
C 1408 1497 1760 1523 1965 1536 
L 1965 887 
z
" transform="scale(0.015625)"/>
       <path id="CMR17-72" d="M 960 1517 
C 960 2134 1222 2713 1702 2713 
C 1747 2713 1792 2707 1837 2687 
C 1837 2687 1696 2642 1696 2475 
C 1696 2321 1818 2257 1914 2257 
C 1990 2257 2131 2302 2131 2482 
C 2131 2687 1926 2816 1709 2816 
C 1222 2816 1011 2340 947 2115 
L 941 2115 
L 941 2816 
L 198 2745 
L 198 2578 
C 576 2578 634 2540 634 2231 
L 634 443 
C 634 198 608 166 198 166 
L 198 0 
C 352 12 646 12 813 12 
C 998 12 1325 12 1498 0 
L 1498 166 
C 1037 166 960 166 960 455 
L 960 1517 
z
" transform="scale(0.015625)"/>
       <path id="CMR17-56" d="M 3776 3762 
C 3834 3903 3936 4179 4365 4185 
L 4365 4352 
C 4218 4339 4051 4339 3891 4339 
C 3738 4339 3475 4339 3328 4352 
L 3328 4185 
C 3648 4166 3661 3942 3661 3903 
C 3661 3833 3642 3788 3622 3737 
L 2362 448 
L 1043 3903 
C 1024 3948 1011 3980 1011 4012 
C 1011 4185 1267 4185 1402 4185 
L 1402 4352 
C 1197 4339 896 4339 685 4339 
C 518 4339 218 4339 64 4352 
L 64 4185 
C 435 4185 506 4160 582 3955 
L 2106 -26 
C 2138 -116 2144 -128 2214 -128 
C 2285 -128 2291 -116 2323 -26 
L 3776 3762 
z
" transform="scale(0.015625)"/>
       <path id="CMR17-6f" d="M 2758 1356 
C 2758 2176 2163 2816 1466 2816 
C 768 2816 173 2176 173 1356 
C 173 550 768 -64 1466 -64 
C 2163 -64 2758 550 2758 1356 
z
M 1466 51 
C 1165 51 909 230 762 480 
C 602 768 582 1126 582 1408 
C 582 1676 595 2009 762 2297 
C 890 2508 1139 2713 1466 2713 
C 1754 2713 1997 2553 2150 2329 
C 2349 2028 2349 1606 2349 1408 
C 2349 1158 2336 774 2163 467 
C 1984 172 1709 51 1466 51 
z
" transform="scale(0.015625)"/>
       <path id="CMR17-63" d="M 2234 2240 
C 2112 2240 1933 2240 1933 2015 
C 1933 1836 2080 1785 2163 1785 
C 2208 1785 2394 1804 2394 2028 
C 2394 2476 1958 2816 1466 2816 
C 787 2816 211 2201 211 1379 
C 211 521 813 -64 1466 -64 
C 2259 -64 2458 676 2458 747 
C 2458 773 2451 792 2406 792 
C 2362 792 2355 786 2330 702 
C 2163 180 1798 51 1523 51 
C 1114 51 621 431 621 1385 
C 621 2358 1094 2700 1472 2700 
C 1722 2700 2093 2582 2234 2240 
z
" transform="scale(0.015625)"/>
       <path id="CMR17-74" d="M 966 2585 
L 1862 2585 
L 1862 2752 
L 966 2752 
L 966 3968 
L 851 3968 
C 838 3292 614 2700 70 2687 
L 70 2585 
L 627 2585 
L 627 778 
C 627 655 627 -64 1370 -64 
C 1747 -64 1965 308 1965 784 
L 1965 1151 
L 1850 1151 
L 1850 790 
C 1850 347 1677 51 1408 51 
C 1222 51 966 179 966 765 
L 966 2585 
z
" transform="scale(0.015625)"/>
       <path id="CMR17-79" d="M 2496 2183 
C 2656 2579 2944 2585 3034 2585 
L 3034 2752 
C 2912 2745 2752 2739 2630 2739 
C 2496 2739 2285 2739 2157 2752 
L 2157 2585 
C 2400 2566 2406 2384 2406 2332 
C 2406 2268 2394 2235 2362 2158 
L 1664 409 
L 902 2300 
C 870 2378 870 2423 870 2430 
C 870 2572 1018 2585 1171 2585 
L 1171 2752 
C 1018 2739 742 2739 582 2739 
C 410 2739 205 2739 64 2752 
L 64 2585 
C 410 2585 448 2553 531 2345 
L 1485 -31 
C 1197 -795 1030 -1242 627 -1242 
C 557 -1242 397 -1223 282 -1106 
C 429 -1093 493 -1002 493 -892 
C 493 -782 416 -685 288 -685 
C 147 -685 77 -782 77 -899 
C 77 -1158 339 -1344 627 -1344 
C 998 -1344 1229 -983 1357 -659 
L 2496 2183 
z
" transform="scale(0.015625)"/>
       <path id="CMR17-64" d="M 1869 4345 
L 1869 4179 
C 2246 4179 2304 4141 2304 3843 
L 2304 2371 
C 2278 2403 2016 2816 1498 2816 
C 845 2816 211 2228 211 1376 
C 211 529 806 -64 1434 -64 
C 1978 -64 2259 361 2291 406 
L 2291 -64 
L 3066 -13 
L 3066 154 
C 2688 154 2630 193 2630 503 
L 2630 4416 
L 1869 4345 
z
M 2291 762 
C 2291 568 2176 393 2029 264 
C 1811 70 1594 38 1472 38 
C 1286 38 621 135 621 1369 
C 621 2636 1363 2713 1530 2713 
C 1824 2713 2061 2545 2208 2313 
C 2291 2177 2291 2157 2291 2041 
L 2291 762 
z
" transform="scale(0.015625)"/>
       <path id="CMR17-2f" d="M 2605 4575 
C 2637 4658 2637 4671 2637 4684 
C 2637 4761 2579 4800 2528 4800 
C 2451 4800 2426 4748 2400 4671 
L 326 -1376 
C 294 -1460 294 -1472 294 -1485 
C 294 -1562 352 -1600 403 -1600 
C 480 -1600 506 -1549 531 -1472 
L 2605 4575 
z
" transform="scale(0.015625)"/>
      </defs>
      <use xlink:href="#CMR17-41" transform="scale(0.996264)"/>
      <use xlink:href="#CMR17-6e" transform="translate(69.07243 0)scale(0.996264)"/>
      <use xlink:href="#CMR17-67" transform="translate(119.9678 0)scale(0.996264)"/>
      <use xlink:href="#CMR17-75" transform="translate(165.658277 0)scale(0.996264)"/>
      <use xlink:href="#CMR17-6c" transform="translate(216.553646 0)scale(0.996264)"/>
      <use xlink:href="#CMR17-61" transform="translate(241.424705 0)scale(0.996264)"/>
      <use xlink:href="#CMR17-72" transform="translate(287.115182 0)scale(0.996264)"/>
      <use xlink:href="#CMR17-56" transform="translate(352.471916 0)scale(0.996264)"/>
      <use xlink:href="#CMR17-65" transform="translate(413.737091 0)scale(0.996264)"/>
      <use xlink:href="#CMR17-6c" transform="translate(454.222751 0)scale(0.996264)"/>
      <use xlink:href="#CMR17-6f" transform="translate(479.09381 0)scale(0.996264)"/>
      <use xlink:href="#CMR17-63" transform="translate(527.386725 0)scale(0.996264)"/>
      <use xlink:href="#CMR17-69" transform="translate(567.872386 0)scale(0.996264)"/>
      <use xlink:href="#CMR17-74" transform="translate(592.743444 0)scale(0.996264)"/>
      <use xlink:href="#CMR17-79" transform="translate(625.421758 0)scale(0.996264)"/>
      <use xlink:href="#CMR17-28" transform="translate(703.79064 0)scale(0.996264)"/>
      <use xlink:href="#CMR17-72" transform="translate(739.071408 0)scale(0.996264)"/>
      <use xlink:href="#CMR17-61" transform="translate(774.352176 0)scale(0.996264)"/>
      <use xlink:href="#CMR17-64" transform="translate(820.042653 0)scale(0.996264)"/>
      <use xlink:href="#CMR17-2f" transform="translate(870.938023 0)scale(0.996264)"/>
      <use xlink:href="#CMR17-73" transform="translate(916.6285 0)scale(0.996264)"/>
      <use xlink:href="#CMR17-29" transform="translate(952.429838 0)scale(0.996264)"/>
     </g>
    </g>
   </g>
   <g id="line2d_12">
    <path d="M 66.9249 178.99259 
L 67.738163 177.517071 
L 68.551426 178.395356 
L 69.364689 180.819424 
L 70.177951 177.622466 
L 70.991214 175.268661 
L 71.804477 174.179588 
L 72.61774 176.673918 
L 74.244266 185.21085 
L 75.057529 187.951099 
L 75.870792 187.178208 
L 78.31058 181.065343 
L 79.123843 181.205869 
L 80.750369 177.376546 
L 81.563632 176.709049 
L 82.376895 178.816933 
L 83.190158 184.332564 
L 84.003421 185.527032 
L 84.816683 188.161888 
L 85.629946 189.356356 
L 86.443209 189.813064 
L 87.256472 185.913478 
L 88.882998 179.97627 
L 89.696261 172.563543 
L 90.509524 170.315133 
L 91.322787 175.163267 
L 92.949312 188.513202 
L 93.762575 192.272262 
L 94.575838 190.550824 
L 95.389101 189.286093 
L 96.202364 187.424128 
L 97.015627 187.248471 
L 97.82889 185.421638 
L 98.642153 180.784292 
L 99.455415 176.849574 
L 100.268678 175.971289 
L 101.081941 177.025232 
L 101.895204 180.749161 
L 103.52173 181.97876 
L 104.334993 178.571014 
L 105.961519 178.535882 
L 106.774781 180.116795 
L 107.588044 181.381526 
L 108.401307 180.924818 
L 109.21457 180.327584 
L 110.027833 180.257321 
L 110.841096 180.573504 
L 111.654359 180.187058 
L 112.467622 180.749161 
L 113.280885 183.594805 
L 114.094147 187.072814 
L 114.90741 187.775442 
L 115.720673 188.302413 
L 116.533936 188.056493 
L 117.347199 187.21334 
L 118.160462 186.054003 
L 119.786988 180.678898 
L 120.600251 178.430488 
L 121.413514 177.517071 
L 122.226776 177.48194 
L 123.040039 177.200889 
L 123.853302 178.114305 
L 124.666565 178.114305 
L 125.479828 179.589824 
L 126.293091 181.73284 
L 127.106354 183.559673 
L 127.919617 186.545843 
L 128.73288 188.126756 
L 129.546142 190.164378 
L 130.359405 193.888307 
L 131.172668 194.204489 
L 131.985931 193.993701 
L 132.799194 190.410298 
L 133.612457 184.929798 
L 134.42572 185.035193 
L 135.238983 185.562164 
L 136.052246 186.897157 
L 136.865508 187.388997 
L 137.678771 187.70518 
L 138.492034 186.862026 
L 139.305297 187.915968 
L 140.11856 190.094115 
L 140.931823 198.279734 
L 142.558349 207.413899 
L 143.371612 214.826625 
L 144.184874 216.793985 
L 144.998137 217.110168 
L 145.8114 205.973511 
L 146.624663 182.997571 
L 147.437926 170.24487 
L 148.251189 148.463397 
L 149.064452 139.785941 
L 149.877715 133.146101 
L 150.690978 135.07833 
L 151.50424 140.102124 
L 152.317503 153.206137 
L 153.130766 169.296322 
L 153.944029 180.116795 
L 155.570555 186.897157 
L 156.383818 194.380147 
L 157.197081 197.717631 
L 158.010344 193.782913 
L 158.823606 186.335055 
L 159.636869 168.804482 
L 160.450132 161.075573 
L 161.263395 156.157176 
L 162.076658 160.864785 
L 162.889921 169.577373 
L 164.516447 189.005042 
L 165.32971 204.919569 
L 166.142972 200.598406 
L 167.769498 157.632695 
L 168.582761 143.896315 
L 169.396024 122.290499 
L 170.209287 132.548869 
L 171.02255 122.290499 
L 171.835813 132.548869 
L 172.649076 102.230465 
L 175.088864 61.934743 
L 177.528653 119.374592 
L 178.341916 115.931712 
L 179.155179 105.040974 
L 180.781704 92.920645 
L 181.594967 89.44263 
L 182.40823 109.57293 
L 183.221493 152.468379 
L 184.034756 201.582086 
L 184.848019 262.078366 
L 185.661282 269.455961 
L 186.474545 272.933977 
L 187.287808 264.010598 
L 188.10107 241.104921 
L 188.914333 142.28027 
L 189.727596 72.93087 
L 190.540859 25.57374 
L 191.354122 28.981485 
L 192.167385 72.19311 
L 192.980648 108.413589 
L 193.793911 187.529522 
L 194.607174 246.83134 
L 195.420436 277.3254 
L 196.233699 269.877542 
L 197.046962 241.350838 
L 198.673488 219.288314 
L 199.486751 219.288314 
L 200.300014 218.550554 
L 201.113277 220.131468 
L 201.92654 219.604498 
L 202.739802 213.034925 
L 203.553065 210.997303 
L 204.366328 214.967153 
L 205.179591 223.258164 
L 206.806117 250.098561 
L 207.61938 268.191235 
L 208.432643 268.191235 
L 209.245906 259.689437 
L 210.059168 242.720966 
L 210.872431 218.199243 
L 211.685694 164.483318 
L 212.498957 144.317892 
L 213.31222 132.513738 
L 214.125483 132.619132 
L 214.938746 143.088293 
L 215.752009 157.351642 
L 216.565272 185.632426 
L 217.378534 195.574615 
L 218.191797 202.214451 
L 219.00506 205.903249 
L 219.818323 205.060095 
L 220.631586 208.643498 
L 221.444849 211.559406 
L 222.258112 214.053736 
L 223.071375 217.742531 
L 223.884638 217.7074 
L 224.6979 216.196752 
L 225.511163 206.149168 
L 227.137689 189.742801 
L 227.950952 170.24487 
L 228.764215 157.211118 
L 229.577478 162.551092 
L 230.390741 157.211118 
L 231.204004 162.551092 
L 232.017266 150.957727 
L 232.830529 142.877502 
L 233.643792 137.432135 
L 234.457055 137.397004 
L 235.270318 139.364364 
L 237.710107 176.041552 
L 238.52337 194.134227 
L 239.336632 194.309884 
L 240.149895 186.405317 
L 240.963158 156.54362 
L 242.589684 126.927843 
L 243.402947 118.0396 
L 244.21621 135.499907 
L 245.029473 157.597564 
L 245.842736 167.680277 
L 247.469261 185.632426 
L 248.282524 185.843215 
L 249.095787 185.035193 
L 249.90905 185.035193 
L 250.722313 182.681388 
L 251.535576 179.449299 
L 252.348839 175.479449 
L 253.162102 168.663957 
L 256.415153 158.440717 
L 257.228416 158.440717 
L 258.041679 157.667826 
L 258.854942 156.649015 
L 259.668205 151.203646 
L 260.481468 147.901296 
L 261.29473 148.076952 
L 262.107993 151.906276 
L 262.921256 158.721768 
L 263.734519 180.011401 
L 264.547782 205.832987 
L 266.174308 222.063696 
L 266.987571 233.16522 
L 267.800834 237.451254 
L 268.614096 239.032168 
L 269.427359 240.015846 
L 271.053885 235.062318 
L 271.867148 231.197861 
L 272.680411 225.120127 
L 273.493674 216.44267 
L 274.306937 203.900758 
L 275.1202 199.860646 
L 275.933462 200.703801 
L 276.746725 202.741421 
L 279.186514 191.675029 
L 279.999777 198.525653 
L 280.81304 203.479181 
L 282.439566 210.716251 
L 283.252828 213.842947 
L 284.066091 217.988453 
L 284.879354 219.007266 
L 285.692617 218.550554 
L 286.50588 213.386239 
L 287.319143 210.540595 
L 288.132406 209.556915 
L 289.758932 208.748893 
L 290.572195 208.18679 
L 291.385457 208.959681 
L 292.19872 210.856777 
L 293.011983 209.592046 
L 293.825246 208.116528 
L 294.638509 204.849307 
L 295.451772 191.920948 
L 297.078298 177.200889 
L 297.891561 166.73173 
L 298.704823 163.675296 
L 299.518086 161.567412 
L 301.144612 162.656485 
L 301.957875 163.710429 
L 302.771138 162.76188 
L 303.584401 159.178476 
L 304.397664 159.178476 
L 305.210927 159.002818 
L 306.024189 155.27889 
L 307.650715 129.457304 
L 308.463978 118.812487 
L 309.277241 98.43627 
L 310.090504 84.489102 
L 310.903767 87.264488 
L 311.71703 104.022166 
L 312.530293 87.264488 
L 313.343555 104.022166 
L 314.156818 145.406963 
L 316.596607 216.65346 
L 317.40987 230.670891 
L 318.223133 233.69219 
L 319.036396 233.69219 
L 319.849659 222.836588 
L 321.476184 192.096606 
L 322.289447 168.945008 
L 323.10271 158.79203 
L 323.915973 150.395624 
L 324.729236 145.863675 
L 325.542499 150.149704 
L 327.169025 153.662845 
L 327.982287 154.505998 
L 328.79555 152.679167 
L 329.608813 145.652884 
L 330.422076 137.080821 
L 331.235339 134.55136 
L 332.048602 133.11097 
L 332.861865 130.686903 
L 333.675128 126.330611 
L 334.488391 119.409723 
L 336.114916 100.579289 
L 336.928179 96.152735 
L 337.741442 106.305709 
L 338.554705 163.569903 
L 340.181231 228.738662 
L 340.994494 277.74698 
L 341.807757 292.642695 
L 343.434282 260.567722 
L 344.247545 244.372142 
L 345.874071 216.231884 
L 346.687334 185.702689 
L 347.500597 168.628825 
L 348.31386 148.568791 
L 349.127123 168.628825 
L 349.940385 148.568791 
L 350.753648 114.385933 
L 351.566911 108.237933 
L 353.193437 107.781229 
L 354.0067 103.249274 
L 354.819963 94.150241 
L 356.446489 31.686593 
L 357.259751 22.025455 
L 358.073014 22.025455 
L 358.886277 36.28881 
L 359.69954 63.972361 
L 360.512803 100.122577 
L 361.326066 180.397847 
L 362.952592 264.045729 
L 363.765855 293.872291 
L 364.579117 313.229699 
L 365.39238 318.534545 
L 366.205643 303.779347 
L 367.018906 285.967729 
L 367.832169 261.727055 
L 368.645432 229.300767 
L 370.271958 187.986231 
L 371.085221 167.223568 
L 371.898483 149.657865 
L 372.711746 137.959105 
L 373.525009 131.775978 
L 374.338272 130.897693 
L 375.964798 155.7356 
L 376.778061 171.263681 
L 377.591324 202.144189 
L 378.404587 209.802835 
L 379.217849 210.927041 
L 380.031112 190.094115 
L 381.657638 124.257858 
L 382.470901 111.961866 
L 383.284164 103.424929 
L 384.097427 97.944435 
L 384.91069 95.836548 
L 385.723953 97.944435 
L 386.537215 102.37099 
L 387.350478 116.212765 
L 388.163741 125.452326 
L 388.977004 135.991746 
L 389.790267 161.848463 
L 390.60353 173.933668 
L 391.416793 182.997571 
L 392.230056 190.375167 
L 393.043319 188.548333 
L 393.856581 184.437958 
L 394.669844 181.522052 
L 395.483107 177.622466 
L 396.29637 169.647636 
L 397.109633 166.696597 
L 397.922896 162.76188 
L 398.736159 157.597564 
L 399.549422 157.492169 
L 400.362685 158.194798 
L 401.175947 157.492169 
L 401.98921 158.194798 
L 402.802473 160.267551 
L 403.615736 161.602543 
L 404.428999 163.640165 
L 406.055525 173.898536 
L 406.868788 176.673918 
L 407.682051 174.144456 
L 408.495313 168.628825 
L 409.308576 165.607524 
L 410.121839 166.942518 
L 410.935102 159.459528 
L 411.748365 149.411946 
L 412.561628 152.644034 
L 413.374891 143.861184 
L 414.188154 112.769888 
L 415.001417 106.797551 
L 415.814679 105.989529 
L 416.627942 106.165184 
L 417.441205 125.206405 
L 418.254468 133.743338 
L 419.067731 140.207517 
L 419.880994 144.423285 
L 420.694257 150.2551 
L 421.50752 157.562431 
L 422.320783 162.480828 
L 423.134045 172.00144 
L 423.947308 172.00144 
L 424.760571 173.722879 
L 425.573834 171.896046 
L 426.387097 167.574883 
L 427.20036 161.778201 
L 428.013623 157.105723 
L 428.826886 154.084422 
L 429.640149 148.533659 
L 430.453411 148.533659 
L 432.079937 144.879993 
L 432.8932 143.580131 
L 433.706463 146.847352 
L 434.519726 153.346663 
L 435.332989 161.988989 
L 436.146252 179.379036 
L 436.959515 187.670048 
L 437.772777 184.613616 
L 438.58604 178.184568 
L 439.399303 153.873633 
L 440.212566 161.075573 
L 441.025829 153.873633 
L 441.839092 161.075573 
L 442.652355 149.060631 
L 443.465618 149.55247 
L 444.278881 157.421907 
L 445.092143 161.251229 
L 445.905406 163.569903 
L 446.718669 164.869764 
L 448.345195 164.658976 
L 449.158458 167.01278 
L 449.971721 170.561052 
L 450.784984 174.98761 
L 451.598247 178.465619 
L 453.224772 184.367696 
L 454.851298 188.548333 
L 455.664561 187.388997 
L 456.477824 187.775442 
L 458.10435 186.370186 
L 458.917613 185.702689 
L 459.730875 185.562164 
L 460.544138 185.878346 
L 462.170664 184.086645 
L 462.983927 183.48941 
L 463.79719 183.278622 
L 464.610453 183.313754 
L 465.423716 184.859535 
L 466.236979 187.178208 
L 467.050242 184.156907 
L 467.863504 184.156907 
L 468.676767 181.697709 
L 469.49003 178.816933 
L 470.303293 177.48194 
L 471.116556 174.952478 
L 471.929819 174.636296 
L 472.743082 175.795633 
L 472.743082 175.795633 
" clip-path="url(#p1221aa83fc)" style="fill: none; stroke: #1f77b4; stroke-width: 2; stroke-linecap: round"/>
   </g>
   <g id="line2d_13">
    <path d="M 66.9249 180.148414 
L 67.738163 180.415412 
L 70.177951 181.731084 
L 71.804477 182.872854 
L 72.61774 183.31551 
L 73.431003 183.480628 
L 74.244266 183.067834 
L 75.870792 181.683656 
L 76.684055 181.434223 
L 77.497317 181.604611 
L 79.937106 182.958926 
L 82.376895 184.29392 
L 83.190158 184.392288 
L 84.816683 183.540351 
L 86.443209 182.553159 
L 87.256472 182.133338 
L 89.696261 181.639742 
L 90.509524 181.938359 
L 91.322787 182.428442 
L 92.136049 182.739355 
L 92.949312 182.676118 
L 93.762575 182.266838 
L 95.389101 181.167225 
L 97.015627 180.378524 
L 97.82889 180.195841 
L 98.642153 180.2784 
L 99.455415 180.627957 
L 101.895204 182.314265 
L 102.708467 182.579507 
L 103.52173 182.676118 
L 108.401307 182.193062 
L 110.027833 182.015648 
L 111.654359 182.238732 
L 116.533936 184.200821 
L 117.347199 184.318512 
L 118.973725 184.153394 
L 119.786988 184.264058 
L 120.600251 184.574971 
L 123.040039 186.001306 
L 124.666565 187.136051 
L 126.293091 189.314198 
L 127.106354 190.598251 
L 129.546142 195.123176 
L 130.359405 195.913633 
L 131.172668 195.369096 
L 131.985931 194.171115 
L 133.612457 189.363382 
L 135.238983 184.276354 
L 136.052246 182.003352 
L 136.865508 180.318801 
L 137.678771 179.414167 
L 138.492034 179.034748 
L 139.305297 178.864361 
L 140.11856 178.81342 
L 140.931823 179.027722 
L 141.745086 178.999617 
L 142.558349 178.539395 
L 143.371612 177.485453 
L 144.184874 175.184346 
L 146.624663 167.095339 
L 147.437926 166.424329 
L 148.251189 166.89509 
L 149.064452 168.922173 
L 150.690978 175.551469 
L 151.50424 177.798123 
L 152.317503 178.674651 
L 153.130766 178.20916 
L 154.757292 173.480473 
L 156.383818 167.704869 
L 157.197081 163.097385 
L 158.823606 151.700757 
L 159.636869 145.480741 
L 160.450132 141.077019 
L 161.263395 138.015317 
L 162.076658 136.176188 
L 162.889921 133.929534 
L 163.703184 130.702714 
L 164.516447 126.662602 
L 165.32971 121.858383 
L 166.142972 116.084536 
L 166.956235 111.533262 
L 167.769498 110.156111 
L 168.582761 112.35358 
L 169.396024 118.262683 
L 171.835813 139.726216 
L 172.649076 145.154019 
L 173.462338 147.156509 
L 174.275601 146.383618 
L 175.088864 143.903341 
L 175.902127 142.255678 
L 176.71539 141.828831 
L 177.528653 142.257434 
L 178.341916 145.665181 
L 179.155179 152.210162 
L 180.781704 169.375368 
L 182.40823 183.821403 
L 183.221493 189.307172 
L 184.034756 192.648169 
L 184.848019 193.496592 
L 185.661282 191.399247 
L 186.474545 188.906674 
L 188.10107 183.261057 
L 188.914333 181.954168 
L 189.727596 186.003063 
L 190.540859 194.157063 
L 192.980648 227.143697 
L 193.793911 234.70749 
L 194.607174 237.467062 
L 195.420436 236.035457 
L 198.673488 213.807816 
L 199.486751 209.997815 
L 200.300014 206.900981 
L 201.113277 205.255075 
L 201.92654 204.027232 
L 202.739802 203.15773 
L 205.179591 202.188103 
L 205.992854 201.603165 
L 206.806117 200.505308 
L 207.61938 198.887507 
L 210.872431 188.873299 
L 211.685694 187.450477 
L 212.498957 187.738554 
L 213.31222 188.383216 
L 214.125483 189.885083 
L 214.938746 191.114683 
L 215.752009 192.087823 
L 216.565272 191.768127 
L 217.378534 189.630381 
L 219.00506 183.482384 
L 219.818323 180.15544 
L 220.631586 177.466131 
L 221.444849 175.191372 
L 222.258112 173.415479 
L 223.884638 171.247872 
L 224.6979 169.682768 
L 226.324426 163.425864 
L 227.950952 156.264326 
L 228.764215 154.527078 
L 229.577478 154.5464 
L 230.390741 154.80286 
L 231.204004 155.754921 
L 232.017266 156.908988 
L 232.830529 158.653262 
L 234.457055 163.141299 
L 236.083581 167.409765 
L 236.896844 168.620042 
L 237.710107 168.895824 
L 238.52337 168.395201 
L 240.963158 163.759612 
L 241.776421 163.854467 
L 242.589684 164.704647 
L 244.21621 167.848908 
L 245.029473 168.468977 
L 245.842736 167.992947 
L 247.469261 166.327718 
L 248.282524 166.046667 
L 249.095787 167.046155 
L 249.90905 168.507622 
L 250.722313 170.359047 
L 251.535576 172.883239 
L 253.162102 178.960972 
L 257.228416 196.57059 
L 258.041679 199.470688 
L 260.481468 206.417924 
L 262.107993 211.713983 
L 262.921256 213.876322 
L 263.734519 215.523985 
L 264.547782 216.449697 
L 265.361045 216.332007 
L 266.174308 215.984206 
L 266.987571 215.416834 
L 270.240622 211.40307 
L 272.680411 207.882903 
L 273.493674 207.087177 
L 274.306937 206.702488 
L 275.1202 206.91679 
L 279.186514 209.154661 
L 279.999777 209.166957 
L 280.81304 208.448519 
L 281.626303 207.134605 
L 282.439566 205.105766 
L 284.066091 200.139941 
L 287.319143 189.252718 
L 290.572195 178.982051 
L 291.385457 175.662133 
L 292.19872 171.687014 
L 293.011983 167.0848 
L 294.638509 155.345639 
L 295.451772 149.466398 
L 297.891561 136.567902 
L 298.704823 135.501664 
L 299.518086 135.752854 
L 300.331349 137.39876 
L 301.144612 140.12847 
L 304.397664 153.7577 
L 305.210927 156.169471 
L 306.024189 157.82416 
L 306.837452 158.507466 
L 307.650715 159.357646 
L 308.463978 160.404562 
L 309.277241 161.757122 
L 310.090504 164.342793 
L 311.71703 171.030057 
L 312.530293 173.554248 
L 313.343555 176.824982 
L 314.156818 178.906518 
L 314.970081 178.490211 
L 315.783344 176.782825 
L 316.596607 173.714096 
L 317.40987 169.415768 
L 319.036396 158.484631 
L 321.476184 140.616797 
L 322.289447 136.327252 
L 323.10271 136.058497 
L 323.915973 137.945054 
L 324.729236 141.862206 
L 327.169025 161.769418 
L 327.982287 167.114662 
L 329.608813 175.495259 
L 330.422076 179.024209 
L 331.235339 181.455303 
L 332.048602 183.159176 
L 332.861865 183.932067 
L 333.675128 185.829163 
L 334.488391 186.941072 
L 335.301653 186.689882 
L 336.114916 186.60908 
L 336.928179 186.98323 
L 337.741442 187.564654 
L 338.554705 187.411832 
L 339.367968 183.940849 
L 340.181231 177.299257 
L 340.994494 167.446653 
L 343.434282 129.163958 
L 344.247545 119.334189 
L 345.060808 112.121711 
L 345.874071 109.620355 
L 346.687334 109.973426 
L 347.500597 113.890578 
L 348.31386 120.152751 
L 349.940385 135.881082 
L 353.193437 165.957081 
L 354.0067 171.049378 
L 357.259751 188.551846 
L 359.69954 204.808905 
L 360.512803 209.397067 
L 361.326066 212.954122 
L 362.139329 214.041439 
L 362.952592 213.366916 
L 363.765855 210.710982 
L 364.579117 205.522073 
L 365.39238 197.684256 
L 367.832169 169.252408 
L 368.645432 161.063277 
L 369.458695 154.390066 
L 370.271958 148.805929 
L 371.085221 144.525166 
L 371.898483 141.974626 
L 372.711746 140.764349 
L 373.525009 140.665981 
L 374.338272 142.169606 
L 375.964798 146.330921 
L 376.778061 148.062899 
L 377.591324 148.927132 
L 378.404587 148.04182 
L 379.217849 146.627781 
L 380.031112 144.962552 
L 380.844375 143.940228 
L 381.657638 144.45139 
L 382.470901 146.376592 
L 383.284164 148.658376 
L 384.91069 154.374257 
L 387.350478 163.364384 
L 388.163741 165.633873 
L 389.790267 169.192684 
L 390.60353 169.795188 
L 391.416793 169.9322 
L 392.230056 169.489545 
L 395.483107 165.277289 
L 396.29637 163.866763 
L 397.109633 163.016583 
L 397.922896 161.874812 
L 401.175947 151.658599 
L 401.98921 150.044311 
L 402.802473 148.821738 
L 404.428999 146.959774 
L 406.055525 145.719635 
L 406.868788 145.148749 
L 407.682051 144.915126 
L 408.495313 144.807975 
L 410.121839 145.377104 
L 411.748365 145.524655 
L 412.561628 145.909344 
L 413.374891 145.981364 
L 414.188154 146.214987 
L 415.814679 150.002153 
L 417.441205 153.817423 
L 419.880994 156.968711 
L 421.50752 160.587246 
L 422.320783 161.939805 
L 423.134045 162.724992 
L 423.947308 161.818602 
L 424.760571 161.272308 
L 425.573834 160.279846 
L 426.387097 159.738822 
L 427.20036 158.81311 
L 428.013623 158.201823 
L 428.826886 158.217632 
L 429.640149 158.575973 
L 431.266674 160.14459 
L 432.8932 162.032903 
L 435.332989 165.472268 
L 436.146252 166.2961 
L 436.959515 166.397981 
L 437.772777 166.232863 
L 438.58604 166.324205 
L 439.399303 166.842393 
L 440.212566 168.518161 
L 441.025829 169.853155 
L 441.839092 171.516627 
L 442.652355 172.781358 
L 444.278881 176.413945 
L 445.092143 177.836767 
L 446.718669 180.050046 
L 450.784984 184.562675 
L 451.598247 185.02114 
L 452.411509 185.305704 
L 453.224772 185.319757 
L 454.038035 185.042219 
L 454.851298 184.594293 
L 457.291087 182.677875 
L 458.10435 182.228193 
L 458.917613 182.019161 
L 459.730875 182.484652 
L 460.544138 183.557917 
L 461.357401 184.868318 
L 462.983927 187.708692 
L 466.236979 190.770395 
L 467.050242 191.877034 
L 468.676767 195.026565 
L 470.303293 198.704823 
L 471.929819 203.219209 
L 472.743082 205.706513 
L 472.743082 205.706513 
" clip-path="url(#p1221aa83fc)" style="fill: none; stroke: #ff7f0e; stroke-width: 2; stroke-linecap: round"/>
   </g>
   <g id="patch_3">
    <path d="M 46.633991 333.36 
L 46.633991 7.2 
" style="fill: none"/>
   </g>
   <g id="patch_4">
    <path d="M 46.633991 333.36 
L 493.033991 333.36 
" style="fill: none"/>
   </g>
   <g id="legend_1">
    <g id="patch_5">
     <path d="M 418.024632 44.90079 
L 486.033991 44.90079 
Q 488.033991 44.90079 488.033991 42.90079 
L 488.033991 14.2 
Q 488.033991 12.2 486.033991 12.2 
L 418.024632 12.2 
Q 416.024632 12.2 416.024632 14.2 
L 416.024632 42.90079 
Q 416.024632 44.90079 418.024632 44.90079 
z
" style="fill: #ffffff; opacity: 0.8; stroke: #cccccc; stroke-width: 0.24; stroke-linejoin: miter"/>
    </g>
    <g id="line2d_14">
     <path d="M 420.024632 19.7 
L 430.024632 19.7 
L 440.024632 19.7 
" style="fill: none; stroke: #1f77b4; stroke-width: 2; stroke-linecap: round"/>
    </g>
    <g id="text_14">
     <!-- Raw $x_g$ -->
     <g style="fill: #262626" transform="translate(448.024632 23.2)scale(0.1 -0.1)">
      <defs>
       <path id="CMR17-52" d="M 2509 2156 
C 3117 2278 3629 2689 3629 3203 
C 3629 3806 2950 4352 2054 4352 
L 333 4352 
L 333 4185 
C 774 4185 845 4185 845 3896 
L 845 428 
C 845 140 774 140 333 140 
L 333 -26 
C 518 -13 851 -13 1050 -13 
C 1248 -13 1581 -13 1766 -26 
L 1766 140 
C 1325 140 1254 140 1254 428 
L 1254 2112 
L 2003 2112 
C 2368 2112 2573 1964 2662 1881 
C 2918 1632 2918 1459 2918 1024 
C 2918 595 2918 377 3110 160 
C 3354 -103 3680 -128 3821 -128 
C 4294 -128 4365 403 4365 512 
C 4365 550 4365 595 4307 595 
C 4256 595 4250 556 4250 531 
C 4218 115 4032 -26 3834 -26 
C 3482 -26 3443 377 3405 768 
C 3386 902 3373 998 3360 1139 
C 3322 1459 3270 1926 2509 2156 
z
M 1984 2214 
L 1254 2214 
L 1254 3935 
C 1254 4153 1267 4185 1523 4185 
L 1990 4185 
C 2522 4185 3142 3999 3142 3203 
C 3142 2374 2464 2214 1984 2214 
z
" transform="scale(0.015625)"/>
       <path id="CMR17-77" d="M 3725 2186 
C 3853 2566 4109 2579 4205 2585 
L 4205 2752 
C 4077 2745 3949 2739 3821 2739 
C 3699 2739 3424 2739 3315 2752 
L 3315 2585 
C 3514 2572 3622 2456 3622 2296 
C 3622 2251 3610 2193 3597 2148 
L 2995 398 
L 2342 2296 
C 2330 2341 2310 2392 2310 2418 
C 2310 2585 2528 2585 2630 2585 
L 2630 2752 
C 2483 2739 2214 2739 2061 2739 
C 1901 2739 1734 2739 1587 2752 
L 1587 2585 
C 1939 2585 1939 2572 2074 2167 
L 1485 443 
L 851 2302 
C 819 2386 819 2399 819 2418 
C 819 2585 1037 2585 1139 2585 
L 1139 2752 
C 986 2739 717 2739 557 2739 
C 416 2739 198 2739 64 2752 
L 64 2585 
C 346 2585 416 2566 486 2353 
L 1274 38 
C 1299 -45 1318 -64 1370 -64 
C 1414 -64 1440 -52 1472 44 
L 2131 1987 
L 2797 44 
C 2829 -52 2854 -64 2899 -64 
C 2950 -64 2970 -45 2995 38 
L 3725 2186 
z
" transform="scale(0.015625)"/>
       <path id="CMMI12-78" d="M 3034 2624 
C 2829 2585 2752 2431 2752 2310 
C 2752 2156 2874 2105 2963 2105 
C 3155 2105 3290 2271 3290 2444 
C 3290 2694 2982 2816 2714 2816 
C 2323 2816 2106 2451 2048 2329 
C 1901 2790 1504 2816 1389 2816 
C 736 2816 390 1993 390 1849 
C 390 1823 416 1790 461 1790 
C 512 1790 525 1829 538 1855 
C 755 2572 1184 2687 1370 2687 
C 1658 2687 1715 2438 1715 2284 
C 1715 2143 1677 1993 1600 1678 
L 1382 778 
C 1286 390 1101 64 762 64 
C 730 64 570 64 435 126 
C 666 166 717 358 717 435 
C 717 563 621 640 499 640 
C 346 640 179 505 179 300 
C 179 57 480 -64 755 -64 
C 1062 -64 1280 153 1414 415 
C 1517 64 1837 -64 2074 -64 
C 2726 -64 3072 751 3072 896 
C 3072 929 3046 955 3008 955 
C 2950 955 2944 922 2925 870 
C 2752 300 2381 64 2093 64 
C 1869 64 1747 204 1747 467 
C 1747 607 1773 712 1875 1146 
L 2099 2039 
C 2195 2425 2413 2687 2707 2687 
C 2720 2687 2899 2687 3034 2624 
z
" transform="scale(0.015625)"/>
       <path id="CMMI12-67" d="M 2163 811 
C 2138 708 2125 683 2042 587 
C 1779 249 1510 128 1312 128 
C 1101 128 902 293 902 734 
C 902 1072 1094 1787 1235 2075 
C 1421 2432 1709 2687 1978 2687 
C 2400 2687 2483 2164 2483 2126 
L 2464 2036 
L 2163 811 
z
M 2560 2394 
C 2477 2579 2298 2816 1978 2816 
C 1280 2816 486 1941 486 989 
C 486 325 890 0 1299 0 
C 1638 0 1939 268 2054 396 
L 1914 -176 
C 1824 -520 1786 -677 1555 -896 
C 1293 -1152 1050 -1152 909 -1152 
C 717 -1152 557 -1140 397 -1090 
C 602 -1034 653 -858 653 -789 
C 653 -689 576 -589 435 -589 
C 282 -589 115 -714 115 -921 
C 115 -1178 378 -1280 922 -1280 
C 1747 -1280 2176 -758 2259 -420 
L 2970 2426 
C 2989 2502 2989 2515 2989 2528 
C 2989 2617 2918 2688 2822 2688 
C 2669 2688 2579 2560 2560 2388 
L 2560 2394 
z
" transform="scale(0.015625)"/>
      </defs>
      <use xlink:href="#CMR17-52" transform="scale(0.996264)"/>
      <use xlink:href="#CMR17-61" transform="translate(67.791102 0)scale(0.996264)"/>
      <use xlink:href="#CMR17-77" transform="translate(110.879125 0)scale(0.996264)"/>
      <use xlink:href="#CMMI12-78" transform="translate(207.464972 0)scale(0.996264)"/>
      <use xlink:href="#CMMI12-67" transform="translate(262.899032 -14.943915)scale(0.697382)"/>
     </g>
    </g>
    <g id="line2d_15">
     <path d="M 420.024632 34.550395 
L 430.024632 34.550395 
L 440.024632 34.550395 
" style="fill: none; stroke: #ff7f0e; stroke-width: 2; stroke-linecap: round"/>
    </g>
    <g id="text_15">
     <!-- FMA $x_g$ -->
     <g style="fill: #262626" transform="translate(448.024632 38.050395)scale(0.1 -0.1)">
      <defs>
       <path id="CMR17-46" d="M 3482 4339 
L 326 4339 
L 326 4172 
C 768 4172 838 4172 838 3883 
L 838 450 
C 838 166 768 166 326 166 
L 326 0 
C 512 12 870 12 1069 12 
C 1331 12 1638 12 1901 0 
L 1901 166 
L 1760 166 
C 1274 166 1261 229 1261 456 
L 1261 2073 
L 1837 2073 
C 2432 2073 2490 1865 2490 1334 
L 2605 1334 
L 2605 2991 
L 2490 2991 
C 2490 2451 2432 2240 1837 2240 
L 1261 2240 
L 1261 3922 
C 1261 4140 1274 4172 1530 4172 
L 2355 4172 
C 3322 4172 3430 3774 3520 2920 
L 3635 2920 
L 3482 4339 
z
" transform="scale(0.015625)"/>
       <path id="CMR17-4d" d="M 1338 4249 
C 1299 4345 1293 4352 1158 4352 
L 339 4352 
L 339 4185 
C 781 4185 851 4185 851 3898 
L 851 624 
C 851 465 851 166 339 166 
L 339 0 
C 486 12 755 12 915 12 
C 1075 12 1344 12 1491 0 
L 1491 166 
C 979 166 979 465 979 624 
L 979 4159 
L 986 4159 
L 2490 102 
C 2515 38 2528 0 2579 0 
C 2630 0 2643 38 2669 102 
L 4186 4191 
L 4192 4191 
L 4192 453 
C 4192 166 4122 166 3680 166 
L 3680 0 
C 3853 12 4198 12 4384 12 
C 4570 12 4922 12 5094 0 
L 5094 166 
C 4653 166 4582 166 4582 453 
L 4582 3898 
C 4582 4185 4653 4185 5094 4185 
L 5094 4352 
L 4282 4352 
C 4147 4352 4141 4345 4102 4249 
L 2720 516 
L 1338 4249 
z
" transform="scale(0.015625)"/>
      </defs>
      <use xlink:href="#CMR17-46" transform="scale(0.996264)"/>
      <use xlink:href="#CMR17-4d" transform="translate(59.983847 0)scale(0.996264)"/>
      <use xlink:href="#CMR17-41" transform="translate(144.670787 0)scale(0.996264)"/>
      <use xlink:href="#CMMI12-78" transform="translate(243.819183 0)scale(0.996264)"/>
      <use xlink:href="#CMMI12-67" transform="translate(299.253243 -14.943915)scale(0.697382)"/>
     </g>
    </g>
   </g>
  </g>
 </g>
 <defs>
  <clipPath id="p1221aa83fc">
   <rect x="46.633991" y="7.2" width="446.4" height="326.16"/>
  </clipPath>
 </defs>
</svg>
