<?xml version="1.0" encoding="utf-8" standalone="no"?>
<!DOCTYPE svg PUBLIC "-//W3C//DTD SVG 1.1//EN"
  "http://www.w3.org/Graphics/SVG/1.1/DTD/svg11.dtd">
<svg xmlns:xlink="http://www.w3.org/1999/xlink" width="564.445438pt" height="420.48pt" viewBox="0 0 564.445438 420.48" xmlns="http://www.w3.org/2000/svg" version="1.1">
 <metadata>
  <rdf:RDF xmlns:dc="http://purl.org/dc/elements/1.1/" xmlns:cc="http://creativecommons.org/ns#" xmlns:rdf="http://www.w3.org/1999/02/22-rdf-syntax-ns#">
   <cc:Work>
    <dc:type rdf:resource="http://purl.org/dc/dcmitype/StillImage"/>
    <dc:date>2023-08-14T11:02:08.712982</dc:date>
    <dc:format>image/svg+xml</dc:format>
    <dc:creator>
     <cc:Agent>
      <dc:title>Matplotlib v3.5.1, https://matplotlib.org/</dc:title>
     </cc:Agent>
    </dc:creator>
   </cc:Work>
  </rdf:RDF>
 </metadata>
 <defs>
  <style type="text/css">*{stroke-linejoin: round; stroke-linecap: butt}</style>
 </defs>
 <g id="figure_1">
  <g id="patch_1">
   <path d="M 0 420.48 
L 564.445438 420.48 
L 564.445438 0 
L 0 0 
z
" style="fill: #ffffff"/>
  </g>
  <g id="axes_1">
   <g id="patch_2">
    <path d="M 44.987349 388.797548 
L 489.659251 388.797548 
L 489.659251 10.659249 
L 44.987349 10.659249 
z
" style="fill: #ffffff"/>
   </g>
   <g id="matplotlib.axis_1">
    <g id="xtick_1">
     <g id="line2d_1">
      <path d="M 59.809746 388.797548 
L 59.809746 10.659249 
" clip-path="url(#p4396fead1e)" style="fill: none; stroke-dasharray: 2.96,1.28; stroke-dashoffset: 0; stroke: #d3d3d3; stroke-opacity: 0.53; stroke-width: 0.8"/>
     </g>
     <g id="text_1">
      <!-- $\mathdefault{−0.02}$ -->
      <g style="fill: #262626" transform="translate(47.079667 396.716046)scale(0.1 -0.1)">
       <defs>
        <path id="CMSY10-0" d="M 4218 1472 
C 4326 1472 4442 1472 4442 1600 
C 4442 1728 4326 1728 4218 1728 
L 755 1728 
C 646 1728 531 1728 531 1600 
C 531 1472 646 1472 755 1472 
L 4218 1472 
z
" transform="scale(0.015625)"/>
        <path id="CMR17-30" d="M 2688 2038 
C 2688 2430 2682 3099 2413 3613 
C 2176 4063 1798 4224 1466 4224 
C 1158 4224 768 4082 525 3620 
C 269 3137 243 2539 243 2038 
C 243 1671 250 1112 448 623 
C 723 -39 1216 -128 1466 -128 
C 1760 -128 2208 -7 2470 604 
C 2662 1048 2688 1568 2688 2038 
z
M 1466 -26 
C 1056 -26 813 328 723 816 
C 653 1196 653 1749 653 2109 
C 653 2604 653 3015 736 3407 
C 858 3954 1216 4121 1466 4121 
C 1728 4121 2067 3947 2189 3420 
C 2272 3054 2278 2623 2278 2109 
C 2278 1691 2278 1176 2202 797 
C 2067 96 1690 -26 1466 -26 
z
" transform="scale(0.015625)"/>
        <path id="CMMI12-3a" d="M 1178 307 
C 1178 492 1024 620 870 620 
C 685 620 557 467 557 313 
C 557 128 710 0 864 0 
C 1050 0 1178 153 1178 307 
z
" transform="scale(0.015625)"/>
        <path id="CMR17-32" d="M 2669 990 
L 2554 990 
C 2490 537 2438 460 2413 422 
C 2381 371 1920 371 1830 371 
L 602 371 
C 832 620 1280 1073 1824 1596 
C 2214 1966 2669 2400 2669 3033 
C 2669 3788 2067 4224 1395 4224 
C 691 4224 262 3603 262 3027 
C 262 2777 448 2745 525 2745 
C 589 2745 781 2783 781 3007 
C 781 3206 614 3264 525 3264 
C 486 3264 448 3257 422 3244 
C 544 3788 915 4057 1306 4057 
C 1862 4057 2227 3616 2227 3033 
C 2227 2477 1901 1998 1536 1583 
L 262 147 
L 262 0 
L 2515 0 
L 2669 990 
z
" transform="scale(0.015625)"/>
       </defs>
       <use xlink:href="#CMSY10-0" transform="scale(0.996264)"/>
       <use xlink:href="#CMR17-30" transform="translate(77.487468 0)scale(0.996264)"/>
       <use xlink:href="#CMMI12-3a" transform="translate(123.177945 0)scale(0.996264)"/>
       <use xlink:href="#CMR17-30" transform="translate(150.275122 0)scale(0.996264)"/>
       <use xlink:href="#CMR17-32" transform="translate(195.965599 0)scale(0.996264)"/>
      </g>
     </g>
    </g>
    <g id="xtick_2">
     <g id="line2d_2">
      <path d="M 119.099333 388.797548 
L 119.099333 10.659249 
" clip-path="url(#p4396fead1e)" style="fill: none; stroke-dasharray: 2.96,1.28; stroke-dashoffset: 0; stroke: #d3d3d3; stroke-opacity: 0.53; stroke-width: 0.8"/>
     </g>
     <g id="text_2">
      <!-- $\mathdefault{0.00}$ -->
      <g style="fill: #262626" transform="translate(110.243625 396.716046)scale(0.1 -0.1)">
       <use xlink:href="#CMR17-30" transform="scale(0.996264)"/>
       <use xlink:href="#CMMI12-3a" transform="translate(45.690477 0)scale(0.996264)"/>
       <use xlink:href="#CMR17-30" transform="translate(72.787654 0)scale(0.996264)"/>
       <use xlink:href="#CMR17-30" transform="translate(118.478131 0)scale(0.996264)"/>
      </g>
     </g>
    </g>
    <g id="xtick_3">
     <g id="line2d_3">
      <path d="M 178.388919 388.797548 
L 178.388919 10.659249 
" clip-path="url(#p4396fead1e)" style="fill: none; stroke-dasharray: 2.96,1.28; stroke-dashoffset: 0; stroke: #d3d3d3; stroke-opacity: 0.53; stroke-width: 0.8"/>
     </g>
     <g id="text_3">
      <!-- $\mathdefault{0.02}$ -->
      <g style="fill: #262626" transform="translate(169.533212 396.716046)scale(0.1 -0.1)">
       <use xlink:href="#CMR17-30" transform="scale(0.996264)"/>
       <use xlink:href="#CMMI12-3a" transform="translate(45.690477 0)scale(0.996264)"/>
       <use xlink:href="#CMR17-30" transform="translate(72.787654 0)scale(0.996264)"/>
       <use xlink:href="#CMR17-32" transform="translate(118.478131 0)scale(0.996264)"/>
      </g>
     </g>
    </g>
    <g id="xtick_4">
     <g id="line2d_4">
      <path d="M 237.678506 388.797548 
L 237.678506 10.659249 
" clip-path="url(#p4396fead1e)" style="fill: none; stroke-dasharray: 2.96,1.28; stroke-dashoffset: 0; stroke: #d3d3d3; stroke-opacity: 0.53; stroke-width: 0.8"/>
     </g>
     <g id="text_4">
      <!-- $\mathdefault{0.04}$ -->
      <g style="fill: #262626" transform="translate(228.822799 396.716046)scale(0.1 -0.1)">
       <defs>
        <path id="CMR17-34" d="M 2150 4147 
C 2150 4281 2144 4288 2029 4288 
L 128 1254 
L 128 1088 
L 1779 1088 
L 1779 460 
C 1779 230 1766 166 1318 166 
L 1197 166 
L 1197 0 
C 1402 12 1747 12 1965 12 
C 2182 12 2528 12 2733 0 
L 2733 166 
L 2611 166 
C 2163 166 2150 230 2150 460 
L 2150 1088 
L 2803 1088 
L 2803 1254 
L 2150 1254 
L 2150 4147 
z
M 1798 3723 
L 1798 1254 
L 256 1254 
L 1798 3723 
z
" transform="scale(0.015625)"/>
       </defs>
       <use xlink:href="#CMR17-30" transform="scale(0.996264)"/>
       <use xlink:href="#CMMI12-3a" transform="translate(45.690477 0)scale(0.996264)"/>
       <use xlink:href="#CMR17-30" transform="translate(72.787654 0)scale(0.996264)"/>
       <use xlink:href="#CMR17-34" transform="translate(118.478131 0)scale(0.996264)"/>
      </g>
     </g>
    </g>
    <g id="xtick_5">
     <g id="line2d_5">
      <path d="M 296.968093 388.797548 
L 296.968093 10.659249 
" clip-path="url(#p4396fead1e)" style="fill: none; stroke-dasharray: 2.96,1.28; stroke-dashoffset: 0; stroke: #d3d3d3; stroke-opacity: 0.53; stroke-width: 0.8"/>
     </g>
     <g id="text_5">
      <!-- $\mathdefault{0.06}$ -->
      <g style="fill: #262626" transform="translate(288.112386 396.716046)scale(0.1 -0.1)">
       <defs>
        <path id="CMR17-36" d="M 678 2198 
C 678 3712 1395 4076 1811 4076 
C 1946 4076 2272 4049 2400 3782 
C 2298 3782 2106 3782 2106 3558 
C 2106 3385 2246 3328 2336 3328 
C 2394 3328 2566 3353 2566 3571 
C 2566 3987 2246 4224 1805 4224 
C 1043 4224 243 3411 243 2011 
C 243 257 966 -128 1478 -128 
C 2099 -128 2688 431 2688 1295 
C 2688 2101 2170 2688 1517 2688 
C 1126 2688 838 2430 678 1979 
L 678 2198 
z
M 1478 25 
C 691 25 691 1212 691 1450 
C 691 1914 909 2585 1504 2585 
C 1613 2585 1926 2585 2138 2140 
C 2253 1889 2253 1624 2253 1302 
C 2253 954 2253 696 2118 438 
C 1978 173 1773 25 1478 25 
z
" transform="scale(0.015625)"/>
       </defs>
       <use xlink:href="#CMR17-30" transform="scale(0.996264)"/>
       <use xlink:href="#CMMI12-3a" transform="translate(45.690477 0)scale(0.996264)"/>
       <use xlink:href="#CMR17-30" transform="translate(72.787654 0)scale(0.996264)"/>
       <use xlink:href="#CMR17-36" transform="translate(118.478131 0)scale(0.996264)"/>
      </g>
     </g>
    </g>
    <g id="xtick_6">
     <g id="line2d_6">
      <path d="M 356.25768 388.797548 
L 356.25768 10.659249 
" clip-path="url(#p4396fead1e)" style="fill: none; stroke-dasharray: 2.96,1.28; stroke-dashoffset: 0; stroke: #d3d3d3; stroke-opacity: 0.53; stroke-width: 0.8"/>
     </g>
     <g id="text_6">
      <!-- $\mathdefault{0.08}$ -->
      <g style="fill: #262626" transform="translate(347.401973 396.716046)scale(0.1 -0.1)">
       <defs>
        <path id="CMR17-38" d="M 1741 2289 
C 2144 2494 2554 2803 2554 3298 
C 2554 3884 1990 4224 1472 4224 
C 890 4224 378 3800 378 3215 
C 378 3054 416 2777 666 2533 
C 730 2469 998 2276 1171 2154 
C 883 2006 211 1652 211 945 
C 211 282 838 -128 1459 -128 
C 2144 -128 2720 366 2720 1022 
C 2720 1607 2330 1877 2074 2051 
L 1741 2289 
z
M 902 2855 
C 851 2887 595 3086 595 3388 
C 595 3781 998 4076 1459 4076 
C 1965 4076 2336 3716 2336 3298 
C 2336 2700 1670 2359 1638 2359 
C 1632 2359 1626 2359 1574 2398 
L 902 2855 
z
M 2080 1536 
C 2176 1466 2483 1253 2483 861 
C 2483 385 2010 25 1472 25 
C 890 25 448 443 448 951 
C 448 1459 838 1884 1280 2083 
L 2080 1536 
z
" transform="scale(0.015625)"/>
       </defs>
       <use xlink:href="#CMR17-30" transform="scale(0.996264)"/>
       <use xlink:href="#CMMI12-3a" transform="translate(45.690477 0)scale(0.996264)"/>
       <use xlink:href="#CMR17-30" transform="translate(72.787654 0)scale(0.996264)"/>
       <use xlink:href="#CMR17-38" transform="translate(118.478131 0)scale(0.996264)"/>
      </g>
     </g>
    </g>
    <g id="xtick_7">
     <g id="line2d_7">
      <path d="M 415.547267 388.797548 
L 415.547267 10.659249 
" clip-path="url(#p4396fead1e)" style="fill: none; stroke-dasharray: 2.96,1.28; stroke-dashoffset: 0; stroke: #d3d3d3; stroke-opacity: 0.53; stroke-width: 0.8"/>
     </g>
     <g id="text_7">
      <!-- $\mathdefault{0.10}$ -->
      <g style="fill: #262626" transform="translate(406.69156 396.716046)scale(0.1 -0.1)">
       <defs>
        <path id="CMR17-31" d="M 1702 4083 
C 1702 4217 1696 4224 1606 4224 
C 1357 3927 979 3833 621 3820 
C 602 3820 570 3820 563 3808 
C 557 3795 557 3782 557 3648 
C 755 3648 1088 3686 1344 3839 
L 1344 467 
C 1344 243 1331 166 781 166 
L 589 166 
L 589 0 
C 896 6 1216 12 1523 12 
C 1830 12 2150 6 2458 0 
L 2458 166 
L 2266 166 
C 1715 166 1702 236 1702 467 
L 1702 4083 
z
" transform="scale(0.015625)"/>
       </defs>
       <use xlink:href="#CMR17-30" transform="scale(0.996264)"/>
       <use xlink:href="#CMMI12-3a" transform="translate(45.690477 0)scale(0.996264)"/>
       <use xlink:href="#CMR17-31" transform="translate(72.787654 0)scale(0.996264)"/>
       <use xlink:href="#CMR17-30" transform="translate(118.478131 0)scale(0.996264)"/>
      </g>
     </g>
    </g>
    <g id="xtick_8">
     <g id="line2d_8">
      <path d="M 474.836854 388.797548 
L 474.836854 10.659249 
" clip-path="url(#p4396fead1e)" style="fill: none; stroke-dasharray: 2.96,1.28; stroke-dashoffset: 0; stroke: #d3d3d3; stroke-opacity: 0.53; stroke-width: 0.8"/>
     </g>
     <g id="text_8">
      <!-- $\mathdefault{0.12}$ -->
      <g style="fill: #262626" transform="translate(465.981147 396.716046)scale(0.1 -0.1)">
       <use xlink:href="#CMR17-30" transform="scale(0.996264)"/>
       <use xlink:href="#CMMI12-3a" transform="translate(45.690477 0)scale(0.996264)"/>
       <use xlink:href="#CMR17-31" transform="translate(72.787654 0)scale(0.996264)"/>
       <use xlink:href="#CMR17-32" transform="translate(118.478131 0)scale(0.996264)"/>
      </g>
     </g>
    </g>
    <g id="text_9">
     <!-- \textbf{$\nu$} -->
     <g style="fill: #262626" transform="translate(264.431396 410.955404)scale(0.12 -0.12)">
      <defs>
       <path id="CMMI12-17" d="M 1408 2751 
C 1408 2777 1389 2816 1338 2816 
C 1293 2816 691 2758 595 2751 
C 525 2745 461 2739 461 2623 
C 461 2559 512 2559 602 2559 
C 902 2559 922 2515 922 2445 
C 922 2419 909 2343 902 2317 
L 339 64 
C 339 38 358 0 403 0 
L 538 0 
C 627 0 1600 230 2349 996 
C 3174 1845 3290 2630 3290 2655 
C 3290 2758 3206 2816 3123 2816 
C 2938 2816 2893 2643 2880 2598 
C 2502 1264 1626 472 774 192 
L 1408 2751 
z
" transform="scale(0.015625)"/>
      </defs>
      <use xlink:href="#CMMI12-17" transform="scale(0.996264)"/>
     </g>
    </g>
   </g>
   <g id="matplotlib.axis_2">
    <g id="ytick_1">
     <g id="line2d_9">
      <path d="M 44.987349 388.797548 
L 489.659251 388.797548 
" clip-path="url(#p4396fead1e)" style="fill: none; stroke-dasharray: 2.96,1.28; stroke-dashoffset: 0; stroke: #d3d3d3; stroke-opacity: 0.53; stroke-width: 0.8"/>
     </g>
     <g id="text_10">
      <!-- $\mathdefault{10^{-9}}$ -->
      <g style="fill: #262626" transform="translate(21.826776 392.256797)scale(0.1 -0.1)">
       <defs>
        <path id="CMR17-39" d="M 2253 1871 
C 2253 448 1670 25 1190 25 
C 1043 25 685 43 538 281 
C 704 256 826 345 826 505 
C 826 678 685 736 595 736 
C 538 736 365 710 365 492 
C 365 68 742 -128 1203 -128 
C 1939 -128 2688 665 2688 2090 
C 2688 3857 1971 4224 1485 4224 
C 851 4224 243 3664 243 2800 
C 243 2000 762 1408 1414 1408 
C 1952 1408 2189 1910 2253 2122 
L 2253 1871 
z
M 1427 1510 
C 1254 1510 1011 1542 813 1929 
C 678 2181 678 2477 678 2793 
C 678 3174 678 3438 858 3722 
C 947 3857 1114 4076 1485 4076 
C 2240 4076 2240 2909 2240 2651 
C 2240 2193 2035 1510 1427 1510 
z
" transform="scale(0.015625)"/>
       </defs>
       <use xlink:href="#CMR17-31" transform="scale(0.996264)"/>
       <use xlink:href="#CMR17-30" transform="translate(45.690477 0)scale(0.996264)"/>
       <use xlink:href="#CMSY10-0" transform="translate(91.380954 36.153639)scale(0.697382)"/>
       <use xlink:href="#CMR17-39" transform="translate(145.621947 36.153639)scale(0.697382)"/>
      </g>
     </g>
    </g>
    <g id="ytick_2">
     <g id="line2d_10">
      <path d="M 44.987349 325.774498 
L 489.659251 325.774498 
" clip-path="url(#p4396fead1e)" style="fill: none; stroke-dasharray: 2.96,1.28; stroke-dashoffset: 0; stroke: #d3d3d3; stroke-opacity: 0.53; stroke-width: 0.8"/>
     </g>
     <g id="text_11">
      <!-- $\mathdefault{10^{-7}}$ -->
      <g style="fill: #262626" transform="translate(21.826776 329.233747)scale(0.1 -0.1)">
       <defs>
        <path id="CMR17-37" d="M 2886 3955 
L 2886 4096 
L 1382 4096 
C 634 4096 621 4166 595 4288 
L 480 4288 
L 294 3104 
L 410 3104 
C 429 3226 474 3552 550 3673 
C 589 3724 1062 3724 1171 3724 
L 2579 3724 
L 1869 2670 
C 1395 1961 1069 1003 1069 166 
C 1069 89 1069 -128 1299 -128 
C 1530 -128 1530 89 1530 172 
L 1530 466 
C 1530 1514 1709 2204 2003 2644 
L 2886 3955 
z
" transform="scale(0.015625)"/>
       </defs>
       <use xlink:href="#CMR17-31" transform="scale(0.996264)"/>
       <use xlink:href="#CMR17-30" transform="translate(45.690477 0)scale(0.996264)"/>
       <use xlink:href="#CMSY10-0" transform="translate(91.380954 36.153639)scale(0.697382)"/>
       <use xlink:href="#CMR17-37" transform="translate(145.621947 36.153639)scale(0.697382)"/>
      </g>
     </g>
    </g>
    <g id="ytick_3">
     <g id="line2d_11">
      <path d="M 44.987349 262.751448 
L 489.659251 262.751448 
" clip-path="url(#p4396fead1e)" style="fill: none; stroke-dasharray: 2.96,1.28; stroke-dashoffset: 0; stroke: #d3d3d3; stroke-opacity: 0.53; stroke-width: 0.8"/>
     </g>
     <g id="text_12">
      <!-- $\mathdefault{10^{-5}}$ -->
      <g style="fill: #262626" transform="translate(21.826776 266.210697)scale(0.1 -0.1)">
       <defs>
        <path id="CMR17-35" d="M 730 3750 
C 794 3724 1056 3641 1325 3641 
C 1920 3641 2246 3961 2432 4140 
C 2432 4191 2432 4224 2394 4224 
C 2387 4224 2374 4224 2323 4198 
C 2099 4102 1837 4032 1517 4032 
C 1325 4032 1037 4055 723 4191 
C 653 4224 640 4224 634 4224 
C 602 4224 595 4217 595 4090 
L 595 2231 
C 595 2113 595 2080 659 2080 
C 691 2080 704 2093 736 2139 
C 941 2435 1222 2560 1542 2560 
C 1766 2560 2246 2415 2246 1293 
C 2246 1087 2246 716 2054 422 
C 1894 159 1645 25 1370 25 
C 947 25 518 319 403 812 
C 429 806 480 793 506 793 
C 589 793 749 838 749 1036 
C 749 1209 627 1280 506 1280 
C 358 1280 262 1190 262 1011 
C 262 454 704 -128 1382 -128 
C 2042 -128 2669 441 2669 1267 
C 2669 2054 2170 2662 1549 2662 
C 1222 2662 947 2540 730 2304 
L 730 3750 
z
" transform="scale(0.015625)"/>
       </defs>
       <use xlink:href="#CMR17-31" transform="scale(0.996264)"/>
       <use xlink:href="#CMR17-30" transform="translate(45.690477 0)scale(0.996264)"/>
       <use xlink:href="#CMSY10-0" transform="translate(91.380954 36.153639)scale(0.697382)"/>
       <use xlink:href="#CMR17-35" transform="translate(145.621947 36.153639)scale(0.697382)"/>
      </g>
     </g>
    </g>
    <g id="ytick_4">
     <g id="line2d_12">
      <path d="M 44.987349 199.728398 
L 489.659251 199.728398 
" clip-path="url(#p4396fead1e)" style="fill: none; stroke-dasharray: 2.96,1.28; stroke-dashoffset: 0; stroke: #d3d3d3; stroke-opacity: 0.53; stroke-width: 0.8"/>
     </g>
     <g id="text_13">
      <!-- $\mathdefault{10^{-3}}$ -->
      <g style="fill: #262626" transform="translate(21.826776 203.187648)scale(0.1 -0.1)">
       <defs>
        <path id="CMR17-33" d="M 1414 2176 
C 1984 2176 2234 1673 2234 1094 
C 2234 322 1824 25 1453 25 
C 1114 25 563 193 390 691 
C 422 678 454 678 486 678 
C 640 678 755 780 755 947 
C 755 1132 614 1216 486 1216 
C 378 1216 211 1164 211 927 
C 211 335 787 -128 1466 -128 
C 2176 -128 2720 432 2720 1087 
C 2720 1718 2208 2176 1600 2246 
C 2086 2347 2554 2776 2554 3353 
C 2554 3856 2048 4224 1472 4224 
C 890 4224 378 3862 378 3347 
C 378 3123 544 3084 627 3084 
C 762 3084 877 3167 877 3334 
C 877 3500 762 3584 627 3584 
C 602 3584 570 3584 544 3571 
C 730 3999 1235 4076 1459 4076 
C 1683 4076 2106 3966 2106 3347 
C 2106 3167 2080 2851 1862 2574 
C 1670 2329 1453 2316 1242 2297 
C 1210 2297 1062 2284 1037 2284 
C 992 2278 966 2272 966 2227 
C 966 2182 973 2176 1101 2176 
L 1414 2176 
z
" transform="scale(0.015625)"/>
       </defs>
       <use xlink:href="#CMR17-31" transform="scale(0.996264)"/>
       <use xlink:href="#CMR17-30" transform="translate(45.690477 0)scale(0.996264)"/>
       <use xlink:href="#CMSY10-0" transform="translate(91.380954 36.153639)scale(0.697382)"/>
       <use xlink:href="#CMR17-33" transform="translate(145.621947 36.153639)scale(0.697382)"/>
      </g>
     </g>
    </g>
    <g id="ytick_5">
     <g id="line2d_13">
      <path d="M 44.987349 136.705349 
L 489.659251 136.705349 
" clip-path="url(#p4396fead1e)" style="fill: none; stroke-dasharray: 2.96,1.28; stroke-dashoffset: 0; stroke: #d3d3d3; stroke-opacity: 0.53; stroke-width: 0.8"/>
     </g>
     <g id="text_14">
      <!-- $\mathdefault{10^{-1}}$ -->
      <g style="fill: #262626" transform="translate(21.826776 140.164598)scale(0.1 -0.1)">
       <use xlink:href="#CMR17-31" transform="scale(0.996264)"/>
       <use xlink:href="#CMR17-30" transform="translate(45.690477 0)scale(0.996264)"/>
       <use xlink:href="#CMSY10-0" transform="translate(91.380954 36.153639)scale(0.697382)"/>
       <use xlink:href="#CMR17-31" transform="translate(145.621947 36.153639)scale(0.697382)"/>
      </g>
     </g>
    </g>
    <g id="ytick_6">
     <g id="line2d_14">
      <path d="M 44.987349 73.682299 
L 489.659251 73.682299 
" clip-path="url(#p4396fead1e)" style="fill: none; stroke-dasharray: 2.96,1.28; stroke-dashoffset: 0; stroke: #d3d3d3; stroke-opacity: 0.53; stroke-width: 0.8"/>
     </g>
     <g id="text_15">
      <!-- $\mathdefault{10^{1}}$ -->
      <g style="fill: #262626" transform="translate(28.053441 77.141548)scale(0.1 -0.1)">
       <use xlink:href="#CMR17-31" transform="scale(0.996264)"/>
       <use xlink:href="#CMR17-30" transform="translate(45.690477 0)scale(0.996264)"/>
       <use xlink:href="#CMR17-31" transform="translate(91.380954 36.153639)scale(0.697382)"/>
      </g>
     </g>
    </g>
    <g id="ytick_7">
     <g id="line2d_15">
      <path d="M 44.987349 10.659249 
L 489.659251 10.659249 
" clip-path="url(#p4396fead1e)" style="fill: none; stroke-dasharray: 2.96,1.28; stroke-dashoffset: 0; stroke: #d3d3d3; stroke-opacity: 0.53; stroke-width: 0.8"/>
     </g>
     <g id="text_16">
      <!-- $\mathdefault{10^{3}}$ -->
      <g style="fill: #262626" transform="translate(28.053441 14.118498)scale(0.1 -0.1)">
       <use xlink:href="#CMR17-31" transform="scale(0.996264)"/>
       <use xlink:href="#CMR17-30" transform="translate(45.690477 0)scale(0.996264)"/>
       <use xlink:href="#CMR17-33" transform="translate(91.380954 36.153639)scale(0.697382)"/>
      </g>
     </g>
    </g>
    <g id="text_17">
     <!-- \textbf{$\gamma$} -->
     <g style="fill: #262626" transform="translate(15.50218 202.764346)rotate(-90)scale(0.12 -0.12)">
      <defs>
       <path id="CMMI12-d" d="M 2419 785 
C 2406 1097 2394 1586 2150 2158 
C 2022 2476 1805 2816 1338 2816 
C 550 2816 122 1815 122 1649 
C 122 1592 166 1592 186 1592 
C 243 1592 243 1605 275 1688 
C 410 2081 819 2393 1261 2393 
C 2150 2393 2278 1408 2278 779 
C 2278 378 2234 245 2195 118 
C 2074 -276 1862 -1064 1862 -1242 
C 1862 -1293 1882 -1351 1933 -1351 
C 2029 -1351 2086 -1140 2157 -886 
C 2310 -327 2349 -47 2381 207 
C 2400 360 2765 1409 3270 2407 
C 3315 2509 3405 2681 3405 2700 
C 3405 2707 3398 2752 3341 2752 
C 3328 2752 3296 2752 3283 2726 
C 3270 2713 3046 2280 2854 1848 
C 2758 1630 2630 1344 2419 785 
z
" transform="scale(0.015625)"/>
      </defs>
      <use xlink:href="#CMMI12-d" transform="scale(0.996264)"/>
     </g>
    </g>
   </g>
   <g id="PathCollection_1">
    <path d="M 415.547267 235.370361 
C 417.836522 235.370361 420.032324 234.46083 421.651072 232.842082 
C 423.26982 231.223334 424.179351 229.027532 424.179351 226.738277 
C 424.179351 224.449022 423.26982 222.25322 421.651072 220.634472 
C 420.032324 219.015724 417.836522 218.106193 415.547267 218.106193 
C 413.258012 218.106193 411.06221 219.015724 409.443462 220.634472 
C 407.824714 222.25322 406.915183 224.449022 406.915183 226.738277 
C 406.915183 229.027532 407.824714 231.223334 409.443462 232.842082 
C 411.06221 234.46083 413.258012 235.370361 415.547267 235.370361 
z
" clip-path="url(#p4396fead1e)" style="fill: #2e1f3f; fill-opacity: 0.8"/>
    <path d="M 125.439688 142.765063 
C 127.728944 142.765063 129.924745 141.855532 131.543493 140.236784 
C 133.162241 138.618036 134.071772 136.422235 134.071772 134.132979 
C 134.071772 131.843724 133.162241 129.647922 131.543493 128.029174 
C 129.924745 126.410426 127.728944 125.500896 125.439688 125.500896 
C 123.150433 125.500896 120.954631 126.410426 119.335884 128.029174 
C 117.717136 129.647922 116.807605 131.843724 116.807605 134.132979 
C 116.807605 136.422235 117.717136 138.618036 119.335884 140.236784 
C 120.954631 141.855532 123.150433 142.765063 125.439688 142.765063 
z
" clip-path="url(#p4396fead1e)" style="fill: #2e1f3f; fill-opacity: 0.8"/>
    <path d="M 185.878767 189.067712 
C 188.168023 189.067712 190.363824 188.158181 191.982572 186.539433 
C 193.60132 184.920685 194.510851 182.724883 194.510851 180.435628 
C 194.510851 178.146373 193.60132 175.950571 191.982572 174.331823 
C 190.363824 172.713075 188.168023 171.803545 185.878767 171.803545 
C 183.589512 171.803545 181.39371 172.713075 179.774962 174.331823 
C 178.156214 175.950571 177.246684 178.146373 177.246684 180.435628 
C 177.246684 182.724883 178.156214 184.920685 179.774962 186.539433 
C 181.39371 188.158181 183.589512 189.067712 185.878767 189.067712 
z
" clip-path="url(#p4396fead1e)" style="fill: #2e1f3f; fill-opacity: 0.8"/>
    <path d="M 252.361754 227.62499 
C 254.643514 227.62499 256.832126 226.718437 258.445574 225.104989 
C 260.059022 223.491541 260.965575 221.302929 260.965575 219.021169 
C 260.965575 216.739409 260.059022 214.550797 258.445574 212.937349 
C 256.832126 211.323901 254.643514 210.417348 252.361754 210.417348 
C 250.079994 210.417348 247.891382 211.323901 246.277934 212.937349 
C 244.664486 214.550797 243.757933 216.739409 243.757933 219.021169 
C 243.757933 221.302929 244.664486 223.491541 246.277934 225.104989 
C 247.891382 226.718437 250.079994 227.62499 252.361754 227.62499 
z
" clip-path="url(#p4396fead1e)" style="fill: #2f2041; fill-opacity: 0.8"/>
    <path d="M 216.098307 227.61791 
C 218.378189 227.61791 220.565 226.712103 222.17712 225.099982 
C 223.789241 223.487862 224.695047 221.301051 224.695047 219.021169 
C 224.695047 216.741286 223.789241 214.554475 222.17712 212.942355 
C 220.565 211.330235 218.378189 210.424428 216.098307 210.424428 
C 213.818424 210.424428 211.631613 211.330235 210.019493 212.942355 
C 208.407373 214.554475 207.501566 216.741286 207.501566 219.021169 
C 207.501566 221.301051 208.407373 223.487862 210.019493 225.099982 
C 211.631613 226.712103 213.818424 227.61791 216.098307 227.61791 
z
" clip-path="url(#p4396fead1e)" style="fill: #312042; fill-opacity: 0.8"/>
    <path d="M 300.713017 243.059206 
C 302.994777 243.059206 305.183389 242.152653 306.796837 240.539205 
C 308.410285 238.925757 309.316838 236.737145 309.316838 234.455385 
C 309.316838 232.173625 308.410285 229.985013 306.796837 228.371565 
C 305.183389 226.758117 302.994777 225.851564 300.713017 225.851564 
C 298.431257 225.851564 296.242645 226.758117 294.629197 228.371565 
C 293.015749 229.985013 292.109196 232.173625 292.109196 234.455385 
C 292.109196 236.737145 293.015749 238.925757 294.629197 240.539205 
C 296.242645 242.152653 298.431257 243.059206 300.713017 243.059206 
z
" clip-path="url(#p4396fead1e)" style="fill: #2f2041; fill-opacity: 0.8"/>
    <path d="M 210.054399 127.210082 
C 212.311627 127.210082 214.476709 126.313276 216.07281 124.717175 
C 217.668912 123.121073 218.565718 120.955991 218.565718 118.698763 
C 218.565718 116.441535 217.668912 114.276453 216.07281 112.680352 
C 214.476709 111.08425 212.311627 110.187444 210.054399 110.187444 
C 207.797171 110.187444 205.632089 111.08425 204.035987 112.680352 
C 202.439886 114.276453 201.54308 116.441535 201.54308 118.698763 
C 201.54308 120.955991 202.439886 123.121073 204.035987 124.717175 
C 205.632089 126.313276 207.797171 127.210082 210.054399 127.210082 
z
" clip-path="url(#p4396fead1e)" style="fill: #352346; fill-opacity: 0.8"/>
    <path d="M 125.439688 127.210082 
C 127.696917 127.210082 129.861999 126.313276 131.4581 124.717175 
C 133.054201 123.121073 133.951008 120.955991 133.951008 118.698763 
C 133.951008 116.441535 133.054201 114.276453 131.4581 112.680352 
C 129.861999 111.08425 127.696917 110.187444 125.439688 110.187444 
C 123.18246 110.187444 121.017378 111.08425 119.421277 112.680352 
C 117.825175 114.276453 116.928369 116.441535 116.928369 118.698763 
C 116.928369 120.955991 117.825175 123.121073 119.421277 124.717175 
C 121.017378 126.313276 123.18246 127.210082 125.439688 127.210082 
z
" clip-path="url(#p4396fead1e)" style="fill: #352346; fill-opacity: 0.8"/>
    <path d="M 330.932557 119.492974 
C 333.189785 119.492974 335.354867 118.596168 336.950968 117.000066 
C 338.547069 115.403965 339.443876 113.238883 339.443876 110.981655 
C 339.443876 108.724427 338.547069 106.559345 336.950968 104.963243 
C 335.354867 103.367142 333.189785 102.470336 330.932557 102.470336 
C 328.675328 102.470336 326.510246 103.367142 324.914145 104.963243 
C 323.318044 106.559345 322.421237 108.724427 322.421237 110.981655 
C 322.421237 113.238883 323.318044 115.403965 324.914145 117.000066 
C 326.510246 118.596168 328.675328 119.492974 330.932557 119.492974 
z
" clip-path="url(#p4396fead1e)" style="fill: #352346; fill-opacity: 0.8"/>
    <path d="M 391.371635 88.092832 
C 393.487853 88.092832 395.51768 87.25205 397.014072 85.755659 
C 398.510463 84.259267 399.351245 82.22944 399.351245 80.113222 
C 399.351245 77.997005 398.510463 75.967178 397.014072 74.470786 
C 395.51768 72.974395 393.487853 72.133613 391.371635 72.133613 
C 389.255418 72.133613 387.225591 72.974395 385.729199 74.470786 
C 384.232808 75.967178 383.392026 77.997005 383.392026 80.113222 
C 383.392026 82.22944 384.232808 84.259267 385.729199 85.755659 
C 387.225591 87.25205 389.255418 88.092832 391.371635 88.092832 
z
" clip-path="url(#p4396fead1e)" style="fill: #583463; fill-opacity: 0.8"/>
    <path d="M 137.527504 227.23393 
C 139.705554 227.23393 141.79469 226.368582 143.334803 224.828468 
C 144.874917 223.288354 145.740265 221.199219 145.740265 219.021169 
C 145.740265 216.843119 144.874917 214.753983 143.334803 213.21387 
C 141.79469 211.673756 139.705554 210.808407 137.527504 210.808407 
C 135.349454 210.808407 133.260319 211.673756 131.720205 213.21387 
C 130.180091 214.753983 129.314743 216.843119 129.314743 219.021169 
C 129.314743 221.199219 130.180091 223.288354 131.720205 224.828468 
C 133.260319 226.368582 135.349454 227.23393 137.527504 227.23393 
z
" clip-path="url(#p4396fead1e)" style="fill: #492d58; fill-opacity: 0.8"/>
    <path d="M 294.669109 358.33531 
C 296.823434 358.33531 298.889814 357.479388 300.413152 355.95605 
C 301.93649 354.432712 302.792412 352.366332 302.792412 350.212007 
C 302.792412 348.057682 301.93649 345.991302 300.413152 344.467964 
C 298.889814 342.944627 296.823434 342.088704 294.669109 342.088704 
C 292.514784 342.088704 290.448404 342.944627 288.925067 344.467964 
C 287.401729 345.991302 286.545806 348.057682 286.545806 350.212007 
C 286.545806 352.366332 287.401729 354.432712 288.925067 355.95605 
C 290.448404 357.479388 292.514784 358.33531 294.669109 358.33531 
z
" clip-path="url(#p4396fead1e)" style="fill: #4f305c; fill-opacity: 0.8"/>
    <path d="M 312.800833 250.42962 
C 314.990649 250.42962 317.09107 249.559597 318.639503 248.011164 
C 320.187937 246.46273 321.05796 244.362309 321.05796 242.172493 
C 321.05796 239.982677 320.187937 237.882256 318.639503 236.333823 
C 317.09107 234.785389 314.990649 233.915366 312.800833 233.915366 
C 310.611017 233.915366 308.510596 234.785389 306.962162 236.333823 
C 305.413729 237.882256 304.543706 239.982677 304.543706 242.172493 
C 304.543706 244.362309 305.413729 246.46273 306.962162 248.011164 
C 308.510596 249.559597 310.611017 250.42962 312.800833 250.42962 
z
" clip-path="url(#p4396fead1e)" style="fill: #462b55; fill-opacity: 0.8"/>
    <path d="M 246.317846 119.201827 
C 248.497861 119.201827 250.588882 118.335698 252.130386 116.794194 
C 253.671889 115.252691 254.538018 113.16167 254.538018 110.981655 
C 254.538018 108.80164 253.671889 106.710619 252.130386 105.169115 
C 250.588882 103.627612 248.497861 102.761483 246.317846 102.761483 
C 244.137831 102.761483 242.04681 103.627612 240.505307 105.169115 
C 238.963803 106.710619 238.097674 108.80164 238.097674 110.981655 
C 238.097674 113.16167 238.963803 115.252691 240.505307 116.794194 
C 242.04681 118.335698 244.137831 119.201827 246.317846 119.201827 
z
" clip-path="url(#p4396fead1e)" style="fill: #492d58; fill-opacity: 0.8"/>
    <path d="M 276.537386 358.432179 
C 278.717401 358.432179 280.808422 357.56605 282.349925 356.024547 
C 283.891429 354.483043 284.757558 352.392022 284.757558 350.212007 
C 284.757558 348.031992 283.891429 345.940971 282.349925 344.399468 
C 280.808422 342.857964 278.717401 341.991835 276.537386 341.991835 
C 274.35737 341.991835 272.26635 342.857964 270.724846 344.399468 
C 269.183343 345.940971 268.317213 348.031992 268.317213 350.212007 
C 268.317213 352.392022 269.183343 354.483043 270.724846 356.024547 
C 272.26635 357.56605 274.35737 358.432179 276.537386 358.432179 
z
" clip-path="url(#p4396fead1e)" style="fill: #492d58; fill-opacity: 0.8"/>
    <path d="M 191.922675 135.026767 
C 194.206311 135.026767 196.396723 134.119468 198.011498 132.504694 
C 199.626272 130.889919 200.53357 128.699507 200.53357 126.415871 
C 200.53357 124.132235 199.626272 121.941823 198.011498 120.327049 
C 196.396723 118.712274 194.206311 117.804976 191.922675 117.804976 
C 189.639039 117.804976 187.448627 118.712274 185.833853 120.327049 
C 184.219078 121.941823 183.31178 124.132235 183.31178 126.415871 
C 183.31178 128.699507 184.219078 130.889919 185.833853 132.504694 
C 187.448627 134.119468 189.639039 135.026767 191.922675 135.026767 
z
" clip-path="url(#p4396fead1e)" style="fill: #2f2041; fill-opacity: 0.8"/>
    <path d="M 294.669109 281.65889 
C 296.95462 281.65889 299.14683 280.750847 300.76293 279.134746 
C 302.37903 277.518646 303.287073 275.326436 303.287073 273.040926 
C 303.287073 270.755415 302.37903 268.563205 300.76293 266.947105 
C 299.14683 265.331005 296.95462 264.422962 294.669109 264.422962 
C 292.383598 264.422962 290.191389 265.331005 288.575288 266.947105 
C 286.959188 268.563205 286.051145 270.755415 286.051145 273.040926 
C 286.051145 275.326436 286.959188 277.518646 288.575288 279.134746 
C 290.191389 280.750847 292.383598 281.65889 294.669109 281.65889 
z
" clip-path="url(#p4396fead1e)" style="fill: #2e1f3f; fill-opacity: 0.8"/>
    <path d="M 143.571412 111.868368 
C 145.853172 111.868368 148.041784 110.961815 149.655232 109.348367 
C 151.26868 107.734919 152.175233 105.546307 152.175233 103.264547 
C 152.175233 100.982787 151.26868 98.794175 149.655232 97.180727 
C 148.041784 95.567279 145.853172 94.660726 143.571412 94.660726 
C 141.289652 94.660726 139.10104 95.567279 137.487592 97.180727 
C 135.874144 98.794175 134.967591 100.982787 134.967591 103.264547 
C 134.967591 105.546307 135.874144 107.734919 137.487592 109.348367 
C 139.10104 110.961815 141.289652 111.868368 143.571412 111.868368 
z
" clip-path="url(#p4396fead1e)" style="fill: #2f2041; fill-opacity: 0.8"/>
    <path d="M 276.537386 219.81538 
C 278.794614 219.81538 280.959696 218.918574 282.555797 217.322472 
C 284.151898 215.726371 285.048705 213.561289 285.048705 211.304061 
C 285.048705 209.046832 284.151898 206.881751 282.555797 205.285649 
C 280.959696 203.689548 278.794614 202.792741 276.537386 202.792741 
C 274.280157 202.792741 272.115075 203.689548 270.518974 205.285649 
C 268.922873 206.881751 268.026066 209.046832 268.026066 211.304061 
C 268.026066 213.561289 268.922873 215.726371 270.518974 217.322472 
C 272.115075 218.918574 274.280157 219.81538 276.537386 219.81538 
z
" clip-path="url(#p4396fead1e)" style="fill: #352346; fill-opacity: 0.8"/>
    <path d="M 312.800833 188.93979 
C 315.056163 188.93979 317.219424 188.043738 318.814184 186.448979 
C 320.408943 184.85422 321.304995 182.690958 321.304995 180.435628 
C 321.304995 178.180298 320.408943 176.017037 318.814184 174.422277 
C 317.219424 172.827518 315.056163 171.931466 312.800833 171.931466 
C 310.545503 171.931466 308.382241 172.827518 306.787482 174.422277 
C 305.192723 176.017037 304.296671 178.180298 304.296671 180.435628 
C 304.296671 182.690958 305.192723 184.85422 306.787482 186.448979 
C 308.382241 188.043738 310.545503 188.93979 312.800833 188.93979 
z
" clip-path="url(#p4396fead1e)" style="fill: #362347; fill-opacity: 0.8"/>
    <path d="M 197.966583 219.81538 
C 200.223811 219.81538 202.388893 218.918574 203.984995 217.322472 
C 205.581096 215.726371 206.477902 213.561289 206.477902 211.304061 
C 206.477902 209.046832 205.581096 206.881751 203.984995 205.285649 
C 202.388893 203.689548 200.223811 202.792741 197.966583 202.792741 
C 195.709355 202.792741 193.544273 203.689548 191.948171 205.285649 
C 190.35207 206.881751 189.455264 209.046832 189.455264 211.304061 
C 189.455264 213.561289 190.35207 215.726371 191.948171 217.322472 
C 193.544273 218.918574 195.709355 219.81538 197.966583 219.81538 
z
" clip-path="url(#p4396fead1e)" style="fill: #352346; fill-opacity: 0.8"/>
    <path d="M 228.186122 250.444356 
C 230.379846 250.444356 232.484016 249.57278 234.035213 248.021583 
C 235.58641 246.470387 236.457985 244.366217 236.457985 242.172493 
C 236.457985 239.97877 235.58641 237.8746 234.035213 236.323403 
C 232.484016 234.772206 230.379846 233.90063 228.186122 233.90063 
C 225.992399 233.90063 223.888229 234.772206 222.337032 236.323403 
C 220.785835 237.8746 219.91426 239.97877 219.91426 242.172493 
C 219.91426 244.366217 220.785835 246.470387 222.337032 248.021583 
C 223.888229 249.57278 225.992399 250.444356 228.186122 250.444356 
z
" clip-path="url(#p4396fead1e)" style="fill: #452b54; fill-opacity: 0.8"/>
    <path d="M 355.108188 165.233331 
C 357.216295 165.233331 359.238343 164.395772 360.728999 162.905115 
C 362.219656 161.414458 363.057216 159.39241 363.057216 157.284304 
C 363.057216 155.176197 362.219656 153.154149 360.728999 151.663492 
C 359.238343 150.172836 357.216295 149.335276 355.108188 149.335276 
C 353.000081 149.335276 350.978033 150.172836 349.487377 151.663492 
C 347.99672 153.154149 347.15916 155.176197 347.15916 157.284304 
C 347.15916 159.39241 347.99672 161.414458 349.487377 162.905115 
C 350.978033 164.395772 353.000081 165.233331 355.108188 165.233331 
z
" clip-path="url(#p4396fead1e)" style="fill: #5b3665; fill-opacity: 0.8"/>
    <path d="M 397.415543 180.682853 
C 399.527709 180.682853 401.553651 179.843681 403.047177 178.350154 
C 404.540704 176.856627 405.379877 174.830686 405.379877 172.71852 
C 405.379877 170.606354 404.540704 168.580413 403.047177 167.086886 
C 401.553651 165.593359 399.527709 164.754187 397.415543 164.754187 
C 395.303377 164.754187 393.277436 165.593359 391.783909 167.086886 
C 390.290382 168.580413 389.45121 170.606354 389.45121 172.71852 
C 389.45121 174.830686 390.290382 176.856627 391.783909 178.350154 
C 393.277436 179.843681 395.303377 180.682853 397.415543 180.682853 
z
" clip-path="url(#p4396fead1e)" style="fill: #593564; fill-opacity: 0.8"/>
    <path d="M 137.527504 94.422612 
C 139.275798 94.422612 140.952721 93.728008 142.188951 92.491778 
C 143.425182 91.255547 144.119786 89.578624 144.119786 87.830331 
C 144.119786 86.082037 143.425182 84.405114 142.188951 83.168883 
C 140.952721 81.932653 139.275798 81.238049 137.527504 81.238049 
C 135.779211 81.238049 134.102287 81.932653 132.866057 83.168883 
C 131.629827 84.405114 130.935222 86.082037 130.935222 87.830331 
C 130.935222 89.578624 131.629827 91.255547 132.866057 92.491778 
C 134.102287 93.728008 135.779211 94.422612 137.527504 94.422612 
z
" clip-path="url(#p4396fead1e)" style="fill: #a4638d; fill-opacity: 0.8"/>
    <path d="M 246.317846 364.594882 
C 248.085628 364.594882 249.781244 363.892535 251.031255 362.642524 
C 252.281266 361.392513 252.983613 359.696897 252.983613 357.929115 
C 252.983613 356.161333 252.281266 354.465717 251.031255 353.215706 
C 249.781244 351.965696 248.085628 351.263349 246.317846 351.263349 
C 244.550064 351.263349 242.854448 351.965696 241.604437 353.215706 
C 240.354427 354.465717 239.652079 356.161333 239.652079 357.929115 
C 239.652079 359.696897 240.354427 361.392513 241.604437 362.642524 
C 242.854448 363.892535 244.550064 364.594882 246.317846 364.594882 
z
" clip-path="url(#p4396fead1e)" style="fill: #a2618c; fill-opacity: 0.8"/>
    <path d="M 385.327727 372.256953 
C 387.080913 372.256953 388.76253 371.560405 390.002219 370.320715 
C 391.241909 369.081025 391.938457 367.399409 391.938457 365.646223 
C 391.938457 363.893037 391.241909 362.211421 390.002219 360.971732 
C 388.76253 359.732042 387.080913 359.035494 385.327727 359.035494 
C 383.574542 359.035494 381.892925 359.732042 380.653236 360.971732 
C 379.413546 362.211421 378.716998 363.893037 378.716998 365.646223 
C 378.716998 367.399409 379.413546 369.081025 380.653236 370.320715 
C 381.892925 371.560405 383.574542 372.256953 385.327727 372.256953 
z
" clip-path="url(#p4396fead1e)" style="fill: #a3628c; fill-opacity: 0.8"/>
    <path d="M 222.142215 90.808884 
C 222.932136 90.808884 223.689811 90.495045 224.24837 89.936486 
C 224.806929 89.377927 225.120768 88.620252 225.120768 87.830331 
C 225.120768 87.040409 224.806929 86.282734 224.24837 85.724175 
C 223.689811 85.165616 222.932136 84.851777 222.142215 84.851777 
C 221.352293 84.851777 220.594618 85.165616 220.036059 85.724175 
C 219.4775 86.282734 219.163661 87.040409 219.163661 87.830331 
C 219.163661 88.620252 219.4775 89.377927 220.036059 89.936486 
C 220.594618 90.495045 221.352293 90.808884 222.142215 90.808884 
z
" clip-path="url(#p4396fead1e)" style="fill: #edd1cb; fill-opacity: 0.8"/>
    <path d="M 125.439688 121.817138 
C 126.266691 121.817138 127.059933 121.488567 127.644713 120.903787 
C 128.229492 120.319008 128.558064 119.525766 128.558064 118.698763 
C 128.558064 117.87176 128.229492 117.078518 127.644713 116.493739 
C 127.059933 115.908959 126.266691 115.580388 125.439688 115.580388 
C 124.612686 115.580388 123.819443 115.908959 123.234664 116.493739 
C 122.649885 117.078518 122.321313 117.87176 122.321313 118.698763 
C 122.321313 119.525766 122.649885 120.319008 123.234664 120.903787 
C 123.819443 121.488567 124.612686 121.817138 125.439688 121.817138 
z
" clip-path="url(#p4396fead1e)" style="fill: #edcfc9; fill-opacity: 0.8"/>
    <path d="M 294.669109 98.505479 
C 295.453591 98.505479 296.206047 98.193801 296.760759 97.639089 
C 297.315471 97.084377 297.627149 96.33192 297.627149 95.547439 
C 297.627149 94.762957 297.315471 94.010501 296.760759 93.455789 
C 296.206047 92.901077 295.453591 92.589399 294.669109 92.589399 
C 293.884628 92.589399 293.132171 92.901077 292.577459 93.455789 
C 292.022747 94.010501 291.711069 94.762957 291.711069 95.547439 
C 291.711069 96.33192 292.022747 97.084377 292.577459 97.639089 
C 293.132171 98.193801 293.884628 98.505479 294.669109 98.505479 
z
" clip-path="url(#p4396fead1e)" style="fill: #edd1cb; fill-opacity: 0.8"/>
    <path d="M 143.571412 219.950241 
C 145.864406 219.950241 148.063793 219.039225 149.685185 217.417833 
C 151.306576 215.796442 152.217592 213.597054 152.217592 211.304061 
C 152.217592 209.011067 151.306576 206.811679 149.685185 205.190288 
C 148.063793 203.568896 145.864406 202.65788 143.571412 202.65788 
C 141.278418 202.65788 139.079031 203.568896 137.457639 205.190288 
C 135.836248 206.811679 134.925232 209.011067 134.925232 211.304061 
C 134.925232 213.597054 135.836248 215.796442 137.457639 217.417833 
C 139.079031 219.039225 141.278418 219.950241 143.571412 219.950241 
z
" clip-path="url(#p4396fead1e)" style="fill: #2d1e3e; fill-opacity: 0.8"/>
    <path d="M 119.39578 243.101565 
C 121.688774 243.101565 123.888162 242.190549 125.509553 240.569158 
C 127.130945 238.947766 128.041961 236.748379 128.041961 234.455385 
C 128.041961 232.162391 127.130945 229.963004 125.509553 228.341612 
C 123.888162 226.720221 121.688774 225.809205 119.39578 225.809205 
C 117.102787 225.809205 114.903399 226.720221 113.282008 228.341612 
C 111.660616 229.963004 110.7496 232.162391 110.7496 234.455385 
C 110.7496 236.748379 111.660616 238.947766 113.282008 240.569158 
C 114.903399 242.190549 117.102787 243.101565 119.39578 243.101565 
z
" clip-path="url(#p4396fead1e)" style="fill: #2d1e3e; fill-opacity: 0.8"/>
    <path d="M 185.878767 150.496268 
C 188.171761 150.496268 190.371148 149.585252 191.99254 147.96386 
C 193.613931 146.342469 194.524948 144.143081 194.524948 141.850087 
C 194.524948 139.557094 193.613931 137.357706 191.99254 135.736315 
C 190.371148 134.114923 188.171761 133.203907 185.878767 133.203907 
C 183.585773 133.203907 181.386386 134.114923 179.764995 135.736315 
C 178.143603 137.357706 177.232587 139.557094 177.232587 141.850087 
C 177.232587 144.143081 178.143603 146.342469 179.764995 147.96386 
C 181.386386 149.585252 183.585773 150.496268 185.878767 150.496268 
z
" clip-path="url(#p4396fead1e)" style="fill: #2d1e3e; fill-opacity: 0.8"/>
    <path d="M 210.054399 126.563077 
C 212.140039 126.563077 214.140538 125.734443 215.615308 124.259672 
C 217.090079 122.784902 217.918712 120.784403 217.918712 118.698763 
C 217.918712 116.613123 217.090079 114.612624 215.615308 113.137854 
C 214.140538 111.663083 212.140039 110.83445 210.054399 110.83445 
C 207.968758 110.83445 205.96826 111.663083 204.493489 113.137854 
C 203.018719 114.612624 202.190085 116.613123 202.190085 118.698763 
C 202.190085 120.784403 203.018719 122.784902 204.493489 124.259672 
C 205.96826 125.734443 207.968758 126.563077 210.054399 126.563077 
z
" clip-path="url(#p4396fead1e)" style="fill: #5f3868; fill-opacity: 0.8"/>
    <path d="M 125.439688 126.570815 
C 127.527381 126.570815 129.529848 125.741366 131.00607 124.265145 
C 132.482292 122.788923 133.311741 120.786456 133.311741 118.698763 
C 133.311741 116.61107 132.482292 114.608603 131.00607 113.132381 
C 129.529848 111.65616 127.527381 110.826711 125.439688 110.826711 
C 123.351996 110.826711 121.349528 111.65616 119.873307 113.132381 
C 118.397085 114.608603 117.567636 116.61107 117.567636 118.698763 
C 117.567636 120.786456 118.397085 122.788923 119.873307 124.265145 
C 121.349528 125.741366 123.351996 126.570815 125.439688 126.570815 
z
" clip-path="url(#p4396fead1e)" style="fill: #5f3868; fill-opacity: 0.8"/>
    <path d="M 119.39578 257.823294 
C 121.49982 257.823294 123.517967 256.98735 125.005748 255.499569 
C 126.493529 254.011788 127.329473 251.993641 127.329473 249.889601 
C 127.329473 247.785562 126.493529 245.767414 125.005748 244.279634 
C 123.517967 242.791853 121.49982 241.955909 119.39578 241.955909 
C 117.291741 241.955909 115.273594 242.791853 113.785813 244.279634 
C 112.298032 245.767414 111.462088 247.785562 111.462088 249.889601 
C 111.462088 251.993641 112.298032 254.011788 113.785813 255.499569 
C 115.273594 256.98735 117.291741 257.823294 119.39578 257.823294 
z
" clip-path="url(#p4396fead1e)" style="fill: #5b3665; fill-opacity: 0.8"/>
    <path d="M 330.932557 250.662323 
C 333.184086 250.662323 335.343701 249.767781 336.935773 248.175709 
C 338.527844 246.583638 339.422386 244.424022 339.422386 242.172493 
C 339.422386 239.920964 338.527844 237.761349 336.935773 236.169277 
C 335.343701 234.577206 333.184086 233.682664 330.932557 233.682664 
C 328.681027 233.682664 326.521412 234.577206 324.92934 236.169277 
C 323.337269 237.761349 322.442727 239.920964 322.442727 242.172493 
C 322.442727 244.424022 323.337269 246.583638 324.92934 248.175709 
C 326.521412 249.767781 328.681027 250.662323 330.932557 250.662323 
z
" clip-path="url(#p4396fead1e)" style="fill: #382449; fill-opacity: 0.8"/>
    <path d="M 155.659228 134.833672 
C 157.891655 134.833672 160.032948 133.94672 161.611512 132.368155 
C 163.190076 130.789591 164.077029 128.648298 164.077029 126.415871 
C 164.077029 124.183444 163.190076 122.042151 161.611512 120.463587 
C 160.032948 118.885023 157.891655 117.99807 155.659228 117.99807 
C 153.426801 117.99807 151.285508 118.885023 149.706944 120.463587 
C 148.128379 122.042151 147.241427 124.183444 147.241427 126.415871 
C 147.241427 128.648298 148.128379 130.789591 149.706944 132.368155 
C 151.285508 133.94672 153.426801 134.833672 155.659228 134.833672 
z
" clip-path="url(#p4396fead1e)" style="fill: #3b264b; fill-opacity: 0.8"/>
    <path d="M 300.713017 242.92367 
C 302.958833 242.92367 305.112968 242.031398 306.700999 240.443367 
C 308.28903 238.855336 309.181302 236.701201 309.181302 234.455385 
C 309.181302 232.20957 308.28903 230.055434 306.700999 228.467403 
C 305.112968 226.879372 302.958833 225.9871 300.713017 225.9871 
C 298.467202 225.9871 296.313066 226.879372 294.725035 228.467403 
C 293.137004 230.055434 292.244732 232.20957 292.244732 234.455385 
C 292.244732 236.701201 293.137004 238.855336 294.725035 240.443367 
C 296.313066 242.031398 298.467202 242.92367 300.713017 242.92367 
z
" clip-path="url(#p4396fead1e)" style="fill: #382449; fill-opacity: 0.8"/>
    <path d="M 210.054399 127.316727 
C 212.33991 127.316727 214.532119 126.408684 216.148219 124.792584 
C 217.76432 123.176484 218.672363 120.984274 218.672363 118.698763 
C 218.672363 116.413252 217.76432 114.221042 216.148219 112.604942 
C 214.532119 110.988842 212.33991 110.080799 210.054399 110.080799 
C 207.768888 110.080799 205.576678 110.988842 203.960578 112.604942 
C 202.344478 114.221042 201.436435 116.413252 201.436435 118.698763 
C 201.436435 120.984274 202.344478 123.176484 203.960578 124.792584 
C 205.576678 126.408684 207.768888 127.316727 210.054399 127.316727 
z
" clip-path="url(#p4396fead1e)" style="fill: #2e1f3f; fill-opacity: 0.8"/>
    <path d="M 415.547267 150.475114 
C 417.834651 150.475114 420.028657 149.566327 421.646082 147.948902 
C 423.263506 146.331478 424.172294 144.137471 424.172294 141.850087 
C 424.172294 139.562704 423.263506 137.368697 421.646082 135.751273 
C 420.028657 134.133848 417.834651 133.225061 415.547267 133.225061 
C 413.259883 133.225061 411.065877 134.133848 409.448452 135.751273 
C 407.831028 137.368697 406.92224 139.562704 406.92224 141.850087 
C 406.92224 144.137471 407.831028 146.331478 409.448452 147.948902 
C 411.065877 149.566327 413.259883 150.475114 415.547267 150.475114 
z
" clip-path="url(#p4396fead1e)" style="fill: #2e1f3f; fill-opacity: 0.8"/>
    <path d="M 185.878767 150.475114 
C 188.166151 150.475114 190.360157 149.566327 191.977582 147.948902 
C 193.595007 146.331478 194.503794 144.137471 194.503794 141.850087 
C 194.503794 139.562704 193.595007 137.368697 191.977582 135.751273 
C 190.360157 134.133848 188.166151 133.225061 185.878767 133.225061 
C 183.591383 133.225061 181.397377 134.133848 179.779952 135.751273 
C 178.162528 137.368697 177.253741 139.562704 177.253741 141.850087 
C 177.253741 144.137471 178.162528 146.331478 179.779952 147.948902 
C 181.397377 149.566327 183.591383 150.475114 185.878767 150.475114 
z
" clip-path="url(#p4396fead1e)" style="fill: #2e1f3f; fill-opacity: 0.8"/>
    <path d="M 179.834859 142.77916 
C 182.127853 142.77916 184.327241 141.868144 185.948632 140.246752 
C 187.570024 138.625361 188.48104 136.425973 188.48104 134.132979 
C 188.48104 131.839986 187.570024 129.640598 185.948632 128.019207 
C 184.327241 126.397815 182.127853 125.486799 179.834859 125.486799 
C 177.541866 125.486799 175.342478 126.397815 173.721087 128.019207 
C 172.099695 129.640598 171.188679 131.839986 171.188679 134.132979 
C 171.188679 136.425973 172.099695 138.625361 173.721087 140.246752 
C 175.342478 141.868144 177.541866 142.77916 179.834859 142.77916 
z
" clip-path="url(#p4396fead1e)" style="fill: #2d1e3e; fill-opacity: 0.8"/>
    <path d="M 125.439688 142.77916 
C 127.732682 142.77916 129.93207 141.868144 131.553461 140.246752 
C 133.174853 138.625361 134.085869 136.425973 134.085869 134.132979 
C 134.085869 131.839986 133.174853 129.640598 131.553461 128.019207 
C 129.93207 126.397815 127.732682 125.486799 125.439688 125.486799 
C 123.146695 125.486799 120.947307 126.397815 119.325916 128.019207 
C 117.704524 129.640598 116.793508 131.839986 116.793508 134.132979 
C 116.793508 136.425973 117.704524 138.625361 119.325916 140.246752 
C 120.947307 141.868144 123.146695 142.77916 125.439688 142.77916 
z
" clip-path="url(#p4396fead1e)" style="fill: #2d1e3e; fill-opacity: 0.8"/>
    <path d="M 185.878767 150.496268 
C 188.171761 150.496268 190.371148 149.585252 191.99254 147.96386 
C 193.613931 146.342469 194.524948 144.143081 194.524948 141.850087 
C 194.524948 139.557094 193.613931 137.357706 191.99254 135.736315 
C 190.371148 134.114923 188.171761 133.203907 185.878767 133.203907 
C 183.585773 133.203907 181.386386 134.114923 179.764995 135.736315 
C 178.143603 137.357706 177.232587 139.557094 177.232587 141.850087 
C 177.232587 144.143081 178.143603 146.342469 179.764995 147.96386 
C 181.386386 149.585252 183.585773 150.496268 185.878767 150.496268 
z
" clip-path="url(#p4396fead1e)" style="fill: #2d1e3e; fill-opacity: 0.8"/>
    <path d="M 312.800833 250.818673 
C 315.093827 250.818673 317.293214 249.907657 318.914606 248.286266 
C 320.535997 246.664874 321.447013 244.465487 321.447013 242.172493 
C 321.447013 239.879499 320.535997 237.680112 318.914606 236.05872 
C 317.293214 234.437329 315.093827 233.526313 312.800833 233.526313 
C 310.507839 233.526313 308.308452 234.437329 306.68706 236.05872 
C 305.065669 237.680112 304.154653 239.879499 304.154653 242.172493 
C 304.154653 244.465487 305.065669 246.664874 306.68706 248.286266 
C 308.308452 249.907657 310.507839 250.818673 312.800833 250.818673 
z
" clip-path="url(#p4396fead1e)" style="fill: #2d1e3e; fill-opacity: 0.8"/>
    <path d="M 258.405662 181.357655 
C 260.696787 181.357655 262.894382 180.447381 264.514453 178.827311 
C 266.134523 177.207241 267.044797 175.009645 267.044797 172.71852 
C 267.044797 170.427395 266.134523 168.229799 264.514453 166.609729 
C 262.894382 164.989659 260.696787 164.079385 258.405662 164.079385 
C 256.114537 164.079385 253.916941 164.989659 252.296871 166.609729 
C 250.676801 168.229799 249.766527 170.427395 249.766527 172.71852 
C 249.766527 175.009645 250.676801 177.207241 252.296871 178.827311 
C 253.916941 180.447381 256.114537 181.357655 258.405662 181.357655 
z
" clip-path="url(#p4396fead1e)" style="fill: #2e1f3f; fill-opacity: 0.8"/>
    <path d="M 197.966583 219.943195 
C 200.257708 219.943195 202.455304 219.032922 204.075374 217.412851 
C 205.695444 215.792781 206.605718 213.595186 206.605718 211.304061 
C 206.605718 209.012935 205.695444 206.81534 204.075374 205.19527 
C 202.455304 203.5752 200.257708 202.664926 197.966583 202.664926 
C 195.675458 202.664926 193.477862 203.5752 191.857792 205.19527 
C 190.237722 206.81534 189.327448 209.012935 189.327448 211.304061 
C 189.327448 213.595186 190.237722 215.792781 191.857792 217.412851 
C 193.477862 219.032922 195.675458 219.943195 197.966583 219.943195 
z
" clip-path="url(#p4396fead1e)" style="fill: #2e1f3f; fill-opacity: 0.8"/>
    <path d="M 415.547267 235.349172 
C 417.830903 235.349172 420.021315 234.441874 421.636089 232.827099 
C 423.250864 231.212325 424.158162 229.021913 424.158162 226.738277 
C 424.158162 224.454641 423.250864 222.264229 421.636089 220.649454 
C 420.021315 219.03468 417.830903 218.127382 415.547267 218.127382 
C 413.263631 218.127382 411.073219 219.03468 409.458444 220.649454 
C 407.84367 222.264229 406.936372 224.454641 406.936372 226.738277 
C 406.936372 229.021913 407.84367 231.212325 409.458444 232.827099 
C 411.073219 234.441874 413.263631 235.349172 415.547267 235.349172 
z
" clip-path="url(#p4396fead1e)" style="fill: #2f2041; fill-opacity: 0.8"/>
    <path d="M 131.483596 189.053592 
C 133.769107 189.053592 135.961317 188.145549 137.577417 186.529449 
C 139.193517 184.913349 140.10156 182.721139 140.10156 180.435628 
C 140.10156 178.150117 139.193517 175.957908 137.577417 174.341807 
C 135.961317 172.725707 133.769107 171.817664 131.483596 171.817664 
C 129.198086 171.817664 127.005876 172.725707 125.389776 174.341807 
C 123.773675 175.957908 122.865632 178.150117 122.865632 180.435628 
C 122.865632 182.721139 123.773675 184.913349 125.389776 186.529449 
C 127.005876 188.145549 129.198086 189.053592 131.483596 189.053592 
z
" clip-path="url(#p4396fead1e)" style="fill: #2e1f3f; fill-opacity: 0.8"/>
    <path d="M 234.23003 335.678647 
C 236.515541 335.678647 238.707751 334.770603 240.323851 333.154503 
C 241.939951 331.538403 242.847994 329.346193 242.847994 327.060683 
C 242.847994 324.775172 241.939951 322.582962 240.323851 320.966862 
C 238.707751 319.350762 236.515541 318.442719 234.23003 318.442719 
C 231.94452 318.442719 229.75231 319.350762 228.13621 320.966862 
C 226.520109 322.582962 225.612066 324.775172 225.612066 327.060683 
C 225.612066 329.346193 226.520109 331.538403 228.13621 333.154503 
C 229.75231 334.770603 231.94452 335.678647 234.23003 335.678647 
z
" clip-path="url(#p4396fead1e)" style="fill: #2e1f3f; fill-opacity: 0.8"/>
    <path d="M 216.098307 374.214585 
C 218.370663 374.214585 220.550255 373.311768 222.157053 371.70497 
C 223.763852 370.098172 224.666668 367.918579 224.666668 365.646223 
C 224.666668 363.373867 223.763852 361.194275 222.157053 359.587477 
C 220.550255 357.980678 218.370663 357.077862 216.098307 357.077862 
C 213.825951 357.077862 211.646358 357.980678 210.03956 359.587477 
C 208.432762 361.194275 207.529945 363.373867 207.529945 365.646223 
C 207.529945 367.918579 208.432762 370.098172 210.03956 371.70497 
C 211.646358 373.311768 213.825951 374.214585 216.098307 374.214585 
z
" clip-path="url(#p4396fead1e)" style="fill: #322143; fill-opacity: 0.8"/>
    <path d="M 125.439688 142.687116 
C 127.708272 142.687116 129.884246 141.785798 131.488376 140.181667 
C 133.092507 138.577537 133.993825 136.401563 133.993825 134.132979 
C 133.993825 131.864396 133.092507 129.688422 131.488376 128.084291 
C 129.884246 126.48016 127.708272 125.578843 125.439688 125.578843 
C 123.171105 125.578843 120.995131 126.48016 119.391 128.084291 
C 117.78687 129.688422 116.885552 131.864396 116.885552 134.132979 
C 116.885552 136.401563 117.78687 138.577537 119.391 140.181667 
C 120.995131 141.785798 123.171105 142.687116 125.439688 142.687116 
z
" clip-path="url(#p4396fead1e)" style="fill: #342245; fill-opacity: 0.8"/>
    <path d="M 222.142215 142.687116 
C 224.410798 142.687116 226.586772 141.785798 228.190903 140.181667 
C 229.795033 138.577537 230.696351 136.401563 230.696351 134.132979 
C 230.696351 131.864396 229.795033 129.688422 228.190903 128.084291 
C 226.586772 126.48016 224.410798 125.578843 222.142215 125.578843 
C 219.873631 125.578843 217.697657 126.48016 216.093527 128.084291 
C 214.489396 129.688422 213.588078 131.864396 213.588078 134.132979 
C 213.588078 136.401563 214.489396 138.577537 216.093527 140.181667 
C 217.697657 141.785798 219.873631 142.687116 222.142215 142.687116 
z
" clip-path="url(#p4396fead1e)" style="fill: #342245; fill-opacity: 0.8"/>
    <path d="M 173.790951 173.562664 
C 176.061422 173.562664 178.239206 172.660596 179.844671 171.055131 
C 181.450136 169.449666 182.352204 167.271882 182.352204 165.001412 
C 182.352204 162.730941 181.450136 160.553158 179.844671 158.947692 
C 178.239206 157.342227 176.061422 156.44016 173.790951 156.44016 
C 171.520481 156.44016 169.342697 157.342227 167.737232 158.947692 
C 166.131767 160.553158 165.229699 162.730941 165.229699 165.001412 
C 165.229699 167.271882 166.131767 169.449666 167.737232 171.055131 
C 169.342697 172.660596 171.520481 173.562664 173.790951 173.562664 
z
" clip-path="url(#p4396fead1e)" style="fill: #322143; fill-opacity: 0.8"/>
    <path d="M 131.483596 188.99688 
C 133.754067 188.99688 135.93185 188.094813 137.537316 186.489348 
C 139.142781 184.883882 140.044848 182.706099 140.044848 180.435628 
C 140.044848 178.165158 139.142781 175.987374 137.537316 174.381909 
C 135.93185 172.776444 133.754067 171.874376 131.483596 171.874376 
C 129.213126 171.874376 127.035342 172.776444 125.429877 174.381909 
C 123.824412 175.987374 122.922344 178.165158 122.922344 180.435628 
C 122.922344 182.706099 123.824412 184.883882 125.429877 186.489348 
C 127.035342 188.094813 129.213126 188.99688 131.483596 188.99688 
z
" clip-path="url(#p4396fead1e)" style="fill: #322143; fill-opacity: 0.8"/>
    <path d="M 222.142215 219.865313 
C 224.412685 219.865313 226.590469 218.963245 228.195934 217.35778 
C 229.801399 215.752315 230.703467 213.574531 230.703467 211.304061 
C 230.703467 209.03359 229.801399 206.855806 228.195934 205.250341 
C 226.590469 203.644876 224.412685 202.742809 222.142215 202.742809 
C 219.871744 202.742809 217.69396 203.644876 216.088495 205.250341 
C 214.48303 206.855806 213.580962 209.03359 213.580962 211.304061 
C 213.580962 213.574531 214.48303 215.752315 216.088495 217.35778 
C 217.69396 218.963245 219.871744 219.865313 222.142215 219.865313 
z
" clip-path="url(#p4396fead1e)" style="fill: #322143; fill-opacity: 0.8"/>
    <path d="M 119.39578 374.306477 
C 121.692507 374.306477 123.895474 373.393978 125.519505 371.769948 
C 127.143536 370.145917 128.056035 367.94295 128.056035 365.646223 
C 128.056035 363.349497 127.143536 361.14653 125.519505 359.522499 
C 123.895474 357.898468 121.692507 356.985969 119.39578 356.985969 
C 117.099054 356.985969 114.896087 357.898468 113.272056 359.522499 
C 111.648025 361.14653 110.735526 363.349497 110.735526 365.646223 
C 110.735526 367.94295 111.648025 370.145917 113.272056 371.769948 
C 114.896087 373.393978 117.099054 374.306477 119.39578 374.306477 
z
" clip-path="url(#p4396fead1e)" style="fill: #2d1e3e; fill-opacity: 0.8"/>
    <path d="M 119.39578 243.115639 
C 121.692507 243.115639 123.895474 242.20314 125.519505 240.579109 
C 127.143536 238.955079 128.056035 236.752111 128.056035 234.455385 
C 128.056035 232.158659 127.143536 229.955691 125.519505 228.331661 
C 123.895474 226.70763 121.692507 225.795131 119.39578 225.795131 
C 117.099054 225.795131 114.896087 226.70763 113.272056 228.331661 
C 111.648025 229.955691 110.735526 232.158659 110.735526 234.455385 
C 110.735526 236.752111 111.648025 238.955079 113.272056 240.579109 
C 114.896087 242.20314 117.099054 243.115639 119.39578 243.115639 
z
" clip-path="url(#p4396fead1e)" style="fill: #2d1e3e; fill-opacity: 0.8"/>
    <path d="M 119.39578 258.549855 
C 121.692507 258.549855 123.895474 257.637356 125.519505 256.013326 
C 127.143536 254.389295 128.056035 252.186328 128.056035 249.889601 
C 128.056035 247.592875 127.143536 245.389908 125.519505 243.765877 
C 123.895474 242.141846 121.692507 241.229347 119.39578 241.229347 
C 117.099054 241.229347 114.896087 242.141846 113.272056 243.765877 
C 111.648025 245.389908 110.735526 247.592875 110.735526 249.889601 
C 110.735526 252.186328 111.648025 254.389295 113.272056 256.013326 
C 114.896087 257.637356 117.099054 258.549855 119.39578 258.549855 
z
" clip-path="url(#p4396fead1e)" style="fill: #2d1e3e; fill-opacity: 0.8"/>
   </g>
   <g id="PathCollection_2"/>
   <g id="PathCollection_3"/>
   <g id="PathCollection_4"/>
   <g id="PathCollection_5"/>
   <g id="PathCollection_6"/>
   <g id="PathCollection_7"/>
   <g id="line2d_16">
    <path d="M 15.342556 180.435628 
L 519.304044 180.435628 
" clip-path="url(#p4396fead1e)" style="fill: none; stroke-dasharray: 12.8,3.2,2,3.2; stroke-dashoffset: 0; stroke: #000000; stroke-opacity: 0.7; stroke-width: 2"/>
   </g>
   <g id="line2d_17">
    <path d="M 213.076353 388.797548 
L 213.076353 10.659249 
" clip-path="url(#p4396fead1e)" style="fill: none; stroke-dasharray: 12.8,3.2,2,3.2; stroke-dashoffset: 0; stroke: #000000; stroke-opacity: 0.7; stroke-width: 2"/>
   </g>
   <g id="patch_3">
    <path d="M 44.987349 388.797548 
L 44.987349 10.659249 
" style="fill: none"/>
   </g>
   <g id="patch_4">
    <path d="M 44.987349 388.797548 
L 489.659251 388.797548 
" style="fill: none"/>
   </g>
   <g id="text_18">
    <!-- \textbf{median($\gamma$)} -->
    <g style="opacity: 0.9" transform="translate(445.19206 157.74733)scale(0.12 -0.12)">
     <defs>
      <path id="CMBX12-6d" d="M 5402 1958 
C 5402 2547 5152 2880 4435 2880 
C 3789 2880 3488 2444 3386 2240 
C 3283 2783 2848 2880 2438 2880 
C 1824 2880 1491 2483 1357 2176 
L 1350 2176 
L 1350 2880 
L 269 2828 
L 269 2553 
C 666 2553 710 2553 710 2304 
L 710 275 
L 269 275 
L 269 0 
C 416 12 877 12 1056 12 
C 1235 12 1702 12 1850 0 
L 1850 275 
L 1408 275 
L 1408 1638 
C 1408 2336 1926 2668 2330 2668 
C 2566 2668 2707 2528 2707 2028 
L 2707 275 
L 2266 275 
L 2266 0 
C 2413 12 2874 12 3053 12 
C 3232 12 3699 12 3846 0 
L 3846 275 
L 3405 275 
L 3405 1638 
C 3405 2336 3923 2668 4326 2668 
C 4563 2668 4704 2528 4704 2028 
L 4704 275 
L 4262 275 
L 4262 0 
C 4410 12 4870 12 5050 12 
C 5229 12 5696 12 5843 0 
L 5843 275 
L 5402 275 
L 5402 1958 
z
" transform="scale(0.015625)"/>
      <path id="CMBX12-65" d="M 2893 1408 
C 3040 1408 3078 1408 3078 1568 
C 3078 1758 3034 2232 2739 2529 
C 2470 2796 2112 2880 1741 2880 
C 742 2880 198 2232 198 1433 
C 198 523 858 -64 1824 -64 
C 2790 -64 3078 621 3078 731 
C 3078 829 2982 829 2944 829 
C 2842 829 2835 809 2797 725 
C 2630 302 2208 166 1901 166 
C 973 166 966 1043 966 1408 
L 2893 1408 
z
M 966 1593 
C 979 1852 986 2099 1120 2327 
C 1242 2529 1466 2668 1741 2668 
C 2426 2668 2483 1909 2490 1593 
L 966 1593 
z
" transform="scale(0.015625)"/>
      <path id="CMBX12-64" d="M 2221 4428 
L 2221 4153 
C 2618 4153 2662 4153 2662 3896 
L 2662 2571 
C 2522 2694 2240 2880 1798 2880 
C 890 2880 243 2313 243 1408 
C 243 483 877 -64 1728 -64 
C 2080 -64 2381 57 2630 270 
L 2630 -64 
L 3770 -26 
L 3770 250 
C 3373 250 3328 250 3328 502 
L 3328 4480 
L 2221 4428 
z
M 2630 625 
C 2362 231 2035 147 1805 147 
C 1011 147 1011 968 1011 1395 
C 1011 1699 1011 2022 1152 2268 
C 1350 2630 1728 2668 1875 2668 
C 2138 2668 2419 2552 2630 2268 
L 2630 625 
z
" transform="scale(0.015625)"/>
      <path id="CMBX12-69" d="M 1427 4019 
C 1427 4281 1216 4480 966 4480 
C 704 4480 506 4262 506 4019 
C 506 3775 704 3558 966 3558 
C 1216 3558 1427 3756 1427 4019 
z
M 301 2828 
L 301 2553 
C 678 2553 723 2553 723 2303 
L 723 275 
L 282 275 
L 282 0 
C 429 12 870 12 1043 12 
C 1222 12 1632 12 1786 0 
L 1786 275 
L 1389 275 
L 1389 2880 
L 301 2828 
z
" transform="scale(0.015625)"/>
      <path id="CMBX12-61" d="M 2944 1894 
C 2944 2483 2477 2880 1574 2880 
C 1216 2880 461 2847 461 2310 
C 461 2041 666 1926 838 1926 
C 1030 1926 1216 2060 1216 2303 
C 1216 2425 1171 2540 1062 2611 
C 1274 2668 1427 2668 1549 2668 
C 1984 2668 2246 2425 2246 1900 
L 2246 1644 
C 1235 1644 218 1362 218 648 
C 218 64 960 -64 1402 -64 
C 1894 -64 2208 205 2336 488 
C 2336 250 2336 -26 2982 -26 
L 3309 -26 
C 3443 -26 3494 -26 3494 115 
C 3494 250 3437 250 3347 250 
C 2944 256 2944 359 2944 507 
L 2944 1894 
z
M 2246 867 
C 2246 262 1709 147 1504 147 
C 1190 147 928 359 928 655 
C 928 1240 1619 1439 2246 1472 
L 2246 867 
z
" transform="scale(0.015625)"/>
      <path id="CMBX12-6e" d="M 3398 1958 
C 3398 2566 3136 2880 2432 2880 
C 1971 2880 1574 2656 1357 2176 
L 1350 2176 
L 1350 2880 
L 269 2828 
L 269 2553 
C 666 2553 710 2553 710 2304 
L 710 275 
L 269 275 
L 269 0 
C 416 12 877 12 1056 12 
C 1235 12 1702 12 1850 0 
L 1850 275 
L 1408 275 
L 1408 1638 
C 1408 2329 1920 2668 2330 2668 
C 2566 2668 2701 2515 2701 2028 
L 2701 275 
L 2259 275 
L 2259 0 
C 2406 12 2867 12 3046 12 
C 3226 12 3693 12 3840 0 
L 3840 275 
L 3398 275 
L 3398 1958 
z
" transform="scale(0.015625)"/>
      <path id="CMBX12-28" d="M 2394 -1530 
C 2394 -1505 2394 -1492 2272 -1376 
C 1555 -660 1280 467 1280 1593 
C 1280 2854 1594 3891 2310 4614 
C 2387 4691 2394 4697 2394 4723 
C 2394 4800 2317 4800 2285 4800 
C 2227 4800 2214 4800 2048 4665 
C 1126 3929 691 2752 691 1600 
C 691 422 1133 -724 2042 -1466 
C 2208 -1607 2221 -1607 2285 -1607 
C 2317 -1607 2394 -1607 2394 -1530 
z
" transform="scale(0.015625)"/>
      <path id="CMBX12-29" d="M 2099 1593 
C 2099 2771 1658 3917 749 4659 
C 582 4800 570 4800 506 4800 
C 474 4800 397 4800 397 4723 
C 397 4697 397 4684 518 4569 
C 1235 3853 1510 2726 1510 1600 
C 1510 339 1197 -698 480 -1421 
C 403 -1498 397 -1505 397 -1530 
C 397 -1607 474 -1607 506 -1607 
C 563 -1607 576 -1607 742 -1472 
C 1664 -736 2099 441 2099 1593 
z
" transform="scale(0.015625)"/>
     </defs>
     <use xlink:href="#CMBX12-6d" transform="scale(0.996264)"/>
     <use xlink:href="#CMBX12-65" transform="translate(93.399751 0)scale(0.996264)"/>
     <use xlink:href="#CMBX12-64" transform="translate(144.539018 0)scale(0.996264)"/>
     <use xlink:href="#CMBX12-69" transform="translate(206.805519 0)scale(0.996264)"/>
     <use xlink:href="#CMBX12-61" transform="translate(237.938769 0)scale(0.996264)"/>
     <use xlink:href="#CMBX12-6e" transform="translate(292.421957 0)scale(0.996264)"/>
     <use xlink:href="#CMBX12-28" transform="translate(354.688458 0)scale(0.996264)"/>
     <use xlink:href="#CMMI12-d" transform="translate(398.275008 0)scale(0.996264)"/>
     <use xlink:href="#CMBX12-29" transform="translate(454.293576 0)scale(0.996264)"/>
    </g>
   </g>
   <g id="text_19">
    <!-- \textbf{0.004} -->
    <g style="opacity: 0.9" transform="translate(445.19206 172.872862)scale(0.12 -0.12)">
     <defs>
      <path id="CMBX12-30" d="M 3309 2060 
C 3309 2677 3309 4224 1798 4224 
C 282 4224 282 2683 282 2060 
C 282 1444 282 -64 1792 -64 
C 3302 -64 3309 1424 3309 2060 
z
M 1798 147 
C 1594 147 1440 230 1312 365 
C 1152 526 1050 628 1050 2137 
C 1050 2587 1050 2998 1101 3331 
C 1190 3967 1651 4012 1792 4012 
C 1997 4012 2394 3916 2483 3376 
C 2541 3049 2541 2529 2541 2137 
C 2541 622 2445 532 2253 339 
C 2125 211 1952 147 1798 147 
z
" transform="scale(0.015625)"/>
      <path id="CMBX12-2e" d="M 1459 460 
C 1459 723 1248 921 998 921 
C 749 921 538 723 538 460 
C 538 198 749 0 998 0 
C 1248 0 1459 198 1459 460 
z
" transform="scale(0.015625)"/>
      <path id="CMBX12-34" d="M 2771 1004 
L 3392 1004 
L 3392 1280 
L 2771 1280 
L 2771 4038 
C 2771 4198 2765 4224 2605 4224 
C 2490 4224 2477 4224 2400 4127 
L 198 1280 
L 198 1004 
L 2016 1004 
L 2016 275 
L 1318 275 
L 1318 0 
C 1504 12 2138 12 2368 12 
C 2586 12 3219 12 3392 0 
L 3392 275 
L 2771 275 
L 2771 1004 
z
M 2074 3324 
L 2074 1280 
L 493 1280 
L 2074 3324 
z
" transform="scale(0.015625)"/>
     </defs>
     <use xlink:href="#CMBX12-30" transform="scale(0.996264)"/>
     <use xlink:href="#CMBX12-2e" transform="translate(56.039851 0)scale(0.996264)"/>
     <use xlink:href="#CMBX12-30" transform="translate(87.173101 0)scale(0.996264)"/>
     <use xlink:href="#CMBX12-30" transform="translate(143.212951 0)scale(0.996264)"/>
     <use xlink:href="#CMBX12-34" transform="translate(199.252802 0)scale(0.996264)"/>
    </g>
   </g>
   <g id="text_20">
    <!-- \textbf{median($\nu$)} -->
    <g style="opacity: 0.9" transform="translate(227.898749 82.119671)scale(0.12 -0.12)">
     <use xlink:href="#CMBX12-6d" transform="scale(0.996264)"/>
     <use xlink:href="#CMBX12-65" transform="translate(93.399751 0)scale(0.996264)"/>
     <use xlink:href="#CMBX12-64" transform="translate(144.539018 0)scale(0.996264)"/>
     <use xlink:href="#CMBX12-69" transform="translate(206.805519 0)scale(0.996264)"/>
     <use xlink:href="#CMBX12-61" transform="translate(237.938769 0)scale(0.996264)"/>
     <use xlink:href="#CMBX12-6e" transform="translate(292.421957 0)scale(0.996264)"/>
     <use xlink:href="#CMBX12-28" transform="translate(354.688458 0)scale(0.996264)"/>
     <use xlink:href="#CMMI12-17" transform="translate(398.275008 0)scale(0.996264)"/>
     <use xlink:href="#CMBX12-29" transform="translate(452.757801 0)scale(0.996264)"/>
    </g>
   </g>
   <g id="text_21">
    <!-- \textbf{0.032} -->
    <g style="opacity: 0.9" transform="translate(227.898749 97.245202)scale(0.12 -0.12)">
     <defs>
      <path id="CMBX12-33" d="M 1670 2143 
C 2387 2143 2387 1473 2387 1164 
C 2387 876 2387 192 1696 192 
C 1562 192 1139 211 832 434 
C 1107 492 1203 691 1203 883 
C 1203 1145 1018 1331 755 1331 
C 486 1331 301 1145 301 876 
C 301 283 941 -64 1728 -64 
C 2784 -64 3290 524 3290 1164 
C 3290 1479 3130 2092 2138 2265 
C 2701 2436 3091 2824 3091 3327 
C 3091 3812 2630 4224 1741 4224 
C 1024 4224 499 3839 499 3315 
C 499 2995 749 2892 915 2892 
C 1101 2892 1325 3014 1325 3308 
C 1325 3455 1261 3673 960 3718 
C 1229 3993 1664 3993 1702 3993 
C 2272 3993 2272 3539 2272 3347 
C 2272 3155 2246 2861 2042 2605 
C 1875 2392 1709 2380 1466 2368 
C 1389 2361 1261 2355 1235 2342 
C 1197 2323 1197 2278 1197 2252 
C 1197 2143 1235 2143 1363 2143 
L 1670 2143 
z
" transform="scale(0.015625)"/>
      <path id="CMBX12-32" d="M 3232 1378 
L 2963 1378 
C 2944 1243 2899 864 2803 800 
C 2752 755 2253 755 2157 755 
L 1165 755 
C 1408 960 1990 1448 2086 1519 
C 2797 2052 3232 2379 3232 2995 
C 3232 3759 2547 4224 1702 4224 
C 979 4224 358 3806 358 3187 
C 358 2848 634 2752 781 2752 
C 979 2752 1210 2886 1210 3180 
C 1210 3449 1011 3584 813 3610 
C 1069 3921 1408 3948 1542 3948 
C 2131 3948 2413 3449 2413 2988 
C 2413 2488 2074 2026 1811 1750 
L 422 294 
C 358 236 358 224 358 108 
L 358 0 
L 3046 0 
L 3232 1378 
z
" transform="scale(0.015625)"/>
     </defs>
     <use xlink:href="#CMBX12-30" transform="scale(0.996264)"/>
     <use xlink:href="#CMBX12-2e" transform="translate(56.039851 0)scale(0.996264)"/>
     <use xlink:href="#CMBX12-30" transform="translate(87.173101 0)scale(0.996264)"/>
     <use xlink:href="#CMBX12-33" transform="translate(143.212951 0)scale(0.996264)"/>
     <use xlink:href="#CMBX12-32" transform="translate(199.252802 0)scale(0.996264)"/>
    </g>
   </g>
   <g id="legend_1">
    <g id="PathCollection_8">
     <defs>
      <path id="m2cd8cfdd3e" d="M 0 4.251892 
C 1.127615 4.251892 2.209197 3.803886 3.006542 3.006542 
C 3.803886 2.209197 4.251892 1.127615 4.251892 0 
C 4.251892 -1.127615 3.803886 -2.209197 3.006542 -3.006542 
C 2.209197 -3.803886 1.127615 -4.251892 0 -4.251892 
C -1.127615 -4.251892 -2.209197 -3.803886 -3.006542 -3.006542 
C -3.803886 -2.209197 -4.251892 -1.127615 -4.251892 0 
C -4.251892 1.127615 -3.803886 2.209197 -3.006542 3.006542 
C -2.209197 3.803886 -1.127615 4.251892 0 4.251892 
z
" style="stroke: #e1b1b4; stroke-width: 0.24"/>
     </defs>
     <g>
      <use xlink:href="#m2cd8cfdd3e" x="512.552689" y="19.034249" style="fill: #e1b1b4; stroke: #e1b1b4; stroke-width: 0.24"/>
     </g>
    </g>
    <g id="text_22">
     <!-- \textbf{$\mathdefault{0.300}$} -->
     <g style="fill: #262626" transform="translate(530.552689 21.659249)scale(0.1 -0.1)">
      <use xlink:href="#CMR17-30" transform="scale(0.996264)"/>
      <use xlink:href="#CMMI12-3a" transform="translate(45.690477 0)scale(0.996264)"/>
      <use xlink:href="#CMR17-33" transform="translate(72.787654 0)scale(0.996264)"/>
      <use xlink:href="#CMR17-30" transform="translate(118.478131 0)scale(0.996264)"/>
      <use xlink:href="#CMR17-30" transform="translate(164.168608 0)scale(0.996264)"/>
     </g>
    </g>
    <g id="PathCollection_9">
     <defs>
      <path id="maa7228d97c" d="M 0 5.427971 
C 1.439515 5.427971 2.820264 4.856046 3.838155 3.838155 
C 4.856046 2.820264 5.427971 1.439515 5.427971 0 
C 5.427971 -1.439515 4.856046 -2.820264 3.838155 -3.838155 
C 2.820264 -4.856046 1.439515 -5.427971 0 -5.427971 
C -1.439515 -5.427971 -2.820264 -4.856046 -3.838155 -3.838155 
C -4.856046 -2.820264 -5.427971 -1.439515 -5.427971 0 
C -5.427971 1.439515 -4.856046 2.820264 -3.838155 3.838155 
C -2.820264 4.856046 -1.439515 5.427971 0 5.427971 
z
" style="stroke: #cb8ca0; stroke-width: 0.24"/>
     </defs>
     <g>
      <use xlink:href="#maa7228d97c" x="512.552689" y="37.971428" style="fill: #cb8ca0; stroke: #cb8ca0; stroke-width: 0.24"/>
     </g>
    </g>
    <g id="text_23">
     <!-- \textbf{$\mathdefault{0.240}$} -->
     <g style="fill: #262626" transform="translate(530.552689 40.596428)scale(0.1 -0.1)">
      <use xlink:href="#CMR17-30" transform="scale(0.996264)"/>
      <use xlink:href="#CMMI12-3a" transform="translate(45.690477 0)scale(0.996264)"/>
      <use xlink:href="#CMR17-32" transform="translate(72.787654 0)scale(0.996264)"/>
      <use xlink:href="#CMR17-34" transform="translate(118.478131 0)scale(0.996264)"/>
      <use xlink:href="#CMR17-30" transform="translate(164.168608 0)scale(0.996264)"/>
     </g>
    </g>
    <g id="PathCollection_10">
     <defs>
      <path id="m2b149f299e" d="M 0 6.391178 
C 1.69496 6.391178 3.320727 5.717763 4.519245 4.519245 
C 5.717763 3.320727 6.391178 1.69496 6.391178 0 
C 6.391178 -1.69496 5.717763 -3.320727 4.519245 -4.519245 
C 3.320727 -5.717763 1.69496 -6.391178 0 -6.391178 
C -1.69496 -6.391178 -3.320727 -5.717763 -4.519245 -4.519245 
C -5.717763 -3.320727 -6.391178 -1.69496 -6.391178 0 
C -6.391178 1.69496 -5.717763 3.320727 -4.519245 4.519245 
C -3.320727 5.717763 -1.69496 6.391178 0 6.391178 
z
" style="stroke: #ac6a90; stroke-width: 0.24"/>
     </defs>
     <g>
      <use xlink:href="#m2b149f299e" x="512.552689" y="56.908606" style="fill: #ac6a90; stroke: #ac6a90; stroke-width: 0.24"/>
     </g>
    </g>
    <g id="text_24">
     <!-- \textbf{$\mathdefault{0.180}$} -->
     <g style="fill: #262626" transform="translate(530.552689 59.533606)scale(0.1 -0.1)">
      <use xlink:href="#CMR17-30" transform="scale(0.996264)"/>
      <use xlink:href="#CMMI12-3a" transform="translate(45.690477 0)scale(0.996264)"/>
      <use xlink:href="#CMR17-31" transform="translate(72.787654 0)scale(0.996264)"/>
      <use xlink:href="#CMR17-38" transform="translate(118.478131 0)scale(0.996264)"/>
      <use xlink:href="#CMR17-30" transform="translate(164.168608 0)scale(0.996264)"/>
     </g>
    </g>
    <g id="PathCollection_11">
     <defs>
      <path id="m6c2dff177e" d="M 0 7.227132 
C 1.916658 7.227132 3.755072 6.465636 5.110354 5.110354 
C 6.465636 3.755072 7.227132 1.916658 7.227132 0 
C 7.227132 -1.916658 6.465636 -3.755072 5.110354 -5.110354 
C 3.755072 -6.465636 1.916658 -7.227132 0 -7.227132 
C -1.916658 -7.227132 -3.755072 -6.465636 -5.110354 -5.110354 
C -6.465636 -3.755072 -7.227132 -1.916658 -7.227132 0 
C -7.227132 1.916658 -6.465636 3.755072 -5.110354 5.110354 
C -3.755072 6.465636 -1.916658 7.227132 0 7.227132 
z
" style="stroke: #854d7e; stroke-width: 0.24"/>
     </defs>
     <g>
      <use xlink:href="#m6c2dff177e" x="512.552689" y="75.845784" style="fill: #854d7e; stroke: #854d7e; stroke-width: 0.24"/>
     </g>
    </g>
    <g id="text_25">
     <!-- \textbf{$\mathdefault{0.120}$} -->
     <g style="fill: #262626" transform="translate(530.552689 78.470784)scale(0.1 -0.1)">
      <use xlink:href="#CMR17-30" transform="scale(0.996264)"/>
      <use xlink:href="#CMMI12-3a" transform="translate(45.690477 0)scale(0.996264)"/>
      <use xlink:href="#CMR17-31" transform="translate(72.787654 0)scale(0.996264)"/>
      <use xlink:href="#CMR17-32" transform="translate(118.478131 0)scale(0.996264)"/>
      <use xlink:href="#CMR17-30" transform="translate(164.168608 0)scale(0.996264)"/>
     </g>
    </g>
    <g id="PathCollection_12">
     <defs>
      <path id="m7d8e93cc3f" d="M 0 7.975946 
C 2.115246 7.975946 4.144141 7.13555 5.639846 5.639846 
C 7.13555 4.144141 7.975946 2.115246 7.975946 0 
C 7.975946 -2.115246 7.13555 -4.144141 5.639846 -5.639846 
C 4.144141 -7.13555 2.115246 -7.975946 0 -7.975946 
C -2.115246 -7.975946 -4.144141 -7.13555 -5.639846 -5.639846 
C -7.13555 -4.144141 -7.975946 -2.115246 -7.975946 0 
C -7.975946 2.115246 -7.13555 4.144141 -5.639846 5.639846 
C -4.144141 7.13555 -2.115246 7.975946 0 7.975946 
z
" style="stroke: #583463; stroke-width: 0.24"/>
     </defs>
     <g>
      <use xlink:href="#m7d8e93cc3f" x="512.552689" y="94.782963" style="fill: #583463; stroke: #583463; stroke-width: 0.24"/>
     </g>
    </g>
    <g id="text_26">
     <!-- \textbf{$\mathdefault{0.060}$} -->
     <g style="fill: #262626" transform="translate(530.552689 97.407963)scale(0.1 -0.1)">
      <use xlink:href="#CMR17-30" transform="scale(0.996264)"/>
      <use xlink:href="#CMMI12-3a" transform="translate(45.690477 0)scale(0.996264)"/>
      <use xlink:href="#CMR17-30" transform="translate(72.787654 0)scale(0.996264)"/>
      <use xlink:href="#CMR17-36" transform="translate(118.478131 0)scale(0.996264)"/>
      <use xlink:href="#CMR17-30" transform="translate(164.168608 0)scale(0.996264)"/>
     </g>
    </g>
    <g id="PathCollection_13">
     <defs>
      <path id="m2389d01845" d="M 0 8.660254 
C 2.296726 8.660254 4.499694 7.747755 6.123724 6.123724 
C 7.747755 4.499694 8.660254 2.296726 8.660254 0 
C 8.660254 -2.296726 7.747755 -4.499694 6.123724 -6.123724 
C 4.499694 -7.747755 2.296726 -8.660254 0 -8.660254 
C -2.296726 -8.660254 -4.499694 -7.747755 -6.123724 -6.123724 
C -7.747755 -4.499694 -8.660254 -2.296726 -8.660254 0 
C -8.660254 2.296726 -7.747755 4.499694 -6.123724 6.123724 
C -4.499694 7.747755 -2.296726 8.660254 0 8.660254 
z
" style="stroke: #2d1e3e; stroke-width: 0.24"/>
     </defs>
     <g>
      <use xlink:href="#m2389d01845" x="512.552689" y="113.720141" style="fill: #2d1e3e; stroke: #2d1e3e; stroke-width: 0.24"/>
     </g>
    </g>
    <g id="text_27">
     <!-- \textbf{$\mathdefault{0.000}$} -->
     <g style="fill: #262626" transform="translate(530.552689 116.345141)scale(0.1 -0.1)">
      <use xlink:href="#CMR17-30" transform="scale(0.996264)"/>
      <use xlink:href="#CMMI12-3a" transform="translate(45.690477 0)scale(0.996264)"/>
      <use xlink:href="#CMR17-30" transform="translate(72.787654 0)scale(0.996264)"/>
      <use xlink:href="#CMR17-30" transform="translate(118.478131 0)scale(0.996264)"/>
      <use xlink:href="#CMR17-30" transform="translate(164.168608 0)scale(0.996264)"/>
     </g>
    </g>
   </g>
  </g>
 </g>
 <defs>
  <clipPath id="p4396fead1e">
   <rect x="44.987349" y="10.659249" width="444.671902" height="378.138299"/>
  </clipPath>
 </defs>
</svg>
