<?xml version="1.0" encoding="utf-8" standalone="no"?>
<!DOCTYPE svg PUBLIC "-//W3C//DTD SVG 1.1//EN"
  "http://www.w3.org/Graphics/SVG/1.1/DTD/svg11.dtd">
<svg xmlns:xlink="http://www.w3.org/1999/xlink" width="864pt" height="576pt" viewBox="0 0 864 576" xmlns="http://www.w3.org/2000/svg" version="1.1">
 <metadata>
  <rdf:RDF xmlns:dc="http://purl.org/dc/elements/1.1/" xmlns:cc="http://creativecommons.org/ns#" xmlns:rdf="http://www.w3.org/1999/02/22-rdf-syntax-ns#">
   <cc:Work>
    <dc:type rdf:resource="http://purl.org/dc/dcmitype/StillImage"/>
    <dc:date>2022-07-07T12:31:32.383589</dc:date>
    <dc:format>image/svg+xml</dc:format>
    <dc:creator>
     <cc:Agent>
      <dc:title>Matplotlib v3.5.1, https://matplotlib.org/</dc:title>
     </cc:Agent>
    </dc:creator>
   </cc:Work>
  </rdf:RDF>
 </metadata>
 <defs>
  <style type="text/css">*{stroke-linejoin: round; stroke-linecap: butt}</style>
 </defs>
 <g id="figure_1">
  <g id="patch_1">
   <path d="M 0 576 
L 864 576 
L 864 0 
L 0 0 
z
" style="fill: #ffffff"/>
  </g>
  <g id="axes_1">
   <g id="patch_2">
    <path d="M 108 504 
L 777.6 504 
L 777.6 69.12 
L 108 69.12 
z
" style="fill: #eaeaf2"/>
   </g>
   <g id="matplotlib.axis_1">
    <g id="xtick_1">
     <g id="line2d_1">
      <path d="M 138.436364 504 
L 138.436364 69.12 
" clip-path="url(#p11853cdcce)" style="fill: none; stroke: #ffffff; stroke-linecap: round"/>
     </g>
     <g id="text_1">
      <!-- 1500 -->
      <g style="fill: #262626" transform="translate(115.531364 527.177187)scale(0.18 -0.18)">
       <defs>
        <path id="DejaVuSans-31" d="M 794 531 
L 1825 531 
L 1825 4091 
L 703 3866 
L 703 4441 
L 1819 4666 
L 2450 4666 
L 2450 531 
L 3481 531 
L 3481 0 
L 794 0 
L 794 531 
z
" transform="scale(0.015625)"/>
        <path id="DejaVuSans-35" d="M 691 4666 
L 3169 4666 
L 3169 4134 
L 1269 4134 
L 1269 2991 
Q 1406 3038 1543 3061 
Q 1681 3084 1819 3084 
Q 2600 3084 3056 2656 
Q 3513 2228 3513 1497 
Q 3513 744 3044 326 
Q 2575 -91 1722 -91 
Q 1428 -91 1123 -41 
Q 819 9 494 109 
L 494 744 
Q 775 591 1075 516 
Q 1375 441 1709 441 
Q 2250 441 2565 725 
Q 2881 1009 2881 1497 
Q 2881 1984 2565 2268 
Q 2250 2553 1709 2553 
Q 1456 2553 1204 2497 
Q 953 2441 691 2322 
L 691 4666 
z
" transform="scale(0.015625)"/>
        <path id="DejaVuSans-30" d="M 2034 4250 
Q 1547 4250 1301 3770 
Q 1056 3291 1056 2328 
Q 1056 1369 1301 889 
Q 1547 409 2034 409 
Q 2525 409 2770 889 
Q 3016 1369 3016 2328 
Q 3016 3291 2770 3770 
Q 2525 4250 2034 4250 
z
M 2034 4750 
Q 2819 4750 3233 4129 
Q 3647 3509 3647 2328 
Q 3647 1150 3233 529 
Q 2819 -91 2034 -91 
Q 1250 -91 836 529 
Q 422 1150 422 2328 
Q 422 3509 836 4129 
Q 1250 4750 2034 4750 
z
" transform="scale(0.015625)"/>
       </defs>
       <use xlink:href="#DejaVuSans-31"/>
       <use xlink:href="#DejaVuSans-35" x="63.623047"/>
       <use xlink:href="#DejaVuSans-30" x="127.246094"/>
       <use xlink:href="#DejaVuSans-30" x="190.869141"/>
      </g>
     </g>
    </g>
    <g id="xtick_2">
     <g id="line2d_2">
      <path d="M 260.425797 504 
L 260.425797 69.12 
" clip-path="url(#p11853cdcce)" style="fill: none; stroke: #ffffff; stroke-linecap: round"/>
     </g>
     <g id="text_2">
      <!-- 1600 -->
      <g style="fill: #262626" transform="translate(237.520797 527.177187)scale(0.18 -0.18)">
       <defs>
        <path id="DejaVuSans-36" d="M 2113 2584 
Q 1688 2584 1439 2293 
Q 1191 2003 1191 1497 
Q 1191 994 1439 701 
Q 1688 409 2113 409 
Q 2538 409 2786 701 
Q 3034 994 3034 1497 
Q 3034 2003 2786 2293 
Q 2538 2584 2113 2584 
z
M 3366 4563 
L 3366 3988 
Q 3128 4100 2886 4159 
Q 2644 4219 2406 4219 
Q 1781 4219 1451 3797 
Q 1122 3375 1075 2522 
Q 1259 2794 1537 2939 
Q 1816 3084 2150 3084 
Q 2853 3084 3261 2657 
Q 3669 2231 3669 1497 
Q 3669 778 3244 343 
Q 2819 -91 2113 -91 
Q 1303 -91 875 529 
Q 447 1150 447 2328 
Q 447 3434 972 4092 
Q 1497 4750 2381 4750 
Q 2619 4750 2861 4703 
Q 3103 4656 3366 4563 
z
" transform="scale(0.015625)"/>
       </defs>
       <use xlink:href="#DejaVuSans-31"/>
       <use xlink:href="#DejaVuSans-36" x="63.623047"/>
       <use xlink:href="#DejaVuSans-30" x="127.246094"/>
       <use xlink:href="#DejaVuSans-30" x="190.869141"/>
      </g>
     </g>
    </g>
    <g id="xtick_3">
     <g id="line2d_3">
      <path d="M 382.41523 504 
L 382.41523 69.12 
" clip-path="url(#p11853cdcce)" style="fill: none; stroke: #ffffff; stroke-linecap: round"/>
     </g>
     <g id="text_3">
      <!-- 1700 -->
      <g style="fill: #262626" transform="translate(359.51023 527.177187)scale(0.18 -0.18)">
       <defs>
        <path id="DejaVuSans-37" d="M 525 4666 
L 3525 4666 
L 3525 4397 
L 1831 0 
L 1172 0 
L 2766 4134 
L 525 4134 
L 525 4666 
z
" transform="scale(0.015625)"/>
       </defs>
       <use xlink:href="#DejaVuSans-31"/>
       <use xlink:href="#DejaVuSans-37" x="63.623047"/>
       <use xlink:href="#DejaVuSans-30" x="127.246094"/>
       <use xlink:href="#DejaVuSans-30" x="190.869141"/>
      </g>
     </g>
    </g>
    <g id="xtick_4">
     <g id="line2d_4">
      <path d="M 504.404664 504 
L 504.404664 69.12 
" clip-path="url(#p11853cdcce)" style="fill: none; stroke: #ffffff; stroke-linecap: round"/>
     </g>
     <g id="text_4">
      <!-- 1800 -->
      <g style="fill: #262626" transform="translate(481.499664 527.177187)scale(0.18 -0.18)">
       <defs>
        <path id="DejaVuSans-38" d="M 2034 2216 
Q 1584 2216 1326 1975 
Q 1069 1734 1069 1313 
Q 1069 891 1326 650 
Q 1584 409 2034 409 
Q 2484 409 2743 651 
Q 3003 894 3003 1313 
Q 3003 1734 2745 1975 
Q 2488 2216 2034 2216 
z
M 1403 2484 
Q 997 2584 770 2862 
Q 544 3141 544 3541 
Q 544 4100 942 4425 
Q 1341 4750 2034 4750 
Q 2731 4750 3128 4425 
Q 3525 4100 3525 3541 
Q 3525 3141 3298 2862 
Q 3072 2584 2669 2484 
Q 3125 2378 3379 2068 
Q 3634 1759 3634 1313 
Q 3634 634 3220 271 
Q 2806 -91 2034 -91 
Q 1263 -91 848 271 
Q 434 634 434 1313 
Q 434 1759 690 2068 
Q 947 2378 1403 2484 
z
M 1172 3481 
Q 1172 3119 1398 2916 
Q 1625 2713 2034 2713 
Q 2441 2713 2670 2916 
Q 2900 3119 2900 3481 
Q 2900 3844 2670 4047 
Q 2441 4250 2034 4250 
Q 1625 4250 1398 4047 
Q 1172 3844 1172 3481 
z
" transform="scale(0.015625)"/>
       </defs>
       <use xlink:href="#DejaVuSans-31"/>
       <use xlink:href="#DejaVuSans-38" x="63.623047"/>
       <use xlink:href="#DejaVuSans-30" x="127.246094"/>
       <use xlink:href="#DejaVuSans-30" x="190.869141"/>
      </g>
     </g>
    </g>
    <g id="xtick_5">
     <g id="line2d_5">
      <path d="M 626.394097 504 
L 626.394097 69.12 
" clip-path="url(#p11853cdcce)" style="fill: none; stroke: #ffffff; stroke-linecap: round"/>
     </g>
     <g id="text_5">
      <!-- 1900 -->
      <g style="fill: #262626" transform="translate(603.489097 527.177187)scale(0.18 -0.18)">
       <defs>
        <path id="DejaVuSans-39" d="M 703 97 
L 703 672 
Q 941 559 1184 500 
Q 1428 441 1663 441 
Q 2288 441 2617 861 
Q 2947 1281 2994 2138 
Q 2813 1869 2534 1725 
Q 2256 1581 1919 1581 
Q 1219 1581 811 2004 
Q 403 2428 403 3163 
Q 403 3881 828 4315 
Q 1253 4750 1959 4750 
Q 2769 4750 3195 4129 
Q 3622 3509 3622 2328 
Q 3622 1225 3098 567 
Q 2575 -91 1691 -91 
Q 1453 -91 1209 -44 
Q 966 3 703 97 
z
M 1959 2075 
Q 2384 2075 2632 2365 
Q 2881 2656 2881 3163 
Q 2881 3666 2632 3958 
Q 2384 4250 1959 4250 
Q 1534 4250 1286 3958 
Q 1038 3666 1038 3163 
Q 1038 2656 1286 2365 
Q 1534 2075 1959 2075 
z
" transform="scale(0.015625)"/>
       </defs>
       <use xlink:href="#DejaVuSans-31"/>
       <use xlink:href="#DejaVuSans-39" x="63.623047"/>
       <use xlink:href="#DejaVuSans-30" x="127.246094"/>
       <use xlink:href="#DejaVuSans-30" x="190.869141"/>
      </g>
     </g>
    </g>
    <g id="xtick_6">
     <g id="line2d_6">
      <path d="M 748.383531 504 
L 748.383531 69.12 
" clip-path="url(#p11853cdcce)" style="fill: none; stroke: #ffffff; stroke-linecap: round"/>
     </g>
     <g id="text_6">
      <!-- 2000 -->
      <g style="fill: #262626" transform="translate(725.478531 527.177187)scale(0.18 -0.18)">
       <defs>
        <path id="DejaVuSans-32" d="M 1228 531 
L 3431 531 
L 3431 0 
L 469 0 
L 469 531 
Q 828 903 1448 1529 
Q 2069 2156 2228 2338 
Q 2531 2678 2651 2914 
Q 2772 3150 2772 3378 
Q 2772 3750 2511 3984 
Q 2250 4219 1831 4219 
Q 1534 4219 1204 4116 
Q 875 4013 500 3803 
L 500 4441 
Q 881 4594 1212 4672 
Q 1544 4750 1819 4750 
Q 2544 4750 2975 4387 
Q 3406 4025 3406 3419 
Q 3406 3131 3298 2873 
Q 3191 2616 2906 2266 
Q 2828 2175 2409 1742 
Q 1991 1309 1228 531 
z
" transform="scale(0.015625)"/>
       </defs>
       <use xlink:href="#DejaVuSans-32"/>
       <use xlink:href="#DejaVuSans-30" x="63.623047"/>
       <use xlink:href="#DejaVuSans-30" x="127.246094"/>
       <use xlink:href="#DejaVuSans-30" x="190.869141"/>
      </g>
     </g>
    </g>
   </g>
   <g id="matplotlib.axis_2">
    <g id="ytick_1">
     <g id="line2d_7">
      <path d="M 108 470.752975 
L 777.6 470.752975 
" clip-path="url(#p11853cdcce)" style="fill: none; stroke: #ffffff; stroke-linecap: round"/>
     </g>
     <g id="text_7">
      <!-- −1.0 -->
      <g style="fill: #262626" transform="translate(54.790937 477.591569)scale(0.18 -0.18)">
       <defs>
        <path id="DejaVuSans-2212" d="M 678 2272 
L 4684 2272 
L 4684 1741 
L 678 1741 
L 678 2272 
z
" transform="scale(0.015625)"/>
        <path id="DejaVuSans-2e" d="M 684 794 
L 1344 794 
L 1344 0 
L 684 0 
L 684 794 
z
" transform="scale(0.015625)"/>
       </defs>
       <use xlink:href="#DejaVuSans-2212"/>
       <use xlink:href="#DejaVuSans-31" x="83.789062"/>
       <use xlink:href="#DejaVuSans-2e" x="147.412109"/>
       <use xlink:href="#DejaVuSans-30" x="179.199219"/>
      </g>
     </g>
    </g>
    <g id="ytick_2">
     <g id="line2d_8">
      <path d="M 108 405.939873 
L 777.6 405.939873 
" clip-path="url(#p11853cdcce)" style="fill: none; stroke: #ffffff; stroke-linecap: round"/>
     </g>
     <g id="text_8">
      <!-- −0.5 -->
      <g style="fill: #262626" transform="translate(54.790937 412.778467)scale(0.18 -0.18)">
       <use xlink:href="#DejaVuSans-2212"/>
       <use xlink:href="#DejaVuSans-30" x="83.789062"/>
       <use xlink:href="#DejaVuSans-2e" x="147.412109"/>
       <use xlink:href="#DejaVuSans-35" x="179.199219"/>
      </g>
     </g>
    </g>
    <g id="ytick_3">
     <g id="line2d_9">
      <path d="M 108 341.126772 
L 777.6 341.126772 
" clip-path="url(#p11853cdcce)" style="fill: none; stroke: #ffffff; stroke-linecap: round"/>
     </g>
     <g id="text_9">
      <!-- 0.0 -->
      <g style="fill: #262626" transform="translate(69.874375 347.965366)scale(0.18 -0.18)">
       <use xlink:href="#DejaVuSans-30"/>
       <use xlink:href="#DejaVuSans-2e" x="63.623047"/>
       <use xlink:href="#DejaVuSans-30" x="95.410156"/>
      </g>
     </g>
    </g>
    <g id="ytick_4">
     <g id="line2d_10">
      <path d="M 108 276.31367 
L 777.6 276.31367 
" clip-path="url(#p11853cdcce)" style="fill: none; stroke: #ffffff; stroke-linecap: round"/>
     </g>
     <g id="text_10">
      <!-- 0.5 -->
      <g style="fill: #262626" transform="translate(69.874375 283.152264)scale(0.18 -0.18)">
       <use xlink:href="#DejaVuSans-30"/>
       <use xlink:href="#DejaVuSans-2e" x="63.623047"/>
       <use xlink:href="#DejaVuSans-35" x="95.410156"/>
      </g>
     </g>
    </g>
    <g id="ytick_5">
     <g id="line2d_11">
      <path d="M 108 211.500569 
L 777.6 211.500569 
" clip-path="url(#p11853cdcce)" style="fill: none; stroke: #ffffff; stroke-linecap: round"/>
     </g>
     <g id="text_11">
      <!-- 1.0 -->
      <g style="fill: #262626" transform="translate(69.874375 218.339162)scale(0.18 -0.18)">
       <use xlink:href="#DejaVuSans-31"/>
       <use xlink:href="#DejaVuSans-2e" x="63.623047"/>
       <use xlink:href="#DejaVuSans-30" x="95.410156"/>
      </g>
     </g>
    </g>
    <g id="ytick_6">
     <g id="line2d_12">
      <path d="M 108 146.687467 
L 777.6 146.687467 
" clip-path="url(#p11853cdcce)" style="fill: none; stroke: #ffffff; stroke-linecap: round"/>
     </g>
     <g id="text_12">
      <!-- 1.5 -->
      <g style="fill: #262626" transform="translate(69.874375 153.526061)scale(0.18 -0.18)">
       <use xlink:href="#DejaVuSans-31"/>
       <use xlink:href="#DejaVuSans-2e" x="63.623047"/>
       <use xlink:href="#DejaVuSans-35" x="95.410156"/>
      </g>
     </g>
    </g>
    <g id="ytick_7">
     <g id="line2d_13">
      <path d="M 108 81.874366 
L 777.6 81.874366 
" clip-path="url(#p11853cdcce)" style="fill: none; stroke: #ffffff; stroke-linecap: round"/>
     </g>
     <g id="text_13">
      <!-- 2.0 -->
      <g style="fill: #262626" transform="translate(69.874375 88.712959)scale(0.18 -0.18)">
       <use xlink:href="#DejaVuSans-32"/>
       <use xlink:href="#DejaVuSans-2e" x="63.623047"/>
       <use xlink:href="#DejaVuSans-30" x="95.410156"/>
      </g>
     </g>
    </g>
   </g>
   <g id="line2d_14">
    <path d="M 138.436364 364.697962 
L 139.656258 370.607766 
L 140.876152 370.607766 
L 142.096047 388.113714 
L 143.315941 388.113714 
L 144.535835 387.43386 
L 145.75573 390.261772 
L 146.975624 395.056094 
L 148.195518 392.294166 
L 149.415413 385.912485 
L 150.635307 385.912485 
L 151.855201 374.08047 
L 153.075096 374.08047 
L 154.29499 375.555055 
L 155.514884 390.650251 
L 156.734779 390.650251 
L 157.954673 391.507007 
L 159.174567 388.43394 
L 160.394462 378.845664 
L 161.614356 367.673091 
L 162.83425 348.820645 
L 164.054145 334.589035 
L 165.274039 323.206538 
L 166.493933 316.687127 
L 167.713828 316.687127 
L 168.933722 296.155549 
L 170.153616 296.155549 
L 171.373511 282.234415 
L 173.813299 271.33767 
L 175.033194 271.33767 
L 176.253088 293.924899 
L 177.472982 293.924899 
L 178.692877 284.724407 
L 179.912771 284.724407 
L 181.132665 241.941286 
L 182.35256 253.79343 
L 183.572454 253.79343 
L 184.792348 260.342926 
L 186.012243 294.136568 
L 187.232137 337.967972 
L 188.452031 337.967972 
L 189.671926 312.146783 
L 190.89182 312.146783 
L 192.111714 312.433416 
L 193.331609 312.433416 
L 194.551503 324.852553 
L 195.771397 324.852553 
L 196.991292 348.549729 
L 198.211186 380.020344 
L 199.43108 406.105695 
L 200.650975 335.935393 
L 201.870869 342.464925 
L 203.090763 357.856411 
L 204.310658 358.45089 
L 205.530552 366.55174 
L 206.750446 359.341086 
L 207.970341 359.341086 
L 209.190235 335.603362 
L 210.410129 325.173613 
L 211.630024 300.811787 
L 212.849918 318.454833 
L 214.069812 351.367117 
L 215.289707 353.575719 
L 216.509601 353.385681 
L 217.729495 353.385681 
L 218.94939 358.451956 
L 220.169284 369.311768 
L 221.389178 369.311768 
L 222.609073 374.911992 
L 223.828967 374.911992 
L 225.048861 379.60116 
L 226.268756 379.60116 
L 227.48865 376.223875 
L 228.708544 371.676687 
L 229.928439 368.983924 
L 231.148333 368.559486 
L 232.368227 368.559486 
L 233.588122 367.12837 
L 234.808016 367.12837 
L 236.02791 369.150086 
L 237.247805 369.150086 
L 238.467699 383.925537 
L 239.687593 383.925537 
L 240.907488 382.677488 
L 242.127382 382.677488 
L 243.347276 386.791076 
L 244.567171 386.791076 
L 245.787065 383.058658 
L 247.006959 381.282069 
L 248.226854 381.282069 
L 249.446748 383.011095 
L 250.666642 383.011095 
L 251.886537 376.706183 
L 253.106431 376.706183 
L 254.326325 361.124784 
L 255.54622 361.124784 
L 256.766114 357.457593 
L 257.986008 357.457593 
L 259.205903 347.674213 
L 260.425797 334.873425 
L 261.645691 334.873425 
L 262.865586 331.118617 
L 264.08548 339.611593 
L 265.305374 345.469615 
L 266.525269 345.469615 
L 267.745163 387.257575 
L 268.965057 326.544263 
L 270.184952 347.338226 
L 271.404846 231.529456 
L 272.62474 239.039863 
L 273.844635 239.039863 
L 275.064529 245.583873 
L 276.284423 245.583873 
L 278.724212 340.155326 
L 279.944106 354.250335 
L 281.164001 354.250335 
L 282.383895 355.813957 
L 283.603789 364.663131 
L 284.823684 364.303472 
L 286.043578 365.857421 
L 287.263472 365.857421 
L 288.483367 294.198673 
L 289.703261 294.198673 
L 290.923155 281.297288 
L 292.14305 281.297288 
L 293.362944 305.342288 
L 294.582838 322.28369 
L 295.802733 341.795037 
L 297.022627 355.945274 
L 298.242521 348.805501 
L 299.462416 348.805501 
L 300.68231 345.279269 
L 301.902204 335.100363 
L 303.122099 339.556381 
L 304.341993 341.541444 
L 305.561887 343.033644 
L 306.781782 361.244713 
L 308.001676 370.629709 
L 309.22157 370.629709 
L 310.441465 375.450734 
L 311.661359 370.951061 
L 312.881253 369.876578 
L 314.101148 369.876578 
L 315.321042 388.113823 
L 317.760831 420.344863 
L 318.980725 422.54696 
L 320.200619 423.373677 
L 321.420514 432.973476 
L 322.640408 431.922538 
L 323.860302 431.922538 
L 325.080197 422.363954 
L 326.300091 417.563201 
L 327.519985 417.563201 
L 328.73988 412.33996 
L 329.959774 408.19126 
L 331.179668 408.718567 
L 332.399563 406.257333 
L 333.619457 402.374855 
L 334.839351 406.154387 
L 336.059246 408.933824 
L 337.27914 408.933824 
L 338.499034 396.986332 
L 339.718929 376.447105 
L 340.938823 376.447105 
L 342.158717 372.629404 
L 343.378612 367.114168 
L 344.598506 364.092404 
L 345.8184 364.092404 
L 347.038295 332.945398 
L 348.258189 313.072181 
L 349.478083 307.61508 
L 350.697978 297.419992 
L 351.917872 297.419992 
L 353.137766 288.323128 
L 354.357661 288.323128 
L 355.577555 282.946626 
L 356.797449 298.643689 
L 358.017344 326.810945 
L 359.237238 346.203029 
L 360.457132 356.352482 
L 361.677027 356.352482 
L 362.896921 348.786093 
L 364.116815 348.786093 
L 365.33671 338.754667 
L 366.556604 292.594286 
L 367.776498 292.594286 
L 368.996393 283.362921 
L 370.216287 283.362921 
L 371.436181 259.531134 
L 372.656076 259.531134 
L 373.87597 258.748445 
L 375.095864 246.151045 
L 376.315759 250.016493 
L 377.535653 240.330512 
L 378.755547 240.330512 
L 379.975442 236.557253 
L 381.195336 236.557253 
L 382.41523 323.59188 
L 383.635125 382.868514 
L 384.855019 266.911708 
L 386.074913 278.601435 
L 387.294808 88.887273 
L 388.514702 136.681037 
L 389.734596 278.766338 
L 390.954491 270.711679 
L 392.174385 270.711679 
L 393.394279 295.50184 
L 394.614174 295.50184 
L 395.834068 270.360877 
L 397.053962 259.202376 
L 398.273857 329.185167 
L 399.493751 359.724357 
L 400.713645 353.747459 
L 401.93354 353.747459 
L 403.153434 360.162456 
L 404.373328 395.706992 
L 405.593223 395.706992 
L 406.813117 419.653295 
L 410.4728 419.653295 
L 412.912589 446.326712 
L 414.132483 454.751249 
L 416.572272 478.666318 
L 417.792166 477.448207 
L 419.01206 477.448207 
L 420.231955 457.46673 
L 421.451849 442.940092 
L 422.671743 442.940092 
L 423.891638 442.000639 
L 425.111532 428.172664 
L 426.331426 446.122195 
L 427.551321 432.909007 
L 428.771215 387.774127 
L 429.991109 328.257281 
L 431.211004 313.26452 
L 432.430898 313.26452 
L 433.650792 434.806514 
L 434.870687 434.806514 
L 436.090581 414.011814 
L 437.310475 388.352289 
L 438.53037 385.361721 
L 439.750264 373.24391 
L 440.970158 328.955865 
L 442.190053 322.477296 
L 443.409947 331.557256 
L 444.629842 331.557256 
L 445.849736 313.597648 
L 447.06963 313.597648 
L 448.289525 320.978498 
L 449.509419 323.817396 
L 450.729313 319.376923 
L 451.949208 320.753197 
L 453.169102 323.337375 
L 454.388996 328.295233 
L 455.608891 329.365484 
L 456.828785 339.448398 
L 458.048679 339.448398 
L 459.268574 345.232386 
L 460.488468 345.232386 
L 461.708362 346.722794 
L 462.928257 369.518601 
L 464.148151 375.751149 
L 465.368045 384.338 
L 466.58794 397.844324 
L 467.807834 397.844324 
L 469.027728 384.359755 
L 470.247623 384.359755 
L 471.467517 375.564265 
L 472.687411 402.778324 
L 473.907306 402.778324 
L 475.1272 404.54796 
L 476.347094 403.950685 
L 477.566989 386.468177 
L 478.786883 386.468177 
L 480.006777 335.798637 
L 481.226672 335.798637 
L 482.446566 277.535743 
L 483.66646 277.535743 
L 484.886355 261.442537 
L 486.106249 265.228867 
L 487.326143 265.228867 
L 488.546038 291.566824 
L 489.765932 313.060854 
L 490.985826 327.127476 
L 492.205721 330.598543 
L 493.425615 330.212042 
L 494.645509 328.351295 
L 495.865404 335.011788 
L 497.085298 335.011788 
L 498.305192 340.758288 
L 499.525087 354.673582 
L 500.744981 354.673582 
L 501.964875 336.296058 
L 503.18477 322.952387 
L 504.404664 321.994725 
L 505.624558 329.494513 
L 506.844453 332.507841 
L 508.064347 318.232701 
L 509.284241 295.874621 
L 510.504136 290.430498 
L 511.72403 290.430498 
L 512.943924 326.982392 
L 514.163819 326.982392 
L 515.383713 338.21846 
L 516.603607 338.21846 
L 517.823502 375.20703 
L 519.043396 213.95613 
L 520.26329 202.449769 
L 521.483185 168.613895 
L 522.703079 191.43184 
L 523.922973 315.375893 
L 525.142868 364.722687 
L 526.362762 364.722687 
L 527.582656 336.833779 
L 530.022445 318.387196 
L 531.242339 342.058242 
L 532.462234 362.307824 
L 533.682128 350.8809 
L 534.902022 344.553783 
L 536.121917 344.553783 
L 537.341811 368.350397 
L 538.561705 381.566181 
L 539.7816 381.566181 
L 541.001494 401.003634 
L 542.221388 415.501258 
L 543.441283 413.666334 
L 544.661177 408.479856 
L 545.881071 410.58514 
L 547.100966 411.354127 
L 548.32086 413.54783 
L 549.540754 408.625529 
L 550.760649 400.814972 
L 551.980543 400.814972 
L 553.200437 377.090244 
L 554.420332 376.525912 
L 555.640226 382.785905 
L 556.86012 382.785905 
L 558.080015 399.180282 
L 559.299909 399.180282 
L 560.519803 388.607118 
L 561.739698 370.416214 
L 562.959592 364.71221 
L 564.179486 364.71221 
L 565.399381 369.688209 
L 566.619275 362.433903 
L 567.839169 362.433903 
L 569.059064 370.547439 
L 570.278958 370.547439 
L 571.498852 360.611726 
L 572.718747 346.811739 
L 573.938641 349.995912 
L 575.158535 333.660485 
L 576.37843 333.660485 
L 577.598324 330.50799 
L 578.818218 330.50799 
L 581.258007 329.591803 
L 582.477901 330.156226 
L 583.697796 331.533305 
L 584.91769 332.706006 
L 586.137584 336.374681 
L 587.357479 342.359893 
L 588.577373 342.359893 
L 589.797267 339.227703 
L 591.017162 339.227703 
L 592.237056 342.951142 
L 593.45695 344.390402 
L 594.676845 343.150543 
L 595.896739 343.150543 
L 597.116633 343.683938 
L 598.336528 348.648935 
L 599.556422 348.648935 
L 600.776316 338.184928 
L 601.996211 330.043113 
L 603.216105 330.043113 
L 604.435999 340.928916 
L 605.655894 340.928916 
L 606.875788 331.38907 
L 608.095682 323.904395 
L 609.315577 324.496509 
L 610.535471 334.064541 
L 611.755365 341.574466 
L 612.97526 353.910809 
L 614.195154 355.834818 
L 615.415048 376.193188 
L 616.634943 376.193188 
L 617.854837 389.067035 
L 619.074731 386.76972 
L 620.294626 386.76972 
L 621.51452 400.470131 
L 622.734414 400.470131 
L 623.954309 412.786385 
L 625.174203 402.441826 
L 626.394097 389.929508 
L 627.613992 389.929508 
L 628.833886 381.03889 
L 630.05378 381.03889 
L 631.273675 376.687238 
L 632.493569 365.893441 
L 633.713463 359.742237 
L 634.933358 359.742237 
L 636.153252 345.540264 
L 637.373146 345.540264 
L 639.812935 302.438349 
L 641.032829 290.598607 
L 642.252724 292.109212 
L 643.472618 284.449382 
L 644.692512 296.833056 
L 645.912407 303.773211 
L 647.132301 324.400425 
L 648.352195 275.773615 
L 649.57209 217.381139 
L 650.791984 196.436798 
L 652.011878 240.718867 
L 653.231773 240.718867 
L 654.451667 409.866666 
L 655.671561 409.866666 
L 656.891456 447.446689 
L 658.11135 447.446689 
L 659.331244 405.347141 
L 660.551139 405.347141 
L 661.771033 391.076683 
L 662.990927 391.076683 
L 664.210822 405.12283 
L 665.430716 405.12283 
L 666.65061 383.617658 
L 667.870505 365.899065 
L 669.090399 364.674042 
L 670.310293 364.674042 
L 671.530188 380.495699 
L 672.750082 380.152279 
L 673.969976 380.006466 
L 675.189871 380.499344 
L 676.409765 369.710152 
L 677.629659 369.710152 
L 678.849554 325.72178 
L 680.069448 306.886888 
L 681.289342 300.867108 
L 682.509237 300.867108 
L 683.729131 436.095421 
L 684.949025 409.354642 
L 686.16892 385.533308 
L 687.388814 345.08265 
L 688.608708 373.363127 
L 689.828603 388.26127 
L 691.048497 384.019211 
L 692.268391 378.098869 
L 693.488286 375.579439 
L 694.70818 374.907434 
L 695.928074 361.251961 
L 697.147969 360.579709 
L 698.367863 360.579709 
L 699.587757 367.061785 
L 700.807652 363.023575 
L 702.027546 347.905508 
L 703.24744 326.279497 
L 704.467335 320.284488 
L 705.687229 320.284488 
L 706.907123 325.836841 
L 708.127018 330.842046 
L 709.346912 330.842046 
L 710.566806 337.07688 
L 711.786701 337.07688 
L 713.006595 351.789593 
L 714.226489 351.789593 
L 715.446384 366.470629 
L 716.666278 366.470629 
L 717.886172 363.392245 
L 720.325961 363.392245 
L 721.545855 364.750502 
L 723.985644 364.750502 
L 725.205538 370.714296 
L 726.425433 383.566233 
L 727.645327 387.493956 
L 728.865221 387.493956 
L 730.085116 366.424301 
L 731.30501 366.424301 
L 732.524904 368.000441 
L 733.744799 368.899383 
L 734.964693 363.097331 
L 736.184587 363.097331 
L 737.404482 340.689354 
L 738.624376 340.689354 
L 739.84427 387.831378 
L 741.064165 362.889956 
L 742.284059 353.990544 
L 743.503953 238.743324 
L 744.723848 232.836502 
L 745.943742 186.341134 
L 747.163636 221.860572 
L 747.163636 221.860572 
" clip-path="url(#p11853cdcce)" style="fill: none; stroke: #4c72b0; stroke-width: 1.5; stroke-linecap: round"/>
   </g>
   <g id="line2d_15">
    <path d="M 138.436364 361.974952 
L 139.656258 360.194421 
L 142.096047 354.856526 
L 143.315941 354.005328 
L 144.535835 356.490887 
L 145.75573 362.78229 
L 148.195518 380.440793 
L 149.415413 387.01815 
L 150.635307 390.467464 
L 151.855201 391.479164 
L 153.075096 391.366764 
L 154.29499 390.871187 
L 155.514884 389.640237 
L 156.734779 386.819286 
L 159.174567 377.664649 
L 160.394462 375.523118 
L 161.614356 377.848518 
L 164.054145 390.272204 
L 165.274039 392.097183 
L 166.493933 386.587665 
L 167.713828 374.260631 
L 170.153616 342.239997 
L 171.373511 328.672893 
L 172.593405 318.367552 
L 173.813299 310.778006 
L 176.253088 297.827333 
L 178.692877 281.545944 
L 179.912771 274.994598 
L 181.132665 272.981353 
L 182.35256 276.554785 
L 183.572454 283.516587 
L 184.792348 288.657276 
L 186.012243 286.506018 
L 187.232137 275.410641 
L 188.452031 260.026744 
L 189.671926 249.687978 
L 190.89182 253.035047 
L 192.111714 272.302761 
L 193.331609 301.078424 
L 194.551503 327.171895 
L 195.771397 339.363082 
L 196.991292 334.357791 
L 198.211186 319.236562 
L 199.43108 306.893846 
L 200.650975 307.341582 
L 201.870869 321.676756 
L 204.310658 362.90379 
L 205.530552 374.729447 
L 206.750446 376.066631 
L 207.970341 368.002711 
L 209.190235 355.695689 
L 210.410129 347.012377 
L 211.630024 347.532099 
L 212.849918 355.341128 
L 214.069812 361.444169 
L 215.289707 356.822403 
L 216.509601 340.372865 
L 217.729495 320.758663 
L 218.94939 310.46468 
L 220.169284 316.68181 
L 222.609073 356.794757 
L 223.828967 368.204383 
L 225.048861 367.71652 
L 226.268756 362.07184 
L 227.48865 360.441136 
L 228.708544 366.466335 
L 229.928439 376.144606 
L 231.148333 382.591303 
L 232.368227 382.356586 
L 234.808016 372.376402 
L 236.02791 369.778734 
L 237.247805 369.230909 
L 238.467699 368.925298 
L 240.907488 367.233592 
L 242.127382 367.893358 
L 243.347276 370.65377 
L 244.567171 375.11873 
L 245.787065 380.105044 
L 247.006959 384.172365 
L 248.226854 386.268827 
L 249.446748 386.295719 
L 251.886537 383.83417 
L 253.106431 383.000458 
L 255.54622 381.780817 
L 256.766114 380.72488 
L 257.986008 378.962568 
L 259.205903 375.897699 
L 260.425797 371.010227 
L 262.865586 358.064804 
L 264.08548 352.718553 
L 266.525269 344.655069 
L 268.965057 335.012795 
L 270.184952 333.408525 
L 271.404846 337.27766 
L 273.844635 353.452719 
L 275.064529 352.751065 
L 276.284423 336.840674 
L 277.504318 304.838856 
L 278.724212 264.877217 
L 279.944106 232.15245 
L 281.164001 221.110231 
L 282.383895 236.633895 
L 283.603789 271.324306 
L 284.823684 310.922698 
L 286.043578 342.821362 
L 287.263472 361.240883 
L 288.483367 367.21014 
L 289.703261 365.605302 
L 292.14305 357.535606 
L 293.362944 351.30901 
L 294.582838 338.368032 
L 295.802733 316.990014 
L 297.022627 292.775923 
L 298.242521 277.16927 
L 299.462416 279.776776 
L 300.68231 300.644722 
L 301.902204 329.418457 
L 303.122099 352.297821 
L 304.341993 360.962427 
L 305.561887 356.5519 
L 306.781782 346.645988 
L 308.001676 338.911434 
L 309.22157 336.755964 
L 310.441465 339.425455 
L 311.661359 344.862886 
L 312.881253 351.944231 
L 315.321042 368.828604 
L 316.540936 375.166102 
L 317.760831 377.294766 
L 320.200619 374.348708 
L 321.420514 377.906114 
L 322.640408 388.959581 
L 325.080197 421.434515 
L 326.300091 431.48854 
L 327.519985 433.844835 
L 328.73988 431.218174 
L 329.959774 427.757548 
L 332.399563 423.410433 
L 333.619457 419.77526 
L 336.059246 409.407516 
L 337.27914 406.42423 
L 338.499034 405.758948 
L 339.718929 406.101165 
L 340.938823 406.11066 
L 342.158717 405.350857 
L 343.378612 403.666851 
L 344.598506 400.12152 
L 345.8184 393.331303 
L 348.258189 372.468226 
L 349.478083 364.371857 
L 350.697978 360.206066 
L 351.917872 357.040321 
L 353.137766 349.657056 
L 354.357661 335.040531 
L 355.577555 315.629924 
L 356.797449 298.104749 
L 358.017344 288.382112 
L 359.237238 287.222271 
L 361.677027 294.201066 
L 362.896921 298.369338 
L 364.116815 307.177269 
L 365.33671 323.476498 
L 366.556604 344.035828 
L 367.776498 360.255699 
L 368.996393 364.207222 
L 370.216287 354.39486 
L 373.87597 299.19521 
L 375.095864 286.036457 
L 376.315759 275.974531 
L 377.535653 268.327689 
L 378.755547 262.45813 
L 382.41523 247.824691 
L 383.635125 243.747489 
L 384.855019 241.621233 
L 386.074913 243.656998 
L 387.294808 253.31748 
L 388.514702 272.836994 
L 389.734596 297.366364 
L 390.954491 311.3753 
L 392.174385 295.835268 
L 393.394279 246.063371 
L 394.614174 184.998889 
L 395.834068 153.498408 
L 397.053962 178.80058 
L 399.493751 315.437843 
L 400.713645 338.676742 
L 401.93354 314.039302 
L 403.153434 276.202069 
L 404.373328 266.258371 
L 405.593223 297.611105 
L 406.813117 348.776536 
L 408.033011 385.945362 
L 409.252906 392.674564 
L 410.4728 380.634933 
L 411.692694 374.688254 
L 412.912589 388.817894 
L 414.132483 415.478039 
L 415.352377 435.947359 
L 416.572272 439.289727 
L 417.792166 431.482308 
L 419.01206 427.864416 
L 420.231955 438.188988 
L 421.451849 458.763789 
L 422.671743 477.365963 
L 423.891638 484.232727 
L 425.111532 478.54056 
L 427.551321 453.962499 
L 428.771215 444.676391 
L 429.991109 438.518569 
L 431.211004 434.536511 
L 432.430898 430.96699 
L 433.650792 423.948617 
L 434.870687 407.984332 
L 436.090581 380.603365 
L 437.310475 348.635177 
L 438.53037 328.756544 
L 439.750264 337.25668 
L 440.970158 374.556597 
L 442.190053 419.201008 
L 443.409947 440.903646 
L 444.629842 423.929297 
L 447.06963 336.126926 
L 448.289525 315.144904 
L 449.509419 317.486307 
L 450.729313 327.853901 
L 451.949208 331.154347 
L 453.169102 324.28153 
L 454.388996 314.950092 
L 455.608891 311.883602 
L 456.828785 316.730861 
L 458.048679 324.179371 
L 459.268574 328.289204 
L 460.488468 328.058004 
L 461.708362 327.320667 
L 462.928257 330.162777 
L 464.148151 336.915165 
L 465.368045 344.385565 
L 466.58794 349.507898 
L 467.807834 352.556198 
L 469.027728 356.88551 
L 470.247623 365.590225 
L 472.687411 390.660405 
L 473.907306 397.732299 
L 475.1272 397.128338 
L 477.566989 385.032152 
L 478.786883 384.438216 
L 480.006777 390.755159 
L 481.226672 400.137714 
L 482.446566 405.548828 
L 483.66646 401.139819 
L 484.886355 385.551186 
L 486.106249 361.781727 
L 488.546038 307.517868 
L 489.765932 283.915452 
L 490.985826 266.714068 
L 492.205721 259.07979 
L 493.425615 262.804639 
L 494.645509 276.719859 
L 497.085298 316.3677 
L 498.305192 330.816359 
L 499.525087 337.202811 
L 500.744981 336.623623 
L 501.964875 333.327334 
L 503.18477 332.245811 
L 504.404664 335.960586 
L 505.624558 343.030255 
L 506.844453 348.846813 
L 508.064347 348.66713 
L 509.284241 341.096301 
L 510.504136 329.584083 
L 511.72403 320.215433 
L 512.943924 316.80318 
L 514.163819 317.365874 
L 515.383713 315.922859 
L 516.603607 308.847148 
L 517.823502 299.805368 
L 519.043396 297.630966 
L 520.26329 308.152 
L 521.483185 327.305621 
L 522.703079 341.8125 
L 523.922973 336.838859 
L 525.142868 305.325482 
L 527.582656 204.879204 
L 528.802551 184.61509 
L 530.022445 211.191134 
L 531.242339 277.611152 
L 532.462234 351.247332 
L 533.682128 393.097979 
L 534.902022 385.530929 
L 536.121917 345.625963 
L 537.341811 310.945958 
L 538.561705 308.888811 
L 539.7816 336.353712 
L 541.001494 367.015148 
L 542.221388 377.66079 
L 543.441283 368.141814 
L 544.661177 357.674182 
L 545.881071 364.072784 
L 548.32086 412.586806 
L 549.540754 424.358718 
L 550.760649 420.348285 
L 551.980543 409.992514 
L 553.200437 404.138419 
L 554.420332 405.930702 
L 555.640226 410.24242 
L 556.86012 409.978196 
L 558.080015 402.43012 
L 559.299909 390.715119 
L 560.519803 380.633865 
L 561.739698 376.579145 
L 562.959592 379.376553 
L 565.399381 392.9845 
L 566.619275 394.402765 
L 567.839169 388.312052 
L 570.278958 364.590586 
L 571.498852 358.170542 
L 572.718747 359.205507 
L 573.938641 364.62336 
L 575.158535 369.093573 
L 576.37843 369.013123 
L 577.598324 364.23634 
L 580.038113 348.747997 
L 581.258007 341.231948 
L 582.477901 334.919744 
L 583.697796 330.517924 
L 584.91769 328.53743 
L 586.137584 328.711879 
L 588.577373 331.07496 
L 589.797267 331.713142 
L 591.017162 332.477138 
L 592.237056 334.262756 
L 594.676845 340.525931 
L 595.896739 342.647065 
L 597.116633 342.888112 
L 598.336528 341.916809 
L 599.556422 341.258652 
L 600.776316 341.95386 
L 603.216105 345.382116 
L 604.435999 345.937211 
L 605.655894 345.030607 
L 606.875788 342.671455 
L 608.095682 339.08576 
L 609.315577 335.152338 
L 610.535471 332.476754 
L 611.755365 332.191326 
L 612.97526 333.48115 
L 614.195154 333.9836 
L 616.634943 330.613284 
L 617.854837 332.750739 
L 619.074731 341.389013 
L 621.51452 368.757477 
L 622.734414 378.76161 
L 623.954309 384.17407 
L 626.394097 389.986909 
L 627.613992 394.106384 
L 628.833886 398.964291 
L 630.05378 403.066899 
L 631.273675 404.52003 
L 632.493569 401.819334 
L 633.713463 394.960456 
L 634.933358 386.01306 
L 636.153252 378.070371 
L 637.373146 372.9906 
L 638.593041 369.955093 
L 639.812935 366.364936 
L 641.032829 360.220006 
L 642.252724 351.534935 
L 644.692512 330.489313 
L 645.912407 318.011409 
L 648.352195 291.538613 
L 649.57209 284.517551 
L 650.791984 285.886122 
L 652.011878 293.441819 
L 653.231773 299.375517 
L 654.451667 293.922614 
L 655.671561 272.456789 
L 656.891456 242.173319 
L 658.11135 222.35747 
L 659.331244 234.671353 
L 660.551139 287.61565 
L 662.990927 438.730762 
L 664.210822 473.681202 
L 665.430716 462.526041 
L 667.870505 386.246296 
L 669.090399 372.907992 
L 670.310293 382.952443 
L 671.530188 399.396655 
L 672.750082 404.309615 
L 673.969976 392.243525 
L 675.189871 372.105673 
L 676.409765 358.208603 
L 677.629659 358.789488 
L 680.069448 383.351925 
L 681.289342 387.013239 
L 682.509237 379.058634 
L 683.729131 363.187048 
L 686.16892 327.68914 
L 687.388814 316.507945 
L 688.608708 317.941236 
L 689.828603 337.529059 
L 692.268391 402.512175 
L 693.488286 412.184778 
L 694.70818 395.616003 
L 695.928074 368.713759 
L 697.147969 354.630081 
L 698.367863 362.901144 
L 699.587757 381.865148 
L 700.807652 391.386739 
L 702.027546 382.174416 
L 703.24744 362.781655 
L 704.467335 349.368118 
L 705.687229 350.007745 
L 706.907123 358.451081 
L 708.127018 361.440268 
L 709.346912 351.256602 
L 710.566806 332.093057 
L 711.786701 315.75917 
L 713.006595 311.638649 
L 714.226489 319.801834 
L 715.446384 332.40842 
L 716.666278 341.103385 
L 717.886172 343.517212 
L 719.106067 343.692864 
L 720.325961 347.076452 
L 721.545855 355.170001 
L 722.76575 364.449319 
L 723.985644 369.85392 
L 725.205538 369.251648 
L 726.425433 364.962352 
L 727.645327 361.452801 
L 728.865221 361.713163 
L 730.085116 365.591801 
L 732.524904 376.292923 
L 733.744799 380.515178 
L 734.964693 382.801487 
L 736.184587 381.652914 
L 737.404482 376.335949 
L 738.624376 368.615879 
L 739.84427 362.167726 
L 741.064165 359.483795 
L 742.284059 359.504391 
L 743.503953 359.011212 
L 744.723848 356.465425 
L 747.163636 349.852455 
L 747.163636 349.852455 
" clip-path="url(#p11853cdcce)" style="fill: none; stroke: #dd8452; stroke-width: 1.5; stroke-linecap: round"/>
   </g>
   <g id="patch_3">
    <path d="M 108 504 
L 108 69.12 
" style="fill: none; stroke: #ffffff; stroke-width: 1.25; stroke-linejoin: miter; stroke-linecap: square"/>
   </g>
   <g id="patch_4">
    <path d="M 777.6 504 
L 777.6 69.12 
" style="fill: none; stroke: #ffffff; stroke-width: 1.25; stroke-linejoin: miter; stroke-linecap: square"/>
   </g>
   <g id="patch_5">
    <path d="M 108 504 
L 777.6 504 
" style="fill: none; stroke: #ffffff; stroke-width: 1.25; stroke-linejoin: miter; stroke-linecap: square"/>
   </g>
   <g id="patch_6">
    <path d="M 108 69.12 
L 777.6 69.12 
" style="fill: none; stroke: #ffffff; stroke-width: 1.25; stroke-linejoin: miter; stroke-linecap: square"/>
   </g>
   <g id="legend_1">
    <g id="patch_7">
     <path d="M 507.12 158.775 
L 760.8 158.775 
Q 765.6 158.775 765.6 153.975 
L 765.6 85.92 
Q 765.6 81.12 760.8 81.12 
L 507.12 81.12 
Q 502.32 81.12 502.32 85.92 
L 502.32 153.975 
Q 502.32 158.775 507.12 158.775 
z
" style="fill: #eaeaf2; opacity: 0.8; stroke: #cccccc; stroke-linejoin: miter"/>
    </g>
    <g id="line2d_16">
     <path d="M 511.92 100.55625 
L 535.92 100.55625 
L 559.92 100.55625 
" style="fill: none; stroke: #4c72b0; stroke-width: 1.5; stroke-linecap: round"/>
    </g>
    <g id="text_14">
     <!-- raw $x_a$ -->
     <g style="fill: #262626" transform="translate(579.12 108.95625)scale(0.24 -0.24)">
      <defs>
       <path id="DejaVuSans-72" d="M 2631 2963 
Q 2534 3019 2420 3045 
Q 2306 3072 2169 3072 
Q 1681 3072 1420 2755 
Q 1159 2438 1159 1844 
L 1159 0 
L 581 0 
L 581 3500 
L 1159 3500 
L 1159 2956 
Q 1341 3275 1631 3429 
Q 1922 3584 2338 3584 
Q 2397 3584 2469 3576 
Q 2541 3569 2628 3553 
L 2631 2963 
z
" transform="scale(0.015625)"/>
       <path id="DejaVuSans-61" d="M 2194 1759 
Q 1497 1759 1228 1600 
Q 959 1441 959 1056 
Q 959 750 1161 570 
Q 1363 391 1709 391 
Q 2188 391 2477 730 
Q 2766 1069 2766 1631 
L 2766 1759 
L 2194 1759 
z
M 3341 1997 
L 3341 0 
L 2766 0 
L 2766 531 
Q 2569 213 2275 61 
Q 1981 -91 1556 -91 
Q 1019 -91 701 211 
Q 384 513 384 1019 
Q 384 1609 779 1909 
Q 1175 2209 1959 2209 
L 2766 2209 
L 2766 2266 
Q 2766 2663 2505 2880 
Q 2244 3097 1772 3097 
Q 1472 3097 1187 3025 
Q 903 2953 641 2809 
L 641 3341 
Q 956 3463 1253 3523 
Q 1550 3584 1831 3584 
Q 2591 3584 2966 3190 
Q 3341 2797 3341 1997 
z
" transform="scale(0.015625)"/>
       <path id="DejaVuSans-77" d="M 269 3500 
L 844 3500 
L 1563 769 
L 2278 3500 
L 2956 3500 
L 3675 769 
L 4391 3500 
L 4966 3500 
L 4050 0 
L 3372 0 
L 2619 2869 
L 1863 0 
L 1184 0 
L 269 3500 
z
" transform="scale(0.015625)"/>
       <path id="DejaVuSans-20" transform="scale(0.015625)"/>
       <path id="DejaVuSans-Oblique-78" d="M 3841 3500 
L 2234 1784 
L 3219 0 
L 2559 0 
L 1819 1388 
L 531 0 
L -166 0 
L 1556 1844 
L 641 3500 
L 1300 3500 
L 1972 2234 
L 3144 3500 
L 3841 3500 
z
" transform="scale(0.015625)"/>
       <path id="DejaVuSans-Oblique-61" d="M 3438 1997 
L 3047 0 
L 2472 0 
L 2578 531 
Q 2325 219 2001 64 
Q 1678 -91 1281 -91 
Q 834 -91 548 182 
Q 263 456 263 884 
Q 263 1497 752 1853 
Q 1241 2209 2100 2209 
L 2900 2209 
L 2931 2363 
Q 2938 2388 2941 2417 
Q 2944 2447 2944 2509 
Q 2944 2788 2717 2942 
Q 2491 3097 2081 3097 
Q 1800 3097 1504 3025 
Q 1209 2953 897 2809 
L 997 3341 
Q 1322 3463 1633 3523 
Q 1944 3584 2234 3584 
Q 2853 3584 3176 3315 
Q 3500 3047 3500 2534 
Q 3500 2431 3484 2292 
Q 3469 2153 3438 1997 
z
M 2816 1759 
L 2241 1759 
Q 1534 1759 1195 1570 
Q 856 1381 856 984 
Q 856 709 1029 553 
Q 1203 397 1509 397 
Q 1978 397 2328 733 
Q 2678 1069 2791 1631 
L 2816 1759 
z
" transform="scale(0.015625)"/>
      </defs>
      <use xlink:href="#DejaVuSans-72"/>
      <use xlink:href="#DejaVuSans-61" transform="translate(41.113281 0)"/>
      <use xlink:href="#DejaVuSans-77" transform="translate(102.392578 0)"/>
      <use xlink:href="#DejaVuSans-20" transform="translate(184.179688 0)"/>
      <use xlink:href="#DejaVuSans-Oblique-78" transform="translate(215.966797 0)"/>
      <use xlink:href="#DejaVuSans-Oblique-61" transform="translate(275.146484 -16.40625)scale(0.7)"/>
     </g>
    </g>
    <g id="line2d_17">
     <path d="M 511.92 135.78375 
L 535.92 135.78375 
L 559.92 135.78375 
" style="fill: none; stroke: #dd8452; stroke-width: 1.5; stroke-linecap: round"/>
    </g>
    <g id="text_15">
     <!-- Butterworth $x_a$ -->
     <g style="fill: #262626" transform="translate(579.12 144.18375)scale(0.24 -0.24)">
      <defs>
       <path id="DejaVuSans-42" d="M 1259 2228 
L 1259 519 
L 2272 519 
Q 2781 519 3026 730 
Q 3272 941 3272 1375 
Q 3272 1813 3026 2020 
Q 2781 2228 2272 2228 
L 1259 2228 
z
M 1259 4147 
L 1259 2741 
L 2194 2741 
Q 2656 2741 2882 2914 
Q 3109 3088 3109 3444 
Q 3109 3797 2882 3972 
Q 2656 4147 2194 4147 
L 1259 4147 
z
M 628 4666 
L 2241 4666 
Q 2963 4666 3353 4366 
Q 3744 4066 3744 3513 
Q 3744 3084 3544 2831 
Q 3344 2578 2956 2516 
Q 3422 2416 3680 2098 
Q 3938 1781 3938 1306 
Q 3938 681 3513 340 
Q 3088 0 2303 0 
L 628 0 
L 628 4666 
z
" transform="scale(0.015625)"/>
       <path id="DejaVuSans-75" d="M 544 1381 
L 544 3500 
L 1119 3500 
L 1119 1403 
Q 1119 906 1312 657 
Q 1506 409 1894 409 
Q 2359 409 2629 706 
Q 2900 1003 2900 1516 
L 2900 3500 
L 3475 3500 
L 3475 0 
L 2900 0 
L 2900 538 
Q 2691 219 2414 64 
Q 2138 -91 1772 -91 
Q 1169 -91 856 284 
Q 544 659 544 1381 
z
M 1991 3584 
L 1991 3584 
z
" transform="scale(0.015625)"/>
       <path id="DejaVuSans-74" d="M 1172 4494 
L 1172 3500 
L 2356 3500 
L 2356 3053 
L 1172 3053 
L 1172 1153 
Q 1172 725 1289 603 
Q 1406 481 1766 481 
L 2356 481 
L 2356 0 
L 1766 0 
Q 1100 0 847 248 
Q 594 497 594 1153 
L 594 3053 
L 172 3053 
L 172 3500 
L 594 3500 
L 594 4494 
L 1172 4494 
z
" transform="scale(0.015625)"/>
       <path id="DejaVuSans-65" d="M 3597 1894 
L 3597 1613 
L 953 1613 
Q 991 1019 1311 708 
Q 1631 397 2203 397 
Q 2534 397 2845 478 
Q 3156 559 3463 722 
L 3463 178 
Q 3153 47 2828 -22 
Q 2503 -91 2169 -91 
Q 1331 -91 842 396 
Q 353 884 353 1716 
Q 353 2575 817 3079 
Q 1281 3584 2069 3584 
Q 2775 3584 3186 3129 
Q 3597 2675 3597 1894 
z
M 3022 2063 
Q 3016 2534 2758 2815 
Q 2500 3097 2075 3097 
Q 1594 3097 1305 2825 
Q 1016 2553 972 2059 
L 3022 2063 
z
" transform="scale(0.015625)"/>
       <path id="DejaVuSans-6f" d="M 1959 3097 
Q 1497 3097 1228 2736 
Q 959 2375 959 1747 
Q 959 1119 1226 758 
Q 1494 397 1959 397 
Q 2419 397 2687 759 
Q 2956 1122 2956 1747 
Q 2956 2369 2687 2733 
Q 2419 3097 1959 3097 
z
M 1959 3584 
Q 2709 3584 3137 3096 
Q 3566 2609 3566 1747 
Q 3566 888 3137 398 
Q 2709 -91 1959 -91 
Q 1206 -91 779 398 
Q 353 888 353 1747 
Q 353 2609 779 3096 
Q 1206 3584 1959 3584 
z
" transform="scale(0.015625)"/>
       <path id="DejaVuSans-68" d="M 3513 2113 
L 3513 0 
L 2938 0 
L 2938 2094 
Q 2938 2591 2744 2837 
Q 2550 3084 2163 3084 
Q 1697 3084 1428 2787 
Q 1159 2491 1159 1978 
L 1159 0 
L 581 0 
L 581 4863 
L 1159 4863 
L 1159 2956 
Q 1366 3272 1645 3428 
Q 1925 3584 2291 3584 
Q 2894 3584 3203 3211 
Q 3513 2838 3513 2113 
z
" transform="scale(0.015625)"/>
      </defs>
      <use xlink:href="#DejaVuSans-42" transform="translate(0 0.015625)"/>
      <use xlink:href="#DejaVuSans-75" transform="translate(68.603516 0.015625)"/>
      <use xlink:href="#DejaVuSans-74" transform="translate(131.982422 0.015625)"/>
      <use xlink:href="#DejaVuSans-74" transform="translate(171.191406 0.015625)"/>
      <use xlink:href="#DejaVuSans-65" transform="translate(210.400391 0.015625)"/>
      <use xlink:href="#DejaVuSans-72" transform="translate(271.923828 0.015625)"/>
      <use xlink:href="#DejaVuSans-77" transform="translate(313.037109 0.015625)"/>
      <use xlink:href="#DejaVuSans-6f" transform="translate(394.824219 0.015625)"/>
      <use xlink:href="#DejaVuSans-72" transform="translate(456.005859 0.015625)"/>
      <use xlink:href="#DejaVuSans-74" transform="translate(497.119141 0.015625)"/>
      <use xlink:href="#DejaVuSans-68" transform="translate(536.328125 0.015625)"/>
      <use xlink:href="#DejaVuSans-20" transform="translate(599.707031 0.015625)"/>
      <use xlink:href="#DejaVuSans-Oblique-78" transform="translate(631.494141 0.015625)"/>
      <use xlink:href="#DejaVuSans-Oblique-61" transform="translate(690.673828 -16.390625)scale(0.7)"/>
     </g>
    </g>
   </g>
  </g>
 </g>
 <defs>
  <clipPath id="p11853cdcce">
   <rect x="108" y="69.12" width="669.6" height="434.88"/>
  </clipPath>
 </defs>
</svg>
