<?xml version="1.0" encoding="utf-8" standalone="no"?>
<!DOCTYPE svg PUBLIC "-//W3C//DTD SVG 1.1//EN"
  "http://www.w3.org/Graphics/SVG/1.1/DTD/svg11.dtd">
<svg xmlns:xlink="http://www.w3.org/1999/xlink" width="864pt" height="576pt" viewBox="0 0 864 576" xmlns="http://www.w3.org/2000/svg" version="1.1">
 <metadata>
  <rdf:RDF xmlns:dc="http://purl.org/dc/elements/1.1/" xmlns:cc="http://creativecommons.org/ns#" xmlns:rdf="http://www.w3.org/1999/02/22-rdf-syntax-ns#">
   <cc:Work>
    <dc:type rdf:resource="http://purl.org/dc/dcmitype/StillImage"/>
    <dc:date>2022-07-07T12:53:45.079957</dc:date>
    <dc:format>image/svg+xml</dc:format>
    <dc:creator>
     <cc:Agent>
      <dc:title>Matplotlib v3.5.1, https://matplotlib.org/</dc:title>
     </cc:Agent>
    </dc:creator>
   </cc:Work>
  </rdf:RDF>
 </metadata>
 <defs>
  <style type="text/css">*{stroke-linejoin: round; stroke-linecap: butt}</style>
 </defs>
 <g id="figure_1">
  <g id="patch_1">
   <path d="M 0 576 
L 864 576 
L 864 0 
L 0 0 
z
" style="fill: #ffffff"/>
  </g>
  <g id="axes_1">
   <g id="patch_2">
    <path d="M 108 504 
L 777.6 504 
L 777.6 69.12 
L 108 69.12 
z
" style="fill: #eaeaf2"/>
   </g>
   <g id="matplotlib.axis_1">
    <g id="xtick_1">
     <g id="line2d_1">
      <path d="M 138.436364 504 
L 138.436364 69.12 
" clip-path="url(#p651f53354b)" style="fill: none; stroke: #ffffff; stroke-linecap: round"/>
     </g>
     <g id="text_1">
      <!-- 1500 -->
      <g style="fill: #262626" transform="translate(115.531364 527.177187)scale(0.18 -0.18)">
       <defs>
        <path id="DejaVuSans-31" d="M 794 531 
L 1825 531 
L 1825 4091 
L 703 3866 
L 703 4441 
L 1819 4666 
L 2450 4666 
L 2450 531 
L 3481 531 
L 3481 0 
L 794 0 
L 794 531 
z
" transform="scale(0.015625)"/>
        <path id="DejaVuSans-35" d="M 691 4666 
L 3169 4666 
L 3169 4134 
L 1269 4134 
L 1269 2991 
Q 1406 3038 1543 3061 
Q 1681 3084 1819 3084 
Q 2600 3084 3056 2656 
Q 3513 2228 3513 1497 
Q 3513 744 3044 326 
Q 2575 -91 1722 -91 
Q 1428 -91 1123 -41 
Q 819 9 494 109 
L 494 744 
Q 775 591 1075 516 
Q 1375 441 1709 441 
Q 2250 441 2565 725 
Q 2881 1009 2881 1497 
Q 2881 1984 2565 2268 
Q 2250 2553 1709 2553 
Q 1456 2553 1204 2497 
Q 953 2441 691 2322 
L 691 4666 
z
" transform="scale(0.015625)"/>
        <path id="DejaVuSans-30" d="M 2034 4250 
Q 1547 4250 1301 3770 
Q 1056 3291 1056 2328 
Q 1056 1369 1301 889 
Q 1547 409 2034 409 
Q 2525 409 2770 889 
Q 3016 1369 3016 2328 
Q 3016 3291 2770 3770 
Q 2525 4250 2034 4250 
z
M 2034 4750 
Q 2819 4750 3233 4129 
Q 3647 3509 3647 2328 
Q 3647 1150 3233 529 
Q 2819 -91 2034 -91 
Q 1250 -91 836 529 
Q 422 1150 422 2328 
Q 422 3509 836 4129 
Q 1250 4750 2034 4750 
z
" transform="scale(0.015625)"/>
       </defs>
       <use xlink:href="#DejaVuSans-31"/>
       <use xlink:href="#DejaVuSans-35" x="63.623047"/>
       <use xlink:href="#DejaVuSans-30" x="127.246094"/>
       <use xlink:href="#DejaVuSans-30" x="190.869141"/>
      </g>
     </g>
    </g>
    <g id="xtick_2">
     <g id="line2d_2">
      <path d="M 260.425797 504 
L 260.425797 69.12 
" clip-path="url(#p651f53354b)" style="fill: none; stroke: #ffffff; stroke-linecap: round"/>
     </g>
     <g id="text_2">
      <!-- 1600 -->
      <g style="fill: #262626" transform="translate(237.520797 527.177187)scale(0.18 -0.18)">
       <defs>
        <path id="DejaVuSans-36" d="M 2113 2584 
Q 1688 2584 1439 2293 
Q 1191 2003 1191 1497 
Q 1191 994 1439 701 
Q 1688 409 2113 409 
Q 2538 409 2786 701 
Q 3034 994 3034 1497 
Q 3034 2003 2786 2293 
Q 2538 2584 2113 2584 
z
M 3366 4563 
L 3366 3988 
Q 3128 4100 2886 4159 
Q 2644 4219 2406 4219 
Q 1781 4219 1451 3797 
Q 1122 3375 1075 2522 
Q 1259 2794 1537 2939 
Q 1816 3084 2150 3084 
Q 2853 3084 3261 2657 
Q 3669 2231 3669 1497 
Q 3669 778 3244 343 
Q 2819 -91 2113 -91 
Q 1303 -91 875 529 
Q 447 1150 447 2328 
Q 447 3434 972 4092 
Q 1497 4750 2381 4750 
Q 2619 4750 2861 4703 
Q 3103 4656 3366 4563 
z
" transform="scale(0.015625)"/>
       </defs>
       <use xlink:href="#DejaVuSans-31"/>
       <use xlink:href="#DejaVuSans-36" x="63.623047"/>
       <use xlink:href="#DejaVuSans-30" x="127.246094"/>
       <use xlink:href="#DejaVuSans-30" x="190.869141"/>
      </g>
     </g>
    </g>
    <g id="xtick_3">
     <g id="line2d_3">
      <path d="M 382.41523 504 
L 382.41523 69.12 
" clip-path="url(#p651f53354b)" style="fill: none; stroke: #ffffff; stroke-linecap: round"/>
     </g>
     <g id="text_3">
      <!-- 1700 -->
      <g style="fill: #262626" transform="translate(359.51023 527.177187)scale(0.18 -0.18)">
       <defs>
        <path id="DejaVuSans-37" d="M 525 4666 
L 3525 4666 
L 3525 4397 
L 1831 0 
L 1172 0 
L 2766 4134 
L 525 4134 
L 525 4666 
z
" transform="scale(0.015625)"/>
       </defs>
       <use xlink:href="#DejaVuSans-31"/>
       <use xlink:href="#DejaVuSans-37" x="63.623047"/>
       <use xlink:href="#DejaVuSans-30" x="127.246094"/>
       <use xlink:href="#DejaVuSans-30" x="190.869141"/>
      </g>
     </g>
    </g>
    <g id="xtick_4">
     <g id="line2d_4">
      <path d="M 504.404664 504 
L 504.404664 69.12 
" clip-path="url(#p651f53354b)" style="fill: none; stroke: #ffffff; stroke-linecap: round"/>
     </g>
     <g id="text_4">
      <!-- 1800 -->
      <g style="fill: #262626" transform="translate(481.499664 527.177187)scale(0.18 -0.18)">
       <defs>
        <path id="DejaVuSans-38" d="M 2034 2216 
Q 1584 2216 1326 1975 
Q 1069 1734 1069 1313 
Q 1069 891 1326 650 
Q 1584 409 2034 409 
Q 2484 409 2743 651 
Q 3003 894 3003 1313 
Q 3003 1734 2745 1975 
Q 2488 2216 2034 2216 
z
M 1403 2484 
Q 997 2584 770 2862 
Q 544 3141 544 3541 
Q 544 4100 942 4425 
Q 1341 4750 2034 4750 
Q 2731 4750 3128 4425 
Q 3525 4100 3525 3541 
Q 3525 3141 3298 2862 
Q 3072 2584 2669 2484 
Q 3125 2378 3379 2068 
Q 3634 1759 3634 1313 
Q 3634 634 3220 271 
Q 2806 -91 2034 -91 
Q 1263 -91 848 271 
Q 434 634 434 1313 
Q 434 1759 690 2068 
Q 947 2378 1403 2484 
z
M 1172 3481 
Q 1172 3119 1398 2916 
Q 1625 2713 2034 2713 
Q 2441 2713 2670 2916 
Q 2900 3119 2900 3481 
Q 2900 3844 2670 4047 
Q 2441 4250 2034 4250 
Q 1625 4250 1398 4047 
Q 1172 3844 1172 3481 
z
" transform="scale(0.015625)"/>
       </defs>
       <use xlink:href="#DejaVuSans-31"/>
       <use xlink:href="#DejaVuSans-38" x="63.623047"/>
       <use xlink:href="#DejaVuSans-30" x="127.246094"/>
       <use xlink:href="#DejaVuSans-30" x="190.869141"/>
      </g>
     </g>
    </g>
    <g id="xtick_5">
     <g id="line2d_5">
      <path d="M 626.394097 504 
L 626.394097 69.12 
" clip-path="url(#p651f53354b)" style="fill: none; stroke: #ffffff; stroke-linecap: round"/>
     </g>
     <g id="text_5">
      <!-- 1900 -->
      <g style="fill: #262626" transform="translate(603.489097 527.177187)scale(0.18 -0.18)">
       <defs>
        <path id="DejaVuSans-39" d="M 703 97 
L 703 672 
Q 941 559 1184 500 
Q 1428 441 1663 441 
Q 2288 441 2617 861 
Q 2947 1281 2994 2138 
Q 2813 1869 2534 1725 
Q 2256 1581 1919 1581 
Q 1219 1581 811 2004 
Q 403 2428 403 3163 
Q 403 3881 828 4315 
Q 1253 4750 1959 4750 
Q 2769 4750 3195 4129 
Q 3622 3509 3622 2328 
Q 3622 1225 3098 567 
Q 2575 -91 1691 -91 
Q 1453 -91 1209 -44 
Q 966 3 703 97 
z
M 1959 2075 
Q 2384 2075 2632 2365 
Q 2881 2656 2881 3163 
Q 2881 3666 2632 3958 
Q 2384 4250 1959 4250 
Q 1534 4250 1286 3958 
Q 1038 3666 1038 3163 
Q 1038 2656 1286 2365 
Q 1534 2075 1959 2075 
z
" transform="scale(0.015625)"/>
       </defs>
       <use xlink:href="#DejaVuSans-31"/>
       <use xlink:href="#DejaVuSans-39" x="63.623047"/>
       <use xlink:href="#DejaVuSans-30" x="127.246094"/>
       <use xlink:href="#DejaVuSans-30" x="190.869141"/>
      </g>
     </g>
    </g>
    <g id="xtick_6">
     <g id="line2d_6">
      <path d="M 748.383531 504 
L 748.383531 69.12 
" clip-path="url(#p651f53354b)" style="fill: none; stroke: #ffffff; stroke-linecap: round"/>
     </g>
     <g id="text_6">
      <!-- 2000 -->
      <g style="fill: #262626" transform="translate(725.478531 527.177187)scale(0.18 -0.18)">
       <defs>
        <path id="DejaVuSans-32" d="M 1228 531 
L 3431 531 
L 3431 0 
L 469 0 
L 469 531 
Q 828 903 1448 1529 
Q 2069 2156 2228 2338 
Q 2531 2678 2651 2914 
Q 2772 3150 2772 3378 
Q 2772 3750 2511 3984 
Q 2250 4219 1831 4219 
Q 1534 4219 1204 4116 
Q 875 4013 500 3803 
L 500 4441 
Q 881 4594 1212 4672 
Q 1544 4750 1819 4750 
Q 2544 4750 2975 4387 
Q 3406 4025 3406 3419 
Q 3406 3131 3298 2873 
Q 3191 2616 2906 2266 
Q 2828 2175 2409 1742 
Q 1991 1309 1228 531 
z
" transform="scale(0.015625)"/>
       </defs>
       <use xlink:href="#DejaVuSans-32"/>
       <use xlink:href="#DejaVuSans-30" x="63.623047"/>
       <use xlink:href="#DejaVuSans-30" x="127.246094"/>
       <use xlink:href="#DejaVuSans-30" x="190.869141"/>
      </g>
     </g>
    </g>
   </g>
   <g id="matplotlib.axis_2">
    <g id="ytick_1">
     <g id="line2d_7">
      <path d="M 108 476.206375 
L 777.6 476.206375 
" clip-path="url(#p651f53354b)" style="fill: none; stroke: #ffffff; stroke-linecap: round"/>
     </g>
     <g id="text_7">
      <!-- −1.0 -->
      <g style="fill: #262626" transform="translate(54.790937 483.044968)scale(0.18 -0.18)">
       <defs>
        <path id="DejaVuSans-2212" d="M 678 2272 
L 4684 2272 
L 4684 1741 
L 678 1741 
L 678 2272 
z
" transform="scale(0.015625)"/>
        <path id="DejaVuSans-2e" d="M 684 794 
L 1344 794 
L 1344 0 
L 684 0 
L 684 794 
z
" transform="scale(0.015625)"/>
       </defs>
       <use xlink:href="#DejaVuSans-2212"/>
       <use xlink:href="#DejaVuSans-31" x="83.789062"/>
       <use xlink:href="#DejaVuSans-2e" x="147.412109"/>
       <use xlink:href="#DejaVuSans-30" x="179.199219"/>
      </g>
     </g>
    </g>
    <g id="ytick_2">
     <g id="line2d_8">
      <path d="M 108 410.467681 
L 777.6 410.467681 
" clip-path="url(#p651f53354b)" style="fill: none; stroke: #ffffff; stroke-linecap: round"/>
     </g>
     <g id="text_8">
      <!-- −0.5 -->
      <g style="fill: #262626" transform="translate(54.790937 417.306275)scale(0.18 -0.18)">
       <use xlink:href="#DejaVuSans-2212"/>
       <use xlink:href="#DejaVuSans-30" x="83.789062"/>
       <use xlink:href="#DejaVuSans-2e" x="147.412109"/>
       <use xlink:href="#DejaVuSans-35" x="179.199219"/>
      </g>
     </g>
    </g>
    <g id="ytick_3">
     <g id="line2d_9">
      <path d="M 108 344.728988 
L 777.6 344.728988 
" clip-path="url(#p651f53354b)" style="fill: none; stroke: #ffffff; stroke-linecap: round"/>
     </g>
     <g id="text_9">
      <!-- 0.0 -->
      <g style="fill: #262626" transform="translate(69.874375 351.567582)scale(0.18 -0.18)">
       <use xlink:href="#DejaVuSans-30"/>
       <use xlink:href="#DejaVuSans-2e" x="63.623047"/>
       <use xlink:href="#DejaVuSans-30" x="95.410156"/>
      </g>
     </g>
    </g>
    <g id="ytick_4">
     <g id="line2d_10">
      <path d="M 108 278.990295 
L 777.6 278.990295 
" clip-path="url(#p651f53354b)" style="fill: none; stroke: #ffffff; stroke-linecap: round"/>
     </g>
     <g id="text_10">
      <!-- 0.5 -->
      <g style="fill: #262626" transform="translate(69.874375 285.828888)scale(0.18 -0.18)">
       <use xlink:href="#DejaVuSans-30"/>
       <use xlink:href="#DejaVuSans-2e" x="63.623047"/>
       <use xlink:href="#DejaVuSans-35" x="95.410156"/>
      </g>
     </g>
    </g>
    <g id="ytick_5">
     <g id="line2d_11">
      <path d="M 108 213.251601 
L 777.6 213.251601 
" clip-path="url(#p651f53354b)" style="fill: none; stroke: #ffffff; stroke-linecap: round"/>
     </g>
     <g id="text_11">
      <!-- 1.0 -->
      <g style="fill: #262626" transform="translate(69.874375 220.090195)scale(0.18 -0.18)">
       <use xlink:href="#DejaVuSans-31"/>
       <use xlink:href="#DejaVuSans-2e" x="63.623047"/>
       <use xlink:href="#DejaVuSans-30" x="95.410156"/>
      </g>
     </g>
    </g>
    <g id="ytick_6">
     <g id="line2d_12">
      <path d="M 108 147.512908 
L 777.6 147.512908 
" clip-path="url(#p651f53354b)" style="fill: none; stroke: #ffffff; stroke-linecap: round"/>
     </g>
     <g id="text_12">
      <!-- 1.5 -->
      <g style="fill: #262626" transform="translate(69.874375 154.351502)scale(0.18 -0.18)">
       <use xlink:href="#DejaVuSans-31"/>
       <use xlink:href="#DejaVuSans-2e" x="63.623047"/>
       <use xlink:href="#DejaVuSans-35" x="95.410156"/>
      </g>
     </g>
    </g>
    <g id="ytick_7">
     <g id="line2d_13">
      <path d="M 108 81.774215 
L 777.6 81.774215 
" clip-path="url(#p651f53354b)" style="fill: none; stroke: #ffffff; stroke-linecap: round"/>
     </g>
     <g id="text_13">
      <!-- 2.0 -->
      <g style="fill: #262626" transform="translate(69.874375 88.612808)scale(0.18 -0.18)">
       <use xlink:href="#DejaVuSans-32"/>
       <use xlink:href="#DejaVuSans-2e" x="63.623047"/>
       <use xlink:href="#DejaVuSans-30" x="95.410156"/>
      </g>
     </g>
    </g>
   </g>
   <g id="line2d_14">
    <path d="M 138.436364 368.636797 
L 139.656258 374.630998 
L 140.876152 374.630998 
L 142.096047 392.386948 
L 143.315941 392.386948 
L 144.535835 391.697385 
L 145.75573 394.565682 
L 146.975624 399.428472 
L 148.195518 396.6271 
L 149.415413 390.154283 
L 150.635307 390.154283 
L 151.855201 378.153295 
L 153.075096 378.153295 
L 154.29499 379.648939 
L 155.514884 394.959709 
L 156.734779 394.959709 
L 157.954673 395.8287 
L 159.174567 392.711747 
L 160.394462 382.986541 
L 161.614356 371.654413 
L 162.83425 352.532737 
L 164.054145 338.097886 
L 165.274039 326.552836 
L 166.493933 319.940322 
L 167.713828 319.940322 
L 168.933722 299.115534 
L 170.153616 299.115534 
L 171.373511 284.995593 
L 173.813299 273.943233 
L 175.033194 273.943233 
L 176.253088 296.853028 
L 177.472982 296.853028 
L 178.692877 287.521144 
L 179.912771 287.521144 
L 181.132665 244.127041 
L 182.35256 256.148444 
L 183.572454 256.148444 
L 184.792348 262.791473 
L 186.012243 297.06772 
L 187.232137 341.525078 
L 188.452031 341.525078 
L 189.671926 315.335138 
L 190.89182 315.335138 
L 192.111714 315.625864 
L 193.331609 315.625864 
L 194.551503 328.222358 
L 195.771397 328.222358 
L 196.991292 352.257952 
L 198.211186 384.177997 
L 199.43108 410.635871 
L 200.650975 339.463471 
L 201.870869 346.086251 
L 203.090763 361.697542 
L 204.310658 362.300511 
L 205.530552 370.517048 
L 206.750446 363.20342 
L 207.970341 363.20342 
L 209.190235 339.126699 
L 210.410129 328.548003 
L 211.630024 303.838268 
L 212.849918 321.733272 
L 214.069812 355.115575 
L 215.289707 357.355717 
L 216.509601 357.162966 
L 217.729495 357.162966 
L 218.94939 362.301592 
L 220.169284 373.316492 
L 221.389178 373.316492 
L 222.609073 378.996693 
L 223.828967 378.996693 
L 225.048861 383.752827 
L 226.268756 383.752827 
L 227.48865 380.327311 
L 228.708544 375.715184 
L 229.928439 372.983966 
L 231.148333 372.553467 
L 232.368227 372.553467 
L 233.588122 371.101913 
L 234.808016 371.101913 
L 236.02791 373.152502 
L 237.247805 373.152502 
L 238.467699 388.13896 
L 239.687593 388.13896 
L 240.907488 386.873087 
L 242.127382 386.873087 
L 243.347276 391.045421 
L 244.567171 391.045421 
L 245.787065 387.259701 
L 247.006959 385.45774 
L 248.226854 385.45774 
L 249.446748 387.211459 
L 250.666642 387.211459 
L 251.886537 380.816507 
L 253.106431 380.816507 
L 254.326325 365.012591 
L 255.54622 365.012591 
L 256.766114 361.293028 
L 257.986008 361.293028 
L 259.205903 351.369933 
L 260.425797 338.386338 
L 261.645691 338.386338 
L 262.865586 334.577908 
L 264.08548 343.192171 
L 265.305374 349.133851 
L 266.525269 349.133851 
L 267.745163 391.518582 
L 268.965057 329.938227 
L 270.184952 351.029148 
L 271.404846 233.566519 
L 272.62474 241.184182 
L 273.844635 241.184182 
L 275.064529 247.821647 
L 276.284423 247.821647 
L 278.724212 343.743669 
L 279.944106 358.039968 
L 281.164001 358.039968 
L 282.383895 359.62592 
L 283.603789 368.601469 
L 284.823684 368.236673 
L 286.043578 369.812814 
L 287.263472 369.812814 
L 288.483367 297.130712 
L 289.703261 297.130712 
L 290.923155 284.045083 
L 292.14305 284.045083 
L 293.362944 308.433468 
L 294.582838 325.616809 
L 295.802733 345.406797 
L 297.022627 359.759112 
L 298.242521 352.517377 
L 299.462416 352.517377 
L 300.68231 348.940787 
L 301.902204 338.616516 
L 303.122099 343.136171 
L 304.341993 345.149582 
L 305.561887 346.663092 
L 306.781782 365.134232 
L 308.001676 374.653254 
L 309.22157 374.653254 
L 310.441465 379.543128 
L 311.661359 374.979196 
L 312.881253 373.889368 
L 314.101148 373.889368 
L 315.321042 392.387058 
L 317.760831 425.078387 
L 318.980725 427.311933 
L 320.200619 428.150456 
L 321.420514 437.887349 
L 322.640408 436.821403 
L 323.860302 436.821403 
L 325.080197 427.126313 
L 326.300091 422.257001 
L 327.519985 422.257001 
L 328.73988 416.959167 
L 329.959774 412.75122 
L 331.179668 413.286057 
L 332.399563 410.789675 
L 333.619457 406.851751 
L 334.839351 410.685258 
L 336.059246 413.504388 
L 337.27914 413.504388 
L 338.499034 401.386275 
L 339.718929 380.553728 
L 340.938823 380.553728 
L 342.158717 376.681507 
L 343.378612 371.087509 
L 344.598506 368.022591 
L 345.8184 368.022591 
L 347.038295 336.430777 
L 348.258189 316.273751 
L 349.478083 310.738718 
L 350.697978 300.398034 
L 351.917872 300.398034 
L 353.137766 291.171259 
L 354.357661 291.171259 
L 355.577555 285.717975 
L 356.797449 301.639207 
L 358.017344 330.208717 
L 359.237238 349.877738 
L 360.457132 360.172135 
L 361.677027 360.172135 
L 362.896921 352.497691 
L 364.116815 352.497691 
L 365.33671 342.323007 
L 366.556604 295.503413 
L 367.776498 295.503413 
L 368.996393 286.140215 
L 370.216287 286.140215 
L 371.436181 261.968088 
L 372.656076 261.968088 
L 373.87597 261.174221 
L 375.095864 248.396919 
L 376.315759 252.317569 
L 377.535653 242.493263 
L 378.755547 242.493263 
L 379.975442 238.666118 
L 381.195336 238.666118 
L 382.41523 326.943682 
L 383.635125 387.066842 
L 384.855019 269.454064 
L 386.074913 281.310731 
L 387.294808 88.887273 
L 388.514702 137.363577 
L 389.734596 281.477989 
L 390.954491 273.308302 
L 392.174385 273.308302 
L 393.394279 298.45249 
L 394.614174 298.45249 
L 395.834068 272.95249 
L 397.053962 261.634635 
L 398.273857 332.616845 
L 399.493751 363.592164 
L 400.713645 357.52991 
L 401.93354 357.52991 
L 403.153434 364.03652 
L 404.373328 400.088664 
L 405.593223 400.088664 
L 406.813117 424.376944 
L 410.4728 424.376944 
L 412.912589 451.431282 
L 414.132483 459.976129 
L 416.572272 484.232727 
L 417.792166 482.997221 
L 419.01206 482.997221 
L 420.231955 462.73039 
L 421.451849 447.996297 
L 422.671743 447.996297 
L 423.891638 447.043428 
L 425.111532 433.017977 
L 426.331426 451.223844 
L 427.551321 437.821959 
L 428.771215 392.042511 
L 429.991109 331.675709 
L 431.211004 316.468837 
L 432.430898 316.468837 
L 433.650792 439.746565 
L 434.870687 439.746565 
L 436.090581 418.654897 
L 437.310475 392.628929 
L 438.53037 389.595654 
L 439.750264 377.304789 
L 440.970158 332.384269 
L 442.190053 325.81318 
L 443.409947 335.022811 
L 444.629842 335.022811 
L 445.849736 316.806723 
L 447.06963 316.806723 
L 448.289525 324.292978 
L 449.509419 327.172418 
L 450.729313 322.668531 
L 451.949208 324.06446 
L 453.169102 326.685542 
L 454.388996 331.714203 
L 455.608891 332.799738 
L 456.828785 343.026645 
L 458.048679 343.026645 
L 459.268574 348.893234 
L 460.488468 348.893234 
L 461.708362 350.404926 
L 462.928257 373.526279 
L 464.148151 379.847834 
L 465.368045 388.557313 
L 466.58794 402.25652 
L 467.807834 402.25652 
L 469.027728 388.579379 
L 470.247623 388.579379 
L 471.467517 379.65828 
L 472.687411 407.260982 
L 473.907306 407.260982 
L 475.1272 409.05589 
L 476.347094 408.450086 
L 477.566989 390.717911 
L 478.786883 390.717911 
L 480.006777 339.324763 
L 481.226672 339.324763 
L 482.446566 280.22982 
L 483.66646 280.22982 
L 484.886355 263.906788 
L 486.106249 267.74719 
L 487.326143 267.74719 
L 488.546038 294.461278 
L 489.765932 316.262263 
L 490.985826 330.529769 
L 492.205721 334.050406 
L 493.425615 333.658385 
L 494.645509 331.771066 
L 495.865404 338.526677 
L 497.085298 338.526677 
L 498.305192 344.355242 
L 499.525087 358.46926 
L 500.744981 358.46926 
L 501.964875 339.829287 
L 503.18477 326.295056 
L 504.404664 325.323717 
L 505.624558 332.93061 
L 506.844453 335.986971 
L 508.064347 321.507969 
L 509.284241 298.830594 
L 510.504136 293.308724 
L 511.72403 293.308724 
L 512.943924 330.382613 
L 514.163819 330.382613 
L 515.383713 341.779143 
L 516.603607 341.779143 
L 517.823502 379.295944 
L 519.043396 215.74223 
L 520.26329 204.071548 
L 521.483185 169.752466 
L 522.703079 192.896272 
L 523.922973 318.610362 
L 525.142868 368.661875 
L 526.362762 368.661875 
L 527.582656 340.374687 
L 530.022445 321.66467 
L 531.242339 345.67376 
L 532.462234 366.212526 
L 533.682128 354.622414 
L 534.902022 348.20494 
L 536.121917 348.20494 
L 537.341811 372.341391 
L 538.561705 385.745909 
L 539.7816 385.745909 
L 541.001494 405.460947 
L 542.221388 420.165611 
L 543.441283 418.304483 
L 544.661177 413.043937 
L 545.881071 415.179287 
L 547.100966 415.959255 
L 548.32086 418.184286 
L 549.540754 413.19169 
L 550.760649 405.269591 
L 551.980543 405.269591 
L 553.200437 381.206052 
L 554.420332 380.633661 
L 555.640226 386.983052 
L 556.86012 386.983052 
L 558.080015 403.611556 
L 559.299909 403.611556 
L 560.519803 392.887398 
L 561.739698 374.436711 
L 562.959592 368.651249 
L 564.179486 368.651249 
L 565.399381 373.698309 
L 566.619275 366.340405 
L 567.839169 366.340405 
L 569.059064 374.56981 
L 570.278958 374.56981 
L 571.498852 364.492206 
L 572.718747 350.495142 
L 573.938641 353.724788 
L 575.158535 337.156076 
L 576.37843 337.156076 
L 577.598324 333.95856 
L 578.818218 333.95856 
L 581.258007 333.029289 
L 582.477901 333.601773 
L 583.697796 334.998518 
L 584.91769 336.187966 
L 586.137584 339.909033 
L 587.357479 345.979719 
L 588.577373 345.979719 
L 589.797267 342.802799 
L 591.017162 342.802799 
L 592.237056 346.579412 
L 593.45695 348.039226 
L 594.676845 346.781661 
L 595.896739 346.781661 
L 597.116633 347.322673 
L 598.336528 352.358575 
L 599.556422 352.358575 
L 600.776316 341.745132 
L 601.996211 333.487044 
L 603.216105 333.487044 
L 604.435999 344.528307 
L 605.655894 344.528307 
L 606.875788 334.852223 
L 608.095682 327.260659 
L 609.315577 327.861229 
L 610.535471 337.565902 
L 611.755365 345.183076 
L 612.97526 357.695593 
L 614.195154 359.647079 
L 615.415048 380.296185 
L 616.634943 380.296185 
L 617.854837 393.353883 
L 619.074731 391.02376 
L 620.294626 391.02376 
L 621.51452 404.919826 
L 622.734414 404.919826 
L 623.954309 417.411967 
L 625.174203 406.919679 
L 626.394097 394.228673 
L 627.613992 394.228673 
L 628.833886 385.211088 
L 630.05378 385.211088 
L 631.273675 380.797291 
L 632.493569 369.849348 
L 633.713463 363.610299 
L 634.933358 363.610299 
L 636.153252 349.205509 
L 637.373146 349.205509 
L 639.812935 305.488058 
L 641.032829 293.479234 
L 642.252724 295.011411 
L 643.472618 287.242191 
L 644.692512 299.802717 
L 645.912407 306.841983 
L 647.132301 327.763773 
L 648.352195 278.442527 
L 649.57209 219.216152 
L 650.791984 197.972706 
L 652.011878 242.887164 
L 653.231773 242.887164 
L 654.451667 414.450552 
L 655.671561 414.450552 
L 656.891456 452.567253 
L 658.11135 452.567253 
L 659.331244 409.866484 
L 660.551139 409.866484 
L 661.771033 395.39223 
L 662.990927 395.39223 
L 664.210822 409.63897 
L 665.430716 409.63897 
L 666.65061 387.826684 
L 667.870505 369.855053 
L 669.090399 368.612535 
L 670.310293 368.612535 
L 671.530188 384.66014 
L 672.750082 384.311816 
L 673.969976 384.163921 
L 675.189871 384.663837 
L 676.409765 373.720566 
L 677.629659 373.720566 
L 678.849554 329.103998 
L 680.069448 310.000126 
L 681.289342 303.894378 
L 682.509237 303.894378 
L 683.729131 441.053878 
L 684.949025 413.931216 
L 686.16892 389.769691 
L 687.388814 348.741359 
L 688.608708 377.425709 
L 689.828603 392.536611 
L 691.048497 388.233972 
L 692.268391 382.229081 
L 693.488286 379.673671 
L 694.70818 378.99207 
L 695.928074 365.141583 
L 697.147969 364.459731 
L 698.367863 364.459731 
L 699.587757 371.034377 
L 700.807652 366.938498 
L 702.027546 351.604531 
L 703.24744 329.66968 
L 704.467335 323.589057 
L 705.687229 323.589057 
L 706.907123 329.220702 
L 708.127018 334.297387 
L 709.346912 334.297387 
L 710.566806 340.62126 
L 711.786701 340.62126 
L 713.006595 355.544084 
L 714.226489 355.544084 
L 715.446384 370.434779 
L 716.666278 370.434779 
L 717.886172 367.312433 
L 720.325961 367.312433 
L 721.545855 368.690087 
L 723.985644 368.690087 
L 725.205538 374.73905 
L 726.425433 387.774524 
L 727.645327 391.758339 
L 728.865221 391.758339 
L 730.085116 370.38779 
L 731.30501 370.38779 
L 732.524904 371.986438 
L 733.744799 372.898218 
L 734.964693 367.013307 
L 736.184587 367.013307 
L 737.404482 344.285323 
L 738.624376 344.285323 
L 739.84427 392.10058 
L 741.064165 366.802971 
L 742.284059 357.776467 
L 743.503953 240.883408 
L 744.723848 234.892232 
L 745.943742 187.732866 
L 747.163636 223.759555 
L 747.163636 223.759555 
" clip-path="url(#p651f53354b)" style="fill: none; stroke: #4c72b0; stroke-width: 1.5; stroke-linecap: round"/>
   </g>
   <g id="line2d_15">
    <path d="M 138.436364 356.633085 
L 140.876152 359.507752 
L 143.315941 364.75929 
L 145.75573 369.300927 
L 146.975624 371.811556 
L 148.195518 373.879518 
L 150.635307 376.47896 
L 154.29499 376.988267 
L 156.734779 379.858706 
L 157.954673 381.189539 
L 159.174567 382.149723 
L 160.394462 382.219458 
L 161.614356 381.339037 
L 162.83425 378.938512 
L 164.054145 375.535127 
L 167.713828 363.225507 
L 175.033194 330.853411 
L 179.912771 319.369058 
L 181.132665 313.09889 
L 183.572454 304.002638 
L 184.792348 300.568375 
L 186.012243 300.276653 
L 188.452031 306.864943 
L 190.89182 308.217822 
L 193.331609 309.401051 
L 195.771397 312.407232 
L 196.991292 315.728125 
L 198.211186 321.432281 
L 199.43108 328.865914 
L 200.650975 329.749043 
L 201.870869 331.110477 
L 205.530552 338.918733 
L 207.970341 342.797537 
L 209.190235 342.491634 
L 210.410129 341.329665 
L 211.630024 338.205382 
L 212.849918 336.832706 
L 216.509601 341.374848 
L 217.729495 342.690525 
L 218.94939 344.32478 
L 225.048861 356.253593 
L 226.268756 358.545196 
L 227.48865 360.360372 
L 228.708544 361.63994 
L 231.148333 363.415958 
L 232.368227 364.177417 
L 237.247805 366.540281 
L 239.687593 369.99007 
L 244.567171 375.618965 
L 245.787065 376.589026 
L 250.666642 379.475944 
L 253.106431 379.690062 
L 257.986008 374.781768 
L 259.205903 372.830782 
L 261.645691 367.329239 
L 262.865586 364.599961 
L 264.08548 362.815979 
L 266.525269 360.630639 
L 267.745163 363.204634 
L 268.965057 360.432433 
L 270.184952 359.648826 
L 271.404846 349.141967 
L 273.844635 331.89871 
L 276.284423 318.469735 
L 277.504318 316.588516 
L 278.724212 318.851445 
L 281.164001 325.110723 
L 282.383895 327.986989 
L 284.823684 334.443625 
L 287.263472 340.09287 
L 290.923155 329.132044 
L 292.14305 325.374798 
L 293.362944 323.96302 
L 294.582838 324.100836 
L 295.802733 325.876333 
L 297.022627 328.699898 
L 299.462416 332.504078 
L 300.68231 333.873804 
L 301.902204 334.26903 
L 304.341993 335.853094 
L 305.561887 336.753927 
L 306.781782 339.118952 
L 309.22157 344.79457 
L 310.441465 347.690283 
L 311.661359 349.964359 
L 314.101148 353.785715 
L 315.321042 357.002493 
L 316.540936 361.295618 
L 318.980725 371.669273 
L 323.860302 390.337722 
L 325.080197 393.403438 
L 327.519985 398.011993 
L 328.73988 399.590924 
L 331.179668 401.737485 
L 332.399563 402.491835 
L 333.619457 402.855161 
L 334.839351 403.507669 
L 337.27914 405.104367 
L 338.499034 404.794526 
L 343.378612 396.584703 
L 345.8184 392.022699 
L 347.038295 387.390039 
L 354.357661 352.000692 
L 355.577555 346.477132 
L 356.797449 342.740639 
L 358.017344 341.696312 
L 359.237238 342.378097 
L 361.677027 345.220201 
L 364.116815 346.382578 
L 365.33671 346.04428 
L 368.996393 333.652483 
L 370.216287 329.693128 
L 372.656076 318.875934 
L 373.87597 314.067458 
L 375.095864 308.594913 
L 381.195336 285.242863 
L 382.41523 288.717931 
L 383.635125 296.913674 
L 384.855019 294.625373 
L 386.074913 293.515819 
L 387.294808 276.463441 
L 388.514702 264.871785 
L 389.734596 266.255636 
L 392.174385 267.382103 
L 394.614174 272.344734 
L 395.834068 272.395381 
L 397.053962 271.498652 
L 398.273857 276.591835 
L 399.493751 283.841862 
L 401.93354 295.611481 
L 403.153434 301.313568 
L 409.252906 341.738791 
L 411.692694 356.045126 
L 415.352377 380.357106 
L 416.572272 389.013408 
L 419.01206 404.024711 
L 420.231955 408.916851 
L 422.671743 415.158707 
L 423.891638 417.815767 
L 425.111532 419.082618 
L 426.331426 421.761053 
L 427.551321 423.099462 
L 428.771215 420.511383 
L 432.430898 397.672923 
L 434.870687 404.393018 
L 436.090581 405.581508 
L 437.310475 404.502127 
L 438.53037 403.259921 
L 439.750264 401.096993 
L 442.190053 389.574453 
L 445.849736 375.523459 
L 447.06963 370.630397 
L 448.289525 366.768946 
L 451.949208 357.068783 
L 453.169102 354.536847 
L 454.388996 352.63496 
L 455.608891 350.982024 
L 458.048679 349.711374 
L 460.488468 349.580698 
L 461.708362 349.649384 
L 462.928257 351.639125 
L 464.148151 353.989851 
L 465.368045 356.870473 
L 467.807834 364.119633 
L 470.247623 368.026398 
L 471.467517 368.995722 
L 473.907306 375.107534 
L 475.1272 377.936564 
L 476.347094 380.479357 
L 478.786883 382.114682 
L 481.226672 375.280181 
L 484.886355 352.082548 
L 487.326143 338.612317 
L 488.546038 334.933064 
L 489.765932 333.377164 
L 490.985826 333.139881 
L 493.425615 333.252644 
L 494.645509 333.129179 
L 497.085298 333.991279 
L 498.305192 334.854943 
L 500.744981 338.626674 
L 501.964875 338.726892 
L 504.404664 336.660306 
L 505.624558 336.349498 
L 506.844453 336.319288 
L 508.064347 335.085011 
L 511.72403 325.873761 
L 514.163819 326.593925 
L 516.603607 329.019342 
L 517.823502 333.209059 
L 520.26329 313.474439 
L 521.483185 301.497608 
L 522.703079 292.447497 
L 523.922973 294.627735 
L 526.362762 306.452633 
L 527.582656 309.27947 
L 528.802551 311.068785 
L 530.022445 311.951776 
L 531.242339 314.761941 
L 532.462234 319.04949 
L 533.682128 322.0139 
L 536.121917 326.197191 
L 537.341811 330.042541 
L 539.7816 338.939607 
L 541.001494 344.483052 
L 542.221388 350.789932 
L 543.441283 356.416145 
L 545.881071 365.638807 
L 548.32086 373.86152 
L 549.540754 377.139034 
L 551.980543 381.63211 
L 554.420332 381.516359 
L 556.86012 382.389512 
L 559.299909 385.779144 
L 560.519803 386.371498 
L 561.739698 385.376933 
L 564.179486 382.705469 
L 565.399381 381.954873 
L 567.839169 379.460895 
L 570.278958 378.67968 
L 571.498852 377.497391 
L 572.718747 375.247203 
L 573.938641 373.453669 
L 576.37843 367.656136 
L 578.818218 362.273885 
L 581.258007 357.636799 
L 582.477901 355.63388 
L 583.697796 353.914266 
L 584.91769 352.437075 
L 586.137584 351.393071 
L 588.577373 350.528439 
L 591.017162 349.294482 
L 592.237056 349.068226 
L 594.676845 348.799075 
L 597.116633 348.521933 
L 599.556422 349.13473 
L 600.776316 348.51893 
L 603.216105 346.118004 
L 605.655894 345.864094 
L 606.875788 344.946438 
L 609.315577 342.171674 
L 610.535471 341.787859 
L 611.755365 342.070794 
L 614.195154 344.729046 
L 616.634943 350.409908 
L 617.854837 353.988573 
L 620.294626 359.903915 
L 623.954309 371.287124 
L 625.174203 374.256504 
L 627.613992 377.446503 
L 630.05378 378.68668 
L 631.273675 378.862564 
L 632.493569 378.111463 
L 634.933358 375.795305 
L 637.373146 371.548323 
L 638.593041 367.91845 
L 639.812935 362.715917 
L 641.032829 356.946194 
L 643.472618 346.406398 
L 644.692512 342.522758 
L 645.912407 339.54936 
L 647.132301 338.567228 
L 648.352195 333.556836 
L 649.57209 324.028445 
L 650.791984 313.523801 
L 653.231773 302.24156 
L 655.671561 320.16383 
L 658.11135 341.311599 
L 660.551139 352.261337 
L 664.210822 363.357689 
L 665.430716 367.214462 
L 666.65061 368.932147 
L 669.090399 368.976013 
L 670.310293 368.945723 
L 672.750082 371.426637 
L 675.189871 373.502724 
L 677.629659 373.537518 
L 678.849554 369.834725 
L 682.509237 355.112779 
L 683.729131 362.274538 
L 684.949025 366.579261 
L 686.16892 368.511797 
L 687.388814 366.86426 
L 688.608708 367.744381 
L 689.828603 369.8104 
L 691.048497 371.345698 
L 692.268391 372.252646 
L 694.70818 373.381149 
L 698.367863 371.37924 
L 699.587757 371.350501 
L 700.807652 370.982834 
L 702.027546 369.367976 
L 705.687229 359.276266 
L 706.907123 356.771635 
L 709.346912 353.181998 
L 711.786701 351.175769 
L 714.226489 351.873486 
L 716.666278 354.838137 
L 719.106067 356.830559 
L 723.985644 360.22804 
L 725.205538 361.437291 
L 728.865221 368.124452 
L 732.524904 368.777664 
L 733.744799 369.121044 
L 736.184587 368.784391 
L 738.624376 364.871346 
L 739.84427 367.140449 
L 741.064165 367.112325 
L 742.284059 366.334337 
L 744.723848 345.797771 
L 745.943742 332.625696 
L 747.163636 323.553518 
L 747.163636 323.553518 
" clip-path="url(#p651f53354b)" style="fill: none; stroke: #dd8452; stroke-width: 1.5; stroke-linecap: round"/>
   </g>
   <g id="patch_3">
    <path d="M 108 504 
L 108 69.12 
" style="fill: none; stroke: #ffffff; stroke-width: 1.25; stroke-linejoin: miter; stroke-linecap: square"/>
   </g>
   <g id="patch_4">
    <path d="M 777.6 504 
L 777.6 69.12 
" style="fill: none; stroke: #ffffff; stroke-width: 1.25; stroke-linejoin: miter; stroke-linecap: square"/>
   </g>
   <g id="patch_5">
    <path d="M 108 504 
L 777.6 504 
" style="fill: none; stroke: #ffffff; stroke-width: 1.25; stroke-linejoin: miter; stroke-linecap: square"/>
   </g>
   <g id="patch_6">
    <path d="M 108 69.12 
L 777.6 69.12 
" style="fill: none; stroke: #ffffff; stroke-width: 1.25; stroke-linejoin: miter; stroke-linecap: square"/>
   </g>
   <g id="legend_1">
    <g id="patch_7">
     <path d="M 598.8 158.775 
L 760.8 158.775 
Q 765.6 158.775 765.6 153.975 
L 765.6 85.92 
Q 765.6 81.12 760.8 81.12 
L 598.8 81.12 
Q 594 81.12 594 85.92 
L 594 153.975 
Q 594 158.775 598.8 158.775 
z
" style="fill: #eaeaf2; opacity: 0.8; stroke: #cccccc; stroke-linejoin: miter"/>
    </g>
    <g id="line2d_16">
     <path d="M 603.6 100.55625 
L 627.6 100.55625 
L 651.6 100.55625 
" style="fill: none; stroke: #4c72b0; stroke-width: 1.5; stroke-linecap: round"/>
    </g>
    <g id="text_14">
     <!-- raw $x_a$ -->
     <g style="fill: #262626" transform="translate(670.8 108.95625)scale(0.24 -0.24)">
      <defs>
       <path id="DejaVuSans-72" d="M 2631 2963 
Q 2534 3019 2420 3045 
Q 2306 3072 2169 3072 
Q 1681 3072 1420 2755 
Q 1159 2438 1159 1844 
L 1159 0 
L 581 0 
L 581 3500 
L 1159 3500 
L 1159 2956 
Q 1341 3275 1631 3429 
Q 1922 3584 2338 3584 
Q 2397 3584 2469 3576 
Q 2541 3569 2628 3553 
L 2631 2963 
z
" transform="scale(0.015625)"/>
       <path id="DejaVuSans-61" d="M 2194 1759 
Q 1497 1759 1228 1600 
Q 959 1441 959 1056 
Q 959 750 1161 570 
Q 1363 391 1709 391 
Q 2188 391 2477 730 
Q 2766 1069 2766 1631 
L 2766 1759 
L 2194 1759 
z
M 3341 1997 
L 3341 0 
L 2766 0 
L 2766 531 
Q 2569 213 2275 61 
Q 1981 -91 1556 -91 
Q 1019 -91 701 211 
Q 384 513 384 1019 
Q 384 1609 779 1909 
Q 1175 2209 1959 2209 
L 2766 2209 
L 2766 2266 
Q 2766 2663 2505 2880 
Q 2244 3097 1772 3097 
Q 1472 3097 1187 3025 
Q 903 2953 641 2809 
L 641 3341 
Q 956 3463 1253 3523 
Q 1550 3584 1831 3584 
Q 2591 3584 2966 3190 
Q 3341 2797 3341 1997 
z
" transform="scale(0.015625)"/>
       <path id="DejaVuSans-77" d="M 269 3500 
L 844 3500 
L 1563 769 
L 2278 3500 
L 2956 3500 
L 3675 769 
L 4391 3500 
L 4966 3500 
L 4050 0 
L 3372 0 
L 2619 2869 
L 1863 0 
L 1184 0 
L 269 3500 
z
" transform="scale(0.015625)"/>
       <path id="DejaVuSans-20" transform="scale(0.015625)"/>
       <path id="DejaVuSans-Oblique-78" d="M 3841 3500 
L 2234 1784 
L 3219 0 
L 2559 0 
L 1819 1388 
L 531 0 
L -166 0 
L 1556 1844 
L 641 3500 
L 1300 3500 
L 1972 2234 
L 3144 3500 
L 3841 3500 
z
" transform="scale(0.015625)"/>
       <path id="DejaVuSans-Oblique-61" d="M 3438 1997 
L 3047 0 
L 2472 0 
L 2578 531 
Q 2325 219 2001 64 
Q 1678 -91 1281 -91 
Q 834 -91 548 182 
Q 263 456 263 884 
Q 263 1497 752 1853 
Q 1241 2209 2100 2209 
L 2900 2209 
L 2931 2363 
Q 2938 2388 2941 2417 
Q 2944 2447 2944 2509 
Q 2944 2788 2717 2942 
Q 2491 3097 2081 3097 
Q 1800 3097 1504 3025 
Q 1209 2953 897 2809 
L 997 3341 
Q 1322 3463 1633 3523 
Q 1944 3584 2234 3584 
Q 2853 3584 3176 3315 
Q 3500 3047 3500 2534 
Q 3500 2431 3484 2292 
Q 3469 2153 3438 1997 
z
M 2816 1759 
L 2241 1759 
Q 1534 1759 1195 1570 
Q 856 1381 856 984 
Q 856 709 1029 553 
Q 1203 397 1509 397 
Q 1978 397 2328 733 
Q 2678 1069 2791 1631 
L 2816 1759 
z
" transform="scale(0.015625)"/>
      </defs>
      <use xlink:href="#DejaVuSans-72"/>
      <use xlink:href="#DejaVuSans-61" transform="translate(41.113281 0)"/>
      <use xlink:href="#DejaVuSans-77" transform="translate(102.392578 0)"/>
      <use xlink:href="#DejaVuSans-20" transform="translate(184.179688 0)"/>
      <use xlink:href="#DejaVuSans-Oblique-78" transform="translate(215.966797 0)"/>
      <use xlink:href="#DejaVuSans-Oblique-61" transform="translate(275.146484 -16.40625)scale(0.7)"/>
     </g>
    </g>
    <g id="line2d_17">
     <path d="M 603.6 135.78375 
L 627.6 135.78375 
L 651.6 135.78375 
" style="fill: none; stroke: #dd8452; stroke-width: 1.5; stroke-linecap: round"/>
    </g>
    <g id="text_15">
     <!-- EMA $x_a$ -->
     <g style="fill: #262626" transform="translate(670.8 144.18375)scale(0.24 -0.24)">
      <defs>
       <path id="DejaVuSans-45" d="M 628 4666 
L 3578 4666 
L 3578 4134 
L 1259 4134 
L 1259 2753 
L 3481 2753 
L 3481 2222 
L 1259 2222 
L 1259 531 
L 3634 531 
L 3634 0 
L 628 0 
L 628 4666 
z
" transform="scale(0.015625)"/>
       <path id="DejaVuSans-4d" d="M 628 4666 
L 1569 4666 
L 2759 1491 
L 3956 4666 
L 4897 4666 
L 4897 0 
L 4281 0 
L 4281 4097 
L 3078 897 
L 2444 897 
L 1241 4097 
L 1241 0 
L 628 0 
L 628 4666 
z
" transform="scale(0.015625)"/>
       <path id="DejaVuSans-41" d="M 2188 4044 
L 1331 1722 
L 3047 1722 
L 2188 4044 
z
M 1831 4666 
L 2547 4666 
L 4325 0 
L 3669 0 
L 3244 1197 
L 1141 1197 
L 716 0 
L 50 0 
L 1831 4666 
z
" transform="scale(0.015625)"/>
      </defs>
      <use xlink:href="#DejaVuSans-45" transform="translate(0 0.09375)"/>
      <use xlink:href="#DejaVuSans-4d" transform="translate(63.183594 0.09375)"/>
      <use xlink:href="#DejaVuSans-41" transform="translate(149.462891 0.09375)"/>
      <use xlink:href="#DejaVuSans-20" transform="translate(217.871094 0.09375)"/>
      <use xlink:href="#DejaVuSans-Oblique-78" transform="translate(249.658203 0.09375)"/>
      <use xlink:href="#DejaVuSans-Oblique-61" transform="translate(308.837891 -16.3125)scale(0.7)"/>
     </g>
    </g>
   </g>
  </g>
 </g>
 <defs>
  <clipPath id="p651f53354b">
   <rect x="108" y="69.12" width="669.6" height="434.88"/>
  </clipPath>
 </defs>
</svg>
