<?xml version="1.0" encoding="utf-8" standalone="no"?>
<!DOCTYPE svg PUBLIC "-//W3C//DTD SVG 1.1//EN"
  "http://www.w3.org/Graphics/SVG/1.1/DTD/svg11.dtd">
<svg xmlns:xlink="http://www.w3.org/1999/xlink" width="864pt" height="576pt" viewBox="0 0 864 576" xmlns="http://www.w3.org/2000/svg" version="1.1">
 <metadata>
  <rdf:RDF xmlns:dc="http://purl.org/dc/elements/1.1/" xmlns:cc="http://creativecommons.org/ns#" xmlns:rdf="http://www.w3.org/1999/02/22-rdf-syntax-ns#">
   <cc:Work>
    <dc:type rdf:resource="http://purl.org/dc/dcmitype/StillImage"/>
    <dc:date>2022-07-07T12:53:39.675625</dc:date>
    <dc:format>image/svg+xml</dc:format>
    <dc:creator>
     <cc:Agent>
      <dc:title>Matplotlib v3.5.1, https://matplotlib.org/</dc:title>
     </cc:Agent>
    </dc:creator>
   </cc:Work>
  </rdf:RDF>
 </metadata>
 <defs>
  <style type="text/css">*{stroke-linejoin: round; stroke-linecap: butt}</style>
 </defs>
 <g id="figure_1">
  <g id="patch_1">
   <path d="M 0 576 
L 864 576 
L 864 0 
L 0 0 
z
" style="fill: #ffffff"/>
  </g>
  <g id="axes_1">
   <g id="patch_2">
    <path d="M 108 504 
L 777.6 504 
L 777.6 69.12 
L 108 69.12 
z
" style="fill: #eaeaf2"/>
   </g>
   <g id="matplotlib.axis_1">
    <g id="xtick_1">
     <g id="line2d_1">
      <path d="M 138.436364 504 
L 138.436364 69.12 
" clip-path="url(#p0aa9b041e8)" style="fill: none; stroke: #ffffff; stroke-linecap: round"/>
     </g>
     <g id="text_1">
      <!-- 1500 -->
      <g style="fill: #262626" transform="translate(115.531364 527.177187)scale(0.18 -0.18)">
       <defs>
        <path id="DejaVuSans-31" d="M 794 531 
L 1825 531 
L 1825 4091 
L 703 3866 
L 703 4441 
L 1819 4666 
L 2450 4666 
L 2450 531 
L 3481 531 
L 3481 0 
L 794 0 
L 794 531 
z
" transform="scale(0.015625)"/>
        <path id="DejaVuSans-35" d="M 691 4666 
L 3169 4666 
L 3169 4134 
L 1269 4134 
L 1269 2991 
Q 1406 3038 1543 3061 
Q 1681 3084 1819 3084 
Q 2600 3084 3056 2656 
Q 3513 2228 3513 1497 
Q 3513 744 3044 326 
Q 2575 -91 1722 -91 
Q 1428 -91 1123 -41 
Q 819 9 494 109 
L 494 744 
Q 775 591 1075 516 
Q 1375 441 1709 441 
Q 2250 441 2565 725 
Q 2881 1009 2881 1497 
Q 2881 1984 2565 2268 
Q 2250 2553 1709 2553 
Q 1456 2553 1204 2497 
Q 953 2441 691 2322 
L 691 4666 
z
" transform="scale(0.015625)"/>
        <path id="DejaVuSans-30" d="M 2034 4250 
Q 1547 4250 1301 3770 
Q 1056 3291 1056 2328 
Q 1056 1369 1301 889 
Q 1547 409 2034 409 
Q 2525 409 2770 889 
Q 3016 1369 3016 2328 
Q 3016 3291 2770 3770 
Q 2525 4250 2034 4250 
z
M 2034 4750 
Q 2819 4750 3233 4129 
Q 3647 3509 3647 2328 
Q 3647 1150 3233 529 
Q 2819 -91 2034 -91 
Q 1250 -91 836 529 
Q 422 1150 422 2328 
Q 422 3509 836 4129 
Q 1250 4750 2034 4750 
z
" transform="scale(0.015625)"/>
       </defs>
       <use xlink:href="#DejaVuSans-31"/>
       <use xlink:href="#DejaVuSans-35" x="63.623047"/>
       <use xlink:href="#DejaVuSans-30" x="127.246094"/>
       <use xlink:href="#DejaVuSans-30" x="190.869141"/>
      </g>
     </g>
    </g>
    <g id="xtick_2">
     <g id="line2d_2">
      <path d="M 260.425797 504 
L 260.425797 69.12 
" clip-path="url(#p0aa9b041e8)" style="fill: none; stroke: #ffffff; stroke-linecap: round"/>
     </g>
     <g id="text_2">
      <!-- 1600 -->
      <g style="fill: #262626" transform="translate(237.520797 527.177187)scale(0.18 -0.18)">
       <defs>
        <path id="DejaVuSans-36" d="M 2113 2584 
Q 1688 2584 1439 2293 
Q 1191 2003 1191 1497 
Q 1191 994 1439 701 
Q 1688 409 2113 409 
Q 2538 409 2786 701 
Q 3034 994 3034 1497 
Q 3034 2003 2786 2293 
Q 2538 2584 2113 2584 
z
M 3366 4563 
L 3366 3988 
Q 3128 4100 2886 4159 
Q 2644 4219 2406 4219 
Q 1781 4219 1451 3797 
Q 1122 3375 1075 2522 
Q 1259 2794 1537 2939 
Q 1816 3084 2150 3084 
Q 2853 3084 3261 2657 
Q 3669 2231 3669 1497 
Q 3669 778 3244 343 
Q 2819 -91 2113 -91 
Q 1303 -91 875 529 
Q 447 1150 447 2328 
Q 447 3434 972 4092 
Q 1497 4750 2381 4750 
Q 2619 4750 2861 4703 
Q 3103 4656 3366 4563 
z
" transform="scale(0.015625)"/>
       </defs>
       <use xlink:href="#DejaVuSans-31"/>
       <use xlink:href="#DejaVuSans-36" x="63.623047"/>
       <use xlink:href="#DejaVuSans-30" x="127.246094"/>
       <use xlink:href="#DejaVuSans-30" x="190.869141"/>
      </g>
     </g>
    </g>
    <g id="xtick_3">
     <g id="line2d_3">
      <path d="M 382.41523 504 
L 382.41523 69.12 
" clip-path="url(#p0aa9b041e8)" style="fill: none; stroke: #ffffff; stroke-linecap: round"/>
     </g>
     <g id="text_3">
      <!-- 1700 -->
      <g style="fill: #262626" transform="translate(359.51023 527.177187)scale(0.18 -0.18)">
       <defs>
        <path id="DejaVuSans-37" d="M 525 4666 
L 3525 4666 
L 3525 4397 
L 1831 0 
L 1172 0 
L 2766 4134 
L 525 4134 
L 525 4666 
z
" transform="scale(0.015625)"/>
       </defs>
       <use xlink:href="#DejaVuSans-31"/>
       <use xlink:href="#DejaVuSans-37" x="63.623047"/>
       <use xlink:href="#DejaVuSans-30" x="127.246094"/>
       <use xlink:href="#DejaVuSans-30" x="190.869141"/>
      </g>
     </g>
    </g>
    <g id="xtick_4">
     <g id="line2d_4">
      <path d="M 504.404664 504 
L 504.404664 69.12 
" clip-path="url(#p0aa9b041e8)" style="fill: none; stroke: #ffffff; stroke-linecap: round"/>
     </g>
     <g id="text_4">
      <!-- 1800 -->
      <g style="fill: #262626" transform="translate(481.499664 527.177187)scale(0.18 -0.18)">
       <defs>
        <path id="DejaVuSans-38" d="M 2034 2216 
Q 1584 2216 1326 1975 
Q 1069 1734 1069 1313 
Q 1069 891 1326 650 
Q 1584 409 2034 409 
Q 2484 409 2743 651 
Q 3003 894 3003 1313 
Q 3003 1734 2745 1975 
Q 2488 2216 2034 2216 
z
M 1403 2484 
Q 997 2584 770 2862 
Q 544 3141 544 3541 
Q 544 4100 942 4425 
Q 1341 4750 2034 4750 
Q 2731 4750 3128 4425 
Q 3525 4100 3525 3541 
Q 3525 3141 3298 2862 
Q 3072 2584 2669 2484 
Q 3125 2378 3379 2068 
Q 3634 1759 3634 1313 
Q 3634 634 3220 271 
Q 2806 -91 2034 -91 
Q 1263 -91 848 271 
Q 434 634 434 1313 
Q 434 1759 690 2068 
Q 947 2378 1403 2484 
z
M 1172 3481 
Q 1172 3119 1398 2916 
Q 1625 2713 2034 2713 
Q 2441 2713 2670 2916 
Q 2900 3119 2900 3481 
Q 2900 3844 2670 4047 
Q 2441 4250 2034 4250 
Q 1625 4250 1398 4047 
Q 1172 3844 1172 3481 
z
" transform="scale(0.015625)"/>
       </defs>
       <use xlink:href="#DejaVuSans-31"/>
       <use xlink:href="#DejaVuSans-38" x="63.623047"/>
       <use xlink:href="#DejaVuSans-30" x="127.246094"/>
       <use xlink:href="#DejaVuSans-30" x="190.869141"/>
      </g>
     </g>
    </g>
    <g id="xtick_5">
     <g id="line2d_5">
      <path d="M 626.394097 504 
L 626.394097 69.12 
" clip-path="url(#p0aa9b041e8)" style="fill: none; stroke: #ffffff; stroke-linecap: round"/>
     </g>
     <g id="text_5">
      <!-- 1900 -->
      <g style="fill: #262626" transform="translate(603.489097 527.177187)scale(0.18 -0.18)">
       <defs>
        <path id="DejaVuSans-39" d="M 703 97 
L 703 672 
Q 941 559 1184 500 
Q 1428 441 1663 441 
Q 2288 441 2617 861 
Q 2947 1281 2994 2138 
Q 2813 1869 2534 1725 
Q 2256 1581 1919 1581 
Q 1219 1581 811 2004 
Q 403 2428 403 3163 
Q 403 3881 828 4315 
Q 1253 4750 1959 4750 
Q 2769 4750 3195 4129 
Q 3622 3509 3622 2328 
Q 3622 1225 3098 567 
Q 2575 -91 1691 -91 
Q 1453 -91 1209 -44 
Q 966 3 703 97 
z
M 1959 2075 
Q 2384 2075 2632 2365 
Q 2881 2656 2881 3163 
Q 2881 3666 2632 3958 
Q 2384 4250 1959 4250 
Q 1534 4250 1286 3958 
Q 1038 3666 1038 3163 
Q 1038 2656 1286 2365 
Q 1534 2075 1959 2075 
z
" transform="scale(0.015625)"/>
       </defs>
       <use xlink:href="#DejaVuSans-31"/>
       <use xlink:href="#DejaVuSans-39" x="63.623047"/>
       <use xlink:href="#DejaVuSans-30" x="127.246094"/>
       <use xlink:href="#DejaVuSans-30" x="190.869141"/>
      </g>
     </g>
    </g>
    <g id="xtick_6">
     <g id="line2d_6">
      <path d="M 748.383531 504 
L 748.383531 69.12 
" clip-path="url(#p0aa9b041e8)" style="fill: none; stroke: #ffffff; stroke-linecap: round"/>
     </g>
     <g id="text_6">
      <!-- 2000 -->
      <g style="fill: #262626" transform="translate(725.478531 527.177187)scale(0.18 -0.18)">
       <defs>
        <path id="DejaVuSans-32" d="M 1228 531 
L 3431 531 
L 3431 0 
L 469 0 
L 469 531 
Q 828 903 1448 1529 
Q 2069 2156 2228 2338 
Q 2531 2678 2651 2914 
Q 2772 3150 2772 3378 
Q 2772 3750 2511 3984 
Q 2250 4219 1831 4219 
Q 1534 4219 1204 4116 
Q 875 4013 500 3803 
L 500 4441 
Q 881 4594 1212 4672 
Q 1544 4750 1819 4750 
Q 2544 4750 2975 4387 
Q 3406 4025 3406 3419 
Q 3406 3131 3298 2873 
Q 3191 2616 2906 2266 
Q 2828 2175 2409 1742 
Q 1991 1309 1228 531 
z
" transform="scale(0.015625)"/>
       </defs>
       <use xlink:href="#DejaVuSans-32"/>
       <use xlink:href="#DejaVuSans-30" x="63.623047"/>
       <use xlink:href="#DejaVuSans-30" x="127.246094"/>
       <use xlink:href="#DejaVuSans-30" x="190.869141"/>
      </g>
     </g>
    </g>
   </g>
   <g id="matplotlib.axis_2">
    <g id="ytick_1">
     <g id="line2d_7">
      <path d="M 108 426.362408 
L 777.6 426.362408 
" clip-path="url(#p0aa9b041e8)" style="fill: none; stroke: #ffffff; stroke-linecap: round"/>
     </g>
     <g id="text_7">
      <!-- −1.0 -->
      <g style="fill: #262626" transform="translate(54.790937 433.201001)scale(0.18 -0.18)">
       <defs>
        <path id="DejaVuSans-2212" d="M 678 2272 
L 4684 2272 
L 4684 1741 
L 678 1741 
L 678 2272 
z
" transform="scale(0.015625)"/>
        <path id="DejaVuSans-2e" d="M 684 794 
L 1344 794 
L 1344 0 
L 684 0 
L 684 794 
z
" transform="scale(0.015625)"/>
       </defs>
       <use xlink:href="#DejaVuSans-2212"/>
       <use xlink:href="#DejaVuSans-31" x="83.789062"/>
       <use xlink:href="#DejaVuSans-2e" x="147.412109"/>
       <use xlink:href="#DejaVuSans-30" x="179.199219"/>
      </g>
     </g>
    </g>
    <g id="ytick_2">
     <g id="line2d_8">
      <path d="M 108 342.207252 
L 777.6 342.207252 
" clip-path="url(#p0aa9b041e8)" style="fill: none; stroke: #ffffff; stroke-linecap: round"/>
     </g>
     <g id="text_8">
      <!-- −0.5 -->
      <g style="fill: #262626" transform="translate(54.790937 349.045846)scale(0.18 -0.18)">
       <use xlink:href="#DejaVuSans-2212"/>
       <use xlink:href="#DejaVuSans-30" x="83.789062"/>
       <use xlink:href="#DejaVuSans-2e" x="147.412109"/>
       <use xlink:href="#DejaVuSans-35" x="179.199219"/>
      </g>
     </g>
    </g>
    <g id="ytick_3">
     <g id="line2d_9">
      <path d="M 108 258.052096 
L 777.6 258.052096 
" clip-path="url(#p0aa9b041e8)" style="fill: none; stroke: #ffffff; stroke-linecap: round"/>
     </g>
     <g id="text_9">
      <!-- 0.0 -->
      <g style="fill: #262626" transform="translate(69.874375 264.89069)scale(0.18 -0.18)">
       <use xlink:href="#DejaVuSans-30"/>
       <use xlink:href="#DejaVuSans-2e" x="63.623047"/>
       <use xlink:href="#DejaVuSans-30" x="95.410156"/>
      </g>
     </g>
    </g>
    <g id="ytick_4">
     <g id="line2d_10">
      <path d="M 108 173.89694 
L 777.6 173.89694 
" clip-path="url(#p0aa9b041e8)" style="fill: none; stroke: #ffffff; stroke-linecap: round"/>
     </g>
     <g id="text_10">
      <!-- 0.5 -->
      <g style="fill: #262626" transform="translate(69.874375 180.735534)scale(0.18 -0.18)">
       <use xlink:href="#DejaVuSans-30"/>
       <use xlink:href="#DejaVuSans-2e" x="63.623047"/>
       <use xlink:href="#DejaVuSans-35" x="95.410156"/>
      </g>
     </g>
    </g>
    <g id="ytick_5">
     <g id="line2d_11">
      <path d="M 108 89.741784 
L 777.6 89.741784 
" clip-path="url(#p0aa9b041e8)" style="fill: none; stroke: #ffffff; stroke-linecap: round"/>
     </g>
     <g id="text_11">
      <!-- 1.0 -->
      <g style="fill: #262626" transform="translate(69.874375 96.580378)scale(0.18 -0.18)">
       <use xlink:href="#DejaVuSans-31"/>
       <use xlink:href="#DejaVuSans-2e" x="63.623047"/>
       <use xlink:href="#DejaVuSans-30" x="95.410156"/>
      </g>
     </g>
    </g>
   </g>
   <g id="line2d_12">
    <path d="M 138.436364 248.504638 
L 139.656258 246.577216 
L 142.096047 241.153542 
L 143.315941 239.315768 
L 144.535835 240.257068 
L 146.975624 249.535584 
L 148.195518 253.211131 
L 149.415413 255.900556 
L 150.635307 252.583599 
L 151.855201 248.0564 
L 153.075096 245.770389 
L 154.29499 238.508941 
L 155.514884 236.895288 
L 156.734779 235.057514 
L 157.954673 232.27844 
L 159.174567 235.236808 
L 160.394462 235.281633 
L 162.83425 221.341446 
L 164.054145 219.189906 
L 165.274039 224.165343 
L 166.493933 235.057514 
L 167.713828 251.866419 
L 168.933722 260.472578 
L 170.153616 266.927198 
L 171.373511 269.840741 
L 172.593405 245.680741 
L 173.813299 233.847272 
L 175.033194 211.480224 
L 176.253088 209.283855 
L 178.692877 229.633839 
L 181.132665 288.173657 
L 182.35256 300.634659 
L 183.572454 316.098849 
L 184.792348 318.071094 
L 186.012243 309.644231 
L 188.452031 266.658256 
L 189.671926 249.894174 
L 190.89182 247.204749 
L 192.111714 253.883487 
L 194.551503 292.252617 
L 195.771397 283.780927 
L 198.211186 251.687123 
L 199.43108 223.179219 
L 200.650975 222.641335 
L 201.870869 225.554877 
L 203.090763 240.974248 
L 204.310658 268.854619 
L 205.530552 300.051948 
L 206.750446 324.167126 
L 207.970341 342.18627 
L 209.190235 347.78924 
L 210.410129 337.300484 
L 211.630024 313.588717 
L 212.849918 285.304934 
L 214.069812 254.197254 
L 215.289707 242.991316 
L 216.509601 240.660482 
L 217.729495 245.815213 
L 218.94939 253.79384 
L 220.169284 257.334916 
L 221.389178 260.203636 
L 222.609073 264.372244 
L 223.828967 263.206827 
L 225.048861 261.234582 
L 226.268756 252.673247 
L 227.48865 250.880296 
L 228.708544 255.273024 
L 229.928439 256.528088 
L 231.148333 252.987013 
L 232.368227 245.591094 
L 233.588122 242.722374 
L 234.808016 239.270946 
L 236.02791 238.95718 
L 237.247805 240.436363 
L 238.467699 244.873914 
L 240.907488 260.203636 
L 242.127382 263.296475 
L 243.347276 261.996586 
L 244.567171 259.441632 
L 245.787065 259.127866 
L 248.226854 261.055287 
L 249.446748 264.641187 
L 250.666642 264.641187 
L 251.886537 261.234582 
L 253.106431 257.065973 
L 254.326325 256.66256 
L 255.54622 257.514211 
L 256.766114 256.752207 
L 257.986008 252.538775 
L 259.205903 242.856845 
L 260.425797 236.94011 
L 261.645691 225.644526 
L 262.865586 189.292466 
L 264.08548 146.037552 
L 265.305374 109.819959 
L 266.525269 95.028125 
L 267.745163 88.887273 
L 268.965057 169.121781 
L 270.184952 286.828941 
L 271.404846 432.864723 
L 272.62474 479.884817 
L 273.844635 446.984208 
L 276.284423 373.966307 
L 277.504318 316.45744 
L 279.944106 232.368089 
L 281.164001 204.173952 
L 282.383895 196.733206 
L 283.603789 206.370314 
L 286.043578 243.439555 
L 287.263472 254.376548 
L 288.483367 270.378627 
L 289.703261 306.909982 
L 290.923155 306.237621 
L 293.362944 242.363784 
L 294.582838 254.017959 
L 297.022627 271.319925 
L 298.242521 271.723339 
L 299.462416 271.050983 
L 300.68231 266.792727 
L 301.902204 253.524897 
L 303.122099 246.666864 
L 304.341993 234.161036 
L 305.561887 225.46523 
L 306.781782 220.713914 
L 308.001676 225.151464 
L 309.22157 235.505751 
L 310.441465 248.639109 
L 311.661359 255.900556 
L 312.881253 259.665751 
L 314.101148 262.355176 
L 315.321042 263.61024 
L 316.540936 264.237773 
L 317.760831 260.60705 
L 318.980725 253.211131 
L 320.200619 249.13217 
L 321.420514 247.877105 
L 322.640408 248.683932 
L 323.860302 253.07666 
L 325.080197 260.965639 
L 327.519985 266.568608 
L 328.73988 271.902634 
L 329.959774 275.623006 
L 331.179668 269.616623 
L 332.399563 259.53128 
L 333.619457 254.15243 
L 334.839351 254.197254 
L 336.059246 254.376548 
L 337.27914 258.186567 
L 338.499034 260.113988 
L 339.718929 264.148126 
L 340.938823 264.55154 
L 342.158717 264.32742 
L 343.378612 252.852541 
L 344.598506 246.756511 
L 345.8184 234.250687 
L 347.038295 230.082078 
L 348.258189 237.477995 
L 349.478083 241.288014 
L 350.697978 255.093728 
L 351.917872 263.296475 
L 353.137766 261.369053 
L 354.357661 255.138552 
L 355.577555 247.877105 
L 356.797449 235.326456 
L 358.017344 230.664785 
L 359.237238 228.378774 
L 360.457132 231.606086 
L 361.677027 238.01588 
L 365.33671 264.865305 
L 366.556604 267.734025 
L 367.776498 269.482152 
L 368.996393 266.254842 
L 371.436181 248.997699 
L 372.656076 237.881409 
L 373.87597 219.055433 
L 375.095864 202.156881 
L 376.315759 180.417366 
L 377.535653 161.815508 
L 378.755547 147.606381 
L 379.975442 143.348124 
L 381.195336 141.868944 
L 382.41523 163.160223 
L 383.635125 223.672281 
L 386.074913 448.463369 
L 387.294808 484.232727 
L 388.514702 454.335295 
L 390.954491 351.733733 
L 392.174385 316.59191 
L 393.394279 307.492691 
L 394.614174 303.189613 
L 395.834068 301.934544 
L 397.053962 290.459666 
L 398.273857 281.719035 
L 399.493751 228.55807 
L 400.713645 216.993544 
L 401.93354 200.453581 
L 403.153434 190.592357 
L 404.373328 186.73751 
L 405.593223 181.717255 
L 406.813117 180.058772 
L 408.033011 181.089718 
L 410.4728 187.723632 
L 411.692694 190.14412 
L 412.912589 189.023526 
L 414.132483 187.05128 
L 415.352377 196.284972 
L 417.792166 236.312579 
L 419.01206 245.366975 
L 421.451849 239.80883 
L 422.671743 238.105528 
L 423.891638 239.853654 
L 425.111532 248.41499 
L 426.331426 259.53128 
L 427.551321 254.735138 
L 429.991109 228.154656 
L 431.211004 212.107757 
L 432.430898 224.61358 
L 433.650792 250.387235 
L 434.870687 271.140629 
L 436.090581 280.59844 
L 437.310475 295.390278 
L 438.53037 312.199184 
L 439.750264 308.43399 
L 440.970158 288.935658 
L 442.190053 277.550426 
L 443.409947 261.951762 
L 444.629842 255.004081 
L 445.849736 247.249572 
L 447.06963 242.587903 
L 448.289525 244.201558 
L 449.509419 252.180185 
L 450.729313 258.141743 
L 451.949208 272.395696 
L 453.169102 274.502411 
L 454.388996 269.258033 
L 455.608891 265.76178 
L 456.828785 257.37974 
L 458.048679 250.118292 
L 459.268574 247.025453 
L 460.488468 243.618849 
L 461.708362 244.604972 
L 462.928257 244.784266 
L 465.368045 231.471613 
L 466.58794 227.661594 
L 467.807834 225.644526 
L 469.027728 220.220852 
L 470.247623 210.314801 
L 471.467517 198.66063 
L 472.687411 195.343673 
L 473.907306 198.391688 
L 475.1272 203.94983 
L 476.347094 221.655211 
L 477.566989 245.053209 
L 478.786883 264.775658 
L 480.006777 276.429833 
L 481.226672 275.44371 
L 482.446566 261.996586 
L 484.886355 218.248607 
L 486.106249 209.059741 
L 488.546038 195.881559 
L 489.765932 198.929574 
L 490.985826 213.676586 
L 492.205721 235.236808 
L 493.425615 252.135361 
L 494.645509 259.755398 
L 495.865404 259.576103 
L 497.085298 256.079851 
L 498.305192 251.059591 
L 499.525087 248.952875 
L 500.744981 245.994508 
L 501.964875 242.453431 
L 503.18477 243.977439 
L 504.404664 247.742634 
L 505.624558 248.952875 
L 506.844453 245.815213 
L 508.064347 242.050017 
L 509.284241 239.002003 
L 510.504136 233.35421 
L 511.72403 232.861149 
L 512.943924 233.399033 
L 514.163819 234.474805 
L 515.383713 235.953987 
L 517.823502 256.797031 
L 519.043396 303.637846 
L 520.26329 318.96757 
L 521.483185 318.653802 
L 523.922973 255.631614 
L 525.142868 241.243191 
L 526.362762 262.982708 
L 530.022445 305.117028 
L 531.242339 308.613284 
L 533.682128 256.886678 
L 534.902022 250.92512 
L 536.121917 252.852541 
L 537.341811 263.879183 
L 538.561705 268.854619 
L 539.7816 274.502411 
L 541.001494 281.719035 
L 542.221388 283.960222 
L 543.441283 284.856698 
L 544.661177 289.742487 
L 545.881071 298.214175 
L 547.100966 304.713615 
L 548.32086 302.203489 
L 549.540754 297.496994 
L 551.980543 285.529052 
L 553.200437 280.508793 
L 554.420332 273.874879 
L 555.640226 269.975212 
L 556.86012 273.426642 
L 558.080015 277.281483 
L 560.519803 281.898329 
L 561.739698 293.7318 
L 562.959592 299.289943 
L 564.179486 300.589834 
L 565.399381 291.535435 
L 566.619275 288.128831 
L 567.839169 273.157699 
L 569.059064 269.661446 
L 570.278958 264.506716 
L 571.498852 260.651873 
L 572.718747 263.924007 
L 573.938641 264.954953 
L 575.158535 266.882374 
L 576.37843 266.389313 
L 577.598324 265.26872 
L 578.818218 261.951762 
L 580.038113 259.307161 
L 581.258007 249.804527 
L 582.477901 242.453431 
L 583.697796 239.091651 
L 584.91769 243.080964 
L 586.137584 250.835472 
L 587.357479 257.02115 
L 588.577373 260.562226 
L 589.797267 269.70627 
L 591.017162 255.2282 
L 592.237056 255.004081 
L 593.45695 258.903747 
L 594.676845 266.523784 
L 595.896739 269.123562 
L 597.116633 270.871687 
L 598.336528 269.661446 
L 599.556422 267.061669 
L 600.776316 265.492838 
L 601.996211 265.716957 
L 603.216105 267.061669 
L 604.435999 267.061669 
L 605.655894 265.313543 
L 606.875788 263.162003 
L 608.095682 256.572912 
L 609.315577 255.766085 
L 611.755365 260.024341 
L 612.97526 262.355176 
L 614.195154 262.131057 
L 615.415048 260.338107 
L 617.854837 252.35948 
L 619.074731 251.238887 
L 620.294626 248.728757 
L 621.51452 248.190871 
L 622.734414 249.894174 
L 623.954309 250.835472 
L 625.174203 247.608163 
L 626.394097 243.574025 
L 627.613992 237.298701 
L 628.833886 230.26137 
L 630.05378 224.523931 
L 631.273675 220.624265 
L 632.493569 217.44178 
L 633.713463 214.752355 
L 634.933358 217.486603 
L 636.153252 221.565564 
L 638.593041 232.637032 
L 639.812935 232.861149 
L 641.032829 227.751243 
L 642.252724 214.573062 
L 643.472618 203.725713 
L 644.692512 198.839922 
L 645.912407 209.328684 
L 647.132301 235.819517 
L 648.352195 272.126753 
L 649.57209 299.110647 
L 650.791984 306.99963 
L 652.011878 286.111764 
L 653.231773 242.812021 
L 654.451667 226.630649 
L 655.671561 216.410834 
L 656.891456 213.900703 
L 658.11135 242.67755 
L 659.331244 262.489647 
L 660.551139 312.647423 
L 661.771033 327.887495 
L 662.990927 338.6452 
L 664.210822 332.011282 
L 665.430716 332.011282 
L 666.65061 314.530018 
L 667.870505 262.848237 
L 669.090399 252.673247 
L 670.310293 248.101223 
L 671.530188 251.014767 
L 672.750082 249.087346 
L 673.969976 244.560148 
L 675.189871 252.269832 
L 676.409765 274.771354 
L 677.629659 295.076512 
L 678.849554 298.124527 
L 680.069448 280.239852 
L 682.509237 222.103449 
L 683.729131 268.002968 
L 684.949025 277.505602 
L 686.16892 289.159777 
L 687.388814 299.603709 
L 688.608708 287.232356 
L 689.828603 263.565417 
L 691.048497 247.294398 
L 692.268391 245.770389 
L 693.488286 248.325343 
L 694.70818 247.652986 
L 695.928074 246.666864 
L 697.147969 248.011576 
L 698.367863 248.011576 
L 699.587757 253.973135 
L 700.807652 257.37974 
L 702.027546 252.583599 
L 703.24744 244.291205 
L 704.467335 241.243191 
L 705.687229 240.929425 
L 706.907123 242.632727 
L 708.127018 244.918738 
L 709.346912 250.656178 
L 710.566806 252.404304 
L 711.786701 252.538775 
L 713.006595 254.197254 
L 714.226489 257.245268 
L 715.446384 258.724452 
L 716.666278 258.45551 
L 717.886172 256.617736 
L 719.106067 255.58679 
L 720.325961 255.541966 
L 721.545855 255.138552 
L 722.76575 255.407495 
L 723.985644 254.914434 
L 725.205538 253.704193 
L 726.425433 245.366975 
L 727.645327 233.623152 
L 728.865221 220.220852 
L 730.085116 214.08 
L 731.30501 208.521855 
L 732.524904 199.691576 
L 733.744799 187.05128 
L 734.964693 168.763189 
L 736.184587 154.419593 
L 737.404482 149.130392 
L 738.624376 148.458031 
L 739.84427 166.477177 
L 741.064165 252.449127 
L 742.284059 354.602455 
L 743.503953 467.423812 
L 744.723848 463.210382 
L 745.943742 393.688758 
L 747.163636 305.296329 
L 747.163636 305.296329 
" clip-path="url(#p0aa9b041e8)" style="fill: none; stroke: #4c72b0; stroke-width: 1.5; stroke-linecap: round"/>
   </g>
   <g id="line2d_13">
    <path d="M 138.436364 255.258791 
L 139.656258 254.535327 
L 140.876152 253.651767 
L 144.535835 250.565266 
L 145.75573 250.105928 
L 146.975624 250.0584 
L 148.195518 250.321127 
L 149.415413 250.78608 
L 150.635307 250.935873 
L 151.855201 250.695917 
L 153.075096 250.285456 
L 155.514884 248.270014 
L 159.174567 245.037154 
L 160.394462 244.224194 
L 161.614356 242.914948 
L 164.054145 239.289886 
L 165.274039 238.029507 
L 166.493933 237.781841 
L 167.713828 238.955556 
L 168.933722 240.748641 
L 171.373511 245.172733 
L 172.593405 245.215067 
L 173.813299 244.267751 
L 176.253088 238.847824 
L 177.472982 237.250752 
L 178.692877 236.61601 
L 179.912771 238.368732 
L 181.132665 242.519143 
L 182.35256 247.362102 
L 184.792348 258.505242 
L 186.012243 262.766824 
L 187.232137 264.921413 
L 188.452031 265.06615 
L 190.89182 262.41873 
L 192.111714 261.707459 
L 193.331609 262.605616 
L 194.551503 265.0762 
L 195.771397 266.634927 
L 196.991292 266.737725 
L 198.211186 265.483508 
L 200.650975 258.681749 
L 201.870869 255.921176 
L 203.090763 254.675599 
L 204.310658 255.857184 
L 205.530552 259.540081 
L 206.750446 264.925668 
L 209.190235 277.732817 
L 210.410129 282.69679 
L 211.630024 285.271117 
L 212.849918 285.273935 
L 214.069812 282.684212 
L 216.509601 276.150138 
L 217.729495 273.622227 
L 218.94939 271.969862 
L 220.169284 270.750283 
L 221.389178 269.871396 
L 223.828967 268.895941 
L 225.048861 268.257494 
L 227.48865 265.618931 
L 228.708544 264.756772 
L 229.928439 264.071049 
L 231.148333 263.147379 
L 233.588122 260.10419 
L 236.02791 256.750511 
L 237.247805 255.390998 
L 238.467699 254.514575 
L 239.687593 254.323778 
L 240.907488 254.813766 
L 242.127382 255.520658 
L 243.347276 256.060319 
L 248.226854 257.221484 
L 250.666642 258.406576 
L 251.886537 258.642243 
L 256.766114 258.15877 
L 257.986008 257.690437 
L 259.205903 256.454304 
L 260.425797 254.828121 
L 261.645691 252.396155 
L 262.865586 247.137514 
L 264.08548 238.712517 
L 267.745163 206.225727 
L 268.965057 203.133731 
L 270.184952 210.108332 
L 271.404846 228.671365 
L 272.62474 249.605819 
L 273.844635 266.054018 
L 275.064529 278.076047 
L 276.284423 286.066902 
L 277.504318 288.599447 
L 278.724212 287.4359 
L 279.944106 282.846916 
L 282.383895 269.661033 
L 283.603789 264.386806 
L 284.823684 261.098518 
L 286.043578 259.626938 
L 287.263472 259.189405 
L 288.483367 260.12184 
L 289.703261 264.020852 
L 290.923155 267.538916 
L 292.14305 267.995942 
L 293.362944 265.859929 
L 294.582838 264.873098 
L 295.802733 264.693154 
L 298.242521 265.785214 
L 299.462416 266.224028 
L 300.68231 266.27142 
L 301.902204 265.20921 
L 303.122099 263.664014 
L 304.341993 261.205433 
L 306.781782 255.100985 
L 308.001676 252.605192 
L 309.22157 251.180238 
L 310.441465 250.968478 
L 311.661359 251.379484 
L 312.881253 252.070006 
L 316.540936 254.685733 
L 317.760831 255.179176 
L 318.980725 255.015172 
L 322.640408 253.530353 
L 323.860302 253.492546 
L 325.080197 254.115303 
L 326.300091 254.917754 
L 327.519985 255.888659 
L 328.73988 257.223157 
L 329.959774 258.756477 
L 331.179668 259.661489 
L 332.399563 259.650639 
L 334.839351 258.776188 
L 336.059246 258.409551 
L 337.27914 258.390969 
L 338.499034 258.534554 
L 342.158717 259.870004 
L 343.378612 259.285215 
L 344.598506 258.241157 
L 347.038295 254.061961 
L 348.258189 252.679964 
L 349.478083 251.730635 
L 350.697978 252.010893 
L 351.917872 252.951358 
L 353.137766 253.652833 
L 354.357661 253.776642 
L 355.577555 253.285014 
L 356.797449 251.788468 
L 359.237238 248.224045 
L 360.457132 246.839215 
L 361.677027 246.103937 
L 362.896921 246.17326 
L 364.116815 246.931574 
L 366.556604 250.035049 
L 367.776498 251.655641 
L 368.996393 252.872241 
L 370.216287 253.262807 
L 371.436181 252.907381 
L 372.656076 251.655217 
L 373.87597 248.938568 
L 375.095864 245.040094 
L 376.315759 239.654867 
L 377.535653 233.168254 
L 379.975442 219.147267 
L 381.195336 212.707406 
L 382.41523 208.578474 
L 383.635125 209.836292 
L 384.855019 220.469513 
L 388.514702 276.071755 
L 389.734596 286.642646 
L 390.954491 292.066904 
L 392.174385 294.110654 
L 393.394279 295.225824 
L 394.614174 295.889473 
L 395.834068 296.393229 
L 397.053962 295.898765 
L 398.273857 294.717121 
L 400.713645 283.18634 
L 406.813117 249.276299 
L 408.033011 243.594083 
L 409.252906 238.650594 
L 410.4728 234.406681 
L 412.912589 227.243583 
L 414.132483 223.894225 
L 415.352377 221.593454 
L 416.572272 221.131686 
L 417.792166 222.39676 
L 419.01206 224.310945 
L 420.231955 225.830289 
L 421.451849 226.995168 
L 423.891638 228.915416 
L 425.111532 230.540381 
L 426.331426 232.956289 
L 427.551321 234.771193 
L 428.771215 235.295585 
L 429.991109 234.700508 
L 431.211004 232.817778 
L 432.430898 232.134095 
L 433.650792 233.65519 
L 434.870687 236.778977 
L 436.090581 240.430599 
L 437.310475 245.010572 
L 438.53037 250.609623 
L 439.750264 255.42832 
L 440.970158 258.220598 
L 442.190053 259.831417 
L 443.409947 260.008113 
L 444.629842 259.59111 
L 445.849736 258.562649 
L 447.06963 257.23142 
L 448.289525 256.145598 
L 449.509419 255.815147 
L 450.729313 256.00903 
L 453.169102 258.801904 
L 454.388996 259.673248 
L 455.608891 260.180626 
L 456.828785 259.947219 
L 458.048679 259.128142 
L 459.268574 258.119584 
L 460.488468 256.91119 
L 462.928257 254.960554 
L 464.148151 253.567175 
L 466.58794 249.720521 
L 467.807834 247.714188 
L 469.027728 245.423077 
L 470.247623 242.497387 
L 472.687411 235.21927 
L 473.907306 232.150305 
L 475.1272 229.800265 
L 476.347094 229.121511 
L 477.566989 230.449152 
L 478.786883 233.309694 
L 480.006777 236.903039 
L 481.226672 240.114762 
L 482.446566 241.938247 
L 483.66646 241.828031 
L 484.886355 239.863079 
L 486.106249 237.296134 
L 489.765932 228.481024 
L 490.985826 227.247321 
L 492.205721 227.913111 
L 493.425615 229.931632 
L 495.865404 234.680209 
L 497.085298 236.463513 
L 498.305192 237.679853 
L 499.525087 238.619271 
L 500.744981 239.233874 
L 503.18477 239.87511 
L 505.624558 241.232582 
L 506.844453 241.614467 
L 508.064347 241.650763 
L 509.284241 241.430033 
L 511.72403 240.099056 
L 512.943924 239.540721 
L 514.163819 239.118561 
L 515.383713 238.854847 
L 516.603607 239.494642 
L 517.823502 240.936508 
L 519.043396 246.16162 
L 521.483185 257.764201 
L 522.703079 260.234821 
L 523.922973 259.851221 
L 525.142868 258.300552 
L 526.362762 258.690731 
L 527.582656 260.236225 
L 528.802551 262.911728 
L 531.242339 269.944207 
L 532.462234 271.041238 
L 533.682128 269.861691 
L 534.902022 268.283643 
L 536.121917 266.997718 
L 537.341811 266.73784 
L 538.561705 266.914239 
L 539.7816 267.546586 
L 543.441283 271.235314 
L 544.661177 272.777579 
L 545.881071 274.897295 
L 547.100966 277.381988 
L 548.32086 279.450447 
L 549.540754 280.954326 
L 550.760649 281.813673 
L 551.980543 282.123288 
L 553.200437 281.988747 
L 554.420332 281.312591 
L 555.640226 280.36781 
L 556.86012 279.789379 
L 558.080015 279.580388 
L 559.299909 279.575578 
L 560.519803 279.76914 
L 561.739698 280.932695 
L 564.179486 283.97308 
L 565.399381 284.603276 
L 566.619275 284.897072 
L 567.839169 283.918791 
L 569.059064 282.730679 
L 570.278958 281.212016 
L 571.498852 279.49867 
L 572.718747 278.200782 
L 573.938641 277.096963 
L 577.598324 274.578073 
L 580.038113 272.340987 
L 581.258007 270.462949 
L 583.697796 265.709058 
L 584.91769 263.823383 
L 586.137584 262.741057 
L 587.357479 262.264398 
L 588.577373 262.122551 
L 589.797267 262.754527 
L 592.237056 261.533729 
L 593.45695 261.314564 
L 594.676845 261.748666 
L 598.336528 263.621375 
L 599.556422 263.908066 
L 601.996211 264.179866 
L 604.435999 264.640154 
L 605.655894 264.69627 
L 606.875788 264.568414 
L 609.315577 263.224119 
L 610.535471 262.774441 
L 611.755365 262.545266 
L 614.195154 262.496228 
L 615.415048 262.316384 
L 616.634943 261.811614 
L 619.074731 260.208516 
L 621.51452 258.330119 
L 622.734414 257.627124 
L 623.954309 257.061153 
L 625.174203 256.273404 
L 626.394097 255.215122 
L 627.613992 253.722087 
L 628.833886 251.767027 
L 631.273675 247.090727 
L 633.713463 242.131013 
L 634.933358 240.077312 
L 636.153252 238.534666 
L 637.373146 237.561341 
L 639.812935 236.793496 
L 641.032829 236.039975 
L 642.252724 234.251066 
L 644.692512 228.968339 
L 645.912407 227.331701 
L 647.132301 228.039019 
L 648.352195 231.712997 
L 650.791984 243.135315 
L 652.011878 246.716686 
L 653.231773 246.391297 
L 654.451667 244.744576 
L 656.891456 240.00987 
L 658.11135 240.232177 
L 659.331244 242.086966 
L 660.551139 247.967004 
L 664.210822 267.493785 
L 665.430716 272.870243 
L 666.65061 276.341891 
L 667.870505 275.21742 
L 669.090399 273.338739 
L 670.310293 271.235612 
L 672.750082 267.845276 
L 673.969976 265.904848 
L 675.189871 264.768597 
L 676.409765 265.60216 
L 678.849554 270.56387 
L 680.069448 271.370202 
L 681.289342 269.621622 
L 682.509237 265.661774 
L 683.729131 265.856873 
L 684.949025 266.827601 
L 686.16892 268.688615 
L 687.388814 271.264873 
L 688.608708 272.595497 
L 689.828603 271.84299 
L 692.268391 267.795034 
L 694.70818 264.629262 
L 695.928074 263.132395 
L 698.367863 260.717264 
L 699.587757 260.155254 
L 700.807652 259.923961 
L 702.027546 259.312264 
L 704.467335 256.659066 
L 705.687229 255.348262 
L 706.907123 254.288634 
L 708.127018 253.50781 
L 709.346912 253.270174 
L 711.786701 253.143081 
L 713.006595 253.230929 
L 715.446384 253.995373 
L 716.666278 254.367051 
L 719.106067 254.640623 
L 722.76575 254.805681 
L 725.205538 254.722197 
L 726.425433 253.942596 
L 727.645327 252.249309 
L 728.865221 249.580271 
L 731.30501 243.44691 
L 732.524904 239.800632 
L 733.744799 235.404853 
L 734.964693 229.851381 
L 737.404482 217.362481 
L 738.624376 211.620444 
L 739.84427 207.858505 
L 741.064165 211.57439 
L 742.284059 223.493395 
L 743.503953 243.82093 
L 744.723848 262.103384 
L 745.943742 273.068832 
L 747.163636 275.754457 
L 747.163636 275.754457 
" clip-path="url(#p0aa9b041e8)" style="fill: none; stroke: #dd8452; stroke-width: 1.5; stroke-linecap: round"/>
   </g>
   <g id="patch_3">
    <path d="M 108 504 
L 108 69.12 
" style="fill: none; stroke: #ffffff; stroke-width: 1.25; stroke-linejoin: miter; stroke-linecap: square"/>
   </g>
   <g id="patch_4">
    <path d="M 777.6 504 
L 777.6 69.12 
" style="fill: none; stroke: #ffffff; stroke-width: 1.25; stroke-linejoin: miter; stroke-linecap: square"/>
   </g>
   <g id="patch_5">
    <path d="M 108 504 
L 777.6 504 
" style="fill: none; stroke: #ffffff; stroke-width: 1.25; stroke-linejoin: miter; stroke-linecap: square"/>
   </g>
   <g id="patch_6">
    <path d="M 108 69.12 
L 777.6 69.12 
" style="fill: none; stroke: #ffffff; stroke-width: 1.25; stroke-linejoin: miter; stroke-linecap: square"/>
   </g>
   <g id="legend_1">
    <g id="patch_7">
     <path d="M 598.32 163.6725 
L 760.8 163.6725 
Q 765.6 163.6725 765.6 158.8725 
L 765.6 85.92 
Q 765.6 81.12 760.8 81.12 
L 598.32 81.12 
Q 593.52 81.12 593.52 85.92 
L 593.52 158.8725 
Q 593.52 163.6725 598.32 163.6725 
z
" style="fill: #eaeaf2; opacity: 0.8; stroke: #cccccc; stroke-linejoin: miter"/>
    </g>
    <g id="line2d_14">
     <path d="M 603.12 100.55625 
L 627.12 100.55625 
L 651.12 100.55625 
" style="fill: none; stroke: #4c72b0; stroke-width: 1.5; stroke-linecap: round"/>
    </g>
    <g id="text_12">
     <!-- raw $x_g$ -->
     <g style="fill: #262626" transform="translate(670.32 108.95625)scale(0.24 -0.24)">
      <defs>
       <path id="DejaVuSans-72" d="M 2631 2963 
Q 2534 3019 2420 3045 
Q 2306 3072 2169 3072 
Q 1681 3072 1420 2755 
Q 1159 2438 1159 1844 
L 1159 0 
L 581 0 
L 581 3500 
L 1159 3500 
L 1159 2956 
Q 1341 3275 1631 3429 
Q 1922 3584 2338 3584 
Q 2397 3584 2469 3576 
Q 2541 3569 2628 3553 
L 2631 2963 
z
" transform="scale(0.015625)"/>
       <path id="DejaVuSans-61" d="M 2194 1759 
Q 1497 1759 1228 1600 
Q 959 1441 959 1056 
Q 959 750 1161 570 
Q 1363 391 1709 391 
Q 2188 391 2477 730 
Q 2766 1069 2766 1631 
L 2766 1759 
L 2194 1759 
z
M 3341 1997 
L 3341 0 
L 2766 0 
L 2766 531 
Q 2569 213 2275 61 
Q 1981 -91 1556 -91 
Q 1019 -91 701 211 
Q 384 513 384 1019 
Q 384 1609 779 1909 
Q 1175 2209 1959 2209 
L 2766 2209 
L 2766 2266 
Q 2766 2663 2505 2880 
Q 2244 3097 1772 3097 
Q 1472 3097 1187 3025 
Q 903 2953 641 2809 
L 641 3341 
Q 956 3463 1253 3523 
Q 1550 3584 1831 3584 
Q 2591 3584 2966 3190 
Q 3341 2797 3341 1997 
z
" transform="scale(0.015625)"/>
       <path id="DejaVuSans-77" d="M 269 3500 
L 844 3500 
L 1563 769 
L 2278 3500 
L 2956 3500 
L 3675 769 
L 4391 3500 
L 4966 3500 
L 4050 0 
L 3372 0 
L 2619 2869 
L 1863 0 
L 1184 0 
L 269 3500 
z
" transform="scale(0.015625)"/>
       <path id="DejaVuSans-20" transform="scale(0.015625)"/>
       <path id="DejaVuSans-Oblique-78" d="M 3841 3500 
L 2234 1784 
L 3219 0 
L 2559 0 
L 1819 1388 
L 531 0 
L -166 0 
L 1556 1844 
L 641 3500 
L 1300 3500 
L 1972 2234 
L 3144 3500 
L 3841 3500 
z
" transform="scale(0.015625)"/>
       <path id="DejaVuSans-Oblique-67" d="M 3816 3500 
L 3219 434 
Q 3047 -456 2561 -893 
Q 2075 -1331 1253 -1331 
Q 950 -1331 690 -1286 
Q 431 -1241 206 -1147 
L 313 -588 
Q 525 -725 762 -790 
Q 1000 -856 1269 -856 
Q 1816 -856 2167 -557 
Q 2519 -259 2631 300 
L 2681 563 
Q 2441 288 2122 144 
Q 1803 0 1434 0 
Q 903 0 598 351 
Q 294 703 294 1319 
Q 294 1803 478 2267 
Q 663 2731 997 3091 
Q 1219 3328 1514 3456 
Q 1809 3584 2131 3584 
Q 2484 3584 2746 3420 
Q 3009 3256 3138 2956 
L 3238 3500 
L 3816 3500 
z
M 2950 2216 
Q 2950 2641 2750 2872 
Q 2550 3103 2181 3103 
Q 1953 3103 1747 3012 
Q 1541 2922 1394 2759 
Q 1156 2491 1023 2127 
Q 891 1763 891 1375 
Q 891 944 1092 712 
Q 1294 481 1672 481 
Q 2219 481 2584 976 
Q 2950 1472 2950 2216 
z
" transform="scale(0.015625)"/>
      </defs>
      <use xlink:href="#DejaVuSans-72"/>
      <use xlink:href="#DejaVuSans-61" transform="translate(41.113281 0)"/>
      <use xlink:href="#DejaVuSans-77" transform="translate(102.392578 0)"/>
      <use xlink:href="#DejaVuSans-20" transform="translate(184.179688 0)"/>
      <use xlink:href="#DejaVuSans-Oblique-78" transform="translate(215.966797 0)"/>
      <use xlink:href="#DejaVuSans-Oblique-67" transform="translate(275.146484 -16.40625)scale(0.7)"/>
     </g>
    </g>
    <g id="line2d_15">
     <path d="M 603.12 138.2325 
L 627.12 138.2325 
L 651.12 138.2325 
" style="fill: none; stroke: #dd8452; stroke-width: 1.5; stroke-linecap: round"/>
    </g>
    <g id="text_13">
     <!-- EMA $x_g$ -->
     <g style="fill: #262626" transform="translate(670.32 146.6325)scale(0.24 -0.24)">
      <defs>
       <path id="DejaVuSans-45" d="M 628 4666 
L 3578 4666 
L 3578 4134 
L 1259 4134 
L 1259 2753 
L 3481 2753 
L 3481 2222 
L 1259 2222 
L 1259 531 
L 3634 531 
L 3634 0 
L 628 0 
L 628 4666 
z
" transform="scale(0.015625)"/>
       <path id="DejaVuSans-4d" d="M 628 4666 
L 1569 4666 
L 2759 1491 
L 3956 4666 
L 4897 4666 
L 4897 0 
L 4281 0 
L 4281 4097 
L 3078 897 
L 2444 897 
L 1241 4097 
L 1241 0 
L 628 0 
L 628 4666 
z
" transform="scale(0.015625)"/>
       <path id="DejaVuSans-41" d="M 2188 4044 
L 1331 1722 
L 3047 1722 
L 2188 4044 
z
M 1831 4666 
L 2547 4666 
L 4325 0 
L 3669 0 
L 3244 1197 
L 1141 1197 
L 716 0 
L 50 0 
L 1831 4666 
z
" transform="scale(0.015625)"/>
      </defs>
      <use xlink:href="#DejaVuSans-45" transform="translate(0 0.09375)"/>
      <use xlink:href="#DejaVuSans-4d" transform="translate(63.183594 0.09375)"/>
      <use xlink:href="#DejaVuSans-41" transform="translate(149.462891 0.09375)"/>
      <use xlink:href="#DejaVuSans-20" transform="translate(217.871094 0.09375)"/>
      <use xlink:href="#DejaVuSans-Oblique-78" transform="translate(249.658203 0.09375)"/>
      <use xlink:href="#DejaVuSans-Oblique-67" transform="translate(308.837891 -16.3125)scale(0.7)"/>
     </g>
    </g>
   </g>
  </g>
 </g>
 <defs>
  <clipPath id="p0aa9b041e8">
   <rect x="108" y="69.12" width="669.6" height="434.88"/>
  </clipPath>
 </defs>
</svg>
