<?xml version="1.0" encoding="utf-8" standalone="no"?>
<!DOCTYPE svg PUBLIC "-//W3C//DTD SVG 1.1//EN"
  "http://www.w3.org/Graphics/SVG/1.1/DTD/svg11.dtd">
<svg xmlns:xlink="http://www.w3.org/1999/xlink" width="864pt" height="576pt" viewBox="0 0 864 576" xmlns="http://www.w3.org/2000/svg" version="1.1">
 <metadata>
  <rdf:RDF xmlns:dc="http://purl.org/dc/elements/1.1/" xmlns:cc="http://creativecommons.org/ns#" xmlns:rdf="http://www.w3.org/1999/02/22-rdf-syntax-ns#">
   <cc:Work>
    <dc:type rdf:resource="http://purl.org/dc/dcmitype/StillImage"/>
    <dc:date>2022-07-07T12:53:37.971437</dc:date>
    <dc:format>image/svg+xml</dc:format>
    <dc:creator>
     <cc:Agent>
      <dc:title>Matplotlib v3.5.1, https://matplotlib.org/</dc:title>
     </cc:Agent>
    </dc:creator>
   </cc:Work>
  </rdf:RDF>
 </metadata>
 <defs>
  <style type="text/css">*{stroke-linejoin: round; stroke-linecap: butt}</style>
 </defs>
 <g id="figure_1">
  <g id="patch_1">
   <path d="M 0 576 
L 864 576 
L 864 0 
L 0 0 
z
" style="fill: #ffffff"/>
  </g>
  <g id="axes_1">
   <g id="patch_2">
    <path d="M 108 504 
L 777.6 504 
L 777.6 69.12 
L 108 69.12 
z
" style="fill: #eaeaf2"/>
   </g>
   <g id="matplotlib.axis_1">
    <g id="xtick_1">
     <g id="line2d_1">
      <path d="M 138.436364 504 
L 138.436364 69.12 
" clip-path="url(#p44517d9f8f)" style="fill: none; stroke: #ffffff; stroke-linecap: round"/>
     </g>
     <g id="text_1">
      <!-- 1500 -->
      <g style="fill: #262626" transform="translate(115.531364 527.177187)scale(0.18 -0.18)">
       <defs>
        <path id="DejaVuSans-31" d="M 794 531 
L 1825 531 
L 1825 4091 
L 703 3866 
L 703 4441 
L 1819 4666 
L 2450 4666 
L 2450 531 
L 3481 531 
L 3481 0 
L 794 0 
L 794 531 
z
" transform="scale(0.015625)"/>
        <path id="DejaVuSans-35" d="M 691 4666 
L 3169 4666 
L 3169 4134 
L 1269 4134 
L 1269 2991 
Q 1406 3038 1543 3061 
Q 1681 3084 1819 3084 
Q 2600 3084 3056 2656 
Q 3513 2228 3513 1497 
Q 3513 744 3044 326 
Q 2575 -91 1722 -91 
Q 1428 -91 1123 -41 
Q 819 9 494 109 
L 494 744 
Q 775 591 1075 516 
Q 1375 441 1709 441 
Q 2250 441 2565 725 
Q 2881 1009 2881 1497 
Q 2881 1984 2565 2268 
Q 2250 2553 1709 2553 
Q 1456 2553 1204 2497 
Q 953 2441 691 2322 
L 691 4666 
z
" transform="scale(0.015625)"/>
        <path id="DejaVuSans-30" d="M 2034 4250 
Q 1547 4250 1301 3770 
Q 1056 3291 1056 2328 
Q 1056 1369 1301 889 
Q 1547 409 2034 409 
Q 2525 409 2770 889 
Q 3016 1369 3016 2328 
Q 3016 3291 2770 3770 
Q 2525 4250 2034 4250 
z
M 2034 4750 
Q 2819 4750 3233 4129 
Q 3647 3509 3647 2328 
Q 3647 1150 3233 529 
Q 2819 -91 2034 -91 
Q 1250 -91 836 529 
Q 422 1150 422 2328 
Q 422 3509 836 4129 
Q 1250 4750 2034 4750 
z
" transform="scale(0.015625)"/>
       </defs>
       <use xlink:href="#DejaVuSans-31"/>
       <use xlink:href="#DejaVuSans-35" x="63.623047"/>
       <use xlink:href="#DejaVuSans-30" x="127.246094"/>
       <use xlink:href="#DejaVuSans-30" x="190.869141"/>
      </g>
     </g>
    </g>
    <g id="xtick_2">
     <g id="line2d_2">
      <path d="M 260.425797 504 
L 260.425797 69.12 
" clip-path="url(#p44517d9f8f)" style="fill: none; stroke: #ffffff; stroke-linecap: round"/>
     </g>
     <g id="text_2">
      <!-- 1600 -->
      <g style="fill: #262626" transform="translate(237.520797 527.177187)scale(0.18 -0.18)">
       <defs>
        <path id="DejaVuSans-36" d="M 2113 2584 
Q 1688 2584 1439 2293 
Q 1191 2003 1191 1497 
Q 1191 994 1439 701 
Q 1688 409 2113 409 
Q 2538 409 2786 701 
Q 3034 994 3034 1497 
Q 3034 2003 2786 2293 
Q 2538 2584 2113 2584 
z
M 3366 4563 
L 3366 3988 
Q 3128 4100 2886 4159 
Q 2644 4219 2406 4219 
Q 1781 4219 1451 3797 
Q 1122 3375 1075 2522 
Q 1259 2794 1537 2939 
Q 1816 3084 2150 3084 
Q 2853 3084 3261 2657 
Q 3669 2231 3669 1497 
Q 3669 778 3244 343 
Q 2819 -91 2113 -91 
Q 1303 -91 875 529 
Q 447 1150 447 2328 
Q 447 3434 972 4092 
Q 1497 4750 2381 4750 
Q 2619 4750 2861 4703 
Q 3103 4656 3366 4563 
z
" transform="scale(0.015625)"/>
       </defs>
       <use xlink:href="#DejaVuSans-31"/>
       <use xlink:href="#DejaVuSans-36" x="63.623047"/>
       <use xlink:href="#DejaVuSans-30" x="127.246094"/>
       <use xlink:href="#DejaVuSans-30" x="190.869141"/>
      </g>
     </g>
    </g>
    <g id="xtick_3">
     <g id="line2d_3">
      <path d="M 382.41523 504 
L 382.41523 69.12 
" clip-path="url(#p44517d9f8f)" style="fill: none; stroke: #ffffff; stroke-linecap: round"/>
     </g>
     <g id="text_3">
      <!-- 1700 -->
      <g style="fill: #262626" transform="translate(359.51023 527.177187)scale(0.18 -0.18)">
       <defs>
        <path id="DejaVuSans-37" d="M 525 4666 
L 3525 4666 
L 3525 4397 
L 1831 0 
L 1172 0 
L 2766 4134 
L 525 4134 
L 525 4666 
z
" transform="scale(0.015625)"/>
       </defs>
       <use xlink:href="#DejaVuSans-31"/>
       <use xlink:href="#DejaVuSans-37" x="63.623047"/>
       <use xlink:href="#DejaVuSans-30" x="127.246094"/>
       <use xlink:href="#DejaVuSans-30" x="190.869141"/>
      </g>
     </g>
    </g>
    <g id="xtick_4">
     <g id="line2d_4">
      <path d="M 504.404664 504 
L 504.404664 69.12 
" clip-path="url(#p44517d9f8f)" style="fill: none; stroke: #ffffff; stroke-linecap: round"/>
     </g>
     <g id="text_4">
      <!-- 1800 -->
      <g style="fill: #262626" transform="translate(481.499664 527.177187)scale(0.18 -0.18)">
       <defs>
        <path id="DejaVuSans-38" d="M 2034 2216 
Q 1584 2216 1326 1975 
Q 1069 1734 1069 1313 
Q 1069 891 1326 650 
Q 1584 409 2034 409 
Q 2484 409 2743 651 
Q 3003 894 3003 1313 
Q 3003 1734 2745 1975 
Q 2488 2216 2034 2216 
z
M 1403 2484 
Q 997 2584 770 2862 
Q 544 3141 544 3541 
Q 544 4100 942 4425 
Q 1341 4750 2034 4750 
Q 2731 4750 3128 4425 
Q 3525 4100 3525 3541 
Q 3525 3141 3298 2862 
Q 3072 2584 2669 2484 
Q 3125 2378 3379 2068 
Q 3634 1759 3634 1313 
Q 3634 634 3220 271 
Q 2806 -91 2034 -91 
Q 1263 -91 848 271 
Q 434 634 434 1313 
Q 434 1759 690 2068 
Q 947 2378 1403 2484 
z
M 1172 3481 
Q 1172 3119 1398 2916 
Q 1625 2713 2034 2713 
Q 2441 2713 2670 2916 
Q 2900 3119 2900 3481 
Q 2900 3844 2670 4047 
Q 2441 4250 2034 4250 
Q 1625 4250 1398 4047 
Q 1172 3844 1172 3481 
z
" transform="scale(0.015625)"/>
       </defs>
       <use xlink:href="#DejaVuSans-31"/>
       <use xlink:href="#DejaVuSans-38" x="63.623047"/>
       <use xlink:href="#DejaVuSans-30" x="127.246094"/>
       <use xlink:href="#DejaVuSans-30" x="190.869141"/>
      </g>
     </g>
    </g>
    <g id="xtick_5">
     <g id="line2d_5">
      <path d="M 626.394097 504 
L 626.394097 69.12 
" clip-path="url(#p44517d9f8f)" style="fill: none; stroke: #ffffff; stroke-linecap: round"/>
     </g>
     <g id="text_5">
      <!-- 1900 -->
      <g style="fill: #262626" transform="translate(603.489097 527.177187)scale(0.18 -0.18)">
       <defs>
        <path id="DejaVuSans-39" d="M 703 97 
L 703 672 
Q 941 559 1184 500 
Q 1428 441 1663 441 
Q 2288 441 2617 861 
Q 2947 1281 2994 2138 
Q 2813 1869 2534 1725 
Q 2256 1581 1919 1581 
Q 1219 1581 811 2004 
Q 403 2428 403 3163 
Q 403 3881 828 4315 
Q 1253 4750 1959 4750 
Q 2769 4750 3195 4129 
Q 3622 3509 3622 2328 
Q 3622 1225 3098 567 
Q 2575 -91 1691 -91 
Q 1453 -91 1209 -44 
Q 966 3 703 97 
z
M 1959 2075 
Q 2384 2075 2632 2365 
Q 2881 2656 2881 3163 
Q 2881 3666 2632 3958 
Q 2384 4250 1959 4250 
Q 1534 4250 1286 3958 
Q 1038 3666 1038 3163 
Q 1038 2656 1286 2365 
Q 1534 2075 1959 2075 
z
" transform="scale(0.015625)"/>
       </defs>
       <use xlink:href="#DejaVuSans-31"/>
       <use xlink:href="#DejaVuSans-39" x="63.623047"/>
       <use xlink:href="#DejaVuSans-30" x="127.246094"/>
       <use xlink:href="#DejaVuSans-30" x="190.869141"/>
      </g>
     </g>
    </g>
    <g id="xtick_6">
     <g id="line2d_6">
      <path d="M 748.383531 504 
L 748.383531 69.12 
" clip-path="url(#p44517d9f8f)" style="fill: none; stroke: #ffffff; stroke-linecap: round"/>
     </g>
     <g id="text_6">
      <!-- 2000 -->
      <g style="fill: #262626" transform="translate(725.478531 527.177187)scale(0.18 -0.18)">
       <defs>
        <path id="DejaVuSans-32" d="M 1228 531 
L 3431 531 
L 3431 0 
L 469 0 
L 469 531 
Q 828 903 1448 1529 
Q 2069 2156 2228 2338 
Q 2531 2678 2651 2914 
Q 2772 3150 2772 3378 
Q 2772 3750 2511 3984 
Q 2250 4219 1831 4219 
Q 1534 4219 1204 4116 
Q 875 4013 500 3803 
L 500 4441 
Q 881 4594 1212 4672 
Q 1544 4750 1819 4750 
Q 2544 4750 2975 4387 
Q 3406 4025 3406 3419 
Q 3406 3131 3298 2873 
Q 3191 2616 2906 2266 
Q 2828 2175 2409 1742 
Q 1991 1309 1228 531 
z
" transform="scale(0.015625)"/>
       </defs>
       <use xlink:href="#DejaVuSans-32"/>
       <use xlink:href="#DejaVuSans-30" x="63.623047"/>
       <use xlink:href="#DejaVuSans-30" x="127.246094"/>
       <use xlink:href="#DejaVuSans-30" x="190.869141"/>
      </g>
     </g>
    </g>
   </g>
   <g id="matplotlib.axis_2">
    <g id="ytick_1">
     <g id="line2d_7">
      <path d="M 108 424.110941 
L 777.6 424.110941 
" clip-path="url(#p44517d9f8f)" style="fill: none; stroke: #ffffff; stroke-linecap: round"/>
     </g>
     <g id="text_7">
      <!-- −1.0 -->
      <g style="fill: #262626" transform="translate(54.790937 430.949534)scale(0.18 -0.18)">
       <defs>
        <path id="DejaVuSans-2212" d="M 678 2272 
L 4684 2272 
L 4684 1741 
L 678 1741 
L 678 2272 
z
" transform="scale(0.015625)"/>
        <path id="DejaVuSans-2e" d="M 684 794 
L 1344 794 
L 1344 0 
L 684 0 
L 684 794 
z
" transform="scale(0.015625)"/>
       </defs>
       <use xlink:href="#DejaVuSans-2212"/>
       <use xlink:href="#DejaVuSans-31" x="83.789062"/>
       <use xlink:href="#DejaVuSans-2e" x="147.412109"/>
       <use xlink:href="#DejaVuSans-30" x="179.199219"/>
      </g>
     </g>
    </g>
    <g id="ytick_2">
     <g id="line2d_8">
      <path d="M 108 340.517226 
L 777.6 340.517226 
" clip-path="url(#p44517d9f8f)" style="fill: none; stroke: #ffffff; stroke-linecap: round"/>
     </g>
     <g id="text_8">
      <!-- −0.5 -->
      <g style="fill: #262626" transform="translate(54.790937 347.35582)scale(0.18 -0.18)">
       <use xlink:href="#DejaVuSans-2212"/>
       <use xlink:href="#DejaVuSans-30" x="83.789062"/>
       <use xlink:href="#DejaVuSans-2e" x="147.412109"/>
       <use xlink:href="#DejaVuSans-35" x="179.199219"/>
      </g>
     </g>
    </g>
    <g id="ytick_3">
     <g id="line2d_9">
      <path d="M 108 256.923512 
L 777.6 256.923512 
" clip-path="url(#p44517d9f8f)" style="fill: none; stroke: #ffffff; stroke-linecap: round"/>
     </g>
     <g id="text_9">
      <!-- 0.0 -->
      <g style="fill: #262626" transform="translate(69.874375 263.762106)scale(0.18 -0.18)">
       <use xlink:href="#DejaVuSans-30"/>
       <use xlink:href="#DejaVuSans-2e" x="63.623047"/>
       <use xlink:href="#DejaVuSans-30" x="95.410156"/>
      </g>
     </g>
    </g>
    <g id="ytick_4">
     <g id="line2d_10">
      <path d="M 108 173.329798 
L 777.6 173.329798 
" clip-path="url(#p44517d9f8f)" style="fill: none; stroke: #ffffff; stroke-linecap: round"/>
     </g>
     <g id="text_10">
      <!-- 0.5 -->
      <g style="fill: #262626" transform="translate(69.874375 180.168391)scale(0.18 -0.18)">
       <use xlink:href="#DejaVuSans-30"/>
       <use xlink:href="#DejaVuSans-2e" x="63.623047"/>
       <use xlink:href="#DejaVuSans-35" x="95.410156"/>
      </g>
     </g>
    </g>
    <g id="ytick_5">
     <g id="line2d_11">
      <path d="M 108 89.736083 
L 777.6 89.736083 
" clip-path="url(#p44517d9f8f)" style="fill: none; stroke: #ffffff; stroke-linecap: round"/>
     </g>
     <g id="text_11">
      <!-- 1.0 -->
      <g style="fill: #262626" transform="translate(69.874375 96.574677)scale(0.18 -0.18)">
       <use xlink:href="#DejaVuSans-31"/>
       <use xlink:href="#DejaVuSans-2e" x="63.623047"/>
       <use xlink:href="#DejaVuSans-30" x="95.410156"/>
      </g>
     </g>
    </g>
   </g>
   <g id="line2d_12">
    <path d="M 138.436364 247.43975 
L 139.656258 245.525187 
L 142.096047 240.137697 
L 143.315941 238.312184 
L 144.535835 239.247204 
L 146.975624 248.463818 
L 148.195518 252.114844 
L 149.415413 254.786326 
L 150.635307 251.491498 
L 151.855201 246.994503 
L 153.075096 244.723743 
L 154.29499 237.510739 
L 155.514884 235.907852 
L 156.734779 234.082339 
L 157.954673 231.321805 
L 159.174567 234.260437 
L 160.394462 234.304962 
L 162.83425 220.457777 
L 164.054145 218.320592 
L 165.274039 223.262834 
L 166.493933 234.082339 
L 167.713828 250.779102 
L 168.933722 259.327846 
L 170.153616 265.739404 
L 171.373511 268.633509 
L 172.593405 244.634693 
L 173.813299 232.880171 
L 175.033194 210.662344 
L 176.253088 208.480629 
L 178.692877 228.694848 
L 181.132665 286.844117 
L 182.35256 299.221985 
L 183.572454 314.583005 
L 184.792348 316.542093 
L 186.012243 308.171449 
L 188.452031 265.472256 
L 189.671926 248.820016 
L 190.89182 246.148533 
L 192.111714 252.782714 
L 194.551503 290.895864 
L 195.771397 282.480694 
L 198.211186 250.601003 
L 199.43108 222.28329 
L 200.650975 221.748994 
L 201.870869 224.643099 
L 203.090763 239.959599 
L 204.310658 267.653966 
L 205.530552 298.643162 
L 206.750446 322.597456 
L 207.970341 340.496385 
L 209.190235 346.061974 
L 210.410129 335.643195 
L 211.630024 312.089621 
L 212.849918 283.994532 
L 214.069812 253.094387 
L 215.289707 241.96321 
L 216.509601 239.647926 
L 217.729495 244.768267 
L 218.94939 252.693665 
L 220.169284 256.211117 
L 221.389178 259.060698 
L 222.609073 263.201496 
L 223.828967 262.043853 
L 225.048861 260.084766 
L 226.268756 251.580548 
L 227.48865 249.799559 
L 228.708544 254.16298 
L 229.928439 255.409672 
L 231.148333 251.89222 
L 232.368227 244.545644 
L 233.588122 241.696062 
L 234.808016 238.26766 
L 236.02791 237.955988 
L 237.247805 239.425303 
L 238.467699 243.833248 
L 240.907488 259.060698 
L 242.127382 262.132903 
L 243.347276 260.841686 
L 244.567171 258.303778 
L 245.787065 257.992105 
L 248.226854 259.906667 
L 249.446748 263.468644 
L 250.666642 263.468644 
L 251.886537 260.084766 
L 253.106431 255.943968 
L 254.326325 255.543246 
L 255.54622 256.389216 
L 256.766114 255.632295 
L 257.986008 251.446973 
L 259.205903 241.829636 
L 260.425797 235.952375 
L 261.645691 224.732149 
L 262.865586 188.622612 
L 264.08548 145.656274 
L 265.305374 109.680306 
L 266.525269 94.987156 
L 267.745163 88.887273 
L 268.965057 168.586496 
L 270.184952 285.508373 
L 271.404846 430.569876 
L 272.62474 477.276276 
L 273.844635 444.595162 
L 276.284423 372.064401 
L 277.504318 314.939205 
L 279.944106 231.410856 
L 281.164001 203.404817 
L 282.383895 196.013711 
L 283.603789 205.586526 
L 286.043578 242.408458 
L 287.263472 253.272486 
L 288.483367 269.167807 
L 289.703261 305.455443 
L 290.923155 304.787568 
L 293.362944 241.339865 
L 294.582838 252.916288 
L 297.022627 270.102825 
L 298.242521 270.503548 
L 299.462416 269.835677 
L 300.68231 265.60583 
L 301.902204 252.426517 
L 303.122099 245.614237 
L 304.341993 233.191842 
L 305.561887 224.55405 
L 306.781782 219.834432 
L 308.001676 224.242377 
L 309.22157 234.527586 
L 310.441465 247.573324 
L 311.661359 254.786326 
L 312.881253 258.526401 
L 314.101148 261.197884 
L 315.321042 262.444575 
L 316.540936 263.067922 
L 317.760831 259.46142 
L 318.980725 252.114844 
L 320.200619 248.063095 
L 321.420514 246.816404 
L 322.640408 247.617848 
L 323.860302 251.981269 
L 325.080197 259.817618 
L 327.519985 265.383206 
L 328.73988 270.681646 
L 329.959774 274.377197 
L 331.179668 268.410887 
L 332.399563 258.392827 
L 333.619457 253.049862 
L 334.839351 253.094387 
L 336.059246 253.272486 
L 337.27914 257.057086 
L 338.499034 258.971648 
L 339.718929 262.978872 
L 340.938823 263.379595 
L 342.158717 263.156971 
L 343.378612 251.758646 
L 344.598506 245.703286 
L 345.8184 233.280894 
L 347.038295 229.140096 
L 348.258189 236.486671 
L 349.478083 240.271271 
L 350.697978 253.984881 
L 351.917872 262.132903 
L 353.137766 260.21834 
L 354.357661 254.029406 
L 355.577555 246.816404 
L 356.797449 234.349486 
L 358.017344 229.718916 
L 359.237238 227.448156 
L 360.457132 230.653936 
L 361.677027 237.020968 
L 365.33671 263.691267 
L 366.556604 266.540848 
L 367.776498 268.277312 
L 368.996393 265.071533 
L 371.436181 247.929521 
L 372.656076 236.887394 
L 373.87597 218.187016 
L 375.095864 201.401202 
L 376.315759 179.806722 
L 377.535653 161.328967 
L 378.755547 147.214636 
L 379.975442 142.984788 
L 381.195336 141.515476 
L 382.41523 162.664711 
L 383.635125 222.773062 
L 386.074913 446.064456 
L 387.294808 481.595178 
L 388.514702 451.897207 
L 390.954491 349.980152 
L 392.174385 315.072778 
L 393.394279 306.034264 
L 394.614174 301.759893 
L 395.834068 300.513199 
L 397.053962 289.114875 
L 398.273857 280.432557 
L 399.493751 227.626256 
L 400.713645 216.138883 
L 401.93354 199.709265 
L 403.153434 189.913831 
L 404.373328 186.084702 
L 405.593223 181.097939 
L 406.813117 179.450521 
L 408.033011 180.474589 
L 410.4728 187.064245 
L 411.692694 189.468584 
L 412.912589 188.355467 
L 414.132483 186.396378 
L 415.352377 195.568468 
L 417.792166 235.32903 
L 419.01206 244.32302 
L 421.451849 238.801956 
L 422.671743 237.110018 
L 423.891638 238.846481 
L 425.111532 247.3507 
L 426.331426 258.392827 
L 427.551321 253.628684 
L 429.991109 227.225533 
L 431.211004 211.285691 
L 432.430898 223.708081 
L 433.650792 249.309787 
L 434.870687 269.924725 
L 436.090581 279.319438 
L 437.310475 294.012592 
L 438.53037 310.709358 
L 439.750264 306.969283 
L 440.970158 287.601034 
L 442.190053 276.291759 
L 443.409947 260.797162 
L 444.629842 253.895832 
L 445.849736 246.193058 
L 447.06963 241.562488 
L 448.289525 243.165378 
L 449.509419 251.090776 
L 450.729313 257.012561 
L 451.949208 271.171419 
L 453.169102 273.264079 
L 454.388996 268.054689 
L 455.608891 264.581761 
L 456.828785 256.255641 
L 458.048679 249.042639 
L 459.268574 245.970433 
L 460.488468 242.586556 
L 461.708362 243.566101 
L 462.928257 243.744199 
L 465.368045 230.52036 
L 466.58794 226.73576 
L 467.807834 224.732149 
L 469.027728 219.34466 
L 470.247623 209.504697 
L 471.467517 197.928276 
L 472.687411 194.633448 
L 473.907306 197.661129 
L 475.1272 203.18219 
L 476.347094 220.76945 
L 477.566989 244.011347 
L 478.786883 263.602218 
L 480.006777 275.178642 
L 481.226672 274.199098 
L 482.446566 260.841686 
L 484.886355 217.385573 
L 486.106249 208.25801 
L 488.546038 195.167746 
L 489.765932 198.195427 
L 490.985826 212.844053 
L 492.205721 234.260437 
L 493.425615 251.046251 
L 494.645509 258.615451 
L 495.865404 258.437352 
L 497.085298 254.964425 
L 498.305192 249.977658 
L 499.525087 247.884996 
L 500.744981 244.946367 
L 501.964875 241.428914 
L 503.18477 242.942754 
L 504.404664 246.68283 
L 505.624558 247.884996 
L 506.844453 244.768267 
L 508.064347 241.028191 
L 509.284241 238.000512 
L 510.504136 232.390399 
L 511.72403 231.900626 
L 512.943924 232.434922 
L 514.163819 233.503517 
L 515.383713 234.972831 
L 517.823502 255.67682 
L 519.043396 302.205137 
L 520.26329 317.432588 
L 521.483185 317.120914 
L 523.922973 254.519178 
L 525.142868 240.226748 
L 526.362762 261.82123 
L 530.022445 303.67445 
L 531.242339 307.147381 
L 533.682128 255.76587 
L 534.902022 249.844084 
L 536.121917 251.758646 
L 537.341811 262.711724 
L 538.561705 267.653966 
L 539.7816 273.264079 
L 541.001494 280.432557 
L 542.221388 282.658792 
L 543.441283 283.549287 
L 544.661177 288.402481 
L 545.881071 296.817649 
L 547.100966 303.273729 
L 548.32086 300.780349 
L 549.540754 296.105254 
L 551.980543 284.217156 
L 553.200437 279.230389 
L 554.420332 272.640733 
L 555.640226 268.767083 
L 556.86012 272.195487 
L 558.080015 276.024611 
L 560.519803 280.610655 
L 561.739698 292.365179 
L 562.959592 297.886241 
L 564.179486 299.17746 
L 565.399381 290.183466 
L 566.619275 286.79959 
L 567.839169 271.928338 
L 569.059064 268.45541 
L 570.278958 263.33507 
L 571.498852 259.505945 
L 572.718747 262.756248 
L 573.938641 263.780317 
L 575.158535 265.694879 
L 576.37843 265.205108 
L 577.598324 264.09199 
L 578.818218 260.797162 
L 580.038113 258.170204 
L 581.258007 248.730966 
L 582.477901 241.428914 
L 583.697796 238.089562 
L 584.91769 242.05226 
L 586.137584 249.755034 
L 587.357479 255.899444 
L 588.577373 259.416895 
L 589.797267 268.499936 
L 591.017162 254.118455 
L 592.237056 253.895832 
L 593.45695 257.769481 
L 594.676845 265.338682 
L 595.896739 267.921114 
L 597.116633 269.657578 
L 598.336528 268.45541 
L 599.556422 265.872978 
L 600.776316 264.314613 
L 601.996211 264.537237 
L 603.216105 265.872978 
L 604.435999 265.872978 
L 605.655894 264.136514 
L 606.875788 261.999329 
L 608.095682 255.454197 
L 609.315577 254.652752 
L 611.755365 258.882599 
L 612.97526 261.197884 
L 614.195154 260.97526 
L 615.415048 259.194272 
L 617.854837 251.268875 
L 619.074731 250.155757 
L 620.294626 247.662373 
L 621.51452 247.128077 
L 622.734414 248.820016 
L 623.954309 249.755034 
L 625.174203 246.549256 
L 626.394097 242.542032 
L 627.613992 236.308573 
L 628.833886 229.318193 
L 630.05378 223.619031 
L 631.273675 219.745381 
L 632.493569 216.584128 
L 633.713463 213.912645 
L 634.933358 216.628652 
L 636.153252 220.680401 
L 638.593041 231.678005 
L 639.812935 231.900626 
L 641.032829 226.824811 
L 642.252724 213.734549 
L 643.472618 202.959568 
L 644.692512 198.106373 
L 645.912407 208.525159 
L 647.132301 234.839258 
L 648.352195 270.90427 
L 649.57209 297.708141 
L 650.791984 305.544492 
L 652.011878 284.79598 
L 653.231773 241.785112 
L 654.451667 225.711694 
L 655.671561 215.56006 
L 656.891456 213.066675 
L 658.11135 241.651537 
L 659.331244 261.331458 
L 660.551139 311.154606 
L 661.771033 326.293004 
L 662.990927 336.978938 
L 664.210822 330.389279 
L 665.430716 330.389279 
L 666.65061 313.024641 
L 667.870505 261.687656 
L 669.090399 251.580548 
L 670.310293 247.039027 
L 671.530188 249.933133 
L 672.750082 248.01857 
L 673.969976 243.521575 
L 675.189871 251.179825 
L 676.409765 273.531227 
L 677.629659 293.700919 
L 678.849554 296.7286 
L 680.069448 278.963242 
L 682.509237 221.214696 
L 683.729131 266.807997 
L 684.949025 276.247234 
L 686.16892 287.823658 
L 687.388814 298.197913 
L 688.608708 285.909096 
L 689.828603 262.400051 
L 691.048497 246.237584 
L 692.268391 244.723743 
L 693.488286 247.261651 
L 694.70818 246.59378 
L 695.928074 245.614237 
L 697.147969 246.949978 
L 698.367863 246.949978 
L 699.587757 252.871764 
L 700.807652 256.255641 
L 702.027546 251.491498 
L 703.24744 243.254427 
L 704.467335 240.226748 
L 705.687229 239.915075 
L 706.907123 241.607014 
L 708.127018 243.877773 
L 709.346912 249.576936 
L 710.566806 251.313399 
L 711.786701 251.446973 
L 713.006595 253.094387 
L 714.226489 256.122067 
L 715.446384 257.591383 
L 716.666278 257.324234 
L 717.886172 255.498721 
L 719.106067 254.474653 
L 720.325961 254.430129 
L 721.545855 254.029406 
L 722.76575 254.296554 
L 723.985644 253.806783 
L 725.205538 252.604616 
L 726.425433 244.32302 
L 727.645327 232.657546 
L 728.865221 219.34466 
L 730.085116 213.244776 
L 731.30501 207.723713 
L 732.524904 198.952344 
L 733.744799 186.396378 
L 734.964693 168.230297 
L 736.184587 153.982394 
L 737.404482 148.72848 
L 738.624376 148.060605 
L 739.84427 165.959535 
L 741.064165 251.357924 
L 742.284059 352.829735 
L 743.503953 464.898404 
L 744.723848 460.713084 
L 745.943742 391.655273 
L 747.163636 303.852555 
L 747.163636 303.852555 
" clip-path="url(#p44517d9f8f)" style="fill: none; stroke: #4c72b0; stroke-width: 1.5; stroke-linecap: round"/>
   </g>
   <g id="line2d_13">
    <path d="M 138.436364 256.074717 
L 139.656258 252.985729 
L 140.876152 248.913654 
L 142.096047 245.311894 
L 143.315941 243.535209 
L 144.535835 243.881655 
L 145.75573 245.207457 
L 146.975624 245.647104 
L 148.195518 244.077932 
L 149.415413 241.167661 
L 150.635307 239.040515 
L 151.855201 239.728498 
L 153.075096 243.606079 
L 154.29499 249.006542 
L 155.514884 253.247969 
L 156.734779 254.248324 
L 157.954673 251.605375 
L 159.174567 246.550141 
L 160.394462 241.014359 
L 161.614356 236.559356 
L 162.83425 233.817865 
L 164.054145 232.577392 
L 166.493933 231.633325 
L 167.713828 230.145265 
L 168.933722 227.315256 
L 170.153616 224.067381 
L 171.373511 222.872323 
L 172.593405 226.63431 
L 173.813299 236.487268 
L 175.033194 250.101341 
L 176.253088 262.10363 
L 177.472982 266.670055 
L 178.692877 260.694829 
L 179.912771 245.643899 
L 181.132665 227.190804 
L 182.35256 212.944988 
L 183.572454 209.339523 
L 184.792348 219.036966 
L 186.012243 240.000309 
L 188.452031 291.74798 
L 189.671926 309.724227 
L 190.89182 317.17687 
L 192.111714 313.559382 
L 193.331609 300.609071 
L 195.771397 262.638054 
L 196.991292 248.845413 
L 198.211186 245.485215 
L 199.43108 253.633913 
L 200.650975 268.663351 
L 201.870869 281.422645 
L 203.090763 282.818186 
L 204.310658 269.459319 
L 206.750446 225.206251 
L 207.970341 216.69651 
L 209.190235 225.916532 
L 210.410129 249.922959 
L 212.849918 309.994196 
L 214.069812 331.738897 
L 215.289707 342.783488 
L 216.509601 341.597057 
L 217.729495 328.010238 
L 218.94939 304.177763 
L 220.169284 275.534609 
L 221.389178 249.979394 
L 222.609073 234.81338 
L 223.828967 233.035101 
L 225.048861 241.665007 
L 226.268756 253.657653 
L 227.48865 262.265242 
L 228.708544 264.691556 
L 229.928439 262.47513 
L 231.148333 258.88059 
L 232.368227 256.012988 
L 233.588122 254.056362 
L 234.808016 252.482469 
L 236.02791 251.180013 
L 237.247805 250.200778 
L 238.467699 248.955987 
L 239.687593 246.419405 
L 242.127382 238.507708 
L 243.347276 237.158286 
L 244.567171 239.945805 
L 245.787065 246.301845 
L 247.006959 253.865302 
L 248.226854 259.926196 
L 249.446748 262.81188 
L 250.666642 262.490419 
L 253.106431 258.352104 
L 254.326325 258.031611 
L 255.54622 259.561642 
L 256.766114 261.67961 
L 257.986008 262.541805 
L 259.205903 261.081262 
L 261.645691 254.492063 
L 262.865586 252.260864 
L 264.08548 250.593099 
L 265.305374 247.184021 
L 266.525269 239.225218 
L 267.745163 224.584949 
L 268.965057 202.228343 
L 270.184952 172.714687 
L 271.404846 139.844715 
L 272.62474 112.770052 
L 273.844635 106.014991 
L 275.064529 134.948825 
L 276.284423 206.675474 
L 278.724212 415.360849 
L 279.944106 481.982245 
L 281.164001 484.232727 
L 282.383895 426.8642 
L 283.603789 342.8339 
L 284.823684 270.753797 
L 286.043578 230.479725 
L 287.263472 216.539577 
L 289.703261 207.45476 
L 290.923155 206.624522 
L 292.14305 217.904475 
L 293.362944 242.13711 
L 294.582838 270.173071 
L 295.802733 290.288402 
L 297.022627 296.297729 
L 298.242521 289.318995 
L 300.68231 259.298681 
L 301.902204 249.808931 
L 303.122099 250.589816 
L 304.341993 260.278657 
L 305.561887 271.365269 
L 306.781782 274.855736 
L 308.001676 266.831107 
L 310.441465 235.351975 
L 311.661359 225.659073 
L 312.881253 222.89353 
L 314.101148 224.794058 
L 315.321042 229.473107 
L 316.540936 236.738381 
L 318.980725 256.565207 
L 320.200619 263.755064 
L 321.420514 265.787138 
L 322.640408 263.30056 
L 325.080197 254.968336 
L 326.300091 251.968049 
L 327.519985 249.572072 
L 328.73988 248.059462 
L 329.959774 248.715034 
L 331.179668 252.564899 
L 333.619457 265.626918 
L 334.839351 270.14597 
L 336.059246 271.360066 
L 337.27914 269.484645 
L 338.499034 265.337412 
L 340.938823 254.667373 
L 342.158717 251.506888 
L 343.378612 251.905419 
L 344.598506 255.633343 
L 345.8184 260.520225 
L 347.038295 263.640114 
L 348.258189 262.946187 
L 349.478083 258.109685 
L 350.697978 250.305033 
L 351.917872 241.615223 
L 353.137766 234.602538 
L 354.357661 231.829697 
L 355.577555 234.886416 
L 356.797449 243.163271 
L 358.017344 253.387619 
L 359.237238 260.770395 
L 360.457132 261.447807 
L 361.677027 254.722641 
L 364.116815 232.767161 
L 365.33671 226.650919 
L 366.556604 226.855391 
L 367.776498 232.40029 
L 371.436181 258.310276 
L 372.656076 264.503335 
L 373.87597 267.691828 
L 375.095864 266.980689 
L 376.315759 261.928881 
L 377.535653 252.841361 
L 378.755547 240.557784 
L 379.975442 225.876113 
L 381.195336 209.21649 
L 384.855019 155.884831 
L 386.074913 145.486186 
L 387.294808 146.046061 
L 388.514702 163.392845 
L 389.734596 203.497767 
L 390.954491 268.885525 
L 393.394279 432.191656 
L 394.614174 479.475648 
L 395.834068 473.251843 
L 397.053962 417.69668 
L 398.273857 343.01683 
L 399.493751 286.904618 
L 400.713645 269.649329 
L 401.93354 282.710247 
L 403.153434 299.10329 
L 404.373328 295.488715 
L 405.593223 267.671151 
L 406.813117 229.286879 
L 408.033011 198.24973 
L 409.252906 183.636124 
L 410.4728 182.290156 
L 411.692694 184.966544 
L 412.912589 184.904596 
L 414.132483 181.818968 
L 415.352377 179.595571 
L 416.572272 181.268151 
L 419.01206 191.019428 
L 421.451849 196.740141 
L 422.671743 203.234616 
L 423.891638 215.861859 
L 425.111532 232.152882 
L 426.331426 245.619942 
L 427.551321 250.511357 
L 428.771215 246.640939 
L 429.991109 239.894991 
L 431.211004 237.574052 
L 432.430898 242.301685 
L 433.650792 249.678393 
L 434.870687 251.867079 
L 436.090581 244.417991 
L 437.310475 230.877661 
L 438.53037 221.251695 
L 439.750264 225.085928 
L 440.970158 244.318231 
L 442.190053 271.576108 
L 443.409947 295.308131 
L 444.629842 307.365121 
L 445.849736 306.824367 
L 447.06963 297.887377 
L 449.509419 271.611053 
L 450.729313 258.487358 
L 451.949208 247.769225 
L 453.169102 241.681931 
L 454.388996 241.395322 
L 455.608891 246.158357 
L 459.268574 268.597142 
L 460.488468 271.630455 
L 461.708362 269.861084 
L 462.928257 263.480668 
L 465.368045 246.552767 
L 466.58794 241.778832 
L 467.807834 240.588541 
L 469.027728 241.017032 
L 470.247623 240.316206 
L 471.467517 236.809882 
L 472.687411 230.827 
L 473.907306 224.073537 
L 475.1272 217.997507 
L 477.566989 207.063739 
L 478.786883 201.314314 
L 480.006777 197.581637 
L 481.226672 199.542731 
L 482.446566 209.875651 
L 483.66646 227.927435 
L 484.886355 249.239356 
L 486.106249 267.186547 
L 487.326143 275.693576 
L 488.546038 271.685338 
L 489.765932 256.339867 
L 492.205721 213.731096 
L 493.425615 199.357396 
L 494.645509 194.303431 
L 495.865404 197.845629 
L 497.085298 207.560612 
L 498.305192 221.155642 
L 500.744981 251.247983 
L 501.964875 261.176193 
L 503.18477 263.439564 
L 504.404664 258.312482 
L 505.624558 249.744892 
L 506.844453 242.856853 
L 508.064347 240.558559 
L 509.284241 242.181355 
L 510.504136 244.93391 
L 511.72403 246.390444 
L 512.943924 245.768767 
L 514.163819 243.492597 
L 515.383713 240.223029 
L 517.823502 233.178969 
L 519.043396 231.269714 
L 520.26329 231.876833 
L 521.483185 235.728783 
L 522.703079 243.467023 
L 523.922973 255.987485 
L 525.142868 273.552395 
L 526.362762 293.445447 
L 527.582656 308.518564 
L 528.802551 309.909474 
L 530.022445 293.909688 
L 531.242339 267.638053 
L 532.462234 246.93255 
L 533.682128 245.89377 
L 534.902022 265.887542 
L 536.121917 293.650131 
L 537.341811 310.645964 
L 538.561705 306.142862 
L 539.7816 283.852491 
L 541.001494 258.006607 
L 542.221388 243.015094 
L 543.441283 244.618859 
L 544.661177 258.089391 
L 545.881071 273.425737 
L 547.100966 282.842747 
L 548.32086 285.074231 
L 549.540754 284.229676 
L 550.760649 285.268912 
L 551.980543 290.088055 
L 553.200437 296.738286 
L 554.420332 301.444849 
L 555.640226 301.378818 
L 556.86012 296.290128 
L 559.299909 280.328912 
L 560.519803 274.517436 
L 561.739698 271.516086 
L 562.959592 271.007694 
L 564.179486 272.541791 
L 565.399381 275.885273 
L 566.619275 280.79216 
L 569.059064 292.26355 
L 570.278958 295.973063 
L 571.498852 295.983416 
L 572.718747 291.265215 
L 573.938641 282.493189 
L 575.158535 272.213363 
L 576.37843 263.744473 
L 577.598324 259.404871 
L 578.818218 259.348876 
L 581.258007 264.490291 
L 582.477901 265.702338 
L 583.697796 264.94992 
L 584.91769 262.45345 
L 586.137584 258.540053 
L 587.357479 253.438237 
L 588.577373 247.668456 
L 589.797267 242.574314 
L 591.017162 240.216483 
L 592.237056 242.275938 
L 593.45695 248.606642 
L 594.676845 256.703884 
L 595.896739 262.849862 
L 597.116633 264.403342 
L 598.336528 261.681526 
L 599.556422 257.926004 
L 600.776316 257.062592 
L 601.996211 260.721005 
L 603.216105 266.889948 
L 604.435999 271.488597 
L 605.655894 271.654691 
L 606.875788 267.955787 
L 608.095682 263.665793 
L 609.315577 261.874029 
L 610.535471 263.019507 
L 611.755365 264.862999 
L 612.97526 264.664701 
L 614.195154 261.556491 
L 615.415048 257.192065 
L 616.634943 254.341234 
L 617.854837 254.700765 
L 620.294626 260.723364 
L 621.51452 261.497036 
L 622.734414 259.106424 
L 625.174203 250.265123 
L 626.394097 247.555489 
L 627.613992 246.88492 
L 630.05378 247.956986 
L 631.273675 247.301494 
L 632.493569 244.76792 
L 633.713463 240.164611 
L 637.373146 221.077041 
L 638.593041 216.950387 
L 639.812935 215.209305 
L 641.032829 215.754683 
L 642.252724 218.227727 
L 643.472618 222.116091 
L 644.692512 226.445777 
L 645.912407 229.460105 
L 647.132301 228.972666 
L 648.352195 223.668998 
L 649.57209 214.755748 
L 650.791984 206.696182 
L 652.011878 205.945485 
L 653.231773 217.69002 
L 654.451667 242.040902 
L 655.671561 272.044566 
L 656.891456 295.505691 
L 658.11135 300.748084 
L 659.331244 283.687473 
L 661.771033 220.627316 
L 662.990927 206.469169 
L 664.210822 216.385793 
L 665.430716 245.906384 
L 666.65061 283.022686 
L 667.870505 315.353361 
L 669.090399 335.238116 
L 670.310293 340.67047 
L 671.530188 333.364709 
L 672.750082 316.436501 
L 676.409765 248.625374 
L 677.629659 237.802475 
L 678.849554 238.102813 
L 680.069448 246.272499 
L 681.289342 256.828443 
L 682.509237 266.364813 
L 683.729131 274.777145 
L 684.949025 282.018595 
L 686.16892 284.758361 
L 687.388814 278.308052 
L 689.828603 248.329515 
L 691.048497 246.466697 
L 692.268391 262.123193 
L 693.488286 285.843942 
L 694.70818 300.169531 
L 695.928074 293.463422 
L 698.367863 243.37336 
L 699.587757 230.601732 
L 700.807652 234.446813 
L 702.027546 246.319287 
L 703.24744 254.621318 
L 704.467335 254.392989 
L 705.687229 249.430921 
L 706.907123 246.450679 
L 708.127018 247.946025 
L 709.346912 250.537236 
L 710.566806 249.485106 
L 713.006595 238.527689 
L 714.226489 237.722936 
L 715.446384 242.754424 
L 716.666278 250.134853 
L 717.886172 255.21195 
L 719.106067 256.104918 
L 720.325961 254.626341 
L 721.545855 253.863174 
L 722.76575 255.125491 
L 723.985644 257.112422 
L 725.205538 257.675544 
L 726.425433 256.10377 
L 727.645327 253.677925 
L 728.865221 252.180618 
L 730.085116 251.974585 
L 731.30501 251.427142 
L 732.524904 248.069925 
L 733.744799 240.457333 
L 734.964693 229.306249 
L 736.184587 217.103175 
L 737.404482 206.385852 
L 739.84427 189.850075 
L 741.064165 179.872779 
L 743.503953 156.102391 
L 744.723848 153.660548 
L 745.943742 169.89797 
L 747.163636 212.712359 
L 747.163636 212.712359 
" clip-path="url(#p44517d9f8f)" style="fill: none; stroke: #dd8452; stroke-width: 1.5; stroke-linecap: round"/>
   </g>
   <g id="patch_3">
    <path d="M 108 504 
L 108 69.12 
" style="fill: none; stroke: #ffffff; stroke-width: 1.25; stroke-linejoin: miter; stroke-linecap: square"/>
   </g>
   <g id="patch_4">
    <path d="M 777.6 504 
L 777.6 69.12 
" style="fill: none; stroke: #ffffff; stroke-width: 1.25; stroke-linejoin: miter; stroke-linecap: square"/>
   </g>
   <g id="patch_5">
    <path d="M 108 504 
L 777.6 504 
" style="fill: none; stroke: #ffffff; stroke-width: 1.25; stroke-linejoin: miter; stroke-linecap: square"/>
   </g>
   <g id="patch_6">
    <path d="M 108 69.12 
L 777.6 69.12 
" style="fill: none; stroke: #ffffff; stroke-width: 1.25; stroke-linejoin: miter; stroke-linecap: square"/>
   </g>
   <g id="legend_1">
    <g id="patch_7">
     <path d="M 506.88 163.67625 
L 760.8 163.67625 
Q 765.6 163.67625 765.6 158.87625 
L 765.6 85.92 
Q 765.6 81.12 760.8 81.12 
L 506.88 81.12 
Q 502.08 81.12 502.08 85.92 
L 502.08 158.87625 
Q 502.08 163.67625 506.88 163.67625 
z
" style="fill: #eaeaf2; opacity: 0.8; stroke: #cccccc; stroke-linejoin: miter"/>
    </g>
    <g id="line2d_14">
     <path d="M 511.68 100.55625 
L 535.68 100.55625 
L 559.68 100.55625 
" style="fill: none; stroke: #4c72b0; stroke-width: 1.5; stroke-linecap: round"/>
    </g>
    <g id="text_12">
     <!-- raw $x_g$ -->
     <g style="fill: #262626" transform="translate(578.88 108.95625)scale(0.24 -0.24)">
      <defs>
       <path id="DejaVuSans-72" d="M 2631 2963 
Q 2534 3019 2420 3045 
Q 2306 3072 2169 3072 
Q 1681 3072 1420 2755 
Q 1159 2438 1159 1844 
L 1159 0 
L 581 0 
L 581 3500 
L 1159 3500 
L 1159 2956 
Q 1341 3275 1631 3429 
Q 1922 3584 2338 3584 
Q 2397 3584 2469 3576 
Q 2541 3569 2628 3553 
L 2631 2963 
z
" transform="scale(0.015625)"/>
       <path id="DejaVuSans-61" d="M 2194 1759 
Q 1497 1759 1228 1600 
Q 959 1441 959 1056 
Q 959 750 1161 570 
Q 1363 391 1709 391 
Q 2188 391 2477 730 
Q 2766 1069 2766 1631 
L 2766 1759 
L 2194 1759 
z
M 3341 1997 
L 3341 0 
L 2766 0 
L 2766 531 
Q 2569 213 2275 61 
Q 1981 -91 1556 -91 
Q 1019 -91 701 211 
Q 384 513 384 1019 
Q 384 1609 779 1909 
Q 1175 2209 1959 2209 
L 2766 2209 
L 2766 2266 
Q 2766 2663 2505 2880 
Q 2244 3097 1772 3097 
Q 1472 3097 1187 3025 
Q 903 2953 641 2809 
L 641 3341 
Q 956 3463 1253 3523 
Q 1550 3584 1831 3584 
Q 2591 3584 2966 3190 
Q 3341 2797 3341 1997 
z
" transform="scale(0.015625)"/>
       <path id="DejaVuSans-77" d="M 269 3500 
L 844 3500 
L 1563 769 
L 2278 3500 
L 2956 3500 
L 3675 769 
L 4391 3500 
L 4966 3500 
L 4050 0 
L 3372 0 
L 2619 2869 
L 1863 0 
L 1184 0 
L 269 3500 
z
" transform="scale(0.015625)"/>
       <path id="DejaVuSans-20" transform="scale(0.015625)"/>
       <path id="DejaVuSans-Oblique-78" d="M 3841 3500 
L 2234 1784 
L 3219 0 
L 2559 0 
L 1819 1388 
L 531 0 
L -166 0 
L 1556 1844 
L 641 3500 
L 1300 3500 
L 1972 2234 
L 3144 3500 
L 3841 3500 
z
" transform="scale(0.015625)"/>
       <path id="DejaVuSans-Oblique-67" d="M 3816 3500 
L 3219 434 
Q 3047 -456 2561 -893 
Q 2075 -1331 1253 -1331 
Q 950 -1331 690 -1286 
Q 431 -1241 206 -1147 
L 313 -588 
Q 525 -725 762 -790 
Q 1000 -856 1269 -856 
Q 1816 -856 2167 -557 
Q 2519 -259 2631 300 
L 2681 563 
Q 2441 288 2122 144 
Q 1803 0 1434 0 
Q 903 0 598 351 
Q 294 703 294 1319 
Q 294 1803 478 2267 
Q 663 2731 997 3091 
Q 1219 3328 1514 3456 
Q 1809 3584 2131 3584 
Q 2484 3584 2746 3420 
Q 3009 3256 3138 2956 
L 3238 3500 
L 3816 3500 
z
M 2950 2216 
Q 2950 2641 2750 2872 
Q 2550 3103 2181 3103 
Q 1953 3103 1747 3012 
Q 1541 2922 1394 2759 
Q 1156 2491 1023 2127 
Q 891 1763 891 1375 
Q 891 944 1092 712 
Q 1294 481 1672 481 
Q 2219 481 2584 976 
Q 2950 1472 2950 2216 
z
" transform="scale(0.015625)"/>
      </defs>
      <use xlink:href="#DejaVuSans-72"/>
      <use xlink:href="#DejaVuSans-61" transform="translate(41.113281 0)"/>
      <use xlink:href="#DejaVuSans-77" transform="translate(102.392578 0)"/>
      <use xlink:href="#DejaVuSans-20" transform="translate(184.179688 0)"/>
      <use xlink:href="#DejaVuSans-Oblique-78" transform="translate(215.966797 0)"/>
      <use xlink:href="#DejaVuSans-Oblique-67" transform="translate(275.146484 -16.40625)scale(0.7)"/>
     </g>
    </g>
    <g id="line2d_15">
     <path d="M 511.68 138.23625 
L 535.68 138.23625 
L 559.68 138.23625 
" style="fill: none; stroke: #dd8452; stroke-width: 1.5; stroke-linecap: round"/>
    </g>
    <g id="text_13">
     <!-- Butterworth $x_g$ -->
     <g style="fill: #262626" transform="translate(578.88 146.63625)scale(0.24 -0.24)">
      <defs>
       <path id="DejaVuSans-42" d="M 1259 2228 
L 1259 519 
L 2272 519 
Q 2781 519 3026 730 
Q 3272 941 3272 1375 
Q 3272 1813 3026 2020 
Q 2781 2228 2272 2228 
L 1259 2228 
z
M 1259 4147 
L 1259 2741 
L 2194 2741 
Q 2656 2741 2882 2914 
Q 3109 3088 3109 3444 
Q 3109 3797 2882 3972 
Q 2656 4147 2194 4147 
L 1259 4147 
z
M 628 4666 
L 2241 4666 
Q 2963 4666 3353 4366 
Q 3744 4066 3744 3513 
Q 3744 3084 3544 2831 
Q 3344 2578 2956 2516 
Q 3422 2416 3680 2098 
Q 3938 1781 3938 1306 
Q 3938 681 3513 340 
Q 3088 0 2303 0 
L 628 0 
L 628 4666 
z
" transform="scale(0.015625)"/>
       <path id="DejaVuSans-75" d="M 544 1381 
L 544 3500 
L 1119 3500 
L 1119 1403 
Q 1119 906 1312 657 
Q 1506 409 1894 409 
Q 2359 409 2629 706 
Q 2900 1003 2900 1516 
L 2900 3500 
L 3475 3500 
L 3475 0 
L 2900 0 
L 2900 538 
Q 2691 219 2414 64 
Q 2138 -91 1772 -91 
Q 1169 -91 856 284 
Q 544 659 544 1381 
z
M 1991 3584 
L 1991 3584 
z
" transform="scale(0.015625)"/>
       <path id="DejaVuSans-74" d="M 1172 4494 
L 1172 3500 
L 2356 3500 
L 2356 3053 
L 1172 3053 
L 1172 1153 
Q 1172 725 1289 603 
Q 1406 481 1766 481 
L 2356 481 
L 2356 0 
L 1766 0 
Q 1100 0 847 248 
Q 594 497 594 1153 
L 594 3053 
L 172 3053 
L 172 3500 
L 594 3500 
L 594 4494 
L 1172 4494 
z
" transform="scale(0.015625)"/>
       <path id="DejaVuSans-65" d="M 3597 1894 
L 3597 1613 
L 953 1613 
Q 991 1019 1311 708 
Q 1631 397 2203 397 
Q 2534 397 2845 478 
Q 3156 559 3463 722 
L 3463 178 
Q 3153 47 2828 -22 
Q 2503 -91 2169 -91 
Q 1331 -91 842 396 
Q 353 884 353 1716 
Q 353 2575 817 3079 
Q 1281 3584 2069 3584 
Q 2775 3584 3186 3129 
Q 3597 2675 3597 1894 
z
M 3022 2063 
Q 3016 2534 2758 2815 
Q 2500 3097 2075 3097 
Q 1594 3097 1305 2825 
Q 1016 2553 972 2059 
L 3022 2063 
z
" transform="scale(0.015625)"/>
       <path id="DejaVuSans-6f" d="M 1959 3097 
Q 1497 3097 1228 2736 
Q 959 2375 959 1747 
Q 959 1119 1226 758 
Q 1494 397 1959 397 
Q 2419 397 2687 759 
Q 2956 1122 2956 1747 
Q 2956 2369 2687 2733 
Q 2419 3097 1959 3097 
z
M 1959 3584 
Q 2709 3584 3137 3096 
Q 3566 2609 3566 1747 
Q 3566 888 3137 398 
Q 2709 -91 1959 -91 
Q 1206 -91 779 398 
Q 353 888 353 1747 
Q 353 2609 779 3096 
Q 1206 3584 1959 3584 
z
" transform="scale(0.015625)"/>
       <path id="DejaVuSans-68" d="M 3513 2113 
L 3513 0 
L 2938 0 
L 2938 2094 
Q 2938 2591 2744 2837 
Q 2550 3084 2163 3084 
Q 1697 3084 1428 2787 
Q 1159 2491 1159 1978 
L 1159 0 
L 581 0 
L 581 4863 
L 1159 4863 
L 1159 2956 
Q 1366 3272 1645 3428 
Q 1925 3584 2291 3584 
Q 2894 3584 3203 3211 
Q 3513 2838 3513 2113 
z
" transform="scale(0.015625)"/>
      </defs>
      <use xlink:href="#DejaVuSans-42" transform="translate(0 0.015625)"/>
      <use xlink:href="#DejaVuSans-75" transform="translate(68.603516 0.015625)"/>
      <use xlink:href="#DejaVuSans-74" transform="translate(131.982422 0.015625)"/>
      <use xlink:href="#DejaVuSans-74" transform="translate(171.191406 0.015625)"/>
      <use xlink:href="#DejaVuSans-65" transform="translate(210.400391 0.015625)"/>
      <use xlink:href="#DejaVuSans-72" transform="translate(271.923828 0.015625)"/>
      <use xlink:href="#DejaVuSans-77" transform="translate(313.037109 0.015625)"/>
      <use xlink:href="#DejaVuSans-6f" transform="translate(394.824219 0.015625)"/>
      <use xlink:href="#DejaVuSans-72" transform="translate(456.005859 0.015625)"/>
      <use xlink:href="#DejaVuSans-74" transform="translate(497.119141 0.015625)"/>
      <use xlink:href="#DejaVuSans-68" transform="translate(536.328125 0.015625)"/>
      <use xlink:href="#DejaVuSans-20" transform="translate(599.707031 0.015625)"/>
      <use xlink:href="#DejaVuSans-Oblique-78" transform="translate(631.494141 0.015625)"/>
      <use xlink:href="#DejaVuSans-Oblique-67" transform="translate(690.673828 -16.390625)scale(0.7)"/>
     </g>
    </g>
   </g>
  </g>
 </g>
 <defs>
  <clipPath id="p44517d9f8f">
   <rect x="108" y="69.12" width="669.6" height="434.88"/>
  </clipPath>
 </defs>
</svg>
