<?xml version="1.0" encoding="utf-8" standalone="no"?>
<!DOCTYPE svg PUBLIC "-//W3C//DTD SVG 1.1//EN"
  "http://www.w3.org/Graphics/SVG/1.1/DTD/svg11.dtd">
<svg xmlns:xlink="http://www.w3.org/1999/xlink" width="630.451222pt" height="368.501701pt" viewBox="0 0 630.451222 368.501701" xmlns="http://www.w3.org/2000/svg" version="1.1">
 <metadata>
  <rdf:RDF xmlns:dc="http://purl.org/dc/elements/1.1/" xmlns:cc="http://creativecommons.org/ns#" xmlns:rdf="http://www.w3.org/1999/02/22-rdf-syntax-ns#">
   <cc:Work>
    <dc:type rdf:resource="http://purl.org/dc/dcmitype/StillImage"/>
    <dc:date>2023-08-10T10:21:11.619892</dc:date>
    <dc:format>image/svg+xml</dc:format>
    <dc:creator>
     <cc:Agent>
      <dc:title>Matplotlib v3.5.1, https://matplotlib.org/</dc:title>
     </cc:Agent>
    </dc:creator>
   </cc:Work>
  </rdf:RDF>
 </metadata>
 <defs>
  <style type="text/css">*{stroke-linejoin: round; stroke-linecap: butt}</style>
 </defs>
 <g id="figure_1">
  <g id="patch_1">
   <path d="M 0 368.501701 
L 630.451222 368.501701 
L 630.451222 -0 
L 0 -0 
z
" style="fill: #ffffff"/>
  </g>
  <g id="axes_1">
   <g id="patch_2">
    <path d="M 44.987349 336.819249 
L 491.387349 336.819249 
L 491.387349 10.659249 
L 44.987349 10.659249 
z
" style="fill: #ffffff"/>
   </g>
   <g id="matplotlib.axis_1">
    <g id="xtick_1">
     <g id="line2d_1">
      <path d="M 59.867349 336.819249 
L 59.867349 10.659249 
" clip-path="url(#p33c291da17)" style="fill: none; stroke-dasharray: 2.96,1.28; stroke-dashoffset: 0; stroke: #d3d3d3; stroke-opacity: 0.53; stroke-width: 0.8"/>
     </g>
     <g id="text_1">
      <!-- $\mathdefault{−0.02}$ -->
      <g style="fill: #262626" transform="translate(47.13727 344.737748)scale(0.1 -0.1)">
       <defs>
        <path id="CMSY10-0" d="M 4218 1472 
C 4326 1472 4442 1472 4442 1600 
C 4442 1728 4326 1728 4218 1728 
L 755 1728 
C 646 1728 531 1728 531 1600 
C 531 1472 646 1472 755 1472 
L 4218 1472 
z
" transform="scale(0.015625)"/>
        <path id="CMR17-30" d="M 2688 2038 
C 2688 2430 2682 3099 2413 3613 
C 2176 4063 1798 4224 1466 4224 
C 1158 4224 768 4082 525 3620 
C 269 3137 243 2539 243 2038 
C 243 1671 250 1112 448 623 
C 723 -39 1216 -128 1466 -128 
C 1760 -128 2208 -7 2470 604 
C 2662 1048 2688 1568 2688 2038 
z
M 1466 -26 
C 1056 -26 813 328 723 816 
C 653 1196 653 1749 653 2109 
C 653 2604 653 3015 736 3407 
C 858 3954 1216 4121 1466 4121 
C 1728 4121 2067 3947 2189 3420 
C 2272 3054 2278 2623 2278 2109 
C 2278 1691 2278 1176 2202 797 
C 2067 96 1690 -26 1466 -26 
z
" transform="scale(0.015625)"/>
        <path id="CMMI12-3a" d="M 1178 307 
C 1178 492 1024 620 870 620 
C 685 620 557 467 557 313 
C 557 128 710 0 864 0 
C 1050 0 1178 153 1178 307 
z
" transform="scale(0.015625)"/>
        <path id="CMR17-32" d="M 2669 990 
L 2554 990 
C 2490 537 2438 460 2413 422 
C 2381 371 1920 371 1830 371 
L 602 371 
C 832 620 1280 1073 1824 1596 
C 2214 1966 2669 2400 2669 3033 
C 2669 3788 2067 4224 1395 4224 
C 691 4224 262 3603 262 3027 
C 262 2777 448 2745 525 2745 
C 589 2745 781 2783 781 3007 
C 781 3206 614 3264 525 3264 
C 486 3264 448 3257 422 3244 
C 544 3788 915 4057 1306 4057 
C 1862 4057 2227 3616 2227 3033 
C 2227 2477 1901 1998 1536 1583 
L 262 147 
L 262 0 
L 2515 0 
L 2669 990 
z
" transform="scale(0.015625)"/>
       </defs>
       <use xlink:href="#CMSY10-0" transform="scale(0.996264)"/>
       <use xlink:href="#CMR17-30" transform="translate(77.487468 0)scale(0.996264)"/>
       <use xlink:href="#CMMI12-3a" transform="translate(123.177945 0)scale(0.996264)"/>
       <use xlink:href="#CMR17-30" transform="translate(150.275122 0)scale(0.996264)"/>
       <use xlink:href="#CMR17-32" transform="translate(195.965599 0)scale(0.996264)"/>
      </g>
     </g>
    </g>
    <g id="xtick_2">
     <g id="line2d_2">
      <path d="M 119.387349 336.819249 
L 119.387349 10.659249 
" clip-path="url(#p33c291da17)" style="fill: none; stroke-dasharray: 2.96,1.28; stroke-dashoffset: 0; stroke: #d3d3d3; stroke-opacity: 0.53; stroke-width: 0.8"/>
     </g>
     <g id="text_2">
      <!-- $\mathdefault{0.00}$ -->
      <g style="fill: #262626" transform="translate(110.531642 344.737748)scale(0.1 -0.1)">
       <use xlink:href="#CMR17-30" transform="scale(0.996264)"/>
       <use xlink:href="#CMMI12-3a" transform="translate(45.690477 0)scale(0.996264)"/>
       <use xlink:href="#CMR17-30" transform="translate(72.787654 0)scale(0.996264)"/>
       <use xlink:href="#CMR17-30" transform="translate(118.478131 0)scale(0.996264)"/>
      </g>
     </g>
    </g>
    <g id="xtick_3">
     <g id="line2d_3">
      <path d="M 178.907349 336.819249 
L 178.907349 10.659249 
" clip-path="url(#p33c291da17)" style="fill: none; stroke-dasharray: 2.96,1.28; stroke-dashoffset: 0; stroke: #d3d3d3; stroke-opacity: 0.53; stroke-width: 0.8"/>
     </g>
     <g id="text_3">
      <!-- $\mathdefault{0.02}$ -->
      <g style="fill: #262626" transform="translate(170.051642 344.737748)scale(0.1 -0.1)">
       <use xlink:href="#CMR17-30" transform="scale(0.996264)"/>
       <use xlink:href="#CMMI12-3a" transform="translate(45.690477 0)scale(0.996264)"/>
       <use xlink:href="#CMR17-30" transform="translate(72.787654 0)scale(0.996264)"/>
       <use xlink:href="#CMR17-32" transform="translate(118.478131 0)scale(0.996264)"/>
      </g>
     </g>
    </g>
    <g id="xtick_4">
     <g id="line2d_4">
      <path d="M 238.427349 336.819249 
L 238.427349 10.659249 
" clip-path="url(#p33c291da17)" style="fill: none; stroke-dasharray: 2.96,1.28; stroke-dashoffset: 0; stroke: #d3d3d3; stroke-opacity: 0.53; stroke-width: 0.8"/>
     </g>
     <g id="text_4">
      <!-- $\mathdefault{0.04}$ -->
      <g style="fill: #262626" transform="translate(229.571642 344.737748)scale(0.1 -0.1)">
       <defs>
        <path id="CMR17-34" d="M 2150 4147 
C 2150 4281 2144 4288 2029 4288 
L 128 1254 
L 128 1088 
L 1779 1088 
L 1779 460 
C 1779 230 1766 166 1318 166 
L 1197 166 
L 1197 0 
C 1402 12 1747 12 1965 12 
C 2182 12 2528 12 2733 0 
L 2733 166 
L 2611 166 
C 2163 166 2150 230 2150 460 
L 2150 1088 
L 2803 1088 
L 2803 1254 
L 2150 1254 
L 2150 4147 
z
M 1798 3723 
L 1798 1254 
L 256 1254 
L 1798 3723 
z
" transform="scale(0.015625)"/>
       </defs>
       <use xlink:href="#CMR17-30" transform="scale(0.996264)"/>
       <use xlink:href="#CMMI12-3a" transform="translate(45.690477 0)scale(0.996264)"/>
       <use xlink:href="#CMR17-30" transform="translate(72.787654 0)scale(0.996264)"/>
       <use xlink:href="#CMR17-34" transform="translate(118.478131 0)scale(0.996264)"/>
      </g>
     </g>
    </g>
    <g id="xtick_5">
     <g id="line2d_5">
      <path d="M 297.947349 336.819249 
L 297.947349 10.659249 
" clip-path="url(#p33c291da17)" style="fill: none; stroke-dasharray: 2.96,1.28; stroke-dashoffset: 0; stroke: #d3d3d3; stroke-opacity: 0.53; stroke-width: 0.8"/>
     </g>
     <g id="text_5">
      <!-- $\mathdefault{0.06}$ -->
      <g style="fill: #262626" transform="translate(289.091642 344.737748)scale(0.1 -0.1)">
       <defs>
        <path id="CMR17-36" d="M 678 2198 
C 678 3712 1395 4076 1811 4076 
C 1946 4076 2272 4049 2400 3782 
C 2298 3782 2106 3782 2106 3558 
C 2106 3385 2246 3328 2336 3328 
C 2394 3328 2566 3353 2566 3571 
C 2566 3987 2246 4224 1805 4224 
C 1043 4224 243 3411 243 2011 
C 243 257 966 -128 1478 -128 
C 2099 -128 2688 431 2688 1295 
C 2688 2101 2170 2688 1517 2688 
C 1126 2688 838 2430 678 1979 
L 678 2198 
z
M 1478 25 
C 691 25 691 1212 691 1450 
C 691 1914 909 2585 1504 2585 
C 1613 2585 1926 2585 2138 2140 
C 2253 1889 2253 1624 2253 1302 
C 2253 954 2253 696 2118 438 
C 1978 173 1773 25 1478 25 
z
" transform="scale(0.015625)"/>
       </defs>
       <use xlink:href="#CMR17-30" transform="scale(0.996264)"/>
       <use xlink:href="#CMMI12-3a" transform="translate(45.690477 0)scale(0.996264)"/>
       <use xlink:href="#CMR17-30" transform="translate(72.787654 0)scale(0.996264)"/>
       <use xlink:href="#CMR17-36" transform="translate(118.478131 0)scale(0.996264)"/>
      </g>
     </g>
    </g>
    <g id="xtick_6">
     <g id="line2d_6">
      <path d="M 357.467349 336.819249 
L 357.467349 10.659249 
" clip-path="url(#p33c291da17)" style="fill: none; stroke-dasharray: 2.96,1.28; stroke-dashoffset: 0; stroke: #d3d3d3; stroke-opacity: 0.53; stroke-width: 0.8"/>
     </g>
     <g id="text_6">
      <!-- $\mathdefault{0.08}$ -->
      <g style="fill: #262626" transform="translate(348.611642 344.737748)scale(0.1 -0.1)">
       <defs>
        <path id="CMR17-38" d="M 1741 2289 
C 2144 2494 2554 2803 2554 3298 
C 2554 3884 1990 4224 1472 4224 
C 890 4224 378 3800 378 3215 
C 378 3054 416 2777 666 2533 
C 730 2469 998 2276 1171 2154 
C 883 2006 211 1652 211 945 
C 211 282 838 -128 1459 -128 
C 2144 -128 2720 366 2720 1022 
C 2720 1607 2330 1877 2074 2051 
L 1741 2289 
z
M 902 2855 
C 851 2887 595 3086 595 3388 
C 595 3781 998 4076 1459 4076 
C 1965 4076 2336 3716 2336 3298 
C 2336 2700 1670 2359 1638 2359 
C 1632 2359 1626 2359 1574 2398 
L 902 2855 
z
M 2080 1536 
C 2176 1466 2483 1253 2483 861 
C 2483 385 2010 25 1472 25 
C 890 25 448 443 448 951 
C 448 1459 838 1884 1280 2083 
L 2080 1536 
z
" transform="scale(0.015625)"/>
       </defs>
       <use xlink:href="#CMR17-30" transform="scale(0.996264)"/>
       <use xlink:href="#CMMI12-3a" transform="translate(45.690477 0)scale(0.996264)"/>
       <use xlink:href="#CMR17-30" transform="translate(72.787654 0)scale(0.996264)"/>
       <use xlink:href="#CMR17-38" transform="translate(118.478131 0)scale(0.996264)"/>
      </g>
     </g>
    </g>
    <g id="xtick_7">
     <g id="line2d_7">
      <path d="M 416.987349 336.819249 
L 416.987349 10.659249 
" clip-path="url(#p33c291da17)" style="fill: none; stroke-dasharray: 2.96,1.28; stroke-dashoffset: 0; stroke: #d3d3d3; stroke-opacity: 0.53; stroke-width: 0.8"/>
     </g>
     <g id="text_7">
      <!-- $\mathdefault{0.10}$ -->
      <g style="fill: #262626" transform="translate(408.131642 344.737748)scale(0.1 -0.1)">
       <defs>
        <path id="CMR17-31" d="M 1702 4083 
C 1702 4217 1696 4224 1606 4224 
C 1357 3927 979 3833 621 3820 
C 602 3820 570 3820 563 3808 
C 557 3795 557 3782 557 3648 
C 755 3648 1088 3686 1344 3839 
L 1344 467 
C 1344 243 1331 166 781 166 
L 589 166 
L 589 0 
C 896 6 1216 12 1523 12 
C 1830 12 2150 6 2458 0 
L 2458 166 
L 2266 166 
C 1715 166 1702 236 1702 467 
L 1702 4083 
z
" transform="scale(0.015625)"/>
       </defs>
       <use xlink:href="#CMR17-30" transform="scale(0.996264)"/>
       <use xlink:href="#CMMI12-3a" transform="translate(45.690477 0)scale(0.996264)"/>
       <use xlink:href="#CMR17-31" transform="translate(72.787654 0)scale(0.996264)"/>
       <use xlink:href="#CMR17-30" transform="translate(118.478131 0)scale(0.996264)"/>
      </g>
     </g>
    </g>
    <g id="xtick_8">
     <g id="line2d_8">
      <path d="M 476.507349 336.819249 
L 476.507349 10.659249 
" clip-path="url(#p33c291da17)" style="fill: none; stroke-dasharray: 2.96,1.28; stroke-dashoffset: 0; stroke: #d3d3d3; stroke-opacity: 0.53; stroke-width: 0.8"/>
     </g>
     <g id="text_8">
      <!-- $\mathdefault{0.12}$ -->
      <g style="fill: #262626" transform="translate(467.651642 344.737748)scale(0.1 -0.1)">
       <use xlink:href="#CMR17-30" transform="scale(0.996264)"/>
       <use xlink:href="#CMMI12-3a" transform="translate(45.690477 0)scale(0.996264)"/>
       <use xlink:href="#CMR17-31" transform="translate(72.787654 0)scale(0.996264)"/>
       <use xlink:href="#CMR17-32" transform="translate(118.478131 0)scale(0.996264)"/>
      </g>
     </g>
    </g>
    <g id="text_9">
     <!-- $\nu$ -->
     <g style="fill: #262626" transform="translate(265.295445 358.977106)scale(0.12 -0.12)">
      <defs>
       <path id="CMMI12-17" d="M 1408 2751 
C 1408 2777 1389 2816 1338 2816 
C 1293 2816 691 2758 595 2751 
C 525 2745 461 2739 461 2623 
C 461 2559 512 2559 602 2559 
C 902 2559 922 2515 922 2445 
C 922 2419 909 2343 902 2317 
L 339 64 
C 339 38 358 0 403 0 
L 538 0 
C 627 0 1600 230 2349 996 
C 3174 1845 3290 2630 3290 2655 
C 3290 2758 3206 2816 3123 2816 
C 2938 2816 2893 2643 2880 2598 
C 2502 1264 1626 472 774 192 
L 1408 2751 
z
" transform="scale(0.015625)"/>
      </defs>
      <use xlink:href="#CMMI12-17" transform="scale(0.996264)"/>
     </g>
    </g>
   </g>
   <g id="matplotlib.axis_2">
    <g id="ytick_1">
     <g id="line2d_9">
      <path d="M 44.987349 336.819249 
L 491.387349 336.819249 
" clip-path="url(#p33c291da17)" style="fill: none; stroke-dasharray: 2.96,1.28; stroke-dashoffset: 0; stroke: #d3d3d3; stroke-opacity: 0.53; stroke-width: 0.8"/>
     </g>
     <g id="text_10">
      <!-- $\mathdefault{10^{-9}}$ -->
      <g style="fill: #262626" transform="translate(21.826776 340.278498)scale(0.1 -0.1)">
       <defs>
        <path id="CMR17-39" d="M 2253 1871 
C 2253 448 1670 25 1190 25 
C 1043 25 685 43 538 281 
C 704 256 826 345 826 505 
C 826 678 685 736 595 736 
C 538 736 365 710 365 492 
C 365 68 742 -128 1203 -128 
C 1939 -128 2688 665 2688 2090 
C 2688 3857 1971 4224 1485 4224 
C 851 4224 243 3664 243 2800 
C 243 2000 762 1408 1414 1408 
C 1952 1408 2189 1910 2253 2122 
L 2253 1871 
z
M 1427 1510 
C 1254 1510 1011 1542 813 1929 
C 678 2181 678 2477 678 2793 
C 678 3174 678 3438 858 3722 
C 947 3857 1114 4076 1485 4076 
C 2240 4076 2240 2909 2240 2651 
C 2240 2193 2035 1510 1427 1510 
z
" transform="scale(0.015625)"/>
       </defs>
       <use xlink:href="#CMR17-31" transform="scale(0.996264)"/>
       <use xlink:href="#CMR17-30" transform="translate(45.690477 0)scale(0.996264)"/>
       <use xlink:href="#CMSY10-0" transform="translate(91.380954 36.153639)scale(0.697382)"/>
       <use xlink:href="#CMR17-39" transform="translate(145.621947 36.153639)scale(0.697382)"/>
      </g>
     </g>
    </g>
    <g id="ytick_2">
     <g id="line2d_10">
      <path d="M 44.987349 282.459249 
L 491.387349 282.459249 
" clip-path="url(#p33c291da17)" style="fill: none; stroke-dasharray: 2.96,1.28; stroke-dashoffset: 0; stroke: #d3d3d3; stroke-opacity: 0.53; stroke-width: 0.8"/>
     </g>
     <g id="text_11">
      <!-- $\mathdefault{10^{-7}}$ -->
      <g style="fill: #262626" transform="translate(21.826776 285.918498)scale(0.1 -0.1)">
       <defs>
        <path id="CMR17-37" d="M 2886 3955 
L 2886 4096 
L 1382 4096 
C 634 4096 621 4166 595 4288 
L 480 4288 
L 294 3104 
L 410 3104 
C 429 3226 474 3552 550 3673 
C 589 3724 1062 3724 1171 3724 
L 2579 3724 
L 1869 2670 
C 1395 1961 1069 1003 1069 166 
C 1069 89 1069 -128 1299 -128 
C 1530 -128 1530 89 1530 172 
L 1530 466 
C 1530 1514 1709 2204 2003 2644 
L 2886 3955 
z
" transform="scale(0.015625)"/>
       </defs>
       <use xlink:href="#CMR17-31" transform="scale(0.996264)"/>
       <use xlink:href="#CMR17-30" transform="translate(45.690477 0)scale(0.996264)"/>
       <use xlink:href="#CMSY10-0" transform="translate(91.380954 36.153639)scale(0.697382)"/>
       <use xlink:href="#CMR17-37" transform="translate(145.621947 36.153639)scale(0.697382)"/>
      </g>
     </g>
    </g>
    <g id="ytick_3">
     <g id="line2d_11">
      <path d="M 44.987349 228.099249 
L 491.387349 228.099249 
" clip-path="url(#p33c291da17)" style="fill: none; stroke-dasharray: 2.96,1.28; stroke-dashoffset: 0; stroke: #d3d3d3; stroke-opacity: 0.53; stroke-width: 0.8"/>
     </g>
     <g id="text_12">
      <!-- $\mathdefault{10^{-5}}$ -->
      <g style="fill: #262626" transform="translate(21.826776 231.558498)scale(0.1 -0.1)">
       <defs>
        <path id="CMR17-35" d="M 730 3750 
C 794 3724 1056 3641 1325 3641 
C 1920 3641 2246 3961 2432 4140 
C 2432 4191 2432 4224 2394 4224 
C 2387 4224 2374 4224 2323 4198 
C 2099 4102 1837 4032 1517 4032 
C 1325 4032 1037 4055 723 4191 
C 653 4224 640 4224 634 4224 
C 602 4224 595 4217 595 4090 
L 595 2231 
C 595 2113 595 2080 659 2080 
C 691 2080 704 2093 736 2139 
C 941 2435 1222 2560 1542 2560 
C 1766 2560 2246 2415 2246 1293 
C 2246 1087 2246 716 2054 422 
C 1894 159 1645 25 1370 25 
C 947 25 518 319 403 812 
C 429 806 480 793 506 793 
C 589 793 749 838 749 1036 
C 749 1209 627 1280 506 1280 
C 358 1280 262 1190 262 1011 
C 262 454 704 -128 1382 -128 
C 2042 -128 2669 441 2669 1267 
C 2669 2054 2170 2662 1549 2662 
C 1222 2662 947 2540 730 2304 
L 730 3750 
z
" transform="scale(0.015625)"/>
       </defs>
       <use xlink:href="#CMR17-31" transform="scale(0.996264)"/>
       <use xlink:href="#CMR17-30" transform="translate(45.690477 0)scale(0.996264)"/>
       <use xlink:href="#CMSY10-0" transform="translate(91.380954 36.153639)scale(0.697382)"/>
       <use xlink:href="#CMR17-35" transform="translate(145.621947 36.153639)scale(0.697382)"/>
      </g>
     </g>
    </g>
    <g id="ytick_4">
     <g id="line2d_12">
      <path d="M 44.987349 173.739249 
L 491.387349 173.739249 
" clip-path="url(#p33c291da17)" style="fill: none; stroke-dasharray: 2.96,1.28; stroke-dashoffset: 0; stroke: #d3d3d3; stroke-opacity: 0.53; stroke-width: 0.8"/>
     </g>
     <g id="text_13">
      <!-- $\mathdefault{10^{-3}}$ -->
      <g style="fill: #262626" transform="translate(21.826776 177.198498)scale(0.1 -0.1)">
       <defs>
        <path id="CMR17-33" d="M 1414 2176 
C 1984 2176 2234 1673 2234 1094 
C 2234 322 1824 25 1453 25 
C 1114 25 563 193 390 691 
C 422 678 454 678 486 678 
C 640 678 755 780 755 947 
C 755 1132 614 1216 486 1216 
C 378 1216 211 1164 211 927 
C 211 335 787 -128 1466 -128 
C 2176 -128 2720 432 2720 1087 
C 2720 1718 2208 2176 1600 2246 
C 2086 2347 2554 2776 2554 3353 
C 2554 3856 2048 4224 1472 4224 
C 890 4224 378 3862 378 3347 
C 378 3123 544 3084 627 3084 
C 762 3084 877 3167 877 3334 
C 877 3500 762 3584 627 3584 
C 602 3584 570 3584 544 3571 
C 730 3999 1235 4076 1459 4076 
C 1683 4076 2106 3966 2106 3347 
C 2106 3167 2080 2851 1862 2574 
C 1670 2329 1453 2316 1242 2297 
C 1210 2297 1062 2284 1037 2284 
C 992 2278 966 2272 966 2227 
C 966 2182 973 2176 1101 2176 
L 1414 2176 
z
" transform="scale(0.015625)"/>
       </defs>
       <use xlink:href="#CMR17-31" transform="scale(0.996264)"/>
       <use xlink:href="#CMR17-30" transform="translate(45.690477 0)scale(0.996264)"/>
       <use xlink:href="#CMSY10-0" transform="translate(91.380954 36.153639)scale(0.697382)"/>
       <use xlink:href="#CMR17-33" transform="translate(145.621947 36.153639)scale(0.697382)"/>
      </g>
     </g>
    </g>
    <g id="ytick_5">
     <g id="line2d_13">
      <path d="M 44.987349 119.379249 
L 491.387349 119.379249 
" clip-path="url(#p33c291da17)" style="fill: none; stroke-dasharray: 2.96,1.28; stroke-dashoffset: 0; stroke: #d3d3d3; stroke-opacity: 0.53; stroke-width: 0.8"/>
     </g>
     <g id="text_14">
      <!-- $\mathdefault{10^{-1}}$ -->
      <g style="fill: #262626" transform="translate(21.826776 122.838498)scale(0.1 -0.1)">
       <use xlink:href="#CMR17-31" transform="scale(0.996264)"/>
       <use xlink:href="#CMR17-30" transform="translate(45.690477 0)scale(0.996264)"/>
       <use xlink:href="#CMSY10-0" transform="translate(91.380954 36.153639)scale(0.697382)"/>
       <use xlink:href="#CMR17-31" transform="translate(145.621947 36.153639)scale(0.697382)"/>
      </g>
     </g>
    </g>
    <g id="ytick_6">
     <g id="line2d_14">
      <path d="M 44.987349 65.019249 
L 491.387349 65.019249 
" clip-path="url(#p33c291da17)" style="fill: none; stroke-dasharray: 2.96,1.28; stroke-dashoffset: 0; stroke: #d3d3d3; stroke-opacity: 0.53; stroke-width: 0.8"/>
     </g>
     <g id="text_15">
      <!-- $\mathdefault{10^{1}}$ -->
      <g style="fill: #262626" transform="translate(28.053441 68.478498)scale(0.1 -0.1)">
       <use xlink:href="#CMR17-31" transform="scale(0.996264)"/>
       <use xlink:href="#CMR17-30" transform="translate(45.690477 0)scale(0.996264)"/>
       <use xlink:href="#CMR17-31" transform="translate(91.380954 36.153639)scale(0.697382)"/>
      </g>
     </g>
    </g>
    <g id="ytick_7">
     <g id="line2d_15">
      <path d="M 44.987349 10.659249 
L 491.387349 10.659249 
" clip-path="url(#p33c291da17)" style="fill: none; stroke-dasharray: 2.96,1.28; stroke-dashoffset: 0; stroke: #d3d3d3; stroke-opacity: 0.53; stroke-width: 0.8"/>
     </g>
     <g id="text_16">
      <!-- $\mathdefault{10^{3}}$ -->
      <g style="fill: #262626" transform="translate(28.053441 14.118498)scale(0.1 -0.1)">
       <use xlink:href="#CMR17-31" transform="scale(0.996264)"/>
       <use xlink:href="#CMR17-30" transform="translate(45.690477 0)scale(0.996264)"/>
       <use xlink:href="#CMR17-33" transform="translate(91.380954 36.153639)scale(0.697382)"/>
      </g>
     </g>
    </g>
    <g id="text_17">
     <!-- $\gamma$ -->
     <g style="fill: #262626" transform="translate(15.50218 176.775197)rotate(-90)scale(0.12 -0.12)">
      <defs>
       <path id="CMMI12-d" d="M 2419 785 
C 2406 1097 2394 1586 2150 2158 
C 2022 2476 1805 2816 1338 2816 
C 550 2816 122 1815 122 1649 
C 122 1592 166 1592 186 1592 
C 243 1592 243 1605 275 1688 
C 410 2081 819 2393 1261 2393 
C 2150 2393 2278 1408 2278 779 
C 2278 378 2234 245 2195 118 
C 2074 -276 1862 -1064 1862 -1242 
C 1862 -1293 1882 -1351 1933 -1351 
C 2029 -1351 2086 -1140 2157 -886 
C 2310 -327 2349 -47 2381 207 
C 2400 360 2765 1409 3270 2407 
C 3315 2509 3405 2681 3405 2700 
C 3405 2707 3398 2752 3341 2752 
C 3328 2752 3296 2752 3283 2726 
C 3270 2713 3046 2280 2854 1848 
C 2758 1630 2630 1344 2419 785 
z
" transform="scale(0.015625)"/>
      </defs>
      <use xlink:href="#CMMI12-d" transform="scale(0.996264)"/>
     </g>
    </g>
   </g>
   <g id="PathCollection_1">
    <path d="M 416.987349 205.668476 
C 419.276604 205.668476 421.472406 204.758945 423.091154 203.140197 
C 424.709902 201.521449 425.619433 199.325647 425.619433 197.036392 
C 425.619433 194.747137 424.709902 192.551335 423.091154 190.932587 
C 421.472406 189.313839 419.276604 188.404308 416.987349 188.404308 
C 414.698094 188.404308 412.502292 189.313839 410.883544 190.932587 
C 409.264796 192.551335 408.355265 194.747137 408.355265 197.036392 
C 408.355265 199.325647 409.264796 201.521449 410.883544 203.140197 
C 412.502292 204.758945 414.698094 205.668476 416.987349 205.668476 
z
" clip-path="url(#p33c291da17)" style="fill: #2e1f3f; fill-opacity: 0.8"/>
    <path d="M 125.752345 125.792557 
C 128.0416 125.792557 130.237402 124.883027 131.85615 123.264279 
C 133.474898 121.645531 134.384428 119.449729 134.384428 117.160474 
C 134.384428 114.871218 133.474898 112.675417 131.85615 111.056669 
C 130.237402 109.437921 128.0416 108.52839 125.752345 108.52839 
C 123.46309 108.52839 121.267288 109.437921 119.64854 111.056669 
C 118.029792 112.675417 117.120261 114.871218 117.120261 117.160474 
C 117.120261 119.449729 118.029792 121.645531 119.64854 123.264279 
C 121.267288 124.883027 123.46309 125.792557 125.752345 125.792557 
z
" clip-path="url(#p33c291da17)" style="fill: #2e1f3f; fill-opacity: 0.8"/>
    <path d="M 186.426304 165.730516 
C 188.715559 165.730516 190.911361 164.820986 192.530109 163.202238 
C 194.148857 161.58349 195.058388 159.387688 195.058388 157.098433 
C 195.058388 154.809178 194.148857 152.613376 192.530109 150.994628 
C 190.911361 149.37588 188.715559 148.466349 186.426304 148.466349 
C 184.137049 148.466349 181.941247 149.37588 180.322499 150.994628 
C 178.703751 152.613376 177.79422 154.809178 177.79422 157.098433 
C 177.79422 159.387688 178.703751 161.58349 180.322499 163.202238 
C 181.941247 164.820986 184.137049 165.730516 186.426304 165.730516 
z
" clip-path="url(#p33c291da17)" style="fill: #2e1f3f; fill-opacity: 0.8"/>
    <path d="M 253.167659 198.983886 
C 255.449419 198.983886 257.638031 198.077334 259.251479 196.463886 
C 260.864927 194.850438 261.77148 192.661826 261.77148 190.380066 
C 261.77148 188.098306 260.864927 185.909693 259.251479 184.296245 
C 257.638031 182.682797 255.449419 181.776245 253.167659 181.776245 
C 250.885899 181.776245 248.697287 182.682797 247.083839 184.296245 
C 245.470391 185.909693 244.563838 188.098306 244.563838 190.380066 
C 244.563838 192.661826 245.470391 194.850438 247.083839 196.463886 
C 248.697287 198.077334 250.885899 198.983886 253.167659 198.983886 
z
" clip-path="url(#p33c291da17)" style="fill: #2f2041; fill-opacity: 0.8"/>
    <path d="M 216.763284 198.976806 
C 219.043166 198.976806 221.229977 198.070999 222.842097 196.458879 
C 224.454218 194.846759 225.360024 192.659948 225.360024 190.380066 
C 225.360024 188.100183 224.454218 185.913372 222.842097 184.301252 
C 221.229977 182.689132 219.043166 181.783325 216.763284 181.783325 
C 214.483401 181.783325 212.29659 182.689132 210.68447 184.301252 
C 209.07235 185.913372 208.166543 188.100183 208.166543 190.380066 
C 208.166543 192.659948 209.07235 194.846759 210.68447 196.458879 
C 212.29659 198.070999 214.483401 198.976806 216.763284 198.976806 
z
" clip-path="url(#p33c291da17)" style="fill: #312042; fill-opacity: 0.8"/>
    <path d="M 301.706827 212.29654 
C 303.988586 212.29654 306.177199 211.389987 307.790647 209.776539 
C 309.404095 208.163091 310.310647 205.974479 310.310647 203.692719 
C 310.310647 201.410959 309.404095 199.222346 307.790647 197.608898 
C 306.177199 195.99545 303.988586 195.088898 301.706827 195.088898 
C 299.425067 195.088898 297.236454 195.99545 295.623006 197.608898 
C 294.009558 199.222346 293.103006 201.410959 293.103006 203.692719 
C 293.103006 205.974479 294.009558 208.163091 295.623006 209.776539 
C 297.236454 211.389987 299.425067 212.29654 301.706827 212.29654 
z
" clip-path="url(#p33c291da17)" style="fill: #2f2041; fill-opacity: 0.8"/>
    <path d="M 210.695888 112.35914 
C 212.953116 112.35914 215.118198 111.462334 216.714299 109.866232 
C 218.310401 108.270131 219.207207 106.105049 219.207207 103.847821 
C 219.207207 101.590592 218.310401 99.42551 216.714299 97.829409 
C 215.118198 96.233308 212.953116 95.336501 210.695888 95.336501 
C 208.438659 95.336501 206.273578 96.233308 204.677476 97.829409 
C 203.081375 99.42551 202.184568 101.590592 202.184568 103.847821 
C 202.184568 106.105049 203.081375 108.270131 204.677476 109.866232 
C 206.273578 111.462334 208.438659 112.35914 210.695888 112.35914 
z
" clip-path="url(#p33c291da17)" style="fill: #352346; fill-opacity: 0.8"/>
    <path d="M 125.752345 112.35914 
C 128.009573 112.35914 130.174655 111.462334 131.770756 109.866232 
C 133.366858 108.270131 134.263664 106.105049 134.263664 103.847821 
C 134.263664 101.590592 133.366858 99.42551 131.770756 97.829409 
C 130.174655 96.233308 128.009573 95.336501 125.752345 95.336501 
C 123.495117 95.336501 121.330035 96.233308 119.733933 97.829409 
C 118.137832 99.42551 117.241026 101.590592 117.241026 103.847821 
C 117.241026 106.105049 118.137832 108.270131 119.733933 109.866232 
C 121.330035 111.462334 123.495117 112.35914 125.752345 112.35914 
z
" clip-path="url(#p33c291da17)" style="fill: #352346; fill-opacity: 0.8"/>
    <path d="M 332.043806 105.702813 
C 334.301034 105.702813 336.466116 104.806007 338.062218 103.209906 
C 339.658319 101.613804 340.555125 99.448722 340.555125 97.191494 
C 340.555125 94.934266 339.658319 92.769184 338.062218 91.173083 
C 336.466116 89.576981 334.301034 88.680175 332.043806 88.680175 
C 329.786578 88.680175 327.621496 89.576981 326.025395 91.173083 
C 324.429293 92.769184 323.532487 94.934266 323.532487 97.191494 
C 323.532487 99.448722 324.429293 101.613804 326.025395 103.209906 
C 327.621496 104.806007 329.786578 105.702813 332.043806 105.702813 
z
" clip-path="url(#p33c291da17)" style="fill: #352346; fill-opacity: 0.8"/>
    <path d="M 392.717765 78.545798 
C 394.833983 78.545798 396.86381 77.705016 398.360201 76.208624 
C 399.856593 74.712233 400.697375 72.682405 400.697375 70.566188 
C 400.697375 68.449971 399.856593 66.420143 398.360201 64.923752 
C 396.86381 63.42736 394.833983 62.586578 392.717765 62.586578 
C 390.601548 62.586578 388.571721 63.42736 387.075329 64.923752 
C 385.578937 66.420143 384.738155 68.449971 384.738155 70.566188 
C 384.738155 72.682405 385.578937 74.712233 387.075329 76.208624 
C 388.571721 77.705016 390.601548 78.545798 392.717765 78.545798 
z
" clip-path="url(#p33c291da17)" style="fill: #583463; fill-opacity: 0.8"/>
    <path d="M 137.887137 198.592827 
C 140.065186 198.592827 142.154322 197.727478 143.694436 196.187365 
C 145.23455 194.647251 146.099898 192.558115 146.099898 190.380066 
C 146.099898 188.202016 145.23455 186.11288 143.694436 184.572766 
C 142.154322 183.032653 140.065186 182.167304 137.887137 182.167304 
C 135.709087 182.167304 133.619951 183.032653 132.079837 184.572766 
C 130.539724 186.11288 129.674375 188.202016 129.674375 190.380066 
C 129.674375 192.558115 130.539724 194.647251 132.079837 196.187365 
C 133.619951 197.727478 135.709087 198.592827 137.887137 198.592827 
z
" clip-path="url(#p33c291da17)" style="fill: #492d58; fill-opacity: 0.8"/>
    <path d="M 295.639431 311.66092 
C 297.793756 311.66092 299.860135 310.804997 301.383473 309.281659 
C 302.906811 307.758321 303.762734 305.691942 303.762734 303.537617 
C 303.762734 301.383291 302.906811 299.316912 301.383473 297.793574 
C 299.860135 296.270236 297.793756 295.414314 295.639431 295.414314 
C 293.485105 295.414314 291.418726 296.270236 289.895388 297.793574 
C 288.37205 299.316912 287.516128 301.383291 287.516128 303.537617 
C 287.516128 305.691942 288.37205 307.758321 289.895388 309.281659 
C 291.418726 310.804997 293.485105 311.66092 295.639431 311.66092 
z
" clip-path="url(#p33c291da17)" style="fill: #4f305c; fill-opacity: 0.8"/>
    <path d="M 313.841618 218.606172 
C 316.031434 218.606172 318.131855 217.736149 319.680289 216.187716 
C 321.228722 214.639282 322.098745 212.538861 322.098745 210.349045 
C 322.098745 208.159229 321.228722 206.058808 319.680289 204.510375 
C 318.131855 202.961941 316.031434 202.091918 313.841618 202.091918 
C 311.651803 202.091918 309.551381 202.961941 308.002948 204.510375 
C 306.454514 206.058808 305.584491 208.159229 305.584491 210.349045 
C 305.584491 212.538861 306.454514 214.639282 308.002948 216.187716 
C 309.551381 217.736149 311.651803 218.606172 313.841618 218.606172 
z
" clip-path="url(#p33c291da17)" style="fill: #462b55; fill-opacity: 0.8"/>
    <path d="M 247.100263 105.411666 
C 249.280278 105.411666 251.371299 104.545537 252.912803 103.004034 
C 254.454306 101.46253 255.320435 99.371509 255.320435 97.191494 
C 255.320435 95.011479 254.454306 92.920458 252.912803 91.378955 
C 251.371299 89.837451 249.280278 88.971322 247.100263 88.971322 
C 244.920248 88.971322 242.829227 89.837451 241.287724 91.378955 
C 239.74622 92.920458 238.880091 95.011479 238.880091 97.191494 
C 238.880091 99.371509 239.74622 101.46253 241.287724 103.004034 
C 242.829227 104.545537 244.920248 105.411666 247.100263 105.411666 
z
" clip-path="url(#p33c291da17)" style="fill: #492d58; fill-opacity: 0.8"/>
    <path d="M 277.437243 311.757789 
C 279.617258 311.757789 281.708279 310.89166 283.249782 309.350156 
C 284.791286 307.808653 285.657415 305.717632 285.657415 303.537617 
C 285.657415 301.357601 284.791286 299.266581 283.249782 297.725077 
C 281.708279 296.183574 279.617258 295.317444 277.437243 295.317444 
C 275.257228 295.317444 273.166207 296.183574 271.624703 297.725077 
C 270.0832 299.266581 269.217071 301.357601 269.217071 303.537617 
C 269.217071 305.717632 270.0832 307.808653 271.624703 309.350156 
C 273.166207 310.89166 275.257228 311.757789 277.437243 311.757789 
z
" clip-path="url(#p33c291da17)" style="fill: #492d58; fill-opacity: 0.8"/>
    <path d="M 192.4937 119.115042 
C 194.777336 119.115042 196.967748 118.207744 198.582522 116.59297 
C 200.197297 114.978195 201.104595 112.787783 201.104595 110.504147 
C 201.104595 108.220511 200.197297 106.030099 198.582522 104.415325 
C 196.967748 102.80055 194.777336 101.893252 192.4937 101.893252 
C 190.210064 101.893252 188.019652 102.80055 186.404877 104.415325 
C 184.790103 106.030099 183.882805 108.220511 183.882805 110.504147 
C 183.882805 112.787783 184.790103 114.978195 186.404877 116.59297 
C 188.019652 118.207744 190.210064 119.115042 192.4937 119.115042 
z
" clip-path="url(#p33c291da17)" style="fill: #2f2041; fill-opacity: 0.8"/>
    <path d="M 295.639431 245.592315 
C 297.924941 245.592315 300.117151 244.684272 301.733251 243.068172 
C 303.349351 241.452072 304.257394 239.259862 304.257394 236.974351 
C 304.257394 234.68884 303.349351 232.496631 301.733251 230.880531 
C 300.117151 229.26443 297.924941 228.356387 295.639431 228.356387 
C 293.35392 228.356387 291.16171 229.26443 289.54561 230.880531 
C 287.92951 232.496631 287.021467 234.68884 287.021467 236.974351 
C 287.021467 239.259862 287.92951 241.452072 289.54561 243.068172 
C 291.16171 244.684272 293.35392 245.592315 295.639431 245.592315 
z
" clip-path="url(#p33c291da17)" style="fill: #2e1f3f; fill-opacity: 0.8"/>
    <path d="M 143.954533 99.138989 
C 146.236293 99.138989 148.424905 98.232436 150.038353 96.618988 
C 151.651801 95.00554 152.558354 92.816928 152.558354 90.535168 
C 152.558354 88.253408 151.651801 86.064795 150.038353 84.451347 
C 148.424905 82.837899 146.236293 81.931347 143.954533 81.931347 
C 141.672773 81.931347 139.48416 82.837899 137.870712 84.451347 
C 136.257265 86.064795 135.350712 88.253408 135.350712 90.535168 
C 135.350712 92.816928 136.257265 95.00554 137.870712 96.618988 
C 139.48416 98.232436 141.672773 99.138989 143.954533 99.138989 
z
" clip-path="url(#p33c291da17)" style="fill: #2f2041; fill-opacity: 0.8"/>
    <path d="M 277.437243 192.235058 
C 279.694471 192.235058 281.859553 191.338252 283.455654 189.742151 
C 285.051756 188.146049 285.948562 185.980967 285.948562 183.723739 
C 285.948562 181.466511 285.051756 179.301429 283.455654 177.705327 
C 281.859553 176.109226 279.694471 175.21242 277.437243 175.21242 
C 275.180015 175.21242 273.014933 176.109226 271.418831 177.705327 
C 269.82273 179.301429 268.925924 181.466511 268.925924 183.723739 
C 268.925924 185.980967 269.82273 188.146049 271.418831 189.742151 
C 273.014933 191.338252 275.180015 192.235058 277.437243 192.235058 
z
" clip-path="url(#p33c291da17)" style="fill: #352346; fill-opacity: 0.8"/>
    <path d="M 313.841618 165.602595 
C 316.096948 165.602595 318.26021 164.706543 319.854969 163.111784 
C 321.449728 161.517024 322.34578 159.353763 322.34578 157.098433 
C 322.34578 154.843103 321.449728 152.679841 319.854969 151.085082 
C 318.26021 149.490323 316.096948 148.594271 313.841618 148.594271 
C 311.586288 148.594271 309.423027 149.490323 307.828268 151.085082 
C 306.233508 152.679841 305.337456 154.843103 305.337456 157.098433 
C 305.337456 159.353763 306.233508 161.517024 307.828268 163.111784 
C 309.423027 164.706543 311.586288 165.602595 313.841618 165.602595 
z
" clip-path="url(#p33c291da17)" style="fill: #362347; fill-opacity: 0.8"/>
    <path d="M 198.561096 192.235058 
C 200.818324 192.235058 202.983406 191.338252 204.579507 189.742151 
C 206.175609 188.146049 207.072415 185.980967 207.072415 183.723739 
C 207.072415 181.466511 206.175609 179.301429 204.579507 177.705327 
C 202.983406 176.109226 200.818324 175.21242 198.561096 175.21242 
C 196.303868 175.21242 194.138786 176.109226 192.542684 177.705327 
C 190.946583 179.301429 190.049777 181.466511 190.049777 183.723739 
C 190.049777 185.980967 190.946583 188.146049 192.542684 189.742151 
C 194.138786 191.338252 196.303868 192.235058 198.561096 192.235058 
z
" clip-path="url(#p33c291da17)" style="fill: #352346; fill-opacity: 0.8"/>
    <path d="M 228.898075 218.620908 
C 231.091799 218.620908 233.195969 217.749332 234.747166 216.198135 
C 236.298363 214.646938 237.169938 212.542769 237.169938 210.349045 
C 237.169938 208.155321 236.298363 206.051152 234.747166 204.499955 
C 233.195969 202.948758 231.091799 202.077182 228.898075 202.077182 
C 226.704352 202.077182 224.600182 202.948758 223.048985 204.499955 
C 221.497788 206.051152 220.626213 208.155321 220.626213 210.349045 
C 220.626213 212.542769 221.497788 214.646938 223.048985 216.198135 
C 224.600182 217.749332 226.704352 218.620908 228.898075 218.620908 
z
" clip-path="url(#p33c291da17)" style="fill: #452b54; fill-opacity: 0.8"/>
    <path d="M 356.31339 145.078481 
C 358.421497 145.078481 360.443545 144.240921 361.934201 142.750265 
C 363.424858 141.259608 364.262417 139.23756 364.262417 137.129453 
C 364.262417 135.021346 363.424858 132.999299 361.934201 131.508642 
C 360.443545 130.017985 358.421497 129.180426 356.31339 129.180426 
C 354.205283 129.180426 352.183235 130.017985 350.692578 131.508642 
C 349.201922 132.999299 348.364362 135.021346 348.364362 137.129453 
C 348.364362 139.23756 349.201922 141.259608 350.692578 142.750265 
C 352.183235 144.240921 354.205283 145.078481 356.31339 145.078481 
z
" clip-path="url(#p33c291da17)" style="fill: #5b3665; fill-opacity: 0.8"/>
    <path d="M 398.785161 158.40644 
C 400.897327 158.40644 402.923269 157.567267 404.416795 156.07374 
C 405.910322 154.580214 406.749495 152.554272 406.749495 150.442106 
C 406.749495 148.32994 405.910322 146.303999 404.416795 144.810472 
C 402.923269 143.316945 400.897327 142.477773 398.785161 142.477773 
C 396.672995 142.477773 394.647054 143.316945 393.153527 144.810472 
C 391.66 146.303999 390.820828 148.32994 390.820828 150.442106 
C 390.820828 152.554272 391.66 154.580214 393.153527 156.07374 
C 394.647054 157.567267 396.672995 158.40644 398.785161 158.40644 
z
" clip-path="url(#p33c291da17)" style="fill: #593564; fill-opacity: 0.8"/>
    <path d="M 137.887137 83.814796 
C 139.63543 83.814796 141.312354 83.120192 142.548584 81.883962 
C 143.784814 80.647731 144.479419 78.970808 144.479419 77.222514 
C 144.479419 75.474221 143.784814 73.797298 142.548584 72.561067 
C 141.312354 71.324837 139.63543 70.630233 137.887137 70.630233 
C 136.138843 70.630233 134.46192 71.324837 133.22569 72.561067 
C 131.989459 73.797298 131.294855 75.474221 131.294855 77.222514 
C 131.294855 78.970808 131.989459 80.647731 133.22569 81.883962 
C 134.46192 83.120192 136.138843 83.814796 137.887137 83.814796 
z
" clip-path="url(#p33c291da17)" style="fill: #a4638d; fill-opacity: 0.8"/>
    <path d="M 247.100263 316.85971 
C 248.868045 316.85971 250.563661 316.157362 251.813672 314.907352 
C 253.063683 313.657341 253.76603 311.961725 253.76603 310.193943 
C 253.76603 308.426161 253.063683 306.730545 251.813672 305.480534 
C 250.563661 304.230524 248.868045 303.528176 247.100263 303.528176 
C 245.332481 303.528176 243.636865 304.230524 242.386854 305.480534 
C 241.136844 306.730545 240.434497 308.426161 240.434497 310.193943 
C 240.434497 311.961725 241.136844 313.657341 242.386854 314.907352 
C 243.636865 316.157362 245.332481 316.85971 247.100263 316.85971 
z
" clip-path="url(#p33c291da17)" style="fill: #a2618c; fill-opacity: 0.8"/>
    <path d="M 386.650369 323.460999 
C 388.403555 323.460999 390.085171 322.764451 391.324861 321.524761 
C 392.564551 320.285072 393.261099 318.603456 393.261099 316.85027 
C 393.261099 315.097084 392.564551 313.415468 391.324861 312.175778 
C 390.085171 310.936088 388.403555 310.23954 386.650369 310.23954 
C 384.897183 310.23954 383.215567 310.936088 381.975878 312.175778 
C 380.736188 313.415468 380.03964 315.097084 380.03964 316.85027 
C 380.03964 318.603456 380.736188 320.285072 381.975878 321.524761 
C 383.215567 322.764451 384.897183 323.460999 386.650369 323.460999 
z
" clip-path="url(#p33c291da17)" style="fill: #a3628c; fill-opacity: 0.8"/>
    <path d="M 222.83068 80.201068 
C 223.620601 80.201068 224.378276 79.887229 224.936835 79.32867 
C 225.495394 78.770111 225.809233 78.012436 225.809233 77.222514 
C 225.809233 76.432593 225.495394 75.674918 224.936835 75.116359 
C 224.378276 74.5578 223.620601 74.243961 222.83068 74.243961 
C 222.040758 74.243961 221.283083 74.5578 220.724524 75.116359 
C 220.165965 75.674918 219.852126 76.432593 219.852126 77.222514 
C 219.852126 78.012436 220.165965 78.770111 220.724524 79.32867 
C 221.283083 79.887229 222.040758 80.201068 222.83068 80.201068 
z
" clip-path="url(#p33c291da17)" style="fill: #edd1cb; fill-opacity: 0.8"/>
    <path d="M 125.752345 106.966196 
C 126.579348 106.966196 127.37259 106.637624 127.957369 106.052845 
C 128.542149 105.468066 128.87072 104.674823 128.87072 103.847821 
C 128.87072 103.020818 128.542149 102.227576 127.957369 101.642796 
C 127.37259 101.058017 126.579348 100.729445 125.752345 100.729445 
C 124.925342 100.729445 124.1321 101.058017 123.547321 101.642796 
C 122.962541 102.227576 122.63397 103.020818 122.63397 103.847821 
C 122.63397 104.674823 122.962541 105.468066 123.547321 106.052845 
C 124.1321 106.637624 124.925342 106.966196 125.752345 106.966196 
z
" clip-path="url(#p33c291da17)" style="fill: #edcfc9; fill-opacity: 0.8"/>
    <path d="M 295.639431 86.836881 
C 296.423912 86.836881 297.176369 86.525203 297.731081 85.970491 
C 298.285793 85.415779 298.59747 84.663322 298.59747 83.878841 
C 298.59747 83.09436 298.285793 82.341903 297.731081 81.787191 
C 297.176369 81.232479 296.423912 80.920801 295.639431 80.920801 
C 294.854949 80.920801 294.102493 81.232479 293.547781 81.787191 
C 292.993068 82.341903 292.681391 83.09436 292.681391 83.878841 
C 292.681391 84.663322 292.993068 85.415779 293.547781 85.970491 
C 294.102493 86.525203 294.854949 86.836881 295.639431 86.836881 
z
" clip-path="url(#p33c291da17)" style="fill: #edd1cb; fill-opacity: 0.8"/>
    <path d="M 143.954533 192.369919 
C 146.247526 192.369919 148.446914 191.458903 150.068305 189.837512 
C 151.689697 188.21612 152.600713 186.016733 152.600713 183.723739 
C 152.600713 181.430745 151.689697 179.231358 150.068305 177.609966 
C 148.446914 175.988575 146.247526 175.077559 143.954533 175.077559 
C 141.661539 175.077559 139.462151 175.988575 137.84076 177.609966 
C 136.219368 179.231358 135.308352 181.430745 135.308352 183.723739 
C 135.308352 186.016733 136.219368 188.21612 137.84076 189.837512 
C 139.462151 191.458903 141.661539 192.369919 143.954533 192.369919 
z
" clip-path="url(#p33c291da17)" style="fill: #2d1e3e; fill-opacity: 0.8"/>
    <path d="M 119.684949 212.338899 
C 121.977943 212.338899 124.17733 211.427883 125.798722 209.806491 
C 127.420113 208.1851 128.331129 205.985712 128.331129 203.692719 
C 128.331129 201.399725 127.420113 199.200337 125.798722 197.578946 
C 124.17733 195.957554 121.977943 195.046538 119.684949 195.046538 
C 117.391955 195.046538 115.192568 195.957554 113.571176 197.578946 
C 111.949785 199.200337 111.038769 201.399725 111.038769 203.692719 
C 111.038769 205.985712 111.949785 208.1851 113.571176 209.806491 
C 115.192568 211.427883 117.391955 212.338899 119.684949 212.338899 
z
" clip-path="url(#p33c291da17)" style="fill: #2d1e3e; fill-opacity: 0.8"/>
    <path d="M 186.426304 132.462981 
C 188.719298 132.462981 190.918685 131.551964 192.540077 129.930573 
C 194.161468 128.309181 195.072484 126.109794 195.072484 123.8168 
C 195.072484 121.523806 194.161468 119.324419 192.540077 117.703027 
C 190.918685 116.081636 188.719298 115.17062 186.426304 115.17062 
C 184.13331 115.17062 181.933923 116.081636 180.312531 117.703027 
C 178.69114 119.324419 177.780124 121.523806 177.780124 123.8168 
C 177.780124 126.109794 178.69114 128.309181 180.312531 129.930573 
C 181.933923 131.551964 184.13331 132.462981 186.426304 132.462981 
z
" clip-path="url(#p33c291da17)" style="fill: #2d1e3e; fill-opacity: 0.8"/>
    <path d="M 210.695888 111.712134 
C 212.781528 111.712134 214.782027 110.8835 216.256797 109.40873 
C 217.731568 107.93396 218.560201 105.933461 218.560201 103.847821 
C 218.560201 101.76218 217.731568 99.761682 216.256797 98.286911 
C 214.782027 96.812141 212.781528 95.983507 210.695888 95.983507 
C 208.610247 95.983507 206.609749 96.812141 205.134978 98.286911 
C 203.660208 99.761682 202.831574 101.76218 202.831574 103.847821 
C 202.831574 105.933461 203.660208 107.93396 205.134978 109.40873 
C 206.609749 110.8835 208.610247 111.712134 210.695888 111.712134 
z
" clip-path="url(#p33c291da17)" style="fill: #5f3868; fill-opacity: 0.8"/>
    <path d="M 125.752345 111.719873 
C 127.840038 111.719873 129.842505 110.890424 131.318727 109.414202 
C 132.794948 107.937981 133.624397 105.935513 133.624397 103.847821 
C 133.624397 101.760128 132.794948 99.757661 131.318727 98.281439 
C 129.842505 96.805217 127.840038 95.975768 125.752345 95.975768 
C 123.664652 95.975768 121.662185 96.805217 120.185963 98.281439 
C 118.709742 99.757661 117.880292 101.760128 117.880292 103.847821 
C 117.880292 105.935513 118.709742 107.937981 120.185963 109.414202 
C 121.662185 110.890424 123.664652 111.719873 125.752345 111.719873 
z
" clip-path="url(#p33c291da17)" style="fill: #5f3868; fill-opacity: 0.8"/>
    <path d="M 119.684949 224.939064 
C 121.788989 224.939064 123.807136 224.10312 125.294917 222.615339 
C 126.782697 221.127558 127.618641 219.109411 127.618641 217.005372 
C 127.618641 214.901332 126.782697 212.883185 125.294917 211.395404 
C 123.807136 209.907623 121.788989 209.071679 119.684949 209.071679 
C 117.580909 209.071679 115.562762 209.907623 114.074981 211.395404 
C 112.5872 212.883185 111.751257 214.901332 111.751257 217.005372 
C 111.751257 219.109411 112.5872 221.127558 114.074981 222.615339 
C 115.562762 224.10312 117.580909 224.939064 119.684949 224.939064 
z
" clip-path="url(#p33c291da17)" style="fill: #5b3665; fill-opacity: 0.8"/>
    <path d="M 332.043806 218.838875 
C 334.295335 218.838875 336.454951 217.944333 338.047022 216.352261 
C 339.639094 214.76019 340.533636 212.600574 340.533636 210.349045 
C 340.533636 208.097516 339.639094 205.937901 338.047022 204.345829 
C 336.454951 202.753758 334.295335 201.859216 332.043806 201.859216 
C 329.792277 201.859216 327.632662 202.753758 326.04059 204.345829 
C 324.448519 205.937901 323.553977 208.097516 323.553977 210.349045 
C 323.553977 212.600574 324.448519 214.76019 326.04059 216.352261 
C 327.632662 217.944333 329.792277 218.838875 332.043806 218.838875 
z
" clip-path="url(#p33c291da17)" style="fill: #382449; fill-opacity: 0.8"/>
    <path d="M 156.089324 118.921948 
C 158.321751 118.921948 160.463044 118.034996 162.041609 116.456431 
C 163.620173 114.877867 164.507126 112.736574 164.507126 110.504147 
C 164.507126 108.27172 163.620173 106.130427 162.041609 104.551863 
C 160.463044 102.973299 158.321751 102.086346 156.089324 102.086346 
C 153.856898 102.086346 151.715604 102.973299 150.13704 104.551863 
C 148.558476 106.130427 147.671523 108.27172 147.671523 110.504147 
C 147.671523 112.736574 148.558476 114.877867 150.13704 116.456431 
C 151.715604 118.034996 153.856898 118.921948 156.089324 118.921948 
z
" clip-path="url(#p33c291da17)" style="fill: #3b264b; fill-opacity: 0.8"/>
    <path d="M 301.706827 212.161004 
C 303.952642 212.161004 306.106777 211.268732 307.694808 209.680701 
C 309.28284 208.092669 310.175112 205.938534 310.175112 203.692719 
C 310.175112 201.446903 309.28284 199.292768 307.694808 197.704737 
C 306.106777 196.116705 303.952642 195.224433 301.706827 195.224433 
C 299.461011 195.224433 297.306876 196.116705 295.718845 197.704737 
C 294.130813 199.292768 293.238541 201.446903 293.238541 203.692719 
C 293.238541 205.938534 294.130813 208.092669 295.718845 209.680701 
C 297.306876 211.268732 299.461011 212.161004 301.706827 212.161004 
z
" clip-path="url(#p33c291da17)" style="fill: #382449; fill-opacity: 0.8"/>
    <path d="M 210.695888 112.465785 
C 212.981398 112.465785 215.173608 111.557741 216.789708 109.941641 
C 218.405809 108.325541 219.313852 106.133331 219.313852 103.847821 
C 219.313852 101.56231 218.405809 99.3701 216.789708 97.754 
C 215.173608 96.1379 212.981398 95.229857 210.695888 95.229857 
C 208.410377 95.229857 206.218167 96.1379 204.602067 97.754 
C 202.985967 99.3701 202.077924 101.56231 202.077924 103.847821 
C 202.077924 106.133331 202.985967 108.325541 204.602067 109.941641 
C 206.218167 111.557741 208.410377 112.465785 210.695888 112.465785 
z
" clip-path="url(#p33c291da17)" style="fill: #2e1f3f; fill-opacity: 0.8"/>
    <path d="M 416.987349 132.441827 
C 419.274733 132.441827 421.468739 131.53304 423.086164 129.915615 
C 424.703588 128.29819 425.612376 126.104184 425.612376 123.8168 
C 425.612376 121.529416 424.703588 119.33541 423.086164 117.717985 
C 421.468739 116.100561 419.274733 115.191774 416.987349 115.191774 
C 414.699965 115.191774 412.505959 116.100561 410.888534 117.717985 
C 409.27111 119.33541 408.362322 121.529416 408.362322 123.8168 
C 408.362322 126.104184 409.27111 128.29819 410.888534 129.915615 
C 412.505959 131.53304 414.699965 132.441827 416.987349 132.441827 
z
" clip-path="url(#p33c291da17)" style="fill: #2e1f3f; fill-opacity: 0.8"/>
    <path d="M 186.426304 132.441827 
C 188.713688 132.441827 190.907694 131.53304 192.525119 129.915615 
C 194.142543 128.29819 195.051331 126.104184 195.051331 123.8168 
C 195.051331 121.529416 194.142543 119.33541 192.525119 117.717985 
C 190.907694 116.100561 188.713688 115.191774 186.426304 115.191774 
C 184.13892 115.191774 181.944914 116.100561 180.327489 117.717985 
C 178.710065 119.33541 177.801277 121.529416 177.801277 123.8168 
C 177.801277 126.104184 178.710065 128.29819 180.327489 129.915615 
C 181.944914 131.53304 184.13892 132.441827 186.426304 132.441827 
z
" clip-path="url(#p33c291da17)" style="fill: #2e1f3f; fill-opacity: 0.8"/>
    <path d="M 180.358908 125.806654 
C 182.651902 125.806654 184.851289 124.895638 186.472681 123.274246 
C 188.094072 121.652855 189.005088 119.453467 189.005088 117.160474 
C 189.005088 114.86748 188.094072 112.668092 186.472681 111.046701 
C 184.851289 109.425309 182.651902 108.514293 180.358908 108.514293 
C 178.065914 108.514293 175.866527 109.425309 174.245135 111.046701 
C 172.623744 112.668092 171.712728 114.86748 171.712728 117.160474 
C 171.712728 119.453467 172.623744 121.652855 174.245135 123.274246 
C 175.866527 124.895638 178.065914 125.806654 180.358908 125.806654 
z
" clip-path="url(#p33c291da17)" style="fill: #2d1e3e; fill-opacity: 0.8"/>
    <path d="M 125.752345 125.806654 
C 128.045339 125.806654 130.244726 124.895638 131.866118 123.274246 
C 133.487509 121.652855 134.398525 119.453467 134.398525 117.160474 
C 134.398525 114.86748 133.487509 112.668092 131.866118 111.046701 
C 130.244726 109.425309 128.045339 108.514293 125.752345 108.514293 
C 123.459351 108.514293 121.259964 109.425309 119.638572 111.046701 
C 118.017181 112.668092 117.106165 114.86748 117.106165 117.160474 
C 117.106165 119.453467 118.017181 121.652855 119.638572 123.274246 
C 121.259964 124.895638 123.459351 125.806654 125.752345 125.806654 
z
" clip-path="url(#p33c291da17)" style="fill: #2d1e3e; fill-opacity: 0.8"/>
    <path d="M 186.426304 132.462981 
C 188.719298 132.462981 190.918685 131.551964 192.540077 129.930573 
C 194.161468 128.309181 195.072484 126.109794 195.072484 123.8168 
C 195.072484 121.523806 194.161468 119.324419 192.540077 117.703027 
C 190.918685 116.081636 188.719298 115.17062 186.426304 115.17062 
C 184.13331 115.17062 181.933923 116.081636 180.312531 117.703027 
C 178.69114 119.324419 177.780124 121.523806 177.780124 123.8168 
C 177.780124 126.109794 178.69114 128.309181 180.312531 129.930573 
C 181.933923 131.551964 184.13331 132.462981 186.426304 132.462981 
z
" clip-path="url(#p33c291da17)" style="fill: #2d1e3e; fill-opacity: 0.8"/>
    <path d="M 313.841618 218.995225 
C 316.134612 218.995225 318.334 218.084209 319.955391 216.462818 
C 321.576783 214.841426 322.487799 212.642039 322.487799 210.349045 
C 322.487799 208.056051 321.576783 205.856664 319.955391 204.235272 
C 318.334 202.613881 316.134612 201.702865 313.841618 201.702865 
C 311.548625 201.702865 309.349237 202.613881 307.727846 204.235272 
C 306.106454 205.856664 305.195438 208.056051 305.195438 210.349045 
C 305.195438 212.642039 306.106454 214.841426 307.727846 216.462818 
C 309.349237 218.084209 311.548625 218.995225 313.841618 218.995225 
z
" clip-path="url(#p33c291da17)" style="fill: #2d1e3e; fill-opacity: 0.8"/>
    <path d="M 259.235055 159.081241 
C 261.52618 159.081241 263.723776 158.170967 265.343846 156.550897 
C 266.963916 154.930827 267.87419 152.733232 267.87419 150.442106 
C 267.87419 148.150981 266.963916 145.953386 265.343846 144.333316 
C 263.723776 142.713245 261.52618 141.802971 259.235055 141.802971 
C 256.94393 141.802971 254.746335 142.713245 253.126264 144.333316 
C 251.506194 145.953386 250.59592 148.150981 250.59592 150.442106 
C 250.59592 152.733232 251.506194 154.930827 253.126264 156.550897 
C 254.746335 158.170967 256.94393 159.081241 259.235055 159.081241 
z
" clip-path="url(#p33c291da17)" style="fill: #2e1f3f; fill-opacity: 0.8"/>
    <path d="M 198.561096 192.362874 
C 200.852221 192.362874 203.049816 191.4526 204.669887 189.83253 
C 206.289957 188.21246 207.200231 186.014864 207.200231 183.723739 
C 207.200231 181.432614 206.289957 179.235018 204.669887 177.614948 
C 203.049816 175.994878 200.852221 175.084604 198.561096 175.084604 
C 196.269971 175.084604 194.072375 175.994878 192.452305 177.614948 
C 190.832235 179.235018 189.921961 181.432614 189.921961 183.723739 
C 189.921961 186.014864 190.832235 188.21246 192.452305 189.83253 
C 194.072375 191.4526 196.269971 192.362874 198.561096 192.362874 
z
" clip-path="url(#p33c291da17)" style="fill: #2e1f3f; fill-opacity: 0.8"/>
    <path d="M 416.987349 205.647287 
C 419.270985 205.647287 421.461397 204.739989 423.076171 203.125215 
C 424.690946 201.51044 425.598244 199.320028 425.598244 197.036392 
C 425.598244 194.752756 424.690946 192.562344 423.076171 190.94757 
C 421.461397 189.332795 419.270985 188.425497 416.987349 188.425497 
C 414.703713 188.425497 412.513301 189.332795 410.898526 190.94757 
C 409.283752 192.562344 408.376454 194.752756 408.376454 197.036392 
C 408.376454 199.320028 409.283752 201.51044 410.898526 203.125215 
C 412.513301 204.739989 414.703713 205.647287 416.987349 205.647287 
z
" clip-path="url(#p33c291da17)" style="fill: #2f2041; fill-opacity: 0.8"/>
    <path d="M 131.819741 165.716397 
C 134.105252 165.716397 136.297461 164.808354 137.913561 163.192254 
C 139.529662 161.576153 140.437705 159.383944 140.437705 157.098433 
C 140.437705 154.812922 139.529662 152.620712 137.913561 151.004612 
C 136.297461 149.388512 134.105252 148.480469 131.819741 148.480469 
C 129.53423 148.480469 127.34202 149.388512 125.72592 151.004612 
C 124.10982 152.620712 123.201777 154.812922 123.201777 157.098433 
C 123.201777 159.383944 124.10982 161.576153 125.72592 163.192254 
C 127.34202 164.808354 129.53423 165.716397 131.819741 165.716397 
z
" clip-path="url(#p33c291da17)" style="fill: #2e1f3f; fill-opacity: 0.8"/>
    <path d="M 234.965471 292.186601 
C 237.250982 292.186601 239.443192 291.278558 241.059292 289.662458 
C 242.675392 288.046358 243.583435 285.854148 243.583435 283.568637 
C 243.583435 281.283126 242.675392 279.090916 241.059292 277.474816 
C 239.443192 275.858716 237.250982 274.950673 234.965471 274.950673 
C 232.679961 274.950673 230.487751 275.858716 228.871651 277.474816 
C 227.255551 279.090916 226.347508 281.283126 226.347508 283.568637 
C 226.347508 285.854148 227.255551 288.046358 228.871651 289.662458 
C 230.487751 291.278558 232.679961 292.186601 234.965471 292.186601 
z
" clip-path="url(#p33c291da17)" style="fill: #2e1f3f; fill-opacity: 0.8"/>
    <path d="M 216.763284 325.418631 
C 219.03564 325.418631 221.215232 324.515815 222.82203 322.909016 
C 224.428829 321.302218 225.331645 319.122626 225.331645 316.85027 
C 225.331645 314.577914 224.428829 312.398321 222.82203 310.791523 
C 221.215232 309.184725 219.03564 308.281908 216.763284 308.281908 
C 214.490928 308.281908 212.311335 309.184725 210.704537 310.791523 
C 209.097739 312.398321 208.194922 314.577914 208.194922 316.85027 
C 208.194922 319.122626 209.097739 321.302218 210.704537 322.909016 
C 212.311335 324.515815 214.490928 325.418631 216.763284 325.418631 
z
" clip-path="url(#p33c291da17)" style="fill: #322143; fill-opacity: 0.8"/>
    <path d="M 125.752345 125.71461 
C 128.020928 125.71461 130.196902 124.813293 131.801033 123.209162 
C 133.405164 121.605031 134.306482 119.429057 134.306482 117.160474 
C 134.306482 114.89189 133.405164 112.715916 131.801033 111.111786 
C 130.196902 109.507655 128.020928 108.606337 125.752345 108.606337 
C 123.483761 108.606337 121.307788 109.507655 119.703657 111.111786 
C 118.099526 112.715916 117.198208 114.89189 117.198208 117.160474 
C 117.198208 119.429057 118.099526 121.605031 119.703657 123.209162 
C 121.307788 124.813293 123.483761 125.71461 125.752345 125.71461 
z
" clip-path="url(#p33c291da17)" style="fill: #342245; fill-opacity: 0.8"/>
    <path d="M 222.83068 125.71461 
C 225.099263 125.71461 227.275237 124.813293 228.879368 123.209162 
C 230.483498 121.605031 231.384816 119.429057 231.384816 117.160474 
C 231.384816 114.89189 230.483498 112.715916 228.879368 111.111786 
C 227.275237 109.507655 225.099263 108.606337 222.83068 108.606337 
C 220.562096 108.606337 218.386122 109.507655 216.781992 111.111786 
C 215.177861 112.715916 214.276543 114.89189 214.276543 117.160474 
C 214.276543 119.429057 215.177861 121.605031 216.781992 123.209162 
C 218.386122 124.813293 220.562096 125.71461 222.83068 125.71461 
z
" clip-path="url(#p33c291da17)" style="fill: #342245; fill-opacity: 0.8"/>
    <path d="M 174.291512 152.347032 
C 176.561983 152.347032 178.739766 151.444964 180.345232 149.839499 
C 181.950697 148.234034 182.852764 146.05625 182.852764 143.78578 
C 182.852764 141.515309 181.950697 139.337526 180.345232 137.73206 
C 178.739766 136.126595 176.561983 135.224528 174.291512 135.224528 
C 172.021042 135.224528 169.843258 136.126595 168.237793 137.73206 
C 166.632328 139.337526 165.73026 141.515309 165.73026 143.78578 
C 165.73026 146.05625 166.632328 148.234034 168.237793 149.839499 
C 169.843258 151.444964 172.021042 152.347032 174.291512 152.347032 
z
" clip-path="url(#p33c291da17)" style="fill: #322143; fill-opacity: 0.8"/>
    <path d="M 131.819741 165.659685 
C 134.090211 165.659685 136.267995 164.757617 137.87346 163.152152 
C 139.478925 161.546687 140.380993 159.368903 140.380993 157.098433 
C 140.380993 154.827962 139.478925 152.650179 137.87346 151.044713 
C 136.267995 149.439248 134.090211 148.537181 131.819741 148.537181 
C 129.54927 148.537181 127.371487 149.439248 125.766021 151.044713 
C 124.160556 152.650179 123.258489 154.827962 123.258489 157.098433 
C 123.258489 159.368903 124.160556 161.546687 125.766021 163.152152 
C 127.371487 164.757617 129.54927 165.659685 131.819741 165.659685 
z
" clip-path="url(#p33c291da17)" style="fill: #322143; fill-opacity: 0.8"/>
    <path d="M 222.83068 192.284991 
C 225.10115 192.284991 227.278934 191.382924 228.884399 189.777458 
C 230.489864 188.171993 231.391932 185.99421 231.391932 183.723739 
C 231.391932 181.453268 230.489864 179.275485 228.884399 177.67002 
C 227.278934 176.064554 225.10115 175.162487 222.83068 175.162487 
C 220.560209 175.162487 218.382425 176.064554 216.77696 177.67002 
C 215.171495 179.275485 214.269428 181.453268 214.269428 183.723739 
C 214.269428 185.99421 215.171495 188.171993 216.77696 189.777458 
C 218.382425 191.382924 220.560209 192.284991 222.83068 192.284991 
z
" clip-path="url(#p33c291da17)" style="fill: #322143; fill-opacity: 0.8"/>
    <path d="M 119.684949 325.510524 
C 121.981675 325.510524 124.184643 324.598025 125.808673 322.973994 
C 127.432704 321.349963 128.345203 319.146996 128.345203 316.85027 
C 128.345203 314.553543 127.432704 312.350576 125.808673 310.726545 
C 124.184643 309.102515 121.981675 308.190016 119.684949 308.190016 
C 117.388223 308.190016 115.185255 309.102515 113.561225 310.726545 
C 111.937194 312.350576 111.024695 314.553543 111.024695 316.85027 
C 111.024695 319.146996 111.937194 321.349963 113.561225 322.973994 
C 115.185255 324.598025 117.388223 325.510524 119.684949 325.510524 
z
" clip-path="url(#p33c291da17)" style="fill: #2d1e3e; fill-opacity: 0.8"/>
    <path d="M 119.684949 212.352973 
C 121.981675 212.352973 124.184643 211.440474 125.808673 209.816443 
C 127.432704 208.192412 128.345203 205.989445 128.345203 203.692719 
C 128.345203 201.395992 127.432704 199.193025 125.808673 197.568994 
C 124.184643 195.944964 121.981675 195.032465 119.684949 195.032465 
C 117.388223 195.032465 115.185255 195.944964 113.561225 197.568994 
C 111.937194 199.193025 111.024695 201.395992 111.024695 203.692719 
C 111.024695 205.989445 111.937194 208.192412 113.561225 209.816443 
C 115.185255 211.440474 117.388223 212.352973 119.684949 212.352973 
z
" clip-path="url(#p33c291da17)" style="fill: #2d1e3e; fill-opacity: 0.8"/>
    <path d="M 119.684949 225.665626 
C 121.981675 225.665626 124.184643 224.753127 125.808673 223.129096 
C 127.432704 221.505065 128.345203 219.302098 128.345203 217.005372 
C 128.345203 214.708645 127.432704 212.505678 125.808673 210.881647 
C 124.184643 209.257617 121.981675 208.345118 119.684949 208.345118 
C 117.388223 208.345118 115.185255 209.257617 113.561225 210.881647 
C 111.937194 212.505678 111.024695 214.708645 111.024695 217.005372 
C 111.024695 219.302098 111.937194 221.505065 113.561225 223.129096 
C 115.185255 224.753127 117.388223 225.665626 119.684949 225.665626 
z
" clip-path="url(#p33c291da17)" style="fill: #2d1e3e; fill-opacity: 0.8"/>
   </g>
   <g id="PathCollection_2"/>
   <g id="PathCollection_3"/>
   <g id="PathCollection_4"/>
   <g id="PathCollection_5"/>
   <g id="PathCollection_6"/>
   <g id="PathCollection_7"/>
   <g id="line2d_16">
    <path d="M 15.227349 157.098433 
L 521.147349 157.098433 
" clip-path="url(#p33c291da17)" style="fill: none; stroke-dasharray: 12.8,3.2,2,3.2; stroke-dashoffset: 0; stroke: #000000; stroke-opacity: 0.7; stroke-width: 2"/>
   </g>
   <g id="line2d_17">
    <path d="M 213.729586 336.819249 
L 213.729586 10.659249 
" clip-path="url(#p33c291da17)" style="fill: none; stroke-dasharray: 12.8,3.2,2,3.2; stroke-dashoffset: 0; stroke: #000000; stroke-opacity: 0.7; stroke-width: 2"/>
   </g>
   <g id="patch_3">
    <path d="M 44.987349 336.819249 
L 44.987349 10.659249 
" style="fill: none"/>
   </g>
   <g id="patch_4">
    <path d="M 44.987349 336.819249 
L 491.387349 336.819249 
" style="fill: none"/>
   </g>
   <g id="text_18">
    <!-- median($\gamma$) -->
    <g style="opacity: 0.9" transform="translate(446.747349 137.528833)scale(0.12 -0.12)">
     <defs>
      <path id="CMR17-6d" d="M 4326 1954 
C 4326 2276 4269 2816 3507 2816 
C 3072 2816 2771 2520 2656 2173 
L 2650 2173 
C 2573 2700 2195 2816 1837 2816 
C 1331 2816 1069 2424 973 2166 
L 966 2166 
L 966 2816 
L 211 2745 
L 211 2578 
C 589 2578 646 2540 646 2231 
L 646 443 
C 646 198 621 166 211 166 
L 211 0 
C 365 12 646 12 813 12 
C 979 12 1267 12 1421 0 
L 1421 166 
C 1011 166 986 192 986 443 
L 986 1678 
C 986 2269 1344 2713 1792 2713 
C 2266 2713 2317 2289 2317 1980 
L 2317 443 
C 2317 198 2291 166 1882 166 
L 1882 0 
C 2035 12 2317 12 2483 12 
C 2650 12 2938 12 3091 0 
L 3091 166 
C 2682 166 2656 192 2656 443 
L 2656 1678 
C 2656 2269 3014 2713 3462 2713 
C 3936 2713 3987 2289 3987 1980 
L 3987 443 
C 3987 198 3962 166 3552 166 
L 3552 0 
C 3706 12 3987 12 4154 12 
C 4320 12 4608 12 4762 0 
L 4762 166 
C 4352 166 4326 192 4326 443 
L 4326 1954 
z
" transform="scale(0.015625)"/>
      <path id="CMR17-65" d="M 2438 1503 
C 2464 1529 2464 1542 2464 1606 
C 2464 2251 2118 2816 1389 2816 
C 710 2816 173 2175 173 1394 
C 173 554 781 -64 1459 -64 
C 2176 -64 2458 619 2458 755 
C 2458 800 2419 800 2406 800 
C 2362 800 2355 787 2330 709 
C 2189 270 1837 51 1504 51 
C 1229 51 954 206 781 490 
C 582 819 582 1200 582 1503 
L 2438 1503 
z
M 589 1600 
C 634 2511 1126 2713 1382 2713 
C 1818 2713 2112 2308 2118 1600 
L 589 1600 
z
" transform="scale(0.015625)"/>
      <path id="CMR17-64" d="M 1869 4345 
L 1869 4179 
C 2246 4179 2304 4141 2304 3843 
L 2304 2371 
C 2278 2403 2016 2816 1498 2816 
C 845 2816 211 2228 211 1376 
C 211 529 806 -64 1434 -64 
C 1978 -64 2259 361 2291 406 
L 2291 -64 
L 3066 -13 
L 3066 154 
C 2688 154 2630 193 2630 503 
L 2630 4416 
L 1869 4345 
z
M 2291 762 
C 2291 568 2176 393 2029 264 
C 1811 70 1594 38 1472 38 
C 1286 38 621 135 621 1369 
C 621 2636 1363 2713 1530 2713 
C 1824 2713 2061 2545 2208 2313 
C 2291 2177 2291 2157 2291 2041 
L 2291 762 
z
" transform="scale(0.015625)"/>
      <path id="CMR17-69" d="M 992 3961 
C 992 4102 877 4224 730 4224 
C 589 4224 467 4108 467 3961 
C 467 3820 582 3699 730 3699 
C 870 3699 992 3814 992 3961 
z
M 243 2745 
L 243 2579 
C 602 2579 653 2540 653 2231 
L 653 443 
C 653 198 627 166 218 166 
L 218 0 
C 371 12 646 12 806 12 
C 960 12 1222 12 1370 0 
L 1370 166 
C 992 166 979 205 979 436 
L 979 2816 
L 243 2745 
z
" transform="scale(0.015625)"/>
      <path id="CMR17-61" d="M 2304 1656 
C 2304 2048 2304 2275 2035 2534 
C 1798 2751 1523 2816 1306 2816 
C 800 2816 435 2408 435 1977 
C 435 1740 627 1728 666 1728 
C 749 1728 896 1779 896 1958 
C 896 2118 774 2188 666 2188 
C 640 2188 608 2182 589 2176 
C 723 2594 1069 2713 1293 2713 
C 1613 2713 1965 2421 1965 1875 
L 1965 1632 
C 1587 1619 1133 1568 774 1373 
C 371 1147 256 822 256 576 
C 256 77 832 -64 1171 -64 
C 1523 -64 1850 135 1990 505 
C 2003 219 2182 -39 2464 -39 
C 2598 -39 2938 51 2938 563 
L 2938 926 
L 2822 926 
L 2822 557 
C 2822 161 2650 109 2566 109 
C 2304 109 2304 446 2304 732 
L 2304 1656 
z
M 1965 887 
C 1965 323 1568 38 1216 38 
C 896 38 646 278 646 576 
C 646 771 730 1114 1101 1322 
C 1408 1497 1760 1523 1965 1536 
L 1965 887 
z
" transform="scale(0.015625)"/>
      <path id="CMR17-6e" d="M 2656 1954 
C 2656 2282 2592 2816 1837 2816 
C 1331 2816 1069 2424 973 2166 
L 966 2166 
L 966 2816 
L 211 2745 
L 211 2578 
C 589 2578 646 2540 646 2231 
L 646 443 
C 646 198 621 166 211 166 
L 211 0 
C 365 12 646 12 813 12 
C 979 12 1267 12 1421 0 
L 1421 166 
C 1011 166 986 192 986 443 
L 986 1678 
C 986 2269 1344 2713 1792 2713 
C 2266 2713 2317 2289 2317 1980 
L 2317 443 
C 2317 198 2291 166 1882 166 
L 1882 0 
C 2035 12 2317 12 2483 12 
C 2650 12 2938 12 3091 0 
L 3091 166 
C 2682 166 2656 192 2656 443 
L 2656 1954 
z
" transform="scale(0.015625)"/>
      <path id="CMR17-28" d="M 1958 -1562 
C 1958 -1556 1958 -1543 1939 -1524 
C 1645 -1223 858 -403 858 1596 
C 858 3595 1632 4408 1946 4729 
C 1946 4735 1958 4748 1958 4767 
C 1958 4787 1939 4800 1914 4800 
C 1843 4800 1299 4325 986 3620 
C 666 2909 576 2218 576 1603 
C 576 1141 621 360 1005 -467 
C 1312 -1133 1837 -1600 1914 -1600 
C 1946 -1600 1958 -1588 1958 -1562 
z
" transform="scale(0.015625)"/>
      <path id="CMR17-29" d="M 1683 1596 
C 1683 2057 1638 2839 1254 3665 
C 947 4332 422 4800 346 4800 
C 326 4800 301 4793 301 4761 
C 301 4748 307 4742 314 4729 
C 621 4408 1402 3595 1402 1603 
C 1402 -396 627 -1210 314 -1530 
C 307 -1543 301 -1549 301 -1562 
C 301 -1594 326 -1600 346 -1600 
C 416 -1600 960 -1127 1274 -422 
C 1594 289 1683 981 1683 1596 
z
" transform="scale(0.015625)"/>
     </defs>
     <use xlink:href="#CMR17-6d" transform="scale(0.996264)"/>
     <use xlink:href="#CMR17-65" transform="translate(76.91959 0)scale(0.996264)"/>
     <use xlink:href="#CMR17-64" transform="translate(117.40525 0)scale(0.996264)"/>
     <use xlink:href="#CMR17-69" transform="translate(168.30062 0)scale(0.996264)"/>
     <use xlink:href="#CMR17-61" transform="translate(193.171679 0)scale(0.996264)"/>
     <use xlink:href="#CMR17-6e" transform="translate(238.862156 0)scale(0.996264)"/>
     <use xlink:href="#CMR17-28" transform="translate(289.757525 0)scale(0.996264)"/>
     <use xlink:href="#CMMI12-d" transform="translate(325.038293 0)scale(0.996264)"/>
     <use xlink:href="#CMR17-29" transform="translate(381.056861 0)scale(0.996264)"/>
    </g>
   </g>
   <g id="text_19">
    <!-- 0.004 -->
    <g style="opacity: 0.9" transform="translate(446.747349 150.575233)scale(0.12 -0.12)">
     <defs>
      <path id="CMR17-2e" d="M 1062 262 
C 1062 422 934 524 800 524 
C 672 524 538 422 538 262 
C 538 102 666 0 800 0 
C 928 0 1062 102 1062 262 
z
" transform="scale(0.015625)"/>
     </defs>
     <use xlink:href="#CMR17-30" transform="scale(0.996264)"/>
     <use xlink:href="#CMR17-2e" transform="translate(45.690477 0)scale(0.996264)"/>
     <use xlink:href="#CMR17-30" transform="translate(70.561536 0)scale(0.996264)"/>
     <use xlink:href="#CMR17-30" transform="translate(116.252013 0)scale(0.996264)"/>
     <use xlink:href="#CMR17-34" transform="translate(161.94249 0)scale(0.996264)"/>
    </g>
   </g>
   <g id="text_20">
    <!-- median($\nu$) -->
    <g style="opacity: 0.9" transform="translate(228.609586 72.296833)scale(0.12 -0.12)">
     <use xlink:href="#CMR17-6d" transform="scale(0.996264)"/>
     <use xlink:href="#CMR17-65" transform="translate(76.91959 0)scale(0.996264)"/>
     <use xlink:href="#CMR17-64" transform="translate(117.40525 0)scale(0.996264)"/>
     <use xlink:href="#CMR17-69" transform="translate(168.30062 0)scale(0.996264)"/>
     <use xlink:href="#CMR17-61" transform="translate(193.171679 0)scale(0.996264)"/>
     <use xlink:href="#CMR17-6e" transform="translate(238.862156 0)scale(0.996264)"/>
     <use xlink:href="#CMR17-28" transform="translate(289.757525 0)scale(0.996264)"/>
     <use xlink:href="#CMMI12-17" transform="translate(325.038293 0)scale(0.996264)"/>
     <use xlink:href="#CMR17-29" transform="translate(379.521086 0)scale(0.996264)"/>
    </g>
   </g>
   <g id="text_21">
    <!-- 0.032 -->
    <g style="opacity: 0.9" transform="translate(228.609586 85.343233)scale(0.12 -0.12)">
     <use xlink:href="#CMR17-30" transform="scale(0.996264)"/>
     <use xlink:href="#CMR17-2e" transform="translate(45.690477 0)scale(0.996264)"/>
     <use xlink:href="#CMR17-30" transform="translate(70.561536 0)scale(0.996264)"/>
     <use xlink:href="#CMR17-33" transform="translate(116.252013 0)scale(0.996264)"/>
     <use xlink:href="#CMR17-32" transform="translate(161.94249 0)scale(0.996264)"/>
    </g>
   </g>
   <g id="legend_1">
    <g id="text_22">
     <!-- Mean EER per Owner -->
     <g style="fill: #262626" transform="translate(504.315349 22.961429)scale(0.12 -0.12)">
      <defs>
       <path id="CMR17-4d" d="M 1338 4249 
C 1299 4345 1293 4352 1158 4352 
L 339 4352 
L 339 4185 
C 781 4185 851 4185 851 3898 
L 851 624 
C 851 465 851 166 339 166 
L 339 0 
C 486 12 755 12 915 12 
C 1075 12 1344 12 1491 0 
L 1491 166 
C 979 166 979 465 979 624 
L 979 4159 
L 986 4159 
L 2490 102 
C 2515 38 2528 0 2579 0 
C 2630 0 2643 38 2669 102 
L 4186 4191 
L 4192 4191 
L 4192 453 
C 4192 166 4122 166 3680 166 
L 3680 0 
C 3853 12 4198 12 4384 12 
C 4570 12 4922 12 5094 0 
L 5094 166 
C 4653 166 4582 166 4582 453 
L 4582 3898 
C 4582 4185 4653 4185 5094 4185 
L 5094 4352 
L 4282 4352 
C 4147 4352 4141 4345 4102 4249 
L 2720 516 
L 1338 4249 
z
" transform="scale(0.015625)"/>
       <path id="CMR17-45" d="M 3885 1614 
L 3770 1614 
C 3629 676 3546 166 2419 166 
L 1530 166 
C 1274 166 1261 198 1261 415 
L 1261 2176 
L 1862 2176 
C 2464 2176 2522 1959 2522 1429 
L 2637 1429 
L 2637 3086 
L 2522 3086 
C 2522 2558 2464 2342 1862 2342 
L 1261 2342 
L 1261 3924 
C 1261 4141 1274 4172 1530 4172 
L 2406 4172 
C 3398 4172 3514 3778 3603 2933 
L 3718 2933 
L 3565 4339 
L 326 4339 
L 326 4172 
C 768 4172 838 4172 838 3886 
L 838 453 
C 838 166 768 166 326 166 
L 326 0 
L 3654 0 
L 3885 1614 
z
" transform="scale(0.015625)"/>
       <path id="CMR17-52" d="M 2509 2156 
C 3117 2278 3629 2689 3629 3203 
C 3629 3806 2950 4352 2054 4352 
L 333 4352 
L 333 4185 
C 774 4185 845 4185 845 3896 
L 845 428 
C 845 140 774 140 333 140 
L 333 -26 
C 518 -13 851 -13 1050 -13 
C 1248 -13 1581 -13 1766 -26 
L 1766 140 
C 1325 140 1254 140 1254 428 
L 1254 2112 
L 2003 2112 
C 2368 2112 2573 1964 2662 1881 
C 2918 1632 2918 1459 2918 1024 
C 2918 595 2918 377 3110 160 
C 3354 -103 3680 -128 3821 -128 
C 4294 -128 4365 403 4365 512 
C 4365 550 4365 595 4307 595 
C 4256 595 4250 556 4250 531 
C 4218 115 4032 -26 3834 -26 
C 3482 -26 3443 377 3405 768 
C 3386 902 3373 998 3360 1139 
C 3322 1459 3270 1926 2509 2156 
z
M 1984 2214 
L 1254 2214 
L 1254 3935 
C 1254 4153 1267 4185 1523 4185 
L 1990 4185 
C 2522 4185 3142 3999 3142 3203 
C 3142 2374 2464 2214 1984 2214 
z
" transform="scale(0.015625)"/>
       <path id="CMR17-70" d="M 1408 -1114 
C 998 -1114 973 -1088 973 -834 
L 973 380 
C 1158 109 1427 -64 1766 -64 
C 2406 -64 3053 503 3053 1382 
C 3053 2196 2496 2816 1837 2816 
C 1453 2816 1139 2603 960 2345 
L 960 2816 
L 198 2745 
L 198 2577 
C 576 2577 634 2539 634 2228 
L 634 -834 
C 634 -1081 608 -1114 198 -1114 
L 198 -1280 
C 352 -1268 634 -1268 800 -1268 
C 966 -1268 1254 -1268 1408 -1280 
L 1408 -1114 
z
M 973 2015 
C 973 2106 973 2241 1222 2481 
C 1254 2506 1472 2700 1792 2700 
C 2259 2700 2643 2112 2643 1376 
C 2643 639 2234 38 1728 38 
C 1498 38 1248 148 1056 451 
C 973 594 973 632 973 736 
L 973 2015 
z
" transform="scale(0.015625)"/>
       <path id="CMR17-72" d="M 960 1517 
C 960 2134 1222 2713 1702 2713 
C 1747 2713 1792 2707 1837 2687 
C 1837 2687 1696 2642 1696 2475 
C 1696 2321 1818 2257 1914 2257 
C 1990 2257 2131 2302 2131 2482 
C 2131 2687 1926 2816 1709 2816 
C 1222 2816 1011 2340 947 2115 
L 941 2115 
L 941 2816 
L 198 2745 
L 198 2578 
C 576 2578 634 2540 634 2231 
L 634 443 
C 634 198 608 166 198 166 
L 198 0 
C 352 12 646 12 813 12 
C 998 12 1325 12 1498 0 
L 1498 166 
C 1037 166 960 166 960 455 
L 960 1517 
z
" transform="scale(0.015625)"/>
       <path id="CMR17-4f" d="M 4307 2166 
C 4307 3488 3366 4480 2304 4480 
C 1216 4480 294 3475 294 2166 
C 294 857 1229 -128 2298 -128 
C 3392 -128 4307 876 4307 2166 
z
M 2304 -13 
C 1574 -13 781 722 781 2250 
C 781 3771 1651 4364 2298 4364 
C 2976 4364 3821 3752 3821 2250 
C 3821 696 3008 -13 2304 -13 
z
" transform="scale(0.015625)"/>
       <path id="CMR17-77" d="M 3725 2186 
C 3853 2566 4109 2579 4205 2585 
L 4205 2752 
C 4077 2745 3949 2739 3821 2739 
C 3699 2739 3424 2739 3315 2752 
L 3315 2585 
C 3514 2572 3622 2456 3622 2296 
C 3622 2251 3610 2193 3597 2148 
L 2995 398 
L 2342 2296 
C 2330 2341 2310 2392 2310 2418 
C 2310 2585 2528 2585 2630 2585 
L 2630 2752 
C 2483 2739 2214 2739 2061 2739 
C 1901 2739 1734 2739 1587 2752 
L 1587 2585 
C 1939 2585 1939 2572 2074 2167 
L 1485 443 
L 851 2302 
C 819 2386 819 2399 819 2418 
C 819 2585 1037 2585 1139 2585 
L 1139 2752 
C 986 2739 717 2739 557 2739 
C 416 2739 198 2739 64 2752 
L 64 2585 
C 346 2585 416 2566 486 2353 
L 1274 38 
C 1299 -45 1318 -64 1370 -64 
C 1414 -64 1440 -52 1472 44 
L 2131 1987 
L 2797 44 
C 2829 -52 2854 -64 2899 -64 
C 2950 -64 2970 -45 2995 38 
L 3725 2186 
z
" transform="scale(0.015625)"/>
      </defs>
      <use xlink:href="#CMR17-4d" transform="scale(0.996264)"/>
      <use xlink:href="#CMR17-65" transform="translate(84.686941 0)scale(0.996264)"/>
      <use xlink:href="#CMR17-61" transform="translate(125.172601 0)scale(0.996264)"/>
      <use xlink:href="#CMR17-6e" transform="translate(170.863078 0)scale(0.996264)"/>
      <use xlink:href="#CMR17-45" transform="translate(251.834414 0)scale(0.996264)"/>
      <use xlink:href="#CMR17-45" transform="translate(314.420715 0)scale(0.996264)"/>
      <use xlink:href="#CMR17-52" transform="translate(377.007015 0)scale(0.996264)"/>
      <use xlink:href="#CMR17-70" transform="translate(474.874084 0)scale(0.996264)"/>
      <use xlink:href="#CMR17-65" transform="translate(528.371892 0)scale(0.996264)"/>
      <use xlink:href="#CMR17-72" transform="translate(568.857553 0)scale(0.996264)"/>
      <use xlink:href="#CMR17-4f" transform="translate(634.214287 0)scale(0.996264)"/>
      <use xlink:href="#CMR17-77" transform="translate(705.929075 0)scale(0.996264)"/>
      <use xlink:href="#CMR17-6e" transform="translate(772.438956 0)scale(0.996264)"/>
      <use xlink:href="#CMR17-65" transform="translate(823.334326 0)scale(0.996264)"/>
      <use xlink:href="#CMR17-72" transform="translate(863.819986 0)scale(0.996264)"/>
     </g>
     <!-- (Validation Results) -->
     <g style="fill: #262626" transform="translate(504.315349 36.045676)scale(0.12 -0.12)">
      <defs>
       <path id="CMR17-56" d="M 3776 3762 
C 3834 3903 3936 4179 4365 4185 
L 4365 4352 
C 4218 4339 4051 4339 3891 4339 
C 3738 4339 3475 4339 3328 4352 
L 3328 4185 
C 3648 4166 3661 3942 3661 3903 
C 3661 3833 3642 3788 3622 3737 
L 2362 448 
L 1043 3903 
C 1024 3948 1011 3980 1011 4012 
C 1011 4185 1267 4185 1402 4185 
L 1402 4352 
C 1197 4339 896 4339 685 4339 
C 518 4339 218 4339 64 4352 
L 64 4185 
C 435 4185 506 4160 582 3955 
L 2106 -26 
C 2138 -116 2144 -128 2214 -128 
C 2285 -128 2291 -116 2323 -26 
L 3776 3762 
z
" transform="scale(0.015625)"/>
       <path id="CMR17-6c" d="M 979 4416 
L 218 4345 
L 218 4179 
C 595 4179 653 4141 653 3835 
L 653 439 
C 653 198 627 166 218 166 
L 218 0 
C 371 12 653 12 813 12 
C 979 12 1261 12 1414 0 
L 1414 166 
C 1005 166 979 191 979 439 
L 979 4416 
z
" transform="scale(0.015625)"/>
       <path id="CMR17-74" d="M 966 2585 
L 1862 2585 
L 1862 2752 
L 966 2752 
L 966 3968 
L 851 3968 
C 838 3292 614 2700 70 2687 
L 70 2585 
L 627 2585 
L 627 778 
C 627 655 627 -64 1370 -64 
C 1747 -64 1965 308 1965 784 
L 1965 1151 
L 1850 1151 
L 1850 790 
C 1850 347 1677 51 1408 51 
C 1222 51 966 179 966 765 
L 966 2585 
z
" transform="scale(0.015625)"/>
       <path id="CMR17-6f" d="M 2758 1356 
C 2758 2176 2163 2816 1466 2816 
C 768 2816 173 2176 173 1356 
C 173 550 768 -64 1466 -64 
C 2163 -64 2758 550 2758 1356 
z
M 1466 51 
C 1165 51 909 230 762 480 
C 602 768 582 1126 582 1408 
C 582 1676 595 2009 762 2297 
C 890 2508 1139 2713 1466 2713 
C 1754 2713 1997 2553 2150 2329 
C 2349 2028 2349 1606 2349 1408 
C 2349 1158 2336 774 2163 467 
C 1984 172 1709 51 1466 51 
z
" transform="scale(0.015625)"/>
       <path id="CMR17-73" d="M 1978 2688 
C 1978 2803 1971 2809 1933 2809 
C 1907 2809 1901 2803 1824 2707 
C 1805 2681 1747 2617 1728 2592 
C 1523 2809 1235 2816 1126 2816 
C 416 2816 160 2444 160 2073 
C 160 1497 813 1363 998 1324 
C 1402 1241 1542 1216 1677 1100 
C 1760 1024 1901 883 1901 652 
C 1901 384 1747 38 1158 38 
C 602 38 403 460 288 1024 
C 269 1113 269 1120 218 1120 
C 166 1120 160 1113 160 985 
L 160 64 
C 160 -52 166 -58 205 -58 
C 237 -58 243 -52 275 0 
C 314 57 410 211 448 275 
C 576 102 800 -64 1158 -64 
C 1792 -64 2131 281 2131 780 
C 2131 1107 1958 1280 1875 1356 
C 1683 1555 1459 1600 1190 1651 
C 838 1728 390 1817 390 2208 
C 390 2374 480 2726 1126 2726 
C 1811 2726 1850 2086 1862 1881 
C 1869 1849 1901 1843 1920 1843 
C 1978 1843 1978 1862 1978 1971 
L 1978 2688 
z
" transform="scale(0.015625)"/>
       <path id="CMR17-75" d="M 1882 2745 
L 1882 2579 
C 2259 2579 2317 2540 2317 2229 
L 2317 1053 
C 2317 510 2029 38 1555 38 
C 1030 38 986 355 986 691 
L 986 2816 
L 211 2745 
L 211 2579 
C 467 2579 640 2579 646 2320 
L 646 1079 
C 646 646 646 368 813 187 
C 896 103 1056 -64 1517 -64 
C 2061 -64 2272 400 2323 536 
L 2330 536 
L 2330 -64 
L 3091 -13 
L 3091 154 
C 2714 154 2656 193 2656 503 
L 2656 2816 
L 1882 2745 
z
" transform="scale(0.015625)"/>
      </defs>
      <use xlink:href="#CMR17-28" transform="scale(0.996264)"/>
      <use xlink:href="#CMR17-56" transform="translate(35.280768 0)scale(0.996264)"/>
      <use xlink:href="#CMR17-61" transform="translate(96.545942 0)scale(0.996264)"/>
      <use xlink:href="#CMR17-6c" transform="translate(142.236419 0)scale(0.996264)"/>
      <use xlink:href="#CMR17-69" transform="translate(167.107478 0)scale(0.996264)"/>
      <use xlink:href="#CMR17-64" transform="translate(191.978536 0)scale(0.996264)"/>
      <use xlink:href="#CMR17-61" transform="translate(242.873906 0)scale(0.996264)"/>
      <use xlink:href="#CMR17-74" transform="translate(288.564383 0)scale(0.996264)"/>
      <use xlink:href="#CMR17-69" transform="translate(323.845151 0)scale(0.996264)"/>
      <use xlink:href="#CMR17-6f" transform="translate(348.716209 0)scale(0.996264)"/>
      <use xlink:href="#CMR17-6e" transform="translate(394.406687 0)scale(0.996264)"/>
      <use xlink:href="#CMR17-52" transform="translate(475.378023 0)scale(0.996264)"/>
      <use xlink:href="#CMR17-65" transform="translate(543.169125 0)scale(0.996264)"/>
      <use xlink:href="#CMR17-73" transform="translate(583.654785 0)scale(0.996264)"/>
      <use xlink:href="#CMR17-75" transform="translate(619.456123 0)scale(0.996264)"/>
      <use xlink:href="#CMR17-6c" transform="translate(670.351493 0)scale(0.996264)"/>
      <use xlink:href="#CMR17-74" transform="translate(695.222551 0)scale(0.996264)"/>
      <use xlink:href="#CMR17-73" transform="translate(730.503319 0)scale(0.996264)"/>
      <use xlink:href="#CMR17-29" transform="translate(766.304656 0)scale(0.996264)"/>
     </g>
    </g>
    <g id="PathCollection_8">
     <defs>
      <path id="mc1d81e7fe5" d="M 0 4.251892 
C 1.127615 4.251892 2.209197 3.803886 3.006542 3.006542 
C 3.803886 2.209197 4.251892 1.127615 4.251892 0 
C 4.251892 -1.127615 3.803886 -2.209197 3.006542 -3.006542 
C 2.209197 -3.803886 1.127615 -4.251892 0 -4.251892 
C -1.127615 -4.251892 -2.209197 -3.803886 -3.006542 -3.006542 
C -3.803886 -2.209197 -4.251892 -1.127615 -4.251892 0 
C -4.251892 1.127615 -3.803886 2.209197 -3.006542 3.006542 
C -2.209197 3.803886 -1.127615 4.251892 0 4.251892 
z
" style="stroke: #e1b1b4; stroke-width: 0.24"/>
     </defs>
     <g>
      <use xlink:href="#mc1d81e7fe5" x="548.927578" y="53.409468" style="fill: #e1b1b4; stroke: #e1b1b4; stroke-width: 0.24"/>
     </g>
    </g>
    <g id="text_23">
     <!-- $\mathdefault{0.30}$ -->
     <g style="fill: #262626" transform="translate(566.927578 56.034468)scale(0.1 -0.1)">
      <use xlink:href="#CMR17-30" transform="scale(0.996264)"/>
      <use xlink:href="#CMMI12-3a" transform="translate(45.690477 0)scale(0.996264)"/>
      <use xlink:href="#CMR17-33" transform="translate(72.787654 0)scale(0.996264)"/>
      <use xlink:href="#CMR17-30" transform="translate(118.478131 0)scale(0.996264)"/>
     </g>
    </g>
    <g id="PathCollection_9">
     <defs>
      <path id="md3216ed0ff" d="M 0 5.427971 
C 1.439515 5.427971 2.820264 4.856046 3.838155 3.838155 
C 4.856046 2.820264 5.427971 1.439515 5.427971 0 
C 5.427971 -1.439515 4.856046 -2.820264 3.838155 -3.838155 
C 2.820264 -4.856046 1.439515 -5.427971 0 -5.427971 
C -1.439515 -5.427971 -2.820264 -4.856046 -3.838155 -3.838155 
C -4.856046 -2.820264 -5.427971 -1.439515 -5.427971 0 
C -5.427971 1.439515 -4.856046 2.820264 -3.838155 3.838155 
C -2.820264 4.856046 -1.439515 5.427971 0 5.427971 
z
" style="stroke: #cb8ca0; stroke-width: 0.24"/>
     </defs>
     <g>
      <use xlink:href="#md3216ed0ff" x="548.927578" y="72.346646" style="fill: #cb8ca0; stroke: #cb8ca0; stroke-width: 0.24"/>
     </g>
    </g>
    <g id="text_24">
     <!-- $\mathdefault{0.24}$ -->
     <g style="fill: #262626" transform="translate(566.927578 74.971646)scale(0.1 -0.1)">
      <use xlink:href="#CMR17-30" transform="scale(0.996264)"/>
      <use xlink:href="#CMMI12-3a" transform="translate(45.690477 0)scale(0.996264)"/>
      <use xlink:href="#CMR17-32" transform="translate(72.787654 0)scale(0.996264)"/>
      <use xlink:href="#CMR17-34" transform="translate(118.478131 0)scale(0.996264)"/>
     </g>
    </g>
    <g id="PathCollection_10">
     <defs>
      <path id="m719f69deb4" d="M 0 6.391178 
C 1.69496 6.391178 3.320727 5.717763 4.519245 4.519245 
C 5.717763 3.320727 6.391178 1.69496 6.391178 0 
C 6.391178 -1.69496 5.717763 -3.320727 4.519245 -4.519245 
C 3.320727 -5.717763 1.69496 -6.391178 0 -6.391178 
C -1.69496 -6.391178 -3.320727 -5.717763 -4.519245 -4.519245 
C -5.717763 -3.320727 -6.391178 -1.69496 -6.391178 0 
C -6.391178 1.69496 -5.717763 3.320727 -4.519245 4.519245 
C -3.320727 5.717763 -1.69496 6.391178 0 6.391178 
z
" style="stroke: #ac6a90; stroke-width: 0.24"/>
     </defs>
     <g>
      <use xlink:href="#m719f69deb4" x="548.927578" y="91.283825" style="fill: #ac6a90; stroke: #ac6a90; stroke-width: 0.24"/>
     </g>
    </g>
    <g id="text_25">
     <!-- $\mathdefault{0.18}$ -->
     <g style="fill: #262626" transform="translate(566.927578 93.908825)scale(0.1 -0.1)">
      <use xlink:href="#CMR17-30" transform="scale(0.996264)"/>
      <use xlink:href="#CMMI12-3a" transform="translate(45.690477 0)scale(0.996264)"/>
      <use xlink:href="#CMR17-31" transform="translate(72.787654 0)scale(0.996264)"/>
      <use xlink:href="#CMR17-38" transform="translate(118.478131 0)scale(0.996264)"/>
     </g>
    </g>
    <g id="PathCollection_11">
     <defs>
      <path id="m8f12cdcfb7" d="M 0 7.227132 
C 1.916658 7.227132 3.755072 6.465636 5.110354 5.110354 
C 6.465636 3.755072 7.227132 1.916658 7.227132 0 
C 7.227132 -1.916658 6.465636 -3.755072 5.110354 -5.110354 
C 3.755072 -6.465636 1.916658 -7.227132 0 -7.227132 
C -1.916658 -7.227132 -3.755072 -6.465636 -5.110354 -5.110354 
C -6.465636 -3.755072 -7.227132 -1.916658 -7.227132 0 
C -7.227132 1.916658 -6.465636 3.755072 -5.110354 5.110354 
C -3.755072 6.465636 -1.916658 7.227132 0 7.227132 
z
" style="stroke: #854d7e; stroke-width: 0.24"/>
     </defs>
     <g>
      <use xlink:href="#m8f12cdcfb7" x="548.927578" y="110.221003" style="fill: #854d7e; stroke: #854d7e; stroke-width: 0.24"/>
     </g>
    </g>
    <g id="text_26">
     <!-- $\mathdefault{0.12}$ -->
     <g style="fill: #262626" transform="translate(566.927578 112.846003)scale(0.1 -0.1)">
      <use xlink:href="#CMR17-30" transform="scale(0.996264)"/>
      <use xlink:href="#CMMI12-3a" transform="translate(45.690477 0)scale(0.996264)"/>
      <use xlink:href="#CMR17-31" transform="translate(72.787654 0)scale(0.996264)"/>
      <use xlink:href="#CMR17-32" transform="translate(118.478131 0)scale(0.996264)"/>
     </g>
    </g>
    <g id="PathCollection_12">
     <defs>
      <path id="mb1234072a7" d="M 0 7.975946 
C 2.115246 7.975946 4.144141 7.13555 5.639846 5.639846 
C 7.13555 4.144141 7.975946 2.115246 7.975946 0 
C 7.975946 -2.115246 7.13555 -4.144141 5.639846 -5.639846 
C 4.144141 -7.13555 2.115246 -7.975946 0 -7.975946 
C -2.115246 -7.975946 -4.144141 -7.13555 -5.639846 -5.639846 
C -7.13555 -4.144141 -7.975946 -2.115246 -7.975946 0 
C -7.975946 2.115246 -7.13555 4.144141 -5.639846 5.639846 
C -4.144141 7.13555 -2.115246 7.975946 0 7.975946 
z
" style="stroke: #583463; stroke-width: 0.24"/>
     </defs>
     <g>
      <use xlink:href="#mb1234072a7" x="548.927578" y="129.158181" style="fill: #583463; stroke: #583463; stroke-width: 0.24"/>
     </g>
    </g>
    <g id="text_27">
     <!-- $\mathdefault{0.06}$ -->
     <g style="fill: #262626" transform="translate(566.927578 131.783181)scale(0.1 -0.1)">
      <use xlink:href="#CMR17-30" transform="scale(0.996264)"/>
      <use xlink:href="#CMMI12-3a" transform="translate(45.690477 0)scale(0.996264)"/>
      <use xlink:href="#CMR17-30" transform="translate(72.787654 0)scale(0.996264)"/>
      <use xlink:href="#CMR17-36" transform="translate(118.478131 0)scale(0.996264)"/>
     </g>
    </g>
    <g id="PathCollection_13">
     <defs>
      <path id="m843ea163b3" d="M 0 8.660254 
C 2.296726 8.660254 4.499694 7.747755 6.123724 6.123724 
C 7.747755 4.499694 8.660254 2.296726 8.660254 0 
C 8.660254 -2.296726 7.747755 -4.499694 6.123724 -6.123724 
C 4.499694 -7.747755 2.296726 -8.660254 0 -8.660254 
C -2.296726 -8.660254 -4.499694 -7.747755 -6.123724 -6.123724 
C -7.747755 -4.499694 -8.660254 -2.296726 -8.660254 0 
C -8.660254 2.296726 -7.747755 4.499694 -6.123724 6.123724 
C -4.499694 7.747755 -2.296726 8.660254 0 8.660254 
z
" style="stroke: #2d1e3e; stroke-width: 0.24"/>
     </defs>
     <g>
      <use xlink:href="#m843ea163b3" x="548.927578" y="148.09536" style="fill: #2d1e3e; stroke: #2d1e3e; stroke-width: 0.24"/>
     </g>
    </g>
    <g id="text_28">
     <!-- $\mathdefault{0.00}$ -->
     <g style="fill: #262626" transform="translate(566.927578 150.72036)scale(0.1 -0.1)">
      <use xlink:href="#CMR17-30" transform="scale(0.996264)"/>
      <use xlink:href="#CMMI12-3a" transform="translate(45.690477 0)scale(0.996264)"/>
      <use xlink:href="#CMR17-30" transform="translate(72.787654 0)scale(0.996264)"/>
      <use xlink:href="#CMR17-30" transform="translate(118.478131 0)scale(0.996264)"/>
     </g>
    </g>
   </g>
  </g>
 </g>
 <defs>
  <clipPath id="p33c291da17">
   <rect x="44.987349" y="10.659249" width="446.4" height="326.16"/>
  </clipPath>
 </defs>
</svg>
